<svg viewBox="0 0 3000 3000" height="512" width="512" xmlns="http://www.w3.org/2000/svg">
  <path clip-rule="evenodd" d="M 1896.281 988.863 C 1811.724 941.173 1720.002 908.267 1623.633 893.004 C 1617.059 727.753 1426.792 520.978 1408.097 616.81 C 1413.996 665.918 1425.712 714.37 1424.678 766.265 C 1389.268 752.716 1279.472 757.915 1290.852 807.758 C 1293.157 816.228 1296.745 821.151 1305.28 826.937 C 1334.19 847.517 1345.839 869.181 1358.579 896.033 C 1268.725 912.387 1183.102 944.109 1103.72 988.863 C 1090.314 832.084 1040.761 675.644 971.081 540.832 C 963.657 526.465 945.968 520.834 931.601 528.258 C 917.24 535.682 911.603 553.371 919.027 567.733 C 989.697 704.462 1038.798 864.528 1047.418 1023.487 C 1000.689 1054.694 956.492 1090.583 915.313 1130.626 C 746.871 1079.25 591.135 969.24 506.379 831.621 C 522.932 811.107 538.899 789.346 554.01 766.576 C 622.482 866.256 706.012 951.064 799.852 1023.189 C 1005.123 1196.759 889.09 931.168 850.718 838.356 C 802.074 734.196 735.433 644.85 651.077 569.578 C 659.225 541.243 627.473 521.856 606.134 537.027 C 580.543 571.064 574.582 619.688 550.78 656.797 C 492.042 770.615 402.232 878.69 304.271 934.005 C 91.2 1053.61 111.038 753.353 142.247 614.399 C 173.902 474.452 245.396 325.291 359.803 247.291 C 556.076 116.993 698.517 267.743 833.9 420.888 C 861.984 431.54 883.361 399.735 869.207 377.87 C 525.015 -73.092 237.966 216.892 143.341 429.443 C -43.177 856.624 108.541 1236.988 466.271 877.664 C 554.894 1011.826 705.181 1120.758 870.128 1177.547 C 730.546 1332.352 632.132 1538.016 596.73 1769.578 C 167.206 1932.659 202.189 2530.835 639.972 2647.641 C 620.732 2712.371 585.919 2770.47 562.631 2831.564 C 562.207 2859.168 595.151 2869.654 612.125 2853.156 C 649.427 2793.63 673.97 2726.097 698.261 2658.189 C 916.474 2680.924 832.327 2586.871 809.872 2598.313 C 589.883 2630.358 392.682 2480.171 356.301 2270.171 C 313.748 2016.053 512.073 1799.925 753.348 1801.455 C 781.319 1799.327 788.692 1764.672 769.377 1749.388 C 742.645 1732.567 673.52 1751.338 658.962 1752.207 C 710.529 1472.885 843.9 1243.674 1057.82 1087.201 C 1378.161 863.242 1513.487 1035.93 1380.198 818.299 C 1403.559 818.203 1424.939 828.928 1447.193 837.636 C 1505.74 848.583 1477.715 726.4 1479.567 700.965 C 1598.147 842.95 1545.249 930.89 1582.349 944.699 C 1991.055 1002.086 2268.377 1345.497 2341.036 1752.207 C 2294.537 1744.098 2247.526 1737.812 2232.362 1748.104 C 2196.509 1784.054 2238.966 1807.362 2274.562 1802.344 C 2581.42 1833.601 2606.73 2077.427 2641.226 2065.882 C 2732.786 2066.558 2605.544 1910.825 2584.854 1889.2 C 2535.209 1835.92 2473.213 1794.608 2403.269 1769.574 C 2367.855 1538.006 2269.453 1332.359 2129.871 1177.549 C 2294.807 1120.778 2445.123 1011.828 2533.728 877.666 C 2614.589 964.351 2730.528 1042.587 2827.899 1012.438 C 3020.057 941.269 2916.426 503.326 2821.144 362.007 C 2725.323 197.43 2554.599 94.685 2394.623 158.286 C 2109.055 273.054 1917.125 701.132 1896.281 988.863 Z M 2289.141 2659.459 C 2315.438 2727.161 2336.435 2801.22 2380.301 2857.245 C 2402.553 2870.621 2428.068 2849.568 2423.931 2827.021 C 2397.815 2769.333 2367.91 2712.774 2347.981 2650.471 C 2692.106 2576.53 2767.131 2146.981 2658.314 2217.477 C 2645.02 2227.908 2648.368 2245.301 2645.08 2261.691 C 2612.354 2480.524 2407.78 2631.272 2187.763 2598.057 C 2167.499 2596.373 2151.41 2616.861 2158.172 2636.817 C 2165.78 2672.384 2274.783 2658.752 2289.141 2659.459 Z M 1500.029 1722.58 C 1455.341 1723.236 1337.722 1732.798 1337.657 1767.039 C 1338.75 1836.739 1399.132 1910.553 1470.703 1970.824 L 1470.703 2117.578 C 1231.613 2155.497 1249.677 2489.12 1486.642 2505.213 C 1731.564 2504.454 1761.126 2169.18 1529.297 2119.429 L 1529.297 1970.759 C 1605.135 1906.745 1640.654 1840.019 1649.502 1776.269 C 1651.459 1762.142 1642.963 1748.66 1629.375 1744.33 C 1583.936 1729.852 1545.469 1722.627 1500.029 1722.58 Z M 1486.131 2175.018 C 1312.874 2192.363 1318.638 2432.527 1486.661 2446.564 C 1663.966 2448.01 1680.049 2203.582 1511.901 2175.985 C 1505.309 2179.045 1494.338 2179.644 1486.131 2175.018 Z M 1940.766 2184.627 C 2142.593 2297.664 2171.893 2336.894 2189.575 2281.283 C 2191.424 2249.541 2161.25 2247.767 2135.917 2229.634 C 2088.754 2202.409 2012.39 2158.321 1982.522 2141.078 C 1933.931 2106.081 1908.455 2165.664 1940.766 2184.627 Z M 1029.938 2133.885 C 831.125 2252.153 782.501 2257.915 821.827 2301.026 C 848.394 2318.499 865.011 2293.259 893.384 2280.385 C 940.544 2253.154 1016.909 2209.064 1046.776 2191.82 C 1101.38 2167.236 1062.513 2115.383 1029.938 2133.885 Z M 2704.904 2147.789 C 2702.314 2067.286 2645.748 2088.739 2642.147 2117.381 C 2641.142 2212.381 2709.896 2181.871 2704.904 2147.789 Z M 1044.586 2035.553 L 886.934 2035.553 C 870.762 2035.553 857.637 2048.684 857.637 2064.85 C 857.637 2081.022 870.762 2094.147 886.934 2094.147 L 1044.586 2094.147 C 1060.752 2094.147 1073.883 2081.022 1073.883 2064.85 C 1073.883 2048.684 1060.752 2035.553 1044.586 2035.553 Z M 1955.414 2094.146 L 2113.066 2094.146 C 2129.238 2094.146 2142.363 2081.021 2142.363 2064.849 C 2142.363 2048.683 2129.238 2035.552 2113.066 2035.552 L 1955.414 2035.552 C 1939.248 2035.552 1926.117 2048.683 1926.117 2064.849 C 1926.117 2081.021 1939.248 2094.146 1955.414 2094.146 Z M 1059.234 1945.072 C 857.389 1832.03 828.101 1792.81 810.425 1848.419 C 808.575 1880.157 838.751 1881.933 864.083 1900.066 C 911.246 1927.291 987.61 1971.378 1017.478 1988.622 C 1066.069 2023.618 1091.546 1964.036 1059.234 1945.072 Z M 1970.063 1995.814 C 2168.88 1877.543 2217.5 1871.785 2178.174 1828.673 C 2151.614 1811.202 2134.988 1836.447 2106.617 1849.319 C 2059.457 1876.549 1983.092 1920.636 1953.225 1937.88 C 1898.62 1962.462 1937.487 2014.317 1970.063 1995.814 Z M 1500 1781.174 C 1468.945 1781.209 1434.135 1785.141 1401.475 1792.934 C 1415.766 1834.805 1450.928 1876.963 1499.836 1918.782 C 1546.981 1877.016 1574.519 1834.612 1586.314 1792.759 C 1557.398 1785.123 1530.533 1781.209 1500 1781.174 Z M 939.369 1500 C 940.085 1611.195 1057.541 1677.219 1151.793 1626.357 C 1250.321 1573.698 1243.542 1429.146 1174.785 1481.679 C 1170.078 1487.602 1168.27 1493.973 1168.314 1502.383 C 1164.932 1583.451 1067.85 1611.74 1019.135 1556.186 C 992.012 1526.781 1002.596 1496.308 992.805 1483.401 C 975.369 1458.564 939.262 1473.11 939.369 1500 Z M 1773.059 1500 C 1773.776 1611.197 1891.228 1677.219 1985.481 1626.357 C 2084.012 1573.699 2077.232 1429.146 2008.475 1481.679 C 2003.768 1487.602 2001.96 1493.974 2002.005 1502.383 C 1998.624 1583.447 1901.539 1611.742 1852.825 1556.186 C 1825.703 1526.781 1836.286 1496.308 1826.495 1483.401 C 1809.059 1458.564 1772.952 1473.11 1773.059 1500 Z M 2553.029 811.746 C 2918.406 1201.663 2924.872 741.872 2816.02 482.293 C 2725.282 260.223 2526.99 103.589 2322.538 264.294 C 2102.002 434.398 1966.156 762.482 1952.584 1023.486 C 1999.313 1054.693 2043.504 1090.582 2084.689 1130.625 C 2253.123 1079.256 2408.853 969.252 2493.621 831.621 C 2477.068 811.101 2461.101 789.34 2445.99 766.576 C 2377.518 866.256 2293.988 951.064 2200.148 1023.189 C 1994.877 1196.759 2110.91 931.168 2149.282 838.356 C 2197.926 734.196 2264.567 644.85 2348.923 569.578 C 2339.325 529.084 2395.242 516.877 2405.621 554.393 C 2437.761 649.103 2489.663 737.283 2553.029 811.746 Z M 628.699 628.57 C 616.57 657.006 602.789 684.779 587.713 711.556 C 657.311 818.73 743.865 907.266 842.754 982.23 C 800.338 840.914 728.824 723.182 628.699 628.57 Z M 2371.301 628.57 C 2271.176 723.181 2199.662 840.914 2157.246 982.23 C 2256.135 907.265 2342.689 818.73 2412.287 711.556 C 2397.211 684.773 2383.43 657.006 2371.301 628.57 Z M 931.822 470.625 C 898.953 401.529 859.489 438.27 861.825 463.168 C 892.106 555.32 952.215 503.847 931.822 470.625 Z" fill-rule="evenodd" />
</svg>