<svg id="Layer_1" enable-background="new 0 0 3000 3000" height="512" viewBox="0 0 3000 3000" width="512" xmlns="http://www.w3.org/2000/svg"><path clip-rule="evenodd" d="m1896.281 988.863c-84.557-47.69-176.279-80.596-272.648-95.859-6.574-165.251-196.841-372.026-215.536-276.194 5.899 49.108 17.615 97.56 16.581 149.455-35.41-13.549-145.206-8.35-133.826 41.493 2.305 8.47 5.893 13.393 14.428 19.179 28.91 20.58 40.559 42.244 53.299 69.096-89.854 16.354-175.477 48.076-254.859 92.83-13.406-156.779-62.959-313.219-132.639-448.031-7.424-14.367-25.113-19.998-39.48-12.574-14.361 7.424-19.998 25.113-12.574 39.475 70.67 136.729 119.771 296.795 128.391 455.754-46.729 31.207-90.926 67.096-132.105 107.139-168.442-51.376-324.178-161.386-408.934-299.005 16.553-20.514 32.52-42.275 47.631-65.045 68.472 99.68 152.002 184.488 245.842 256.613 205.271 173.57 89.238-92.021 50.866-184.833-48.644-104.16-115.285-193.506-199.641-268.778 8.148-28.335-23.604-47.722-44.943-32.551-25.591 34.037-31.552 82.661-55.354 119.77-58.738 113.818-148.548 221.893-246.509 277.208-213.071 119.605-193.233-180.652-162.024-319.606 31.655-139.947 103.149-289.108 217.556-367.108 196.273-130.298 338.714 20.452 474.097 173.597 28.084 10.652 49.461-21.153 35.307-43.018-344.192-450.962-631.241-160.978-725.866 51.573-186.518 427.181-34.8 807.545 322.93 448.221 88.623 134.162 238.91 243.094 403.857 299.883-139.582 154.805-237.996 360.469-273.398 592.031-429.524 163.081-394.541 761.257 43.242 878.063-19.24 64.73-54.053 122.829-77.341 183.923-.424 27.604 32.52 38.09 49.494 21.592 37.302-59.526 61.845-127.059 86.136-194.967 218.213 22.735 134.066-71.318 111.611-59.876-219.989 32.045-417.19-118.142-453.571-328.142-42.553-254.118 155.772-470.246 397.047-468.716 27.971-2.128 35.344-36.783 16.029-52.067-26.732-16.821-95.857 1.95-110.415 2.819 51.567-279.322 184.938-508.533 398.858-665.006 320.341-223.959 455.667-51.271 322.378-268.902 23.361-.096 44.741 10.629 66.995 19.337 58.547 10.947 30.522-111.236 32.374-136.671 118.58 141.985 65.682 229.925 102.782 243.734 408.706 57.387 686.028 400.798 758.687 807.508-46.499-8.109-93.51-14.395-108.674-4.103-35.853 35.95 6.604 59.258 42.2 54.24 306.858 31.257 332.168 275.083 366.664 263.538 91.56.676-35.682-155.057-56.372-176.682-49.645-53.28-111.641-94.592-181.585-119.626-35.414-231.568-133.816-437.215-273.398-592.025 164.936-56.771 315.252-165.721 403.857-299.883 80.861 86.685 196.8 164.921 294.171 134.772 192.158-71.169 88.527-509.112-6.755-650.431-95.821-164.577-266.545-267.322-426.521-203.721-285.568 114.768-477.498 542.846-498.342 830.577zm392.86 1670.596c26.297 67.702 47.294 141.761 91.16 197.786 22.252 13.376 47.767-7.677 43.63-30.224-26.116-57.688-56.021-114.247-75.95-176.55 344.125-73.941 419.15-503.49 310.333-432.994-13.294 10.431-9.946 27.824-13.234 44.214-32.726 218.833-237.3 369.581-457.317 336.366-20.264-1.684-36.353 18.804-29.591 38.76 7.608 35.567 116.611 21.935 130.969 22.642zm-789.112-936.879c-44.688.656-162.307 10.218-162.372 44.459 1.093 69.7 61.475 143.514 133.046 203.785v146.754c-239.09 37.919-221.026 371.542 15.939 387.635 244.922-.759 274.484-336.033 42.655-385.784v-148.67c75.838-64.014 111.357-130.74 120.205-194.49 1.957-14.127-6.539-27.609-20.127-31.939-45.439-14.478-83.906-21.703-129.346-21.75zm-13.898 452.438c-173.257 17.345-167.493 257.509.53 271.546 177.305 1.446 193.388-242.982 25.24-270.579-6.592 3.06-17.563 3.659-25.77-.967zm454.635 9.609c201.827 113.037 231.127 152.267 248.809 96.656 1.849-31.742-28.325-33.516-53.658-51.649-47.163-27.225-123.527-71.313-153.395-88.556-48.591-34.997-74.067 24.586-41.756 43.549zm-910.828-50.742c-198.813 118.268-247.437 124.03-208.111 167.141 26.567 17.473 43.184-7.767 71.557-20.641 47.16-27.231 123.525-71.321 153.392-88.565 54.604-24.584 15.737-76.437-16.838-57.935zm1674.966 13.904c-2.59-80.503-59.156-59.05-62.757-30.408-1.005 95 67.749 64.49 62.757 30.408zm-1050.767-138.961h56.789c.034-.012-81.371 81.355-81.416 81.416-28.751 44.302 20.184 53.784 45.199 50.012 34.455.003 93.989.003 105.156.003 45.875-1.615 39.776-66.395-11.04-58.592-17.909-.002-47.651-.002-47.874-.002 6.92-8.129 85.056-82.229 87.133-89.494 14.558-52.933-39.896-40.625-79.98-41.937-34.383 0-72.594 0-73.938 0-39.382 1.795-38.197 57.085-.029 58.594zm-609.551 26.725h-157.652c-16.172 0-29.297 13.131-29.297 29.297 0 16.172 13.125 29.297 29.297 29.297h157.652c16.166 0 29.297-13.125 29.297-29.297 0-16.166-13.131-29.297-29.297-29.297zm910.828 58.593h157.652c16.172 0 29.297-13.125 29.297-29.297 0-16.166-13.125-29.297-29.297-29.297h-157.652c-16.166 0-29.297 13.131-29.297 29.297 0 16.172 13.131 29.297 29.297 29.297zm-896.18-149.074c-201.845-113.042-231.133-152.262-248.809-96.653-1.85 31.738 28.326 33.514 53.658 51.647 47.163 27.225 123.527 71.312 153.395 88.556 48.591 34.996 74.068-24.586 41.756-43.55zm910.829 50.742c198.817-118.271 247.437-124.029 208.111-167.141-26.56-17.471-43.186 7.774-71.557 20.646-47.16 27.23-123.525 71.317-153.392 88.561-54.605 24.582-15.738 76.437 16.838 57.934zm-470.063-214.64c-31.055.035-65.865 3.967-98.525 11.76 14.291 41.871 49.453 84.029 98.361 125.848 47.145-41.766 74.683-84.17 86.478-126.023-28.916-7.636-55.781-11.55-86.314-11.585zm306.264 6.023h56.789c.034-.012-81.371 81.355-81.416 81.416-28.689 43.932 20.002 53.837 44.219 50.013 34.256.003 94.751.003 106.106.003 45.844-1.542 39.89-66.383-11.009-58.592-17.907-.002-47.646-.002-47.869-.002 6.919-8.129 85.057-82.229 87.132-89.494 14.557-52.935-39.899-40.623-79.985-41.937-34.382 0-72.593 0-73.938 0-39.382 1.799-38.196 57.08-.029 58.593zm-866.895-287.197c.716 111.195 118.172 177.219 212.424 126.357 98.528-52.659 91.749-197.211 22.992-144.678-4.707 5.923-6.515 12.294-6.471 20.704-3.382 81.068-100.464 109.357-149.179 53.803-27.123-29.405-16.539-59.878-26.33-72.785-17.436-24.837-53.543-10.291-53.436 16.599zm833.69 0c.717 111.197 118.169 177.219 212.422 126.357 98.531-52.658 91.751-197.211 22.994-144.678-4.707 5.923-6.515 12.295-6.47 20.704-3.381 81.064-100.466 109.359-149.18 53.803-27.122-29.405-16.539-59.878-26.33-72.785-17.436-24.837-53.543-10.291-53.436 16.599zm779.97-688.254c365.377 389.917 371.843-69.874 262.991-329.453-90.738-222.07-289.03-378.704-493.482-217.999-220.536 170.104-356.382 498.188-369.954 759.192 46.729 31.207 90.92 67.096 132.105 107.139 168.434-51.369 324.164-161.373 408.932-299.004-16.553-20.52-32.52-42.281-47.631-65.045-68.472 99.68-152.002 184.488-245.842 256.613-205.271 173.57-89.238-92.021-50.866-184.833 48.644-104.16 115.285-193.506 199.641-268.778-9.598-40.494 46.319-52.701 56.698-15.185 32.14 94.71 84.042 182.89 147.408 257.353zm-1924.33-183.176c-12.129 28.436-25.91 56.209-40.986 82.986 69.598 107.174 156.152 195.71 255.041 270.674-42.416-141.316-113.93-259.048-214.055-353.66zm1742.602 0c-100.125 94.611-171.639 212.344-214.055 353.66 98.889-74.965 185.443-163.5 255.041-270.674-15.076-26.783-28.857-54.55-40.986-82.986zm-1439.479-157.945c-32.869-69.096-72.333-32.355-69.997-7.457 30.281 92.152 90.39 40.679 69.997 7.457z" fill-rule="evenodd"/></svg>