<svg xmlns="http://www.w3.org/2000/svg" viewBox="0 0 200 200">
  <defs/>
  <circle cx="100" cy="100" r="100" fill="#505050"/>
  <path fill="#dcdcdc" d="M122.8 177.5c0-3.2 1-8.1 2.4-10.9 2.2-4.6 2.7-4.7 6.7-2 4.7 3 17.4 3.8 21.8 1.1 2.1-1.2 2.2-2.7.3-6.6-2-4.2-1.7-6 1.4-10.5 5.3-7.8 4.8-22-1.3-34-7.2-14.2-24.5-30-36.2-33-7.9-2-9.5-3.3-10.6-8.2-2-9.9-1.4-15 3-22.8 6.3-11.3 5.5-34.3-1.2-34.3-5.5 0-17.4 12.2-21 21.5-4.8 12.4-7 14.5-7 6.7 0-6.7-7.2-22.2-10.2-22.2-3.4 0-6.6 10.4-6.6 21.8 0 10.8-.5 12-6.5 16.1-7.7 5.2-19.4 28-17.5 33.8 1.8 5.3 11.1 11.8 17 11.8 2.7 0 5 .4 5 .9s-1 5.3-2.3 10.8c-2 9-1.7 10.9 3.1 20.6 6.5 13 6.6 15.4 1.2 22-5.5 6.6-5.2 10 1.1 13.3 7.8 4 16.2.7 18.7-7.5 1.8-6 2.6-6.4 11-6.4 4.9 0 8.9.7 8.9 1.6 0 .9-2.3 4.6-5.2 8.3-2.9 3.7-5.2 7-5.2 7.3 0 2.3 13.1 6.5 20.3 6.6 8.5 0 8.9-.2 8.9-5.8z"/>
</svg>
