<?xml version="1.0"?>
<svg xmlns="http://www.w3.org/2000/svg" viewBox="0 0 64 64" width="512" height="512"><g id="_18-Bunny" data-name="18-Bunny"><path d="M52.941,61.024a12.474,12.474,0,0,1-8.857-3.992,21.573,21.573,0,0,1-5.674-9.88c-.955-3.986-.23-7.431,2.04-9.7s5.716-3,9.7-2.04a21.573,21.573,0,0,1,9.88,5.674c5.712,5.712,4.69,12.712.727,16.675A11.091,11.091,0,0,1,52.941,61.024Zm-6.1-24.007a6.818,6.818,0,0,0-4.977,1.847C38,42.73,40.677,50.8,45.5,55.618c4.783,4.781,10.587,3.986,13.847.727S63.4,47.282,58.618,42.5C55.4,39.28,50.736,37.017,46.841,37.017Z"/><path d="M46.746,50.534a4.73,4.73,0,0,1-3.389-1.5c-2.342-2.343-3.17-6.963-.726-9.407s7.063-1.616,9.407.726c2.23,2.23,1.951,5.278-.726,7.955A6.626,6.626,0,0,1,46.746,50.534Zm-.2-10.388a3.465,3.465,0,0,0-2.5.9c-1.576,1.576-.918,4.934.726,6.579,1.986,1.984,4.247.154,5.126-.727s2.712-3.14.727-5.126A6.054,6.054,0,0,0,46.543,40.146Z"/><path d="M58.023,50.562A3.832,3.832,0,0,1,55.348,49.4a3.345,3.345,0,0,1-.364-4.683,2.9,2.9,0,0,1,2.378-.783,3.905,3.905,0,0,1,2.307,1.146h0a3.346,3.346,0,0,1,.363,4.685A2.8,2.8,0,0,1,58.023,50.562ZM57,45.915a.835.835,0,0,0-.6.217c-.4.4-.227,1.264.364,1.855s1.46.761,1.856.364.228-1.265-.363-1.856h0a1.931,1.931,0,0,0-1.113-.572A1.2,1.2,0,0,0,57,45.915Z"/><path d="M56.57,56.376a3.837,3.837,0,0,1-2.675-1.16A3.093,3.093,0,1,1,58.216,50.9h0a3.347,3.347,0,0,1,.363,4.684A2.8,2.8,0,0,1,56.57,56.376Zm-1.033-4.647a.82.82,0,0,0-.592.216c-.4.4-.227,1.265.364,1.857s1.458.761,1.856.363.228-1.265-.363-1.856A1.89,1.89,0,0,0,55.537,51.729Z"/><path d="M50.756,57.829a3.831,3.831,0,0,1-2.675-1.16,3.905,3.905,0,0,1-1.146-2.307,2.88,2.88,0,0,1,.783-2.378,3.613,3.613,0,0,1,5.049,5.048A2.807,2.807,0,0,1,50.756,57.829Zm-1.032-4.646a.816.816,0,0,0-.592.215.912.912,0,0,0-.209.744,1.931,1.931,0,0,0,.572,1.113c.593.593,1.46.762,1.857.363s.226-1.265-.365-1.856A1.884,1.884,0,0,0,49.724,53.183Z"/><path d="M11.059,61.024a11.091,11.091,0,0,1-7.818-3.265C-.722,53.8-1.744,46.8,3.968,41.084a21.573,21.573,0,0,1,9.88-5.674c3.985-.956,7.432-.23,9.7,2.04s3,5.716,2.04,9.7a21.573,21.573,0,0,1-5.674,9.88A12.474,12.474,0,0,1,11.059,61.024Zm6.1-24.007c-3.895,0-8.558,2.263-11.777,5.481C.6,47.282,1.4,53.085,4.655,56.345S13.72,60.4,18.5,55.618C23.323,50.8,26,42.73,22.136,38.864A6.821,6.821,0,0,0,17.159,37.017Z"/><path d="M17.254,50.534a6.626,6.626,0,0,1-4.566-2.222c-2.677-2.677-2.956-5.725-.726-7.955,2.343-2.342,6.964-3.17,9.407-.726s1.616,7.064-.726,9.407A4.734,4.734,0,0,1,17.254,50.534Zm.2-10.388a6.054,6.054,0,0,0-4.081,1.625c-1.985,1.986-.153,4.247.727,5.126s3.14,2.711,5.126.727c1.644-1.645,2.3-5,.726-6.579A3.465,3.465,0,0,0,17.457,40.146Z"/><path d="M5.977,50.562a2.8,2.8,0,0,1-2.009-.795,3.347,3.347,0,0,1,.363-4.686h0a3.905,3.905,0,0,1,2.307-1.146,2.9,2.9,0,0,1,2.378.783A3.345,3.345,0,0,1,8.652,49.4,3.832,3.832,0,0,1,5.977,50.562ZM7,45.915a1.2,1.2,0,0,0-.143.008,1.931,1.931,0,0,0-1.113.572h0c-.591.591-.761,1.459-.363,1.857s1.264.227,1.856-.365S8,46.529,7.6,46.132A.835.835,0,0,0,7,45.915Z"/><path d="M7.43,56.376a2.8,2.8,0,0,1-2.009-.8A3.347,3.347,0,0,1,5.784,50.9h0a3.349,3.349,0,0,1,4.685-.364,3.348,3.348,0,0,1-.364,4.685A3.835,3.835,0,0,1,7.43,56.376ZM7.2,52.309c-.591.591-.761,1.459-.363,1.856s1.265.227,1.856-.363.761-1.459.364-1.857S7.79,51.718,7.2,52.309Z"/><path d="M13.244,57.829a2.8,2.8,0,0,1-2.01-.8,3.347,3.347,0,0,1,.365-4.684,3.347,3.347,0,0,1,4.683-.364,2.88,2.88,0,0,1,.783,2.378,3.905,3.905,0,0,1-1.146,2.307A3.831,3.831,0,0,1,13.244,57.829Zm1.032-4.646a1.88,1.88,0,0,0-1.263.579c-.591.591-.761,1.459-.364,1.856s1.265.228,1.856-.363a1.931,1.931,0,0,0,.572-1.113.912.912,0,0,0-.209-.744A.816.816,0,0,0,14.276,53.183Z"/><path d="M59.825,38.347l-1.877-.694a16.419,16.419,0,0,0,.57-1.883l1.945.46A18.569,18.569,0,0,1,59.825,38.347Z"/><path d="M5.19,40.613A19.082,19.082,0,0,1,3,31.535C3,18.065,15.4,3,32,3S61,18.065,61,31.535a21.184,21.184,0,0,1-.157,2.588l-1.985-.246A19.154,19.154,0,0,0,59,31.535C59,16.591,44.486,5,32,5S5,16.591,5,31.535a17.1,17.1,0,0,0,1.956,8.137Z"/><path d="M32,55a39.924,39.924,0,0,1-7.181-.636l.362-1.967A37.911,37.911,0,0,0,32,53a36.269,36.269,0,0,0,9.732-1.273l.538,1.925A38.181,38.181,0,0,1,32,55Z"/><path d="M31,34a4.966,4.966,0,0,1-3.818-1.783,4.978,4.978,0,0,1-5.4-5.4,4.979,4.979,0,0,1,0-7.636,4.978,4.978,0,0,1,5.4-5.4,4.975,4.975,0,0,1,7.634,0,4.977,4.977,0,0,1,5.4,5.4,4.979,4.979,0,0,1,0,7.636,4.979,4.979,0,0,1-5.4,5.4A4.966,4.966,0,0,1,31,34Zm-3.371-3.862a1,1,0,0,1,.844.463,2.982,2.982,0,0,0,5.054,0,1,1,0,0,1,1.062-.439,2.981,2.981,0,0,0,3.572-3.575,1,1,0,0,1,.441-1.06,2.983,2.983,0,0,0,0-5.054,1,1,0,0,1-.441-1.06,2.98,2.98,0,0,0-3.572-3.574,1,1,0,0,1-1.062-.44,2.982,2.982,0,0,0-5.054,0,1,1,0,0,1-1.062.44,2.98,2.98,0,0,0-3.572,3.574,1,1,0,0,1-.441,1.06,2.983,2.983,0,0,0,0,5.054,1,1,0,0,1,.441,1.06,2.981,2.981,0,0,0,3.572,3.575A1.018,1.018,0,0,1,27.629,30.138Z"/></g></svg>
