<svg xmlns="http://www.w3.org/2000/svg" version="1" viewBox="0 0 255 255"><path d="M0 0v255h260V0H133zm149 23h27v12h-27v-6zm-11 13h10v25h-10V49zm38 0h27v12h-27v-6zm39 0h12v13h13v12h-13v13h-12V61h-11V49h10l1-7zm-90 25h12v26h39v15h27v11h11v13h13v13h13v39h-13v11h-6l-7 1v14h-11v13h-40v13H98v-13H59v-13H46v-7l-1-7-6-1h-6v-11H20v-39h13v-13h13v-13h13v-11h25l1-8v-7h40V74zM20 102h25v10H33v13H20v-11zm195 0h25v23h-12v-13h-13v-5zM84 125v28h28v-28H98zm78 0l-14 1v27h28v-28zm-78 53v12h13v15h66v-15h13v-12h-13v11H98v-5l-1-5-6-1z"/></svg>