<svg xmlns="http://www.w3.org/2000/svg" version="1.0" viewBox="0 0 150 150">
  <defs/>
  <path fill="#dcdcdc" fill-rule="evenodd" d="M0 0h150v150H0z"/>
  <path fill="#54514e" d="M0 75v75h150V0H0zm82.2-55.4C84 24 83 35 80.4 40.2c-2.9 5.5-3.3 9-2 15.8.8 3.5 1.8 4.3 7.2 5.7 13.6 4 28.5 26.2 26 38.9-.4 2-2 5-3.3 6.4-2.5 2.7-2.5 3-.4 6.3 2 3 2 3.6.4 4.7-2.9 1.9-11 1.5-14-.8-2.6-1.8-3-1.6-4.4 1.5-.8 1.8-1.5 5-1.5 7.2 0 3.9-.3 4-5.9 4-3.7 0-7-1-9-2.5l-3-2.4 2.9-4.7c1.6-2.7 3-5.1 3-5.7 0-.4-2.6-.8-5.8-.8-5.4 0-6 .3-7 4.3-2.3 7.4-10.4 8.6-14.6 2.2-1-1.5-.5-3.1 1.6-5.8 3.8-4.7 3.8-6.7-.4-15.8-3-6.4-3.2-8-2.1-13.1 1.9-8 1.9-8-1.6-8-4 0-8.9-3.4-10.3-7.4-1.8-4.6 5.5-20.1 10.7-23 3.7-2.2 4-2.9 4-9.8 0-7.4 2-16 3.9-16S60.5 30 61.5 36l1 6.3 2.3-7.1c2.6-7.5 11-17.7 14.5-17.7 1.2 0 2.5 1 3 2.2z"/>
</svg>
