<?xml version="1.0" encoding="UTF-8" standalone="no"?>
<svg
   xmlns:dc="http://purl.org/dc/elements/1.1/"
   xmlns:cc="http://creativecommons.org/ns#"
   xmlns:rdf="http://www.w3.org/1999/02/22-rdf-syntax-ns#"
   xmlns:svg="http://www.w3.org/2000/svg"
   xmlns="http://www.w3.org/2000/svg"
   xmlns:sodipodi="http://sodipodi.sourceforge.net/DTD/sodipodi-0.dtd"
   xmlns:inkscape="http://www.inkscape.org/namespaces/inkscape"
   inkscape:version="1.0beta1 (fe3e306, 2019-09-17)"
   sodipodi:docname="emblem-square.svg"
   id="svg28"
   preserveAspectRatio="xMidYMid meet"
   viewBox="0 0 150 150"
   height="150"
   width="150"
   version="1.0">
  <defs
     id="defs32" />
  <sodipodi:namedview
     units="px"
     inkscape:current-layer="svg28"
     inkscape:window-maximized="0"
     inkscape:window-y="2735"
     inkscape:window-x="1227"
     inkscape:cy="71.254083"
     inkscape:cx="12.818743"
     inkscape:zoom="3.959798"
     showgrid="false"
     id="namedview30"
     inkscape:window-height="1272"
     inkscape:window-width="1802"
     inkscape:pageshadow="2"
     inkscape:pageopacity="0"
     guidetolerance="10"
     gridtolerance="10"
     objecttolerance="10"
     borderopacity="1"
     inkscape:document-rotation="0"
     bordercolor="#666666"
     pagecolor="#ffffff" />
  <metadata
     id="metadata22">
Created by potrace 1.10, written by Peter Selinger 2001-2011
<rdf:RDF>
  <cc:Work
     rdf:about="">
    <dc:format>image/svg+xml</dc:format>
    <dc:type
       rdf:resource="http://purl.org/dc/dcmitype/StillImage" />
    <dc:title></dc:title>
  </cc:Work>
</rdf:RDF>
</metadata>
  <g
     inkscape:label="Layer 1"
     id="layer1"
     inkscape:groupmode="layer">
    <rect
       y="5.505201e-07"
       x="0"
       height="150"
       width="150"
       id="rect858"
       style="fill:#dcdcdc;fill-opacity:1;fill-rule:evenodd;stroke-width:1.00446" />
  </g>
  <g
     id="g26"
     stroke="none"
     fill="#54514e"
     transform="matrix(0.13392856,0,0,-0.13392855,8.0391918e-6,149.99998)">
    <path
       inkscape:connector-curvature="0"
       id="path24"
       d="M 0,560 V 0 h 560 560 v 560 560 H 560 0 Z m 614,414 c 13,-34 6,-116 -14,-154 -21,-41 -24,-67 -14,-118 5,-26 13,-32 53,-43 102,-29 213,-195 194,-290 -3,-15 -14,-37 -24,-48 -19,-20 -19,-22 -3,-47 15,-22 15,-27 3,-35 -22,-14 -82,-11 -105,6 -19,13 -22,12 -33,-11 -6,-14 -11,-38 -11,-54 0,-29 -2,-30 -44,-30 -28,0 -52,7 -67,19 l -22,18 21,35 c 12,20 22,38 22,42 0,3 -19,6 -43,6 -40,0 -44,-2 -52,-32 -17,-55 -78,-64 -109,-16 -7,11 -4,23 12,43 28,35 28,50 -3,118 -22,48 -24,60 -16,98 14,59 14,59 -12,59 -30,0 -66,26 -77,56 -13,34 41,150 80,172 28,16 30,21 30,73 0,55 15,119 29,119 14,0 43,-63 50,-108 l 7,-47 18,53 c 19,56 82,132 108,132 9,0 19,-7 22,-16 z" />
  </g>
</svg>
