<?xml version="1.0" standalone="no"?>
<!DOCTYPE svg PUBLIC "-//W3C//DTD SVG 20010904//EN"
 "http://www.w3.org/TR/2001/REC-SVG-20010904/DTD/svg10.dtd">
<svg version="1.0" xmlns="http://www.w3.org/2000/svg"
 width="500.000000pt" height="500.000000pt" viewBox="0 0 500.000000 500.000000"
 preserveAspectRatio="xMidYMid meet">

<g transform="translate(0.000000,500.000000) scale(0.100000,-0.100000)"
fill="#000000" stroke="none">
<path d="M1716 4940 c-236 -42 -417 -240 -441 -480 -11 -102 13 -220 165 -835
77 -313 143 -577 146 -587 3 -12 -16 -28 -71 -62 -334 -203 -561 -475 -709
-850 -79 -199 -112 -502 -129 -1175 l-2 -94 -150 -37 c-238 -60 -349 -106
-423 -174 -55 -50 -72 -83 -72 -139 0 -101 99 -184 305 -257 863 -303 3365
-318 4295 -24 210 66 339 153 355 238 28 146 -120 255 -468 346 -71 19 -87 26
-81 39 3 9 31 81 61 161 30 80 72 184 94 231 21 47 44 113 50 145 30 158 -26
346 -135 454 -20 19 -36 38 -36 41 0 4 100 50 223 104 122 54 236 109 254 121
36 27 50 72 32 106 -36 68 -80 64 -274 -22 -87 -39 -159 -69 -161 -68 -1 2 57
98 128 213 143 230 159 270 119 312 -12 13 -33 26 -48 29 -54 14 -81 -15 -211
-225 -67 -108 -129 -206 -138 -217 -14 -17 -15 1 -11 189 3 192 2 210 -15 232
-34 44 -132 42 -155 -3 -4 -10 -10 -159 -13 -332 l-5 -315 -19 55 c-10 30 -25
66 -32 80 -7 14 -34 70 -59 125 -123 268 -349 522 -612 688 -46 29 -83 55 -83
59 0 5 65 274 145 599 80 325 151 632 159 682 42 266 -65 488 -288 597 -178
88 -379 71 -533 -44 -194 -145 -230 -270 -333 -1156 -40 -344 -46 -387 -55
-379 -2 3 -15 103 -29 224 -14 121 -34 297 -45 390 -46 393 -100 662 -150 750
-109 190 -338 302 -545 265z m166 -164 c75 -17 161 -70 203 -124 64 -83 93
-174 121 -380 47 -349 124 -1023 119 -1032 -3 -4 -33 -10 -67 -13 -123 -11
-331 -62 -458 -112 -33 -13 -62 -20 -64 -17 -2 4 -54 214 -115 467 -61 253
-125 514 -141 580 -70 280 -58 402 51 520 52 56 106 89 179 109 70 19 101 19
172 2z m1432 -16 c74 -28 157 -105 193 -178 26 -53 28 -66 28 -177 0 -108 -4
-138 -43 -295 -24 -96 -88 -359 -143 -585 -55 -225 -103 -418 -107 -427 -6
-15 -12 -14 -67 8 -99 41 -285 92 -409 111 -69 10 -116 22 -116 29 0 15 96
822 115 959 8 61 19 144 24 185 40 300 273 464 525 370z m-554 -1720 c150 -25
268 -60 393 -117 204 -93 338 -186 483 -335 108 -110 165 -186 240 -319 49
-86 124 -248 124 -268 0 -4 -25 -15 -56 -26 -122 -41 -242 -153 -299 -277 -30
-65 -23 -32 -115 -611 -64 -403 -69 -441 -56 -472 26 -61 89 -74 135 -27 26
25 30 42 56 210 16 100 31 186 35 191 3 6 34 4 75 -5 38 -8 82 -12 97 -9 35 8
68 49 68 86 0 48 -36 77 -125 98 -44 10 -79 23 -79 27 17 120 39 234 45 234 5
0 66 -16 136 -35 140 -39 171 -38 203 2 26 33 26 73 0 106 -22 28 -30 31 -202
78 l-117 31 24 47 c41 80 115 139 210 167 204 59 415 -93 433 -312 5 -67 5
-67 -19 -60 -13 4 -51 10 -84 13 -55 5 -62 3 -84 -21 -31 -32 -33 -86 -6 -116
10 -11 43 -28 72 -36 44 -13 53 -19 48 -32 -4 -10 -21 -55 -38 -102 -16 -47
-34 -89 -38 -94 -4 -5 -38 -1 -76 8 -77 19 -110 13 -137 -26 -40 -57 -5 -119
82 -144 31 -9 58 -18 60 -19 2 -2 -22 -69 -52 -150 -31 -82 -56 -163 -56 -182
0 -74 94 -112 144 -58 21 23 76 147 76 172 0 23 20 23 102 3 169 -42 325 -105
357 -144 20 -24 -1 -43 -94 -87 -459 -213 -1920 -317 -3140 -224 -677 52
-1233 164 -1365 274 -31 25 -33 30 -20 46 19 22 129 77 210 103 90 30 269 71
274 63 2 -3 7 -51 10 -105 8 -102 23 -149 51 -160 31 -11 73 -6 96 13 30 24
34 83 21 313 -16 271 10 868 44 1050 17 87 87 292 139 404 130 282 406 554
708 698 308 146 654 193 1007 136z"/>
<path d="M1289 2141 c-37 -38 -39 -94 -5 -167 71 -154 279 -182 389 -53 82 96
71 242 -18 242 -35 0 -75 -42 -75 -78 0 -54 -39 -95 -90 -95 -35 0 -70 42 -79
95 -16 84 -69 109 -122 56z"/>
<path d="M2297 2150 c-77 -61 -19 -232 96 -286 97 -45 204 -26 274 47 78 83
86 222 14 247 -52 18 -101 -24 -101 -86 0 -42 -38 -82 -78 -82 -46 0 -80 33
-88 87 -7 51 -40 93 -72 93 -11 0 -31 -9 -45 -20z"/>
<path d="M1848 1904 c-31 -16 -44 -51 -34 -90 5 -18 20 -31 51 -45 39 -17 45
-24 45 -49 0 -52 52 -84 105 -64 19 8 45 55 45 83 0 14 12 23 42 33 73 23 83
102 18 135 -37 19 -237 17 -272 -3z"/>
<path d="M1858 1418 c-40 -32 -42 -88 -4 -113 28 -19 261 -31 299 -16 56 22
61 98 7 126 -38 20 -278 22 -302 3z"/>
<path d="M4532 3838 c-18 -18 -14 -63 6 -81 15 -14 40 -17 125 -17 59 0 107
-3 107 -7 0 -4 -56 -64 -125 -133 -69 -70 -125 -134 -125 -143 0 -10 9 -26 20
-37 19 -19 33 -20 206 -20 214 0 243 8 244 67 0 40 -35 53 -147 53 -57 0 -103
2 -103 4 0 3 54 58 120 123 127 125 141 151 102 186 -16 15 -46 17 -218 17
-142 0 -203 -3 -212 -12z"/>
<path d="M4030 3513 c-19 -7 -40 -33 -40 -49 0 -33 31 -44 118 -44 l86 0 -97
-92 c-53 -51 -97 -101 -97 -110 0 -10 9 -27 20 -38 18 -18 33 -20 153 -20 144
0 177 10 177 54 0 36 -19 46 -92 46 -37 0 -68 4 -68 9 0 4 39 44 86 88 74 70
85 84 82 109 -5 45 -35 54 -183 53 -71 0 -137 -3 -145 -6z"/>
<path d="M3686 3243 c-125 -4 -146 -11 -146 -47 0 -35 20 -46 84 -46 l60 0
-67 -68 c-49 -50 -67 -75 -67 -94 0 -44 28 -51 163 -46 101 4 122 8 134 24 16
22 16 26 -1 50 -12 16 -25 19 -75 17 -34 -1 -61 1 -61 6 0 4 31 36 69 69 77
69 89 94 60 123 -10 10 -22 18 -26 17 -5 -1 -62 -4 -127 -5z"/>
</g>
</svg>
