<svg height="512pt" viewBox="0 -1 512 512" width="512pt" xmlns="http://www.w3.org/2000/svg"><path d="m511.308594 285.539062c-1.855469-4.328124-6.871094-6.335937-11.203125-4.480468l-34.707031 14.875 28.238281-45.175782c2.496093-4.003906 1.273437-9.277343-2.730469-11.777343-4.007812-2.496094-9.277344-1.273438-11.777344 2.730469l-26.863281 43.042968v-38.519531c0-4.710937-3.820313-8.53125-8.53125-8.53125-4.714844 0-8.535156 3.820313-8.535156 8.53125v61.152344c-.648438-.148438-1.296875-.230469-1.953125-.351563-14.675782-44.054687-44.976563-81.210937-85.179688-104.449218l33.621094-132.417969c3.910156-15.085938 1.320312-31.117188-7.132812-44.203125-12.859376-20.09375-36.984376-29.90625-60.214844-24.492188-23.234375 5.410156-40.539063 24.875-43.191406 48.582032l-14.242188 127.914062c-.308594 0-.609375 0-.90625 0s-.554688 0-.851562 0l-14.3125-128c-2.691407-23.683594-20.003907-43.105469-43.222657-48.496094s-47.3125 4.417969-60.167969 24.492188c-8.453124 13.085937-11.042968 29.117187-7.132812 44.203125l33.722656 132.546875c-15 8.601562-28.742187 19.226562-40.847656 31.574218-35.425781 36.25-55.15625 84.992188-54.921875 135.679688v53.121094c-60.859375 12.003906-68.265625 26.484375-68.265625 36.480468 0 50.617188 245.546875 51.199219 256 51.199219s256-.582031 256-51.199219c0-14.210937-17.671875-25.011718-55.3125-33.726562l17.339844-47.238281c7.976562-21.730469 1.171875-46.125-16.898438-60.585938l49.699219-21.335937c4.296875-1.855469 6.296875-6.828125 4.480469-11.144532zm-223.1875-233.597656c1.546875-14.644531 11.160156-27.191406 24.894531-32.492187 13.738281-5.304688 29.289063-2.476563 40.273437 7.328125 10.988282 9.804687 15.5625 24.933594 11.851563 39.183594l-32.65625 128.605468c-18.507813-8.402344-38.28125-13.6875-58.511719-15.640625zm-141.269532 14.011719c-3.691406-14.246094.894532-29.355469 11.878907-39.148437 10.980469-9.789063 26.519531-12.617188 40.246093-7.320313 13.726563 5.296875 23.339844 17.824219 24.902344 32.457031l14.199219 126.921875c-20.234375 1.984375-40 7.332031-58.476563 15.820313zm312.863282 299.851563-10.929688-2.613282c-4.554687-1.019531-9.085937 1.804688-10.167968 6.34375-1.085938 4.539063 1.675781 9.109375 6.199218 10.253906l9.746094 2.332032-8.882812 24.199218-15.097657-3.59375c-3.011719-.835937-6.246093.042969-8.421875 2.289063-2.175781 2.25-2.945312 5.511719-2.003906 8.496094s3.4375 5.214843 6.511719 5.8125l13.121093 3.132812-9.386718 25.601563c-1.101563 2.871094-.570313 6.113281 1.390625 8.488281 1.957031 2.371094 5.042969 3.503906 8.074219 2.96875 3.027343-.539063 5.53125-2.667969 6.554687-5.570313l4.394531-11.988281c39.652344 8.933594 44.023438 17.371094 44.183594 17.371094-3.964844 12.359375-87.105469 34.375-239 34.375s-235.058594-22.015625-238.933594-33.9375c0-.09375 4.328125-9.675781 51.199219-19.292969v10.5625c0 4.714844 3.820313 8.535156 8.535156 8.535156 4.710938 0 8.53125-3.820312 8.53125-8.535156v-81.066406c-.214843-46.21875 17.761719-90.664062 50.050781-123.734375 31.585938-32.734375 75.128907-51.214844 120.617188-51.199219 71.148438.265625 134.609375 44.804688 159.042969 111.625-24.011719 3.714844-42.609375 22.96875-45.488281 47.09375l-11.09375 94.210938c-.410157 3.050781.855468 6.089844 3.316406 7.945312 2.460937 1.855469 5.730468 2.242188 8.554687 1.007813 2.824219-1.230469 4.765625-3.890625 5.074219-6.957031l4.90625-41.703126 13.117188 3.125c.652343.15625 1.316406.238282 1.988281.238282 4.328125-.003906 7.96875-3.246094 8.46875-7.546875.5-4.296875-2.296875-8.292969-6.507813-9.289063l-15.050781-3.585937 3.011719-25.601563 26.28125 6.273438c.652344.152344 1.320312.230468 1.988281.230468 4.328125-.003906 7.96875-3.246093 8.46875-7.542968.503906-4.300782-2.292969-8.292969-6.503906-9.292969l-27.53125-6.5625c5.082031-16.285156 20.765625-26.882813 37.769531-25.515625.1875 0 .367188 0 .554688.042969 1.820312.160156 3.628906.445312 5.410156.855469 18.804687 4.4375 30.996094 22.640624 27.9375 41.71875zm0 0"/><path d="m153.601562 271.835938c-14.140624 0-25.601562 11.460937-25.601562 25.597656 0 14.140625 11.460938 25.601562 25.601562 25.601562 14.136719 0 25.597657-11.460937 25.597657-25.601562 0-14.136719-11.460938-25.597656-25.597657-25.597656zm0 34.132812c-4.714843 0-8.535156-3.820312-8.535156-8.535156 0-4.710938 3.820313-8.53125 8.535156-8.53125 4.710938 0 8.53125 3.820312 8.53125 8.53125 0 4.714844-3.820312 8.535156-8.53125 8.535156zm0 0"/><path d="m256 271.835938c-14.136719 0-25.601562 11.460937-25.601562 25.597656 0 14.140625 11.464843 25.601562 25.601562 25.601562s25.601562-11.460937 25.601562-25.601562c0-14.136719-11.464843-25.597656-25.601562-25.597656zm0 34.132812c-4.710938 0-8.535156-3.820312-8.535156-8.535156 0-4.710938 3.824218-8.53125 8.535156-8.53125s8.535156 3.820312 8.535156 8.53125c0 4.714844-3.824218 8.535156-8.535156 8.535156zm0 0"/><path d="m213.332031 314.5h-17.066406c-4.710937 0-8.53125 3.824219-8.53125 8.535156 0 4.714844 3.820313 8.535156 8.53125 8.535156 0 4.710938 3.820313 8.53125 8.535156 8.53125 4.710938 0 8.53125-3.820312 8.53125-8.53125 4.714844 0 8.535157-3.820312 8.535157-8.535156 0-4.710937-3.820313-8.535156-8.535157-8.535156zm0 0"/><path d="m213.332031 365.703125h-17.066406c-4.710937 0-8.53125 3.820313-8.53125 8.53125 0 4.714844 3.820313 8.535156 8.53125 8.535156h17.066406c4.714844 0 8.535157-3.820312 8.535157-8.535156 0-4.710937-3.820313-8.53125-8.535157-8.53125zm0 0"/></svg>