<svg height="511pt" viewBox="-59 0 511 511.98334" width="511pt" xmlns="http://www.w3.org/2000/svg"><path d="m145.558594 290.117188c0 4.710937-3.820313 8.53125-8.535156 8.53125-4.710938 0-8.53125-3.820313-8.53125-8.53125 0-4.714844-3.820313-8.535157-8.535157-8.535157-4.710937 0-8.53125 3.820313-8.53125 8.535157 0 14.136718 11.460938 25.597656 25.597657 25.597656 14.140624 0 25.601562-11.460938 25.601562-25.597656 0-4.714844-3.820312-8.535157-8.535156-8.535157-4.710938 0-8.53125 3.820313-8.53125 8.535157zm0 0"/><path d="m256.492188 315.714844c14.136718 0 25.597656-11.460938 25.597656-25.597656 0-4.714844-3.820313-8.535157-8.53125-8.535157-4.714844 0-8.535156 3.820313-8.535156 8.535157 0 4.710937-3.820313 8.53125-8.53125 8.53125-4.714844 0-8.535157-3.820313-8.535157-8.53125 0-4.714844-3.820312-8.535157-8.53125-8.535157-4.714843 0-8.535156 3.820313-8.535156 8.535157 0 14.136718 11.460937 25.597656 25.601563 25.597656zm0 0"/><path d="m111.425781 255.984375c1.261719 0 30.992188-.25 41.769531-21.785156 2.105469-4.21875.394532-9.347657-3.824218-11.453125-4.214844-2.105469-9.34375-.394532-11.449219 3.824218-5.90625 11.816407-26.128906 12.347657-26.496094 12.347657-4.714843 0-8.535156 3.820312-8.535156 8.53125 0 4.714843 3.820313 8.535156 8.535156 8.535156zm0 0"/><path d="m282.089844 255.984375c4.714844 0 8.535156-3.820313 8.535156-8.535156 0-4.710938-3.820312-8.53125-8.535156-8.53125-.203125 0-20.476563-.34375-26.453125-12.347657-2.105469-4.21875-7.230469-5.929687-11.449219-3.824218-4.21875 2.105468-5.929688 7.234375-3.824219 11.453125 10.734375 21.535156 40.464844 21.785156 41.726563 21.785156zm0 0"/><path d="m166.761719 433.964844c4.039062 2.425781 9.28125 1.117187 11.710937-2.921875l18.285156-30.472657 18.289063 30.472657c2.464844 3.945312 7.640625 5.1875 11.628906 2.789062 3.988281-2.394531 5.320313-7.546875 2.996094-11.578125l-24.378906-40.632812v-17.921875l12.347656-6.167969c4.214844-2.109375 5.929687-7.234375 3.820313-11.453125-2.105469-4.21875-7.230469-5.929687-11.449219-3.824219l-13.253907 6.589844-13.25-6.671875c-4.21875-2.109375-9.347656-.398437-11.453124 3.820313-2.105469 4.21875-.394532 9.347656 3.824218 11.453124l12.347656 6.210938v17.921875l-24.382812 40.632813c-1.175781 1.945312-1.53125 4.277343-.984375 6.484374.546875 2.207032 1.953125 4.101563 3.902344 5.269532zm0 0"/><path d="m.492188 400.820312c.074218 28.980469 11.753906 56.722657 32.425781 77.03125 21.59375 21.667969 50.867187 33.933594 81.460937 34.132813h167.710938c49.292968.007813 92.679687-32.507813 106.503906-79.820313s-5.226562-98.074218-46.769531-124.605468v-.375c-.011719-33.976563-12.757813-66.714844-35.71875-91.757813l69.554687-119.773437c8.847656-15.25 10.972656-33.480469 5.875-50.355469-5.097656-16.871094-16.964844-30.878906-32.773437-38.675781-.253907-.160156-.519531-.304688-.792969-.433594-16.027344-7.632812-34.511719-8.226562-50.992188-1.640625-16.484374 6.585937-29.46875 19.753906-35.824218 36.328125l-49.886719 130.074219c-1.980469-.085938-3.933594-.300781-5.972656-.300781h-17.066407c-2.09375 0-4.125.222656-6.1875.316406l-49.84375-130.089844c-6.375-16.578125-19.375-29.746094-35.871093-36.332031-16.5-6.585938-34.992188-5.988281-51.03125 1.644531-.238281.117188-.488281.246094-.71875.390625-15.832031 7.789063-27.722657 21.796875-32.835938 38.683594-5.113281 16.882812-2.992187 35.136719 5.863281 50.398437l69.648438 119.945313c-22.859375 25.023437-35.542969 57.683593-35.558594 91.578125v.359375c-31.886718 20.296875-51.199218 55.476562-51.199218 93.277343zm196.042968 94.097657c.078125-.09375.15625-.171875.222656-.265625.070313.09375.144532.171875.222657.265625zm80.554688-447.933594c4.609375-12.015625 13.980468-21.589844 25.898437-26.453125 11.914063-4.863281 25.3125-4.578125 37.011719.785156.230469.136719.472656.265625.714844.382813 11.726562 5.613281 20.570312 15.867187 24.402344 28.289062 3.832031 12.421875 2.304687 25.878907-4.21875 37.121094l-67.414063 116.050781c-18.476563-15.695312-40.816406-26.167968-64.699219-30.324218zm-248.917969 2.902344c3.789063-12.40625 12.640625-22.632813 24.375-28.160157.222656-.109374.441406-.226562.65625-.359374 11.714844-5.386719 25.136719-5.683594 37.082031-.820313 11.941406 4.859375 21.34375 14.445313 25.96875 26.480469l48.230469 125.867187c-23.875 4.207031-46.191406 14.722657-64.640625 30.457031l-67.480469-116.261718c-6.585937-11.253906-8.109375-24.765625-4.191406-37.203125zm36.925781 269.507812c3.417969-1.925781 5.082032-5.929687 4.035156-9.710937-.242187-.8125-.367187-1.652344-.375-2.5.070313-65.949219 53.515626-119.394532 119.46875-119.46875h17.066407c65.949219.074218 119.394531 53.519531 119.464843 119.46875-.003906.847656-.132812 1.6875-.375 2.5-1.046874 3.769531.605469 7.769531 4.011719 9.703125 37.085938 21.015625 55.351563 64.386719 44.480469 105.605469-10.875 41.21875-48.15625 69.933593-90.785156 69.925781h-51.199219c-14.136719 0-25.597656-11.460938-25.597656-25.601563v-8.53125c0-4.714844-3.820313-8.535156-8.535157-8.535156-4.710937 0-8.53125 3.820312-8.53125 8.535156v8.53125c0 14.140625-11.464843 25.601563-25.601562 25.601563h-48.214844c-26.058594-.183594-50.988281-10.648438-69.375-29.117188-17.472656-17.105469-27.371094-40.496093-27.476562-64.945312-.015625-33.746094 18.152344-64.878907 47.539062-81.460938zm0 0"/><path d="m61.933594 69.957031c-1.78125-2.992187-2.195313-6.601562-1.136719-9.917969 1.023437-3.371093 3.441406-6.148437 6.640625-7.625 2.019531-.996093 3.558594-2.753906 4.277344-4.890624.714844-2.132813.554687-4.464844-.457032-6.476563-2.128906-4.226563-7.261718-5.953125-11.511718-3.875-7.355469 3.597656-12.890625 10.085937-15.277344 17.921875s-1.410156 16.308594 2.691406 23.394531c2.453125 3.859375 7.511719 5.101563 11.472656 2.8125 3.957032-2.289062 5.410157-7.292969 3.289063-11.34375zm0 0"/><path d="m77.292969 102.382812c0 4.714844-3.820313 8.535157-8.535157 8.535157-4.710937 0-8.53125-3.820313-8.53125-8.535157 0-4.710937 3.820313-8.53125 8.53125-8.53125 4.714844 0 8.535157 3.820313 8.535157 8.53125zm0 0"/><path d="m300.148438 62.371094c1.136718.554687 2.386718.847656 3.652343.851562 3.285157-.011718 6.273438-1.910156 7.679688-4.878906 1.464843-3.160156 4.210937-5.542969 7.542969-6.554688 3.402343-1.066406 7.097656-.625 10.15625 1.210938 1.96875 1.066406 4.28125 1.304688 6.429687.664062 2.144531-.636718 3.949219-2.105468 5.011719-4.078124 2.242187-4.136719.75-9.308594-3.351563-11.621094-7.136719-4.035156-15.628906-4.917969-23.445312-2.441406-7.8125 2.476562-14.246094 8.089843-17.753907 15.496093-2.003906 4.261719-.179687 9.339844 4.078126 11.351563zm0 0"/><path d="m295.464844 92.347656c3.878906-2.671875 4.859375-7.984375 2.1875-11.867187-2.671875-3.878907-7.980469-4.863281-11.863282-2.191407-3.882812 2.671876-4.867187 7.984376-2.195312 11.867188 1.28125 1.863281 3.253906 3.144531 5.480469 3.554688 2.226562.410156 4.523437-.078126 6.390625-1.363282zm0 0"/></svg>