<svg height="511pt" viewBox="-8 0 511 511.98391" width="511pt" xmlns="http://www.w3.org/2000/svg"><path d="m223.234375 354.570312c-1.015625 2.023438-1.179687 4.371094-.464844 6.515626.71875 2.148437 2.261719 3.925781 4.285157 4.933593l12.347656 6.171875v21.546875c-10.378906 3.558594-17.273438 13.410157-17.066406 24.378907.003906 4.65625 3.765624 8.441406 8.421874 8.472656h.113282c4.636718-.023438 8.417968-3.734375 8.53125-8.371094 0-4.710938 3.820312-8.53125 8.535156-8.53125 4.710938 0 8.53125 3.820312 8.53125 8.53125.03125 4.714844 3.875 8.511719 8.585938 8.484375 4.710937-.03125 8.511718-3.875 8.480468-8.585937.140625-10.910157-6.742187-20.675782-17.066406-24.21875v-21.707032l12.347656-6.171875c4.21875-2.105469 5.929688-7.230469 3.824219-11.449219s-7.234375-5.929687-11.453125-3.824218l-13.25 6.628906-13.253906-6.628906c-2.023438-1.011719-4.371094-1.179688-6.515625-.460938-2.148438.714844-3.925781 2.257813-4.933594 4.285156zm0 0"/><path d="m66.296875 486.382812h1.347656c7.308594-.160156 14.539063-1.539062 21.394531-4.078124 21.035157 18.910156 48.265626 29.46875 76.550782 29.679687h167.679687c27.742188.039063 54.480469-10.382813 74.871094-29.191406 6.472656 2.226562 13.246094 3.433593 20.089844 3.582031h1.347656c26.394531-.007812 50.234375-15.773438 60.570313-40.0625 10.335937-24.285156 5.175781-52.398438-13.117188-71.425781-12.664062-10.398438-27.589844-17.6875-43.578125-21.28125-8.914063-18.839844-22.925781-34.800781-40.449219-46.082031v-.339844c-.015625-33.976563-12.757812-66.714844-35.722656-91.757813l69.558594-119.765625c8.84375-15.25 10.972656-33.480468 5.875-50.355468s-16.964844-30.882813-32.773438-38.683594c-.253906-.15625-.515625-.304688-.785156-.433594-16.027344-7.632812-34.515625-8.230469-51-1.644531-16.484375 6.585937-29.472656 19.757812-35.828125 36.332031l-49.882813 130.074219c-1.980468-.085938-3.9375-.296875-5.976562-.296875h-17.066406c-2.082032 0-4.121094.210937-6.195313.296875l-49.832031-130.074219c-6.375-16.578125-19.378906-29.746094-35.875-36.332031-16.496094-6.585938-34.992188-5.988281-51.03125 1.644531-.238281.121094-.484375.246094-.714844.390625-15.832031 7.789063-27.722656 21.796875-32.835937 38.683594-5.117188 16.886719-2.992188 35.136719 5.863281 50.398437l69.65625 119.953125c-22.921875 24.980469-35.617188 57.664063-35.566406 91.570313v.359375c-17.621094 11.175781-31.667969 27.167969-40.484375 46.078125-15.96875 3.589844-30.875 10.875-43.519531 21.265625-18.285157 19.027343-23.449219 47.132812-13.117188 71.417969 10.328125 24.28125 34.15625 40.054687 60.546875 40.078124zm181.417969 8.535157c.078125-.09375.152344-.171875.222656-.265625.066406.09375.144531.171875.222656.265625zm230.621094-73.386719c-.390626 19.730469-12.632813 37.285156-31.011719 44.472656-18.382813 7.1875-39.28125 2.59375-52.957031-11.636718-14.257813-14.839844-22.101563-67.550782-24.925782-96.367188 28.683594 3.976562 81.066406 13.917969 95.292969 28.75 8.996094 9.3125 13.894531 21.835938 13.601563 34.78125zm-150.066407-374.546875c4.609375-12.015625 13.980469-21.589844 25.898438-26.453125 11.914062-4.859375 25.308593-4.578125 37.007812.785156.234375.136719.472657.265625.71875.382813 11.722657 5.613281 20.570313 15.871093 24.402344 28.289062 3.828125 12.421875 2.296875 25.878907-4.230469 37.121094l-67.414062 116.054687c-18.472656-15.699218-40.8125-26.171874-64.699219-30.328124zm-248.917969 2.902344c3.789063-12.40625 12.640626-22.632813 24.371094-28.160157.226563-.109374.445313-.226562.65625-.359374 11.71875-5.382813 25.140625-5.683594 37.085938-.820313 11.941406 4.859375 21.34375 14.445313 25.96875 26.480469l48.222656 125.832031c-23.898438 4.160156-46.230469 14.695313-64.632812 30.5l-67.480469-116.226563c-6.601563-11.261718-8.121094-24.796874-4.191407-37.246093zm16.835938 284.75c5.976562-5.964844 12.734375-11.09375 20.089844-15.242188 3.421875-1.929687 5.082031-5.945312 4.027344-9.726562-.238282-.808594-.363282-1.644531-.367188-2.484375.101562-65.9375 53.527344-119.363282 119.464844-119.464844h17.066406c65.953125.070312 119.398438 53.515625 119.46875 119.464844-.003906.839844-.128906 1.675781-.367188 2.484375-1.058593 3.773437.59375 7.78125 4 9.71875 12.320313 7.042969 22.890626 16.773437 30.925782 28.46875-23.636719-5.121094-45.03125-7.683594-49.492188-8.152344-2.515625-.277344-5.023437.578125-6.847656 2.332031s-2.777344 4.226563-2.597656 6.75c.65625 9.445313 7.125 93.011719 30.53125 117.367188 2.960937 3.082031 6.210937 5.871094 9.710937 8.328125-16.609375 13.289062-37.261719 20.5-58.53125 20.4375h-51.199219c-14.136718 0-25.601562-11.460938-25.601562-25.601563 0-4.710937-3.820312-8.53125-8.53125-8.53125-4.714844 0-8.535156 3.820313-8.535156 8.53125 0 14.140625-11.460938 25.601563-25.597656 25.601563h-48.214844c-21.949219-.152344-43.214844-7.632813-60.425782-21.257813 3.097657-2.25 5.992188-4.761718 8.65625-7.507812 23.40625-24.355469 29.863282-107.921875 30.53125-117.367188.175782-2.523437-.777343-4.996094-2.601562-6.75s-4.332031-2.609375-6.84375-2.332031c-4.507812.496094-25.996094 3.03125-49.699219 8.183594 3.246094-4.746094 6.921875-9.179688 10.980469-13.25zm-64.996094 52.078125c14.257813-14.832032 66.609375-24.746094 95.289063-28.75-2.824219 28.816406-10.664063 81.527344-24.925781 96.367187-18.671876 19.429688-49.558594 20.046875-68.992188 1.375-19.429688-18.671875-20.042969-49.5625-1.371094-68.992187zm0 0"/><path d="m113.109375 69.957031c-1.777344-2.992187-2.191406-6.601562-1.132813-9.914062 1.023438-3.375 3.4375-6.148438 6.636719-7.628907 2.019531-.996093 3.5625-2.753906 4.277344-4.890624.71875-2.132813.554687-4.464844-.453125-6.476563-2.128906-4.226563-7.261719-5.957031-11.511719-3.875-7.359375 3.597656-12.890625 10.089844-15.277343 17.921875-2.386719 7.835938-1.414063 16.308594 2.691406 23.398438 2.453125 3.859374 7.511718 5.097656 11.472656 2.808593 3.957031-2.289062 5.410156-7.292969 3.289062-11.34375zm0 0"/><path d="m128.46875 102.382812c0 4.714844-3.820312 8.535157-8.53125 8.535157-4.714844 0-8.535156-3.820313-8.535156-8.535157 0-4.710937 3.820312-8.53125 8.535156-8.53125 4.710938 0 8.53125 3.820313 8.53125 8.53125zm0 0"/><path d="m351.328125 62.371094c1.136719.554687 2.386719.847656 3.652344.851562 3.285156-.011718 6.273437-1.910156 7.679687-4.878906 1.464844-3.160156 4.210938-5.542969 7.542969-6.554688 3.402344-1.066406 7.097656-.625 10.152344 1.210938 4.105469 2.214844 9.226562.6875 11.445312-3.410156 2.238281-4.140625.746094-9.3125-3.355469-11.625-7.132812-4.03125-15.625-4.917969-23.441406-2.441406-7.8125 2.476562-14.246094 8.089843-17.757812 15.5-2.003906 4.257812-.175782 9.335937 4.082031 11.347656zm0 0"/><path d="m346.640625 92.347656c3.882813-2.671875 4.863281-7.984375 2.191406-11.867187-2.671875-3.878907-7.984375-4.863281-11.867187-2.191407-3.878906 2.671876-4.863282 7.984376-2.191406 11.867188 1.28125 1.863281 3.253906 3.144531 5.480468 3.554688 2.226563.410156 4.523438-.078126 6.386719-1.363282zm0 0"/><path d="m157.484375 290.117188c.617187 0 1.230469-.0625 1.832031-.195313.316406-.070313 1.914063-.4375 4.269532-1.109375-.628907 3.242188-.957032 6.535156-.984376 9.839844-.535156 14.925781 6.429688 29.128906 18.5625 37.84375-.1875.347656-.417968.648437-.597656 1.007812-2.105468 4.21875-.394531 9.34375 3.824219 11.449219 4.214844 2.109375 9.34375.394531 11.449219-3.820313 5.90625-11.820312 26.128906-12.347656 26.496094-12.347656 4.714843 0 8.535156-3.820312 8.535156-8.535156-.035156-2.675781-1.34375-5.171875-3.523438-6.722656 2.332032-6.019532 3.527344-12.421875 3.523438-18.875.773437-15.609375-6.855469-30.4375-20.003906-38.878906 3.097656-3.902344 5.609374-8.234376 7.460937-12.859376 1.714844-4.390624-.453125-9.339843-4.84375-11.054687-4.390625-1.71875-9.339844.453125-11.054687 4.839844-5.542969 11.390625-15.054688 20.363281-26.746094 25.234375-.109375.058594-.230469.09375-.339844.164062-6.296875 3.054688-12.894531 5.449219-19.6875 7.148438-4.257812.929687-7.132812 4.921875-6.664062 9.257812.46875 4.332032 4.132812 7.617188 8.492187 7.613282zm50.292969 27.648437c-4.996094 1.25-9.785156 3.238281-14.199219 5.894531-9.386719-4.628906-14.925781-14.589844-13.90625-25.007812-.105469-6.5625 1.820313-12.992188 5.511719-18.417969 4.050781-2.109375 7.949218-4.511719 11.65625-7.183594 9.207031.101563 16.964844 11.777344 16.964844 25.601563.121093 6.855468-1.996094 13.566406-6.027344 19.113281zm0 0"/><path d="m265.003906 324.25c0 4.714844 3.820313 8.535156 8.53125 8.535156.207032 0 20.480469.339844 26.453125 12.347656 2.109375 4.214844 7.234375 5.929688 11.453125 3.820313 4.21875-2.105469 5.929688-7.230469 3.824219-11.449219-.179687-.359375-.410156-.660156-.597656-1.007812 12.144531-8.703125 19.128906-22.910156 18.601562-37.84375-.023437-3.304688-.351562-6.597656-.980469-9.839844 2.355469.671875 3.949219 1.039062 4.265626 1.109375.601562.132813 1.21875.195313 1.835937.195313 4.359375 0 8.015625-3.285157 8.480469-7.621094.46875-4.332032-2.40625-8.320313-6.664063-9.25-6.828125-1.648438-13.449219-4.058594-19.738281-7.191406l-.179688-.085938c-11.695312-4.925781-21.230468-13.894531-26.859374-25.269531-1.71875-4.386719-6.667969-6.558594-11.054688-4.839844-4.390625 1.714844-6.558594 6.664063-4.84375 11.054687 1.847656 4.625 4.359375 8.957032 7.457031 12.859376-13.140625 8.445312-20.761719 23.273437-19.984375 38.878906-.007812 6.453125 1.1875 12.855468 3.523438 18.875-2.179688 1.550781-3.488282 4.046875-3.523438 6.722656zm34.03125-51.199219c3.707032 2.664063 7.601563 5.0625 11.65625 7.167969 3.695313 5.429688 5.621094 11.867188 5.511719 18.433594 1.019531 10.417968-4.519531 20.378906-13.910156 25.007812-4.414063-2.65625-9.199219-4.644531-14.199219-5.894531-4.03125-5.546875-6.144531-12.257813-6.023438-19.113281 0-13.824219 7.757813-25.5 16.964844-25.601563zm0 0"/></svg>