<svg height="511pt" viewBox="-55 0 511 511.98648" width="511pt" xmlns="http://www.w3.org/2000/svg"><path d="m137.050781 281.585938c-14.140625 0-25.601562 11.460937-25.601562 25.601562 0 14.136719 11.460937 25.597656 25.601562 25.597656 14.136719 0 25.597657-11.460937 25.597657-25.597656 0-14.140625-11.460938-25.601562-25.597657-25.601562zm0 34.132812c-4.714843 0-8.535156-3.820312-8.535156-8.53125 0-4.714844 3.820313-8.535156 8.535156-8.535156 4.710938 0 8.53125 3.820312 8.53125 8.535156 0 4.710938-3.820312 8.53125-8.53125 8.53125zm0 0"/><path d="m256.515625 332.785156c14.140625 0 25.601563-11.460937 25.601563-25.597656 0-14.140625-11.460938-25.601562-25.601563-25.601562-14.136719 0-25.597656 11.460937-25.597656 25.601562 0 14.136719 11.460937 25.597656 25.597656 25.597656zm0-34.132812c4.714844 0 8.535156 3.820312 8.535156 8.535156 0 4.710938-3.820312 8.53125-8.535156 8.53125-4.710937 0-8.53125-3.820312-8.53125-8.53125 0-4.714844 3.820313-8.535156 8.53125-8.535156zm0 0"/><path d="m163.871094 413.726562c-2.324219 4.027344-.992188 9.179688 2.996094 11.574219 3.988281 2.398438 9.160156 1.15625 11.628906-2.785156l18.285156-30.472656 18.289062 30.472656c2.46875 3.941406 7.640626 5.183594 11.628907 2.785156 3.988281-2.394531 5.320312-7.546875 2.996093-11.574219l-24.378906-40.636718v-9.386719l12.347656-6.171875c4.21875-2.105469 5.929688-7.230469 3.824219-11.449219-2.109375-4.21875-7.234375-5.929687-11.453125-3.824219l-13.253906 6.589844-13.25-6.675781c-4.21875-2.105469-9.34375-.394531-11.453125 3.824219-2.105469 4.21875-.394531 9.34375 3.824219 11.453125l12.347656 6.210937v9.386719zm0 0"/><path d="m154.117188 247.453125c-.195313 0-20.480469-.339844-26.496094-12.347656-2.105469-4.21875-7.234375-5.929688-11.453125-3.824219-4.21875 2.109375-5.929688 7.234375-3.824219 11.453125 10.769531 21.539063 40.519531 21.785156 41.773438 21.785156 4.710937 0 8.53125-3.820312 8.53125-8.53125 0-4.714843-3.820313-8.535156-8.53125-8.535156zm0 0"/><path d="m281.261719 242.734375c2.109375-4.21875.394531-9.34375-3.820313-11.453125-4.21875-2.105469-9.347656-.394531-11.453125 3.824219-5.949219 11.820312-26.171875 12.347656-26.539062 12.347656-4.710938 0-8.53125 3.820313-8.53125 8.535156 0 4.710938 3.820312 8.53125 8.53125 8.53125 1.253906 0 31.003906-.246093 41.8125-21.785156zm0 0"/><path d="m341.851562 196.253906c0-4.714844-3.824218-8.535156-8.535156-8.535156-4.714844 0-8.535156 3.820312-8.535156 8.535156v8.53125c0 4.714844-3.820312 8.535156-8.53125 8.535156h-8.535156c-4.710938 0-8.53125 3.820313-8.53125 8.53125 0 4.714844 3.820312 8.535157 8.53125 8.535157h8.535156c14.136719 0 25.601562-11.460938 25.601562-25.601563zm0 0"/><path d="m375.984375 204.785156v-8.53125c0-4.714844-3.820313-8.535156-8.535156-8.535156-4.710938 0-8.53125 3.820312-8.53125 8.535156v8.53125c0 14.140625 11.460937 25.601563 25.597656 25.601563h8.535156c4.710938 0 8.53125-3.820313 8.53125-8.535157 0-4.710937-3.820312-8.53125-8.53125-8.53125h-8.535156c-4.710937 0-8.53125-3.820312-8.53125-8.535156zm0 0"/><path d="m333.316406 290.121094c4.710938 0 8.535156-3.820313 8.535156-8.535156v-8.53125c0-14.140626-11.464843-25.601563-25.601562-25.601563h-8.535156c-4.710938 0-8.53125 3.820313-8.53125 8.535156 0 4.710938 3.820312 8.53125 8.53125 8.53125h8.535156c4.710938 0 8.53125 3.820313 8.53125 8.535157v8.53125c0 4.714843 3.820312 8.535156 8.535156 8.535156zm0 0"/><path d="m393.050781 247.453125h-8.535156c-14.136719 0-25.597656 11.460937-25.597656 25.601563v8.53125c0 4.714843 3.820312 8.535156 8.53125 8.535156 4.714843 0 8.535156-3.820313 8.535156-8.535156v-8.53125c0-4.714844 3.820313-8.535157 8.53125-8.535157h8.535156c4.710938 0 8.53125-3.820312 8.53125-8.53125 0-4.714843-3.820312-8.535156-8.53125-8.535156zm0 0"/><path d="m51.714844 307.542969c-28.28125 17.742187-46.90625 47.433593-50.5625 80.617187-3.660156 33.183594 8.050781 66.21875 31.789062 89.691406 21.59375 21.671876 50.871094 33.9375 81.460938 34.136719h167.714844c50.378906.011719 94.441406-33.925781 107.292968-82.640625 12.847656-48.710937-8.738281-99.96875-52.570312-124.804687-2.652344-1.53125-5.921875-1.519531-8.566406.027343-2.644532 1.546876-4.257813 4.390626-4.226563 7.453126s1.703125 5.875 4.378906 7.367187c37.089844 21.015625 55.355469 64.390625 44.480469 105.609375s-48.160156 69.933594-90.789062 69.917969h-51.199219c-14.140625 0-25.601563-11.460938-25.601563-25.597657v-8.535156c0-4.710937-3.820312-8.53125-8.535156-8.53125-4.710938 0-8.53125 3.820313-8.53125 8.53125v8.535156c0 14.136719-11.460938 25.597657-25.601562 25.597657h-48.210938c-26.0625-.179688-50.996094-10.648438-69.378906-29.121094-17.472656-17.101563-27.367188-40.492187-27.476563-64.941406-.015625-33.742188 18.152344-64.875 47.539063-81.457031 3.417968-1.925782 5.082031-5.933594 4.039062-9.710938-.246094-.8125-.371094-1.652344-.378906-2.5.074219-65.953125 53.519531-119.398438 119.46875-119.46875h17.066406c25.859375-.074219 51.035156 8.320312 71.679688 23.894531 2.4375 1.828125 5.667968 2.21875 8.472656 1.019531 2.804688-1.195312 4.753906-3.800781 5.121094-6.824218.363281-3.027344-.914063-6.019532-3.351563-7.847656-17.179687-12.941407-37.195312-21.597657-58.386719-25.25l48.265626-125.722657c4.605468-12.015625 13.980468-21.589843 25.894531-26.453125 11.917969-4.863281 25.3125-4.578125 37.011719.785156.234374.136719.472656.265626.71875.382813 11.722656 5.613281 20.570312 15.867187 24.402343 28.289063 3.832031 12.421874 2.300781 25.875-4.222656 37.121093l-41.140625 70.824219c-1.714844 2.644531-1.835938 6.023438-.304688 8.78125 1.527344 2.757812 4.449219 4.449219 7.601563 4.398438 3.15625-.050782 6.023437-1.839844 7.457031-4.644532l41.148438-70.828125c8.84375-15.246093 10.964844-33.476562 5.871094-50.347656-5.097657-16.871094-16.964844-30.871094-32.765626-38.671875-.257812-.160156-.523437-.304688-.796874-.433594-16.023438-7.636718-34.507813-8.230468-50.988282-1.644531-16.484375 6.585937-29.46875 19.757813-35.820312 36.332031l-49.894532 130.011719c-1.988281-.082031-3.957031-.238281-5.972656-.238281h-17.066406c-2.089844 0-4.121094.222656-6.1875.316406l-49.84375-130.089844c-6.371094-16.582031-19.371094-29.75-35.871094-36.335937-16.496094-6.585938-34.992187-5.988281-51.03125 1.648437-.246094.117188-.503906.253906-.742187.398438-15.824219 7.796875-27.703125 21.804687-32.8125 38.6875-5.105469 16.882812-2.984375 35.125 5.863281 50.386718l69.648438 119.941407c-22.859376 25.023437-35.539063 57.6875-35.558594 91.582031zm145.066406 187.113281c.070312.09375.148438.167969.222656.261719h-.441406c.074219-.09375.152344-.167969.21875-.261719zm-168.582031-444.765625c3.78125-12.40625 12.636719-22.636719 24.371093-28.160156.222657-.113281.441407-.230469.671876-.367188 11.71875-5.375 25.132812-5.664062 37.074218-.804687 11.9375 4.859375 21.332032 14.441406 25.964844 26.472656l48.230469 125.875c-23.875 4.203125-46.195313 14.710938-64.640625 30.4375l-67.484375-116.25c-6.589844-11.25-8.113281-24.769531-4.1875-37.203125zm0 0"/><path d="m61.957031 69.960938c-1.78125-2.996094-2.191406-6.613282-1.128906-9.933594 1.050781-3.390625 3.484375-6.179688 6.699219-7.679688 2.007812-1.007812 3.527344-2.777344 4.230468-4.90625.699219-2.132812.523438-4.457031-.492187-6.460937-2.140625-4.199219-7.257813-5.910157-11.492187-3.839844-7.367188 3.597656-12.90625 10.09375-15.292969 17.9375s-1.40625 16.324219 2.703125 23.414063c2.453125 3.859374 7.515625 5.097656 11.472656 2.8125 3.960938-2.289063 5.410156-7.292969 3.292969-11.34375zm0 0"/><path d="m77.316406 102.386719c0 4.710937-3.820312 8.53125-8.535156 8.53125-4.710938 0-8.53125-3.820313-8.53125-8.53125 0-4.714844 3.820312-8.535157 8.53125-8.535157 4.714844 0 8.535156 3.820313 8.535156 8.535157zm0 0"/><path d="m303.824219 63.203125c3.289062-.015625 6.273437-1.914063 7.679687-4.882813 1.46875-3.160156 4.210938-5.542968 7.542969-6.554687 3.402344-1.074219 7.101563-.632813 10.15625 1.210937 1.96875 1.070313 4.28125 1.3125 6.429687.671876 2.148438-.640626 3.953126-2.109376 5.011719-4.082032 2.242188-4.140625.75-9.3125-3.351562-11.625-7.136719-4.03125-15.628907-4.917968-23.441407-2.441406-7.816406 2.476562-14.246093 8.089844-17.757812 15.5-1.253906 2.636719-1.070312 5.734375.488281 8.207031 1.554688 2.472657 4.269531 3.976563 7.191407 3.984375zm0 0"/><path d="m285.8125 78.289062c-3.882812 2.671876-4.863281 7.984376-2.191406 11.867188 2.671875 3.878906 7.984375 4.863281 11.867187 2.191406 3.882813-2.671875 4.863281-7.984375 2.191407-11.867187-1.28125-1.863281-3.253907-3.144531-5.480469-3.554688-2.226563-.410156-4.523438.078125-6.386719 1.363281zm0 0"/></svg>