<svg height="511pt" viewBox="-8 0 511 511.98661" width="511pt" xmlns="http://www.w3.org/2000/svg"><path d="m162.703125 307.1875c0 4.710938 3.820313 8.53125 8.535156 8.53125 4.710938 0 8.53125-3.820312 8.53125-8.53125 0-4.714844 3.820313-8.535156 8.535157-8.535156 4.710937 0 8.535156 3.820312 8.535156 8.535156 0 4.710938 3.820312 8.53125 8.53125 8.53125 4.714844 0 8.535156-3.820312 8.535156-8.53125 0-14.140625-11.464844-25.601562-25.601562-25.601562-14.136719 0-25.601563 11.460937-25.601563 25.601562zm0 0"/><path d="m290.703125 315.71875c4.714844 0 8.535156-3.820312 8.535156-8.53125 0-4.714844 3.820313-8.535156 8.53125-8.535156 4.714844 0 8.535157 3.820312 8.535157 8.535156 0 4.710938 3.820312 8.53125 8.535156 8.53125 4.710937 0 8.53125-3.820312 8.53125-8.53125 0-14.140625-11.460938-25.601562-25.601563-25.601562-14.136719 0-25.597656 11.460937-25.597656 25.601562 0 4.710938 3.820313 8.53125 8.53125 8.53125zm0 0"/><path d="m158.890625 255.132812c2.023437 1.011719 4.371094 1.179688 6.519531.460938 2.144532-.714844 3.921875-2.257812 4.933594-4.285156 5.902344-11.859375 26.128906-12.390625 26.496094-12.390625 4.710937 0 8.53125-3.820313 8.53125-8.53125 0-4.714844-3.820313-8.535157-8.53125-8.535157-1.257813 0-31.003906.25-41.773438 21.789063-1.023437 2.027344-1.199218 4.382813-.480468 6.542969.71875 2.15625 2.265624 3.9375 4.304687 4.949218zm0 0"/><path d="m299.238281 238.917969c.195313 0 20.480469.34375 26.453125 12.347656 1.363282 2.730469 4.078125 4.523437 7.121094 4.707031 3.046875.1875 5.957031-1.269531 7.636719-3.8125 1.683593-2.542968 1.878906-5.792968.515625-8.519531-10.726563-21.539063-40.472656-21.789063-41.726563-21.789063-4.714843 0-8.535156 3.820313-8.535156 8.535157 0 4.710937 3.820313 8.53125 8.535156 8.53125zm0 0"/><path d="m113.210938 69.960938c-1.78125-2.996094-2.191407-6.613282-1.125-9.933594 1.046874-3.390625 3.480468-6.179688 6.699218-7.679688 2.003906-1.007812 3.523438-2.777344 4.226563-4.90625.699219-2.132812.523437-4.457031-.492188-6.460937-2.140625-4.199219-7.253906-5.910157-11.492187-3.839844-7.367188 3.597656-12.90625 10.09375-15.292969 17.9375s-1.40625 16.324219 2.707031 23.414063c2.453125 3.859374 7.511719 5.097656 11.46875 2.8125 3.960938-2.289063 5.414063-7.292969 3.292969-11.34375zm0 0"/><path d="m128.570312 102.386719c0 4.710937-3.820312 8.53125-8.53125 8.53125-4.714843 0-8.535156-3.820313-8.535156-8.53125 0-4.714844 3.820313-8.535157 8.535156-8.535157 4.710938 0 8.53125 3.820313 8.53125 8.535157zm0 0"/><path d="m351.429688 62.382812c2.042968.96875 4.390624 1.085938 6.523437.324219s3.871094-2.339843 4.839844-4.386719c1.46875-3.160156 4.210937-5.542968 7.542969-6.554687 3.402343-1.074219 7.101562-.632813 10.15625 1.210937 1.96875 1.066407 4.28125 1.308594 6.429687.667969 2.144531-.640625 3.949219-2.109375 5.015625-4.078125 2.238281-4.140625.746094-9.3125-3.355469-11.625-7.136719-4.03125-15.628906-4.917968-23.441406-2.441406-7.816406 2.476562-14.246094 8.089844-17.757813 15.5-.976562 2.042969-1.097656 4.394531-.339843 6.53125.761719 2.132812 2.335937 3.878906 4.386719 4.851562zm0 0"/><path d="m346.742188 92.351562c3.882812-2.671874 4.863281-7.984374 2.191406-11.867187s-7.984375-4.863281-11.867188-2.191406c-3.882812 2.671875-4.863281 7.984375-2.191406 11.867187 1.28125 1.863282 3.253906 3.140625 5.480469 3.554688 2.222656.410156 4.523437-.078125 6.386719-1.363282zm0 0"/><path d="m66.421875 486.386719c7.742187-.023438 15.417969-1.40625 22.683594-4.085938 21.039062 18.921875 48.285156 29.484375 76.585937 29.6875h167.679688c27.769531.042969 54.53125-10.402343 74.929687-29.246093 23.320313 8.070312 49.191407 2.378906 66.972657-14.726563 12.597656-12.101563 19.875-28.710937 20.222656-46.175781.347656-17.460938-6.257813-34.347656-18.363282-46.941406-12.667968-10.398438-27.589843-17.6875-43.582031-21.28125-8.910156-18.839844-22.921875-34.800782-40.445312-46.082032v-.347656c-.015625-33.976562-12.757813-66.710938-35.722657-91.75l69.554688-119.773438c8.847656-15.25 10.976562-33.484374 5.878906-50.359374s-16.964844-30.878907-32.773437-38.679688c-.253907-.160156-.519531-.304688-.792969-.433594-16.027344-7.636718-34.511719-8.230468-50.992188-1.644531-16.484374 6.585937-29.46875 19.757813-35.820312 36.332031l-49.894531 130.074219c-1.976563-.085937-3.933594-.300781-5.972657-.300781h-17.066406c-2.082031 0-4.128906.214844-6.195312.300781l-49.832032-130.074219c-6.375-16.582031-19.375-29.75-35.871093-36.335937-16.5-6.585938-34.996094-5.988281-51.035157 1.648437-.246093.117188-.503906.253906-.742187.398438-15.820313 7.796875-27.703125 21.804687-32.808594 38.6875-5.109375 16.882812-2.984375 35.125 5.859375 50.386718l69.660156 119.960938c-22.925781 24.976562-35.621093 57.660156-35.566406 91.5625v.355469c-6.792968 4.296875-13.085937 9.328125-18.773437 15.003906-8.976563 9.027344-16.328125 19.535156-21.734375 31.0625-15.96875 3.589844-30.875 10.871094-43.519532 21.261719-18.347656 19.019531-23.542968 47.167968-13.191406 71.480468 10.355469 24.316407 34.242188 40.078126 60.667969 40.035157zm164.550781-68.703125c6.480469-.90625 12.476563-3.925782 17.066406-8.59375 4.585938 4.667968 10.585938 7.6875 17.066407 8.59375v8.96875c0 9.425781-7.640625 17.066406-17.066407 17.066406-9.425781 0-17.066406-7.640625-17.066406-17.066406zm16.84375 77.234375c.078125-.09375.152344-.167969.222656-.261719.066407.09375.144532.167969.222657.261719zm230.621094-73.386719c-.398438 19.734375-12.640625 37.285156-31.019531 44.46875-18.378907 7.1875-39.28125 2.597656-52.957031-11.628906-14.25-14.839844-22.09375-67.550782-24.925782-96.367188 28.691406 3.976563 81.066406 13.917969 95.300782 28.746094 8.996093 9.3125 13.894531 21.835938 13.601562 34.78125zm-150.066406-374.542969c4.605468-12.015625 13.980468-21.589843 25.894531-26.453125 11.917969-4.863281 25.3125-4.578125 37.011719.785156.234375.140626.472656.269532.71875.382813 11.722656 5.613281 20.570312 15.867187 24.402344 28.289063 3.828124 12.421874 2.296874 25.878906-4.230469 37.121093l-67.414063 116.050781c-18.476562-15.695312-40.8125-26.167968-64.699218-30.328124zm-248.917969 2.902344c3.785156-12.40625 12.636719-22.636719 24.371094-28.160156.222656-.113281.445312-.230469.675781-.367188 11.714844-5.375 25.132812-5.664062 37.070312-.804687s21.335938 14.441406 25.964844 26.472656l48.210938 125.832031c-23.886719 4.160157-46.210938 14.695313-64.613282 30.488281l-67.488281-116.257812c-6.59375-11.25-8.113281-24.769531-4.191406-37.203125zm16.835937 284.746094c5.972657-5.96875 12.730469-11.09375 20.089844-15.238281 3.414063-1.925782 5.082032-5.933594 4.035156-9.710938-.246093-.8125-.371093-1.652344-.375-2.5.101563-65.9375 53.527344-119.363281 119.464844-119.46875h17.066406c65.953126.070312 119.398438 53.515625 119.46875 119.46875-.007812.847656-.132812 1.6875-.375 2.5-1.046874 3.769531.605469 7.769531 4.007813 9.703125 12.320313 7.042969 22.890625 16.773437 30.925781 28.464844-23.636718-5.117188-45.039062-7.679688-49.492187-8.148438-2.515625-.277343-5.023438.578125-6.847657 2.328125-1.824218 1.753906-2.777343 4.226563-2.597656 6.75.664063 9.449219 7.132813 93.015625 30.539063 117.367188 2.96875 3.082031 6.234375 5.867187 9.746093 8.3125-16.617187 13.308594-37.285156 20.523437-58.574218 20.453125h-51.199219c-14.140625 0-25.601563-11.460938-25.601563-25.597657v-8.535156c-.050781-.382812-.128906-.765625-.230468-1.140625 15.140625-3.796875 25.777344-17.382812 25.832031-32.992187v-11.527344c10.386719-4.925781 17.023437-15.375 17.066406-26.871094v-4.265625c0-4.714843-3.820312-8.535156-8.535156-8.535156-4.710937 0-8.53125 3.820313-8.53125 8.535156v4.265625c0 7.070313-5.730469 12.800782-12.800781 12.800782-7.070313 0-12.800782-5.730469-12.800782-12.800782v-24.59375l12.347657-6.167968c4.21875-2.109376 5.929687-7.234376 3.824219-11.453126-2.105469-4.21875-7.234376-5.929687-11.453126-3.824218l-13.25 6.632812-13.253906-6.675781c-4.21875-2.105469-9.34375-.394531-11.453125 3.824219-2.105469 4.21875-.394531 9.34375 3.824219 11.453125l12.347656 6.210937v24.59375c0 7.070313-5.730468 12.800782-12.800781 12.800782-7.066406 0-12.796875-5.730469-12.796875-12.800782v-4.265625c0-4.714843-3.820312-8.535156-8.535156-8.535156-4.710938 0-8.53125 3.820313-8.53125 8.535156v4.265625c.042968 11.496094 6.679687 21.945313 17.066406 26.871094v11.527344c.050781 15.609375 10.6875 29.195312 25.828125 32.992187-.101563.375-.179687.757813-.230469 1.140625v8.535156c0 14.136719-11.460937 25.597657-25.597656 25.597657h-48.214844c-21.960937-.144531-43.238281-7.632813-60.449218-21.273438 3.105468-2.234375 6.011718-4.742187 8.675781-7.492187 23.410156-24.351563 29.867187-107.917969 30.542969-117.367188.175781-2.523437-.777344-4.996094-2.601563-6.75-1.824219-1.75-4.332031-2.605468-6.84375-2.328125-4.515625.496094-26.003906 3.03125-49.707031 8.183594 3.246094-4.742187 6.921875-9.179687 10.980468-13.253906zm-64.996093 52.082031c14.257812-14.832031 66.609375-24.75 95.296875-28.75-2.832032 28.816406-10.671875 81.527344-24.925782 96.367188-18.671874 19.433593-49.5625 20.050781-68.996093 1.378906-19.433594-18.671875-20.050781-49.5625-1.375-68.996094zm0 0"/></svg>