<svg height="511pt" viewBox="-34 0 511 511.98647" width="511pt" xmlns="http://www.w3.org/2000/svg"><path d="m154.117188 298.652344h-34.132813c-4.714844 0-8.535156 3.820312-8.535156 8.535156 0 4.710938 3.820312 8.53125 8.535156 8.53125h34.132813c4.710937 0 8.53125-3.820312 8.53125-8.53125 0-4.714844-3.820313-8.535156-8.53125-8.535156zm0 0"/><path d="m239.449219 315.71875h34.132812c4.714844 0 8.535157-3.820312 8.535157-8.53125 0-4.714844-3.820313-8.535156-8.535157-8.535156h-34.132812c-4.710938 0-8.53125 3.820312-8.53125 8.535156 0 4.710938 3.820312 8.53125 8.53125 8.53125zm0 0"/><path d="m154.117188 230.386719c-13.171876.4375-26.105469 3.652343-37.949219 9.429687-4.21875 2.105469-5.929688 7.234375-3.824219 11.449219 2.109375 4.21875 7.234375 5.929687 11.453125 3.824219 9.480469-4.585938 19.796875-7.183594 30.320313-7.636719 4.710937 0 8.53125-3.820313 8.53125-8.535156 0-4.710938-3.820313-8.53125-8.53125-8.53125zm0 0"/><path d="m269.769531 255.132812c4.21875 2.105469 9.34375.394532 11.449219-3.824218 2.109375-4.214844.398438-9.34375-3.820312-11.449219-11.84375-5.792969-24.773438-9.023437-37.949219-9.472656-4.710938 0-8.53125 3.820312-8.53125 8.53125 0 4.714843 3.820312 8.535156 8.53125 8.535156 10.523437.464844 20.84375 3.078125 30.320312 7.679687zm0 0"/><path d="m308.363281 327.519531c1.324219 3.191407 4.433594 5.269531 7.886719 5.265625h51.199219c4.714843 0 8.535156-3.820312 8.535156-8.53125 0-4.714844-3.820313-8.535156-8.535156-8.535156h-30.601563l36.636719-36.632812c2.4375-2.441407 3.167969-6.109376 1.847656-9.296876-1.320312-3.1875-4.429687-5.269531-7.882812-5.269531h-51.199219c-4.714844 0-8.535156 3.820313-8.535156 8.535157 0 4.710937 3.820312 8.53125 8.535156 8.53125h30.601562l-36.636718 36.632812c-2.441406 2.441406-3.171875 6.113281-1.851563 9.300781zm0 0"/><path d="m375.984375 196.253906c0 4.710938 3.820313 8.53125 8.53125 8.53125h30.601563l-36.632813 36.636719c-2.441406 2.4375-3.171875 6.109375-1.851563 9.296875 1.320313 3.1875 4.433594 5.265625 7.882813 5.269531h51.199219c4.714844 0 8.535156-3.824219 8.535156-8.535156s-3.820312-8.535156-8.535156-8.535156h-30.597656l36.632812-36.632813c2.4375-2.4375 3.167969-6.109375 1.847656-9.296875-1.320312-3.1875-4.429687-5.269531-7.882812-5.269531h-51.199219c-4.710937 0-8.53125 3.820312-8.53125 8.535156zm0 0"/><path d="m51.714844 307.542969c-28.28125 17.742187-46.90625 47.433593-50.5625 80.617187-3.660156 33.183594 8.050781 66.21875 31.789062 89.691406 21.59375 21.671876 50.871094 33.9375 81.460938 34.136719h167.714844c37.769531-.023437 72.9375-19.253906 93.34375-51.042969 20.402343-31.785156 23.242187-71.765624 7.535156-106.117187-1.269532-2.777344-3.921875-4.667969-6.964844-4.957031-3.039062-.289063-6.003906 1.066406-7.773438 3.554687-1.769531 2.488281-2.078124 5.734375-.808593 8.511719 13.324219 29.058594 10.9375 62.902344-6.328125 89.808594-17.261719 26.90625-47.035156 43.175781-79.003906 43.171875h-51.199219c-14.140625 0-25.601563-11.460938-25.601563-25.597657v-.855468c16.789063-3.46875 29.886719-16.625 33.28125-33.433594.28125 0 .554688.164062.851563.164062 3.453125 0 6.5625-2.082031 7.882812-5.269531 1.320313-3.1875.589844-6.855469-1.847656-9.296875l-8.535156-8.535156-31.632813-31.640625v-16.792969l12.347656-6.167968c4.21875-2.109376 5.929688-7.234376 3.824219-11.453126-2.109375-4.21875-7.234375-5.929687-11.453125-3.824218l-13.253906 6.632812-13.25-6.675781c-4.21875-2.105469-9.34375-.394531-11.453125 3.824219-2.105469 4.21875-.394531 9.34375 3.824219 11.453125l12.347656 6.210937v16.792969l-40.160156 40.160156c-3.328125 3.332031-3.328125 8.730469 0 12.0625 1.820312 1.785157 4.351562 2.644531 6.878906 2.339844 3.386719 16.8125 16.484375 29.976563 33.28125 33.449219v.855468c0 14.136719-11.460938 25.597657-25.601562 25.597657h-48.210938c-26.0625-.179688-50.996094-10.648438-69.378906-29.121094-17.472656-17.101563-27.367188-40.492187-27.476563-64.941406-.015625-33.742188 18.152344-64.875 47.539063-81.457031 3.417968-1.925782 5.082031-5.933594 4.039062-9.710938-.246094-.8125-.371094-1.652344-.378906-2.5.074219-65.953125 53.519531-119.398438 119.46875-119.46875h17.066406c41.054688-.101562 79.261719 20.976562 101.078125 55.757812 2.519531 3.984376 7.789063 5.171876 11.773438 2.652344 3.988281-2.515625 5.175781-7.789062 2.65625-11.773437-4.300781-6.78125-9.183594-13.171875-14.59375-19.105469l69.453125-119.585938c8.847656-15.25 10.976562-33.484374 5.878906-50.359374s-16.964844-30.878907-32.773438-38.679688c-.257812-.160156-.523437-.304688-.796874-.433594-16.023438-7.636718-34.507813-8.230468-50.992188-1.644531-16.480469 6.585937-29.464844 19.757813-35.816406 36.332031l-49.894532 129.960938c-1.988281-.085938-3.976562-.1875-5.972656-.1875h-17.066406c-2.089844 0-4.121094.222656-6.1875.316406l-49.84375-130.089844c-6.371094-16.582031-19.371094-29.75-35.871094-36.335937-16.496094-6.585938-34.992187-5.988281-51.03125 1.648437-.246094.117188-.503906.253906-.742187.398438-15.824219 7.796875-27.703125 21.804687-32.8125 38.6875-5.105469 16.882812-2.984375 35.125 5.863281 50.386718l69.648438 119.941407c-22.859376 25.023437-35.539063 57.6875-35.558594 91.582031zm119.46875 119.109375v-5l25.597656-25.601563 25.601562 25.601563v5c0 14.140625-11.460937 25.601562-25.601562 25.601562-14.136719 0-25.597656-11.460937-25.597656-25.601562zm25.597656 68.003906c.070312.09375.148438.167969.222656.261719h-.441406c.074219-.09375.152344-.167969.21875-.261719zm80.335938-447.667969c4.605468-12.015625 13.980468-21.589843 25.894531-26.453125 11.917969-4.863281 25.3125-4.578125 37.011719.785156.230468.140626.472656.269532.71875.382813 11.722656 5.613281 20.570312 15.867187 24.398437 28.289063 3.832031 12.421874 2.300781 25.878906-4.226563 37.121093l-67.3125 115.890625c-18.480468-15.710937-40.839843-26.164062-64.742187-30.277344zm-248.917969 2.902344c3.78125-12.40625 12.636719-22.636719 24.371093-28.160156.222657-.113281.441407-.230469.671876-.367188 11.71875-5.375 25.132812-5.664062 37.074218-.804687 11.9375 4.859375 21.332032 14.441406 25.964844 26.472656l48.230469 125.875c-23.875 4.203125-46.195313 14.710938-64.640625 30.4375l-67.484375-116.25c-6.589844-11.25-8.113281-24.769531-4.1875-37.203125zm0 0"/><path d="m61.957031 69.960938c-1.78125-2.996094-2.191406-6.613282-1.128906-9.933594 1.050781-3.390625 3.484375-6.179688 6.699219-7.679688 2.007812-1.007812 3.527344-2.777344 4.230468-4.90625.699219-2.132812.523438-4.457031-.492187-6.460937-2.140625-4.199219-7.257813-5.910157-11.492187-3.839844-7.367188 3.597656-12.90625 10.09375-15.292969 17.9375s-1.40625 16.324219 2.703125 23.414063c2.453125 3.859374 7.515625 5.097656 11.472656 2.8125 3.960938-2.289063 5.410156-7.292969 3.292969-11.34375zm0 0"/><path d="m77.316406 102.386719c0 4.710937-3.820312 8.53125-8.535156 8.53125-4.710938 0-8.53125-3.820313-8.53125-8.53125 0-4.714844 3.820312-8.535157 8.53125-8.535157 4.714844 0 8.535156 3.820313 8.535156 8.535157zm0 0"/><path d="m300.171875 62.382812c2.046875.96875 4.394531 1.085938 6.527344.324219 2.128906-.761719 3.871093-2.339843 4.839843-4.386719 1.464844-3.160156 4.210938-5.542968 7.542969-6.554687 3.402344-1.074219 7.101563-.632813 10.15625 1.210937 1.96875 1.070313 4.28125 1.3125 6.429688.671876 2.148437-.640626 3.949219-2.109376 5.011719-4.082032 2.242187-4.140625.75-9.3125-3.351563-11.625-7.136719-4.03125-15.628906-4.917968-23.441406-2.441406-7.816407 2.476562-14.25 8.089844-17.757813 15.5-.976562 2.042969-1.097656 4.394531-.339844 6.53125.757813 2.132812 2.335938 3.878906 4.382813 4.851562zm0 0"/><path d="m295.488281 92.351562c3.882813-2.671874 4.863281-7.984374 2.191407-11.867187-2.671876-3.882813-7.984376-4.863281-11.867188-2.191406s-4.863281 7.984375-2.195312 11.867187c1.285156 1.863282 3.253906 3.140625 5.480468 3.554688 2.226563.410156 4.527344-.078125 6.390625-1.363282zm0 0"/></svg>