<svg height="511pt" viewBox="-25 0 511 511.98334" width="511pt" xmlns="http://www.w3.org/2000/svg"><path d="m88.683594 82.757812c3.046875-.003906 5.863281-1.632812 7.382812-4.273437 1.523438-2.636719 1.523438-5.890625 0-8.527344-1.78125-2.992187-2.191406-6.601562-1.136718-9.917969 1.023437-3.371093 3.441406-6.148437 6.640624-7.625 2.019532-.996093 3.558594-2.753906 4.277344-4.890624.71875-2.132813.554688-4.464844-.457031-6.476563-2.125-4.230469-7.257813-5.957031-11.511719-3.875-7.355468 3.597656-12.890625 10.085937-15.277344 17.921875-2.386718 7.835938-1.410156 16.308594 2.691407 23.394531 1.523437 2.640625 4.34375 4.269531 7.390625 4.269531zm0 0"/><path d="m111.425781 102.382812c0 4.714844-3.820312 8.535157-8.535156 8.535157-4.710937 0-8.53125-3.820313-8.53125-8.535157 0-4.710937 3.820313-8.53125 8.53125-8.53125 4.714844 0 8.535156 3.820313 8.535156 8.53125zm0 0"/><path d="m334.28125 62.371094c1.136719.554687 2.386719.847656 3.652344.851562 3.285156-.011718 6.273437-1.910156 7.679687-4.878906 1.46875-3.160156 4.210938-5.542969 7.542969-6.554688 3.402344-1.074218 7.101562-.632812 10.15625 1.210938 4.101562 2.210938 9.21875.683594 11.441406-3.414062 2.242188-4.136719.75-9.308594-3.351562-11.621094-7.136719-4.035156-15.628906-4.917969-23.441406-2.441406-7.816407 2.476562-14.25 8.089843-17.757813 15.496093-2.003906 4.261719-.179687 9.339844 4.078125 11.351563zm0 0"/><path d="m329.597656 92.347656c3.878906-2.671875 4.859375-7.984375 2.191406-11.867187-2.671874-3.878907-7.984374-4.863281-11.867187-2.191407-3.882813 2.671876-4.867187 7.984376-2.195313 11.867188 1.28125 1.863281 3.253907 3.144531 5.480469 3.554688 2.226563.410156 4.523438-.078126 6.390625-1.363282zm0 0"/><path d="m188.226562 315.714844c4.710938 0 8.53125-3.820313 8.53125-8.53125 0-14.140625-11.460937-25.601563-25.597656-25.601563-14.140625 0-25.601562 11.460938-25.601562 25.601563 0 4.710937 3.820312 8.53125 8.53125 8.53125 4.714844 0 8.535156-3.820313 8.535156-8.53125 0-4.714844 3.820312-8.535156 8.535156-8.535156 4.710938 0 8.53125 3.820312 8.53125 8.535156 0 4.710937 3.820313 8.53125 8.535156 8.53125zm0 0"/><path d="m290.625 281.582031c-14.136719 0-25.601562 11.460938-25.601562 25.601563 0 4.710937 3.820312 8.53125 8.535156 8.53125 4.710937 0 8.53125-3.820313 8.53125-8.53125 0-4.714844 3.824218-8.535156 8.535156-8.535156s8.535156 3.820312 8.535156 8.535156c0 4.710937 3.820313 8.53125 8.53125 8.53125 4.714844 0 8.535156-3.820313 8.535156-8.53125 0-14.140625-11.464843-25.601563-25.601562-25.601563zm0 0"/><path d="m273.558594 392.515625c-4.714844 0-8.535156 3.820313-8.535156 8.535156v4.265625c0 7.070313-5.730469 12.800782-12.796876 12.800782-7.070312 0-12.800781-5.730469-12.800781-12.800782v-41.660156l12.347657-6.167969c4.21875-2.109375 5.929687-7.234375 3.820312-11.453125-2.105469-4.21875-7.230469-5.929687-11.449219-3.824218l-13.253906 6.632812-13.25-6.671875c-4.21875-2.109375-9.347656-.398437-11.453125 3.820313s-.394531 9.347656 3.824219 11.453124l12.347656 6.210938v41.660156c0 7.070313-5.730469 12.800782-12.800781 12.800782-7.070313 0-12.800782-5.730469-12.800782-12.800782v-4.265625c0-4.714843-3.820312-8.535156-8.53125-8.535156-4.714843 0-8.535156 3.820313-8.535156 8.535156v4.265625c-.015625 12.144532 7.332032 23.085938 18.582032 27.664063 11.246093 4.578125 24.148437 1.878906 32.617187-6.824219 8.46875 8.703125 21.371094 11.402344 32.621094 6.824219 11.246093-4.578125 18.597656-15.519531 18.578125-27.664063v-4.265625c0-4.714843-3.820313-8.535156-8.53125-8.535156zm0 0"/><path d="m153.238281 268.332031c5.863281-11.820312 26.085938-12.347656 26.453125-12.347656 4.714844 0 8.535156-3.820313 8.535156-8.535156 0-4.710938-3.820312-8.53125-8.535156-8.53125-1.261718 0-30.992187.246093-41.769531 21.785156-2.109375 4.21875-.394531 9.34375 3.820313 11.449219 4.21875 2.109375 9.347656.398437 11.453124-3.820313zm0 0"/><path d="m282.089844 238.917969c-4.710938 0-8.53125 3.820312-8.53125 8.53125 0 4.714843 3.820312 8.535156 8.53125 8.535156.207031 0 20.480468.339844 26.457031 12.347656 1.359375 2.726563 4.074219 4.523438 7.121094 4.707031 3.042969.183594 5.953125-1.269531 7.636719-3.816406 1.679687-2.542968 1.878906-5.792968.515624-8.519531-10.734374-21.539063-40.464843-21.785156-41.730468-21.785156zm0 0"/><path d="m461.292969 153.582031c0-19.871093-19.160157-37.425781-55.46875-51.105469l3.96875-6.824218c8.84375-15.25 10.96875-33.480469 5.871093-50.351563-5.097656-16.875-16.960937-30.878906-32.769531-38.679687-.25-.160156-.515625-.304688-.785156-.433594-16.023437-7.632812-34.507813-8.226562-50.992187-1.644531-16.484376 6.585937-29.472657 19.75-35.832032 36.324219l-14.472656 37.707031c-33.308594-2.261719-66.730469-2.261719-100.035156 0l-14.449219-37.699219c-6.375-16.578125-19.375-29.746094-35.871094-36.332031-16.496093-6.585938-34.992187-5.988281-51.03125 1.644531-.238281.117188-.488281.246094-.71875.390625-15.835937 7.777344-27.734375 21.78125-32.855469 38.664063-5.121093 16.882812-3.007812 35.136718 5.839844 50.398437l4.019532 6.921875c-36.140626 13.679688-55.21875 31.207031-55.21875 51.019531 0 29.246094 43.203124 53.992188 116.242187 67.160157-20.074219 24.324218-31.007813 54.902343-30.910156 86.441406v.359375c-31.902344 20.304687-51.214844 55.507812-51.199219 93.328125.105469 28.96875 11.804688 56.691406 32.488281 76.980468 21.585938 21.660157 50.851563 33.929688 81.433594 34.132813h167.679687c49.289063.007813 92.675782-32.507813 106.5-79.820313 13.824219-47.3125-5.226562-98.074218-46.769531-124.605468v-.375c.09375-31.527344-10.832031-62.09375-30.890625-86.417969 73.03125-13.175781 116.226563-37.9375 116.226563-67.183594zm-81.527344-6.238281c6.175781 1.988281 11.816406 4.089844 16.671875 6.214844-8.277344 3.539062-16.785156 6.519531-25.460938 8.917968zm-68.542969-100.359375c4.609375-12.015625 13.984375-21.589844 25.898438-26.453125 11.914062-4.863281 25.3125-4.578125 37.011718.785156.234376.136719.472657.265625.714844.382813 11.726563 5.613281 20.570313 15.867187 24.402344 28.289062 3.835938 12.421875 2.304688 25.878907-4.21875 37.121094l-47.054688 80.980469c-21.992187 4.585937-44.273437 7.660156-66.6875 9.199218-5.996093-1.941406-12.125-3.453124-18.335937-4.523437zm-65.824218 123.8125c-1.9375-.085937-3.910157-.148437-5.972657-.148437h-17.066406c-2.1875 0-4.269531.0625-6.246094.148437l-16.15625-42.15625c19.867188-.855469 41.816407-.855469 61.644531 0zm29.011718-75.496094-6.355468 16.570313c-23.636719-1.234375-50.800782-1.234375-74.503907 0l-6.351562-16.570313c29.046875-1.757812 58.167969-1.757812 87.210937 0zm-212.101562-45.414062c3.785156-12.40625 12.636718-22.632813 24.371094-28.160157.222656-.109374.441406-.226562.65625-.359374 11.71875-5.382813 25.140624-5.679688 37.085937-.820313 11.941406 4.863281 21.339844 14.453125 25.964844 26.488281l48.25 125.859375c-6.128907 1.035157-12.171875 2.503907-18.089844 4.394531-22.546875-1.5625-44.964844-4.636718-67.097656-9.199218l-46.933594-80.957032c-6.605469-11.261718-8.136719-24.792968-4.207031-37.246093zm28.089844 112.433593c-8.527344-2.378906-16.894532-5.300781-25.054688-8.738281 4.824219-2.113281 10.378906-4.195312 16.4375-6.160156zm140.269531 332.597657c.078125-.09375.15625-.171875.222656-.265625.070313.09375.144531.171875.222656.265625zm131.859375-175.53125c37.085937 21.015625 55.351562 64.386719 44.480468 105.605469-10.871093 41.21875-48.15625 69.933593-90.78125 69.925781h-51.203124c-14.136719 0-25.597657-11.460938-25.597657-25.601563v-8.53125c0-4.714844-3.820312-8.535156-8.535156-8.535156-4.710937 0-8.53125 3.820312-8.53125 8.535156v8.53125c0 14.140625-11.460937 25.601563-25.601563 25.601563h-48.210937c-26.046875-.183594-50.96875-10.636719-69.351563-29.089844-17.476562-17.097656-27.382812-40.476563-27.503906-64.921875-.035156-33.761719 18.136719-64.917969 47.539063-81.511719 3.421875-1.929687 5.085937-5.945312 4.027343-9.726562-.238281-.808594-.363281-1.644531-.367187-2.484375-.058594-31.136719 12.148437-61.042969 33.980469-83.242188 31.148437 4.371094 62.566406 6.527344 94.019531 6.441406 31.453125.09375 62.867187-2.058593 94.011719-6.441406 21.851562 22.1875 34.0625 52.101563 33.988281 83.242188-.003906.839844-.125 1.675781-.367187 2.484375-1.054688 3.773437.59375 7.78125 4.003906 9.71875zm-33.167969-113.261719c-.875.171875-1.753906.296875-2.636719.375-63.570312 8.910156-128.074218 8.910156-191.644531 0l-3.222656-.511719c-78.535157-12.171875-114.296875-35.695312-114.296875-52.40625 0-12.023437 17.492187-25.257812 46.933594-35.976562l8.53125 14.773437c-10.753907 3.367188-21.015626 8.152344-30.511719 14.222656-2.265625 1.601563-3.609375 4.199219-3.609375 6.96875 0 2.769532 1.34375 5.367188 3.609375 6.96875 19.6875 11.46875 41.234375 19.410157 63.65625 23.464844.179687.042969.355469.078125.539062.101563 24.40625 5.210937 49.15625 8.664062 74.058594 10.328125 15.464844 1.203125 32.335937 1.816406 50.125 1.816406 17.792969 0 34.671875-.613281 50.195313-1.808594 24.949218-1.632812 49.746093-5.121094 74.179687-10.429687l.347656-.074219c22.417969-4.019531 43.960938-11.929688 63.652344-23.375 2.257813-1.59375 3.605469-4.183594 3.617187-6.945312.007813-2.765626-1.324218-5.363282-3.574218-6.972657-9.542969-6.210937-19.90625-11.054687-30.789063-14.394531l8.535157-14.761719c29.589843 10.75 47.171874 24.011719 47.171874 36.09375 0 16.742188-35.839843 40.320313-114.867187 52.542969zm0 0"/></svg>