<svg height="511pt" viewBox="-60 0 511 511.98648" width="511pt" xmlns="http://www.w3.org/2000/svg"><path d="m114.4375 511.988281h167.679688c49.289062.007813 92.675781-32.507812 106.5-79.820312 13.824218-47.3125-5.226563-98.074219-46.765626-124.605469v-.375c-.015624-33.976562-12.761718-66.710938-35.722656-91.75l69.554688-119.773438c8.847656-15.25 10.976562-33.484374 5.878906-50.359374s-16.964844-30.878907-32.773438-38.679688c-.257812-.160156-.523437-.304688-.796874-.433594-16.023438-7.636718-34.507813-8.230468-50.988282-1.644531-16.484375 6.585937-29.46875 19.757813-35.820312 36.332031l-49.894532 130.074219c-1.980468-.085937-3.933593-.300781-5.972656-.300781h-17.066406c-2.089844 0-4.121094.222656-6.1875.316406l-49.84375-130.089844c-6.371094-16.582031-19.371094-29.75-35.871094-36.335937-16.496094-6.585938-34.992187-5.988281-51.03125 1.648437-.246094.117188-.503906.253906-.742187.398438-15.824219 7.796875-27.703125 21.804687-32.8125 38.6875-5.105469 16.882812-2.984375 35.125 5.863281 50.386718l69.648438 119.941407c-22.859376 25.023437-35.539063 57.6875-35.558594 91.582031v.355469c-28.28125 17.742187-46.90625 47.433593-50.5625 80.617187-3.660156 33.183594 8.050781 66.21875 31.789062 89.691406 21.601563 21.679688 50.890625 33.945313 81.496094 34.136719zm65.277344-94.304687c6.480468-.90625 12.480468-3.925782 17.066406-8.59375 4.589844 4.667968 10.589844 7.6875 17.070312 8.59375v8.96875c0 9.425781-7.644531 17.066406-17.070312 17.066406s-17.066406-7.640625-17.066406-17.066406zm16.847656 77.234375c.074219-.09375.152344-.167969.21875-.261719.070312.09375.148438.167969.222656.261719zm80.554688-447.929688c4.605468-12.015625 13.980468-21.589843 25.894531-26.453125 11.917969-4.863281 25.3125-4.578125 37.011719.785156.230468.140626.472656.269532.71875.382813 11.722656 5.613281 20.570312 15.867187 24.398437 28.289063 3.832031 12.421874 2.300781 25.878906-4.226563 37.121093l-67.414062 116.050781c-18.476562-15.695312-40.816406-26.167968-64.699219-30.328124zm-248.917969 2.902344c3.78125-12.40625 12.636719-22.636719 24.371093-28.160156.222657-.113281.441407-.230469.671876-.367188 11.71875-5.375 25.132812-5.664062 37.074218-.804687 11.9375 4.859375 21.332032 14.441406 25.964844 26.472656l48.230469 125.875c-23.875 4.203125-46.195313 14.710938-64.640625 30.4375l-67.484375-116.25c-6.589844-11.25-8.113281-24.769531-4.1875-37.203125zm16.835937 284.746094c5.972656-5.96875 12.730469-11.09375 20.085938-15.238281 3.417968-1.925782 5.082031-5.933594 4.039062-9.710938-.246094-.8125-.371094-1.652344-.378906-2.5.074219-65.953125 53.519531-119.398438 119.46875-119.46875h17.066406c65.949219.070312 119.394532 53.515625 119.464844 119.46875-.003906.847656-.128906 1.6875-.375 2.5-1.042969 3.773438.613281 7.773438 4.019531 9.703125 37.089844 21.015625 55.355469 64.390625 44.480469 105.609375s-48.160156 69.933594-90.789062 69.917969h-51.199219c-14.140625 0-25.601563-11.460938-25.601563-25.597657v-8.535156c-.050781-.382812-.128906-.765625-.230468-1.140625 15.140624-3.796875 25.777343-17.382812 25.832031-32.992187v-11.527344c10.382812-4.925781 17.019531-15.375 17.066406-26.871094v-4.265625c0-4.714843-3.820313-8.535156-8.535156-8.535156-4.710938 0-8.53125 3.820313-8.53125 8.535156v4.265625c0 7.070313-5.730469 12.800782-12.800781 12.800782-7.070313 0-12.800782-5.730469-12.800782-12.800782v-24.59375l12.347656-6.167968c4.21875-2.109376 5.929688-7.234376 3.824219-11.453126-2.109375-4.21875-7.234375-5.929687-11.453125-3.824218l-13.253906 6.632812-13.25-6.675781c-4.21875-2.105469-9.34375-.394531-11.453125 3.824219-2.105469 4.21875-.394531 9.34375 3.824219 11.453125l12.347656 6.210937v24.59375c0 7.070313-5.730469 12.800782-12.800781 12.800782-7.070313 0-12.800781-5.730469-12.800781-12.800782v-4.265625c0-4.714843-3.820313-8.535156-8.53125-8.535156-4.714844 0-8.535157 3.820313-8.535157 8.535156v4.265625c.042969 11.496094 6.679688 21.945313 17.066407 26.871094v11.527344c.054687 15.609375 10.691406 29.195312 25.832031 32.992187-.101563.375-.179688.757813-.230469 1.140625v8.535156c0 14.136719-11.460938 25.597657-25.601562 25.597657h-48.210938c-26.0625-.179688-50.996094-10.648438-69.378906-29.121094-17.472656-17.101563-27.367188-40.492187-27.476563-64.941406-.03125-24.847657 9.847657-48.679688 27.453125-66.21875zm0 0"/><path d="m61.957031 69.960938c-1.78125-2.996094-2.191406-6.613282-1.128906-9.933594 1.050781-3.390625 3.484375-6.179688 6.699219-7.679688 2.007812-1.007812 3.527344-2.777344 4.230468-4.90625.699219-2.132812.523438-4.457031-.492187-6.460937-2.140625-4.203125-7.257813-5.914063-11.492187-3.839844-7.367188 3.597656-12.90625 10.09375-15.292969 17.9375s-1.40625 16.324219 2.703125 23.414063c2.453125 3.859374 7.515625 5.097656 11.472656 2.8125 3.960938-2.289063 5.410156-7.292969 3.292969-11.34375zm0 0"/><path d="m77.316406 102.386719c0 4.710937-3.820312 8.53125-8.535156 8.53125-4.710938 0-8.53125-3.820313-8.53125-8.53125 0-4.714844 3.820312-8.535157 8.53125-8.535157 4.714844 0 8.535156 3.820313 8.535156 8.535157zm0 0"/><path d="m300.171875 62.382812c2.046875.96875 4.394531 1.085938 6.527344.324219 2.128906-.761719 3.871093-2.339843 4.839843-4.386719 1.464844-3.160156 4.210938-5.542968 7.542969-6.554687 3.402344-1.074219 7.101563-.632813 10.15625 1.210937 1.96875 1.070313 4.28125 1.3125 6.429688.671876 2.148437-.640626 3.949219-2.109376 5.011719-4.082032 2.242187-4.140625.75-9.3125-3.351563-11.625-7.136719-4.03125-15.628906-4.917968-23.441406-2.441406-7.816407 2.476562-14.25 8.089844-17.757813 15.5-.976562 2.042969-1.097656 4.394531-.339844 6.53125.757813 2.132812 2.335938 3.878906 4.382813 4.851562zm0 0"/><path d="m295.488281 92.351562c3.882813-2.671874 4.863281-7.984374 2.191407-11.867187-2.671876-3.882813-7.984376-4.863281-11.867188-2.191406s-4.863281 7.984375-2.195312 11.867187c1.285156 1.863282 3.253906 3.140625 5.480468 3.554688 2.226563.410156 4.527344-.078125 6.390625-1.363282zm0 0"/><path d="m216.042969 307.511719c4.625 7.328125 19.53125 27.125 20.164062 27.960937 2.488281 3.308594 6.992188 4.351563 10.683594 2.476563.929687-.476563 23.039063-11.707031 30.414063-16.265625.910156-.570313 1.875-1.117188 2.867187-1.707032 10.851563-4.957031 18.808594-14.640624 21.570313-26.246093 2.246093-8.121094 1.101562-16.804688-3.171876-24.066407-4.273437-6.507812-10.984374-11.03125-18.621093-12.542968-6.933594-1.613282-14.214844-.703125-20.539063 2.558594-4.265625-5.726563-10.4375-9.742188-17.402344-11.320313-7.527343-1.996094-15.539062-.878906-22.234374 3.097656-7.03125 4.640625-11.871094 11.941407-13.417969 20.222657-2.632813 11.636718.257812 23.835937 7.828125 33.058593.65625.945313 1.277344 1.867188 1.859375 2.773438zm6.964843-31.984375c.621094-3.804688 2.679688-7.222656 5.75-9.558594 1.6875-.988281 3.617188-1.492188 5.570313-1.449219 1.292969.011719 2.578125.164063 3.832031.460938 4.832032 1.148437 8.644532 4.859375 9.925782 9.660156.773437 3.121094 3.234374 5.546875 6.371093 6.265625 3.132813.722656 6.410157-.382812 8.46875-2.851562 3.253907-3.734376 8.296875-5.390626 13.132813-4.308594 3.222656.570312 6.101562 2.367187 8.027344 5.015625 1.738281 3.433593 2.089843 7.40625.984374 11.09375-1.691406 6.984375-6.691406 12.699219-13.390624 15.300781-1.160157.664062-2.296876 1.3125-3.363282 1.980469-4.476562 2.753906-15.640625 8.601562-22.789062 12.296875-4.804688-6.453125-12.265625-16.609375-15.070313-21.0625-.675781-1.058594-1.410156-2.140625-2.160156-3.25-4.863281-5.273438-6.839844-12.589844-5.289063-19.59375zm0 0"/><path d="m113.394531 319.988281c.992188.570313 1.953125 1.117188 2.867188 1.703125 7.390625 4.558594 29.484375 15.789063 30.414062 16.265625 3.691407 1.875 8.195313.832031 10.683594-2.472656.632813-.855469 15.539063-20.636719 20.164063-27.957031.582031-.914063 1.203124-1.835938 1.84375-2.78125 7.570312-9.222656 10.457031-21.421875 7.824218-33.058594-1.542968-8.28125-6.386718-15.578125-13.414062-20.222656-6.695313-3.976563-14.710938-5.09375-22.238282-3.097656-6.941406 1.574218-13.097656 5.574218-17.355468 11.28125-6.324219-3.277344-13.609375-4.183594-20.539063-2.5625-7.640625 1.515624-14.351562 6.035156-18.621093 12.546874-4.273438 7.257813-5.421876 15.941407-3.175782 24.0625 2.746094 11.617188 10.695313 21.316407 21.546875 26.292969zm-3.933593-41.226562c1.925781-2.648438 4.804687-4.445313 8.03125-5.015625 1.007812-.242188 2.042968-.359375 3.078124-.359375 3.859376.070312 7.511719 1.765625 10.054688 4.667969 2.058594 2.46875 5.332031 3.574218 8.46875 2.851562 3.132812-.71875 5.597656-3.144531 6.371094-6.265625 1.277344-4.800781 5.089844-8.511719 9.921875-9.660156 3.140625-.878907 6.5-.523438 9.386719.988281 3.070312 2.335938 5.128906 5.753906 5.753906 9.558594 1.554687 7.015625-.429688 14.351562-5.308594 19.628906-.75 1.109375-1.484375 2.191406-2.160156 3.257812-2.808594 4.445313-10.238282 14.601563-15.070313 21.050782-7.148437-3.695313-18.3125-9.539063-22.792969-12.296875-1.066406-.664063-2.199218-1.3125-3.359374-1.976563-6.699219-2.601562-11.699219-8.316406-13.390626-15.300781-1.101562-3.699219-.738281-7.683594 1.015626-11.121094zm0 0"/></svg>