<svg height="511pt" viewBox="-60 0 511 511.98648" width="511pt" xmlns="http://www.w3.org/2000/svg"><path d="m114.4375 511.988281h167.679688c49.289062.007813 92.675781-32.507812 106.5-79.820312 13.824218-47.3125-5.226563-98.074219-46.765626-124.605469v-.375c-.042968-15.195312-2.640624-30.273438-7.683593-44.605469l4.488281-6.554687c.410156-.09375.839844-.082032 1.238281.042968 0 0 1.957031 1.621094 1.957031 9.304688 0 4.710938 3.820313 8.53125 8.53125 8.53125 4.714844 0 8.535157-3.820312 8.535157-8.53125 1.136719-9.136719-2.640625-18.191406-9.933594-23.808594-6.003906-3.304687-13.238281-3.488281-19.398437-.488281-1.332032.644531-2.476563 1.625-3.308594 2.851563v.050781c-5.453125-10.347657-12.214844-19.953125-20.113282-28.578125l69.554688-119.773438c8.832031-15.25 10.949219-33.476562 5.84375-50.34375-5.101562-16.867187-16.96875-30.867187-32.773438-38.660156-.257812-.160156-.523437-.304688-.796874-.433594-16.023438-7.636718-34.507813-8.230468-50.988282-1.644531-16.484375 6.585937-29.46875 19.757813-35.820312 36.332031l-49.894532 130.074219c-1.980468-.085937-3.933593-.300781-5.972656-.300781h-17.066406c-2.089844 0-4.121094.222656-6.1875.316406l-49.84375-130.089844c-6.371094-16.582031-19.371094-29.75-35.871094-36.335937-16.496094-6.585938-34.992187-5.988281-51.03125 1.648437-.246094.117188-.503906.253906-.742187.398438-15.824219 7.796875-27.703125 21.804687-32.8125 38.6875-5.105469 16.882812-2.984375 35.125 5.863281 50.386718l69.648438 119.941407c-7.824219 8.597656-14.527344 18.152343-19.949219 28.433593v-.050781c-.832031-1.222656-1.972657-2.203125-3.304688-2.851562-6.160156-2.996094-13.398437-2.8125-19.402343.488281-7.285157 5.597656-11.074219 14.628906-9.96875 23.75 0 4.710938 3.820312 8.53125 8.535156 8.53125 4.710937 0 8.53125-3.820312 8.53125-8.53125 0-7.75 1.894531-9.320312 1.914062-9.335938.402344-.121093.824219-.140624 1.234375-.050781l4.492188 6.550781c-5.03125 14.351563-7.613281 29.441407-7.640625 44.648438v.355469c-28.28125 17.742187-46.90625 47.433593-50.5625 80.617187-3.660156 33.183594 8.050781 66.21875 31.789062 89.691406 21.601563 21.679688 50.890625 33.945313 81.496094 34.136719zm82.125-17.070312c.074219-.09375.152344-.167969.21875-.261719.070312.09375.148438.167969.222656.261719zm80.554688-447.929688c4.605468-12.015625 13.980468-21.589843 25.894531-26.453125 11.917969-4.863281 25.3125-4.578125 37.011719.785156.230468.140626.472656.269532.71875.382813 11.722656 5.613281 20.570312 15.867187 24.398437 28.289063 3.832031 12.421874 2.300781 25.878906-4.226563 37.121093l-67.414062 116.050781c-18.476562-15.695312-40.816406-26.167968-64.699219-30.328124zm-248.917969 2.902344c3.78125-12.40625 12.636719-22.636719 24.371093-28.160156.222657-.113281.441407-.230469.671876-.367188 11.71875-5.375 25.132812-5.664062 37.074218-.804687 11.9375 4.859375 21.332032 14.441406 25.964844 26.472656l48.230469 125.875c-23.875 4.203125-46.195313 14.710938-64.640625 30.4375l-67.484375-116.25c-6.589844-11.25-8.113281-24.769531-4.1875-37.203125zm160.050781 137.828125h17.066406c47.8125.054688 91.003906 28.582031 109.824219 72.535156l-11.519531 16.808594c-5.027344-12.890625-14.355469-23.652344-26.402344-30.460938l.179688-.0625c2.023437-1.011718 3.566406-2.785156 4.285156-4.933593.714844-2.148438.550781-4.492188-.464844-6.515625-10.765625-21.523438-40.515625-21.769532-41.769531-21.769532-4.710938 0-8.53125 3.820313-8.53125 8.53125 0 4.714844 3.820312 8.535157 8.53125 8.535157.1875 0 18.773437.425781 25.558593 11.042969-26.15625-7.851563-54.292968 3.128906-68.226562 26.613281-13.933594-23.503907-42.097656-34.484375-68.265625-26.613281 6.828125-10.445313 25.25-11.042969 25.601563-11.042969 4.710937 0 8.53125-3.820313 8.53125-8.535157 0-4.710937-3.820313-8.53125-8.53125-8.53125-1.253907 0-31.003907.246094-41.773438 21.785157-1.011719 2.023437-1.175781 4.371093-.460938 6.519531.71875 2.144531 2.257813 3.921875 4.285157 4.933594l.179687.058594c-12.042968 6.804687-21.371094 17.558593-26.402344 30.445312l-11.519531-16.808594c18.820313-43.953125 62.007813-72.480468 109.824219-72.535156zm102.398438 110.933594c0 23.566406-19.101563 42.667968-42.664063 42.667968-23.566406 0-42.667969-19.101562-42.667969-42.667968 0-23.5625 19.101563-42.664063 42.667969-42.664063 23.550781.027344 42.636719 19.113281 42.664063 42.664063zm-145.066407-42.664063c23.566407 0 42.667969 19.101563 42.667969 42.664063 0 23.566406-19.101562 42.667968-42.667969 42.667968-23.5625 0-42.664062-19.101562-42.664062-42.667968.027343-23.550782 19.113281-42.636719 42.664062-42.664063zm-100.546875 78.648438c5.972656-5.96875 12.730469-11.09375 20.085938-15.238281 3.417968-1.925782 5.082031-5.933594 4.039062-9.710938-.246094-.8125-.371094-1.652344-.378906-2.5.027344-8.882812 1.046875-17.738281 3.039062-26.394531l14.175782 20.710937c1.210937 26.300782 19.527344 48.691406 45.066406 55.089844s52.25-4.710938 65.71875-27.332031c13.472656 22.621093 40.183594 33.730469 65.722656 27.332031 25.539063-6.398438 43.855469-28.789062 45.066406-55.089844l14.175782-20.710937c1.992187 8.65625 3.011718 17.511719 3.035156 26.394531-.003906.847656-.128906 1.6875-.375 2.5-1.042969 3.773438.613281 7.773438 4.019531 9.703125 37.089844 21.015625 55.355469 64.390625 44.480469 105.609375s-48.160156 69.933594-90.789062 69.917969h-51.199219c-14.140625 0-25.601563-11.460938-25.601563-25.597657v-8.535156c0-4.710937-3.820312-8.53125-8.535156-8.53125-4.710938 0-8.53125 3.820313-8.53125 8.53125v8.535156c0 14.136719-11.460938 25.597657-25.601562 25.597657h-48.210938c-26.0625-.179688-50.996094-10.648438-69.378906-29.121094-17.472656-17.101563-27.367188-40.492187-27.476563-64.941406-.03125-24.847657 9.847657-48.679688 27.453125-66.21875zm0 0"/><path d="m61.957031 69.960938c-1.78125-2.996094-2.191406-6.613282-1.128906-9.933594 1.050781-3.390625 3.484375-6.179688 6.699219-7.679688 2.007812-1.007812 3.527344-2.777344 4.230468-4.90625.699219-2.132812.523438-4.457031-.492187-6.460937-2.140625-4.203125-7.257813-5.914063-11.492187-3.839844-7.367188 3.597656-12.90625 10.09375-15.292969 17.9375s-1.40625 16.324219 2.703125 23.414063c2.453125 3.859374 7.515625 5.097656 11.472656 2.8125 3.960938-2.289063 5.410156-7.292969 3.292969-11.34375zm0 0"/><path d="m77.316406 102.386719c0 4.710937-3.820312 8.53125-8.535156 8.53125-4.710938 0-8.53125-3.820313-8.53125-8.53125 0-4.714844 3.820312-8.535157 8.53125-8.535157 4.714844 0 8.535156 3.820313 8.535156 8.535157zm0 0"/><path d="m300.171875 62.382812c2.046875.96875 4.394531 1.085938 6.527344.324219 2.128906-.761719 3.871093-2.339843 4.839843-4.386719 1.464844-3.160156 4.210938-5.542968 7.542969-6.554687 3.402344-1.074219 7.101563-.632813 10.15625 1.210937 1.96875 1.070313 4.28125 1.3125 6.429688.671876 2.148437-.640626 3.949219-2.109376 5.011719-4.082032 2.242187-4.140625.75-9.3125-3.351563-11.625-7.136719-4.03125-15.628906-4.917968-23.441406-2.441406-7.816407 2.476562-14.25 8.089844-17.757813 15.5-.976562 2.042969-1.097656 4.394531-.339844 6.53125.757813 2.132812 2.335938 3.878906 4.382813 4.851562zm0 0"/><path d="m295.488281 92.351562c3.882813-2.671874 4.863281-7.984374 2.191407-11.867187-2.671876-3.882813-7.984376-4.863281-11.867188-2.191406s-4.863281 7.984375-2.195312 11.867187c1.285156 1.863282 3.253906 3.140625 5.480468 3.554688 2.226563.410156 4.527344-.078125 6.390625-1.363282zm0 0"/><path d="m145.582031 324.253906c14.140625 0 25.601563-11.460937 25.601563-25.601562 0-14.136719-11.460938-25.597656-25.601563-25.597656-14.136719 0-25.597656 11.460937-25.597656 25.597656 0 14.140625 11.460937 25.601562 25.597656 25.601562zm0-34.132812c4.714844 0 8.535157 3.820312 8.535157 8.53125 0 4.714844-3.820313 8.535156-8.535157 8.535156-4.710937 0-8.53125-3.820312-8.53125-8.535156 0-4.710938 3.820313-8.53125 8.53125-8.53125zm0 0"/><path d="m222.382812 298.652344c0 14.140625 11.460938 25.601562 25.601563 25.601562 14.136719 0 25.597656-11.460937 25.597656-25.601562 0-14.136719-11.460937-25.597656-25.597656-25.597656-14.140625 0-25.601563 11.460937-25.601563 25.597656zm34.132813 0c0 4.714844-3.820313 8.535156-8.53125 8.535156-4.714844 0-8.535156-3.820312-8.535156-8.535156 0-4.710938 3.820312-8.53125 8.535156-8.53125 4.710937 0 8.53125 3.820312 8.53125 8.53125zm0 0"/><path d="m175.449219 435.1875c8.039062-.003906 15.734375-3.261719 21.332031-9.027344 8.46875 8.703125 21.371094 11.402344 32.621094 6.824219s18.597656-15.519531 18.582031-27.664063v-4.265624c0-4.714844-3.820313-8.535157-8.535156-8.535157-4.710938 0-8.53125 3.820313-8.53125 8.535157v4.265624c0 7.070313-5.730469 12.800782-12.800781 12.800782-7.070313 0-12.800782-5.730469-12.800782-12.800782v-24.59375l12.347656-6.167968c4.21875-2.109375 5.929688-7.234375 3.824219-11.453125-2.109375-4.21875-7.234375-5.929688-11.453125-3.824219l-13.253906 6.632812-13.25-6.632812c-4.21875-2.105469-9.34375-.394531-11.453125 3.824219-2.105469 4.21875-.394531 9.34375 3.824219 11.453125l12.347656 6.167968v24.59375c0 7.070313-5.730469 12.800782-12.800781 12.800782-7.070313 0-12.800781-5.730469-12.800781-12.800782v-4.265624c0-4.714844-3.820313-8.535157-8.53125-8.535157-4.714844 0-8.535157 3.820313-8.535157 8.535157v4.265624c0 16.496094 13.371094 29.867188 29.867188 29.867188zm0 0"/></svg>