<svg height="511pt" viewBox="-59 0 511 511.98334" width="511pt" xmlns="http://www.w3.org/2000/svg"><path d="m32.976562 477.851562c21.589844 21.660157 50.851563 33.929688 81.433594 34.132813h167.679688c49.292968.007813 92.679687-32.507813 106.503906-79.820313s-5.226562-98.074218-46.769531-124.605468v-.375c-.011719-33.976563-12.757813-66.714844-35.71875-91.757813l69.554687-119.773437c8.847656-15.25 10.972656-33.480469 5.875-50.355469-5.097656-16.871094-16.964844-30.878906-32.773437-38.675781-.253907-.160156-.519531-.304688-.792969-.433594-16.027344-7.632812-34.511719-8.226562-50.992188-1.640625-16.484374 6.585937-29.46875 19.753906-35.824218 36.328125l-49.886719 130.074219c-1.980469-.085938-3.933594-.300781-5.972656-.300781h-17.066407c-2.082031 0-4.125.214843-6.195312.300781l-49.835938-130.074219c-6.375-16.578125-19.375-29.746094-35.871093-36.332031-16.5-6.585938-34.992188-5.988281-51.03125 1.644531-.238281.117188-.488281.246094-.71875.390625-15.832031 7.789063-27.722657 21.796875-32.835938 38.683594-5.113281 16.882812-2.992187 35.136719 5.863281 50.398437l69.589844 119.839844c-9.476562 10.414062-17.285156 22.230469-23.144531 35.03125-2.558594-3.925781-4.53125-6.769531-5.332031-7.929688-1.675782-2.179687-4.273438-3.457031-7.023438-3.457031s-5.347656 1.277344-7.023437 3.457031c-4.523438 6.554688-44.175781 64.691407-44.175781 90.183594.003906 9.675782 2.777343 19.148438 7.988281 27.304688-5.210938 12.96875-7.921875 26.804687-7.988281 40.78125.105468 28.96875 11.804687 56.691406 32.484374 76.980468zm163.558594 17.066407c.078125-.09375.15625-.171875.222656-.265625.070313.09375.144532.171875.222657.265625zm80.554688-447.933594c4.609375-12.015625 13.980468-21.589844 25.898437-26.453125 11.914063-4.863281 25.3125-4.578125 37.011719.785156.230469.136719.472656.265625.714844.382813 11.726562 5.613281 20.570312 15.867187 24.402344 28.289062 3.832031 12.421875 2.304687 25.878907-4.21875 37.121094l-67.414063 116.050781c-18.476563-15.695312-40.816406-26.167968-64.699219-30.324218zm-248.917969 2.902344c3.789063-12.40625 12.640625-22.632813 24.375-28.160157.222656-.109374.441406-.226562.65625-.359374 11.714844-5.386719 25.136719-5.683594 37.082031-.820313 11.941406 4.859375 21.34375 14.445313 25.96875 26.480469l48.222656 125.832031c-23.898437 4.160156-46.226562 14.695313-64.632812 30.5l-67.480469-116.226563c-6.597656-11.265624-8.121093-24.796874-4.191406-37.246093zm75.640625 172.867187c22.3125-22.511718 52.71875-35.132812 84.414062-35.039062h17.066407c65.949219.074218 119.394531 53.519531 119.464843 119.46875-.003906.839844-.128906 1.675781-.367187 2.484375-1.054687 3.773437.59375 7.78125 4.003906 9.71875 37.085938 21.015625 55.351563 64.386719 44.480469 105.605469-10.875 41.21875-48.15625 69.933593-90.785156 69.925781h-51.199219c-14.136719 0-25.597656-11.460938-25.597656-25.601563v-8.53125c0-4.714844-3.820313-8.535156-8.535157-8.535156-4.710937 0-8.53125 3.820312-8.53125 8.535156v8.53125c0 14.140625-11.464843 25.601563-25.601562 25.601563h-48.214844c-26.042968-.183594-50.96875-10.636719-69.347656-29.089844-17.472656-17.089844-27.378906-40.464844-27.503906-64.90625.054687-9.082031 1.417968-18.109375 4.042968-26.804687 15.550782 11.378906 36.175782 13.046874 53.347657 4.316406 17.175781-8.734375 27.976562-26.382813 27.941406-45.648438 0-15.644531-14.914063-43.523437-27.5-64.308594 5.855469-17.210937 15.578125-32.851562 28.421875-45.722656zm-52.121094 40.054688c15.359375 23.671875 34.132813 56.867187 34.132813 69.976562 0 18.847656-15.28125 34.132813-34.132813 34.132813-18.851562 0-34.132812-15.285157-34.132812-34.132813 0-13.117187 18.773437-46.3125 34.132812-69.976562zm0 0"/><path d="m111.425781 307.183594c0 14.136718 11.460938 25.601562 25.597657 25.601562 14.140624 0 25.601562-11.464844 25.601562-25.601562 0-14.140625-11.460938-25.601563-25.601562-25.601563-14.136719 0-25.597657 11.460938-25.597657 25.601563zm34.132813 0c0 4.710937-3.820313 8.53125-8.535156 8.53125-4.710938 0-8.53125-3.820313-8.53125-8.53125 0-4.714844 3.820312-8.535156 8.53125-8.535156 4.714843 0 8.535156 3.820312 8.535156 8.535156zm0 0"/><path d="m256.492188 332.785156c14.136718 0 25.597656-11.464844 25.597656-25.601562 0-14.140625-11.460938-25.601563-25.597656-25.601563-14.140626 0-25.601563 11.460938-25.601563 25.601563 0 14.136718 11.460937 25.601562 25.601563 25.601562zm0-34.136718c4.710937 0 8.53125 3.820312 8.53125 8.535156 0 4.710937-3.820313 8.53125-8.53125 8.53125-4.714844 0-8.535157-3.820313-8.535157-8.53125 0-4.714844 3.820313-8.535156 8.535157-8.535156zm0 0"/><path d="m177.984375 414.703125 18.773437-25.027344 18.773438 25.027344c2.828125 3.769531 8.175781 4.535156 11.945312 1.707031 3.773438-2.828125 4.535157-8.175781 1.707032-11.945312l-23.890625-31.855469v-8.953125l12.347656-6.167969c4.214844-2.109375 5.929687-7.234375 3.820313-11.453125-2.105469-4.21875-7.230469-5.929687-11.449219-3.824218l-13.253907 6.632812-13.25-6.671875c-4.21875-2.109375-9.347656-.398437-11.453124 3.820313-2.105469 4.21875-.394532 9.347656 3.824218 11.453124l12.347656 6.210938v8.953125l-23.894531 31.855469c-2.828125 3.769531-2.0625 9.117187 1.707031 11.945312 3.769532 2.828125 9.117188 2.0625 11.945313-1.707031zm0 0"/><path d="m61.933594 69.957031c-1.78125-2.992187-2.195313-6.601562-1.136719-9.917969 1.023437-3.371093 3.441406-6.148437 6.640625-7.625 2.019531-.996093 3.558594-2.753906 4.277344-4.890624.714844-2.132813.554687-4.464844-.457032-6.476563-2.125-4.230469-7.261718-5.957031-11.511718-3.875-7.355469 3.597656-12.890625 10.085937-15.277344 17.921875s-1.410156 16.308594 2.691406 23.394531c2.453125 3.859375 7.511719 5.101563 11.472656 2.8125 3.957032-2.289062 5.410157-7.292969 3.289063-11.34375zm0 0"/><path d="m77.292969 102.382812c0 4.714844-3.820313 8.535157-8.535157 8.535157-4.710937 0-8.53125-3.820313-8.53125-8.535157 0-4.710937 3.820313-8.53125 8.53125-8.53125 4.714844 0 8.535157 3.820313 8.535157 8.53125zm0 0"/><path d="m300.148438 62.371094c1.136718.554687 2.386718.847656 3.652343.851562 3.285157-.011718 6.273438-1.910156 7.679688-4.878906 1.464843-3.160156 4.210937-5.542969 7.542969-6.554688 3.402343-1.070312 7.101562-.628906 10.15625 1.210938 1.96875 1.066406 4.28125 1.304688 6.429687.664062 2.144531-.636718 3.949219-2.105468 5.011719-4.078124 2.242187-4.136719.75-9.308594-3.351563-11.621094-7.136719-4.035156-15.628906-4.917969-23.445312-2.441406-7.8125 2.476562-14.246094 8.089843-17.753907 15.496093-2.003906 4.261719-.179687 9.339844 4.078126 11.351563zm0 0"/><path d="m295.464844 92.347656c3.878906-2.671875 4.859375-7.984375 2.1875-11.867187-2.671875-3.878907-7.980469-4.863281-11.863282-2.191407-3.882812 2.671876-4.867187 7.984376-2.195312 11.867188 1.28125 1.863281 3.253906 3.144531 5.480469 3.554688 2.226562.410156 4.523437-.078126 6.390625-1.363282zm0 0"/><path d="m111.425781 255.984375c1.261719 0 30.992188-.25 41.769531-21.785156 2.105469-4.21875.394532-9.347657-3.824218-11.453125-4.214844-2.105469-9.34375-.394532-11.449219 3.824218-5.90625 11.816407-26.128906 12.347657-26.496094 12.347657-4.714843 0-8.535156 3.820312-8.535156 8.53125 0 4.714843 3.820313 8.535156 8.535156 8.535156zm0 0"/><path d="m282.089844 255.984375c4.714844 0 8.535156-3.820313 8.535156-8.535156 0-4.710938-3.820312-8.53125-8.535156-8.53125-.203125 0-20.476563-.34375-26.453125-12.347657-2.105469-4.21875-7.230469-5.929687-11.449219-3.824218-4.21875 2.105468-5.929688 7.234375-3.824219 11.453125 10.734375 21.535156 40.464844 21.785156 41.726563 21.785156zm0 0"/></svg>