<svg height="511pt" viewBox="-51 0 511 511.98334" width="511pt" xmlns="http://www.w3.org/2000/svg"><path d="m70.464844 69.957031c-1.777344-2.992187-2.191406-6.601562-1.136719-9.917969 1.027344-3.371093 3.441406-6.148437 6.640625-7.625 2.019531-.996093 3.558594-2.753906 4.277344-4.890624.71875-2.132813.554687-4.464844-.453125-6.476563-2.128907-4.230469-7.261719-5.957031-11.511719-3.875-7.359375 3.597656-12.890625 10.085937-15.277344 17.921875-2.386718 7.835938-1.414062 16.308594 2.691406 23.394531 2.453126 3.859375 7.511719 5.101563 11.46875 2.8125 3.960938-2.289062 5.410157-7.292969 3.292969-11.34375zm0 0"/><path d="m85.824219 102.382812c0 4.714844-3.820313 8.535157-8.53125 8.535157-4.714844 0-8.535157-3.820313-8.535157-8.535157 0-4.710937 3.820313-8.53125 8.535157-8.53125 4.710937 0 8.53125 3.820313 8.53125 8.53125zm0 0"/><path d="m308.679688 62.371094c1.140624.554687 2.386718.847656 3.652343.851562 3.289063-.011718 6.273438-1.910156 7.683594-4.878906 1.464844-3.160156 4.207031-5.542969 7.542969-6.554688 3.402344-1.070312 7.097656-.628906 10.152344 1.210938 1.972656 1.066406 4.285156 1.304688 6.429687.664062 2.148437-.636718 3.949219-2.105468 5.015625-4.078124 2.238281-4.136719.746094-9.308594-3.355469-11.621094-7.136719-4.035156-15.628906-4.917969-23.441406-2.441406-7.8125 2.476562-14.246094 8.089843-17.757813 15.496093-2.003906 4.261719-.179687 9.339844 4.078126 11.351563zm0 0"/><path d="m303.996094 92.347656c3.882812-2.671875 4.863281-7.984375 2.191406-11.867187-2.671875-3.878907-7.984375-4.863281-11.867188-2.191407-3.882812 2.671876-4.863281 7.984376-2.195312 11.867188 1.285156 1.863281 3.257812 3.144531 5.484375 3.554688 2.222656.410156 4.523437-.078126 6.386719-1.363282zm0 0"/><path d="m145.558594 332.785156c14.136718 0 25.601562-11.464844 25.601562-25.601562 0-14.140625-11.464844-25.601563-25.601562-25.601563-14.140625 0-25.601563 11.460938-25.601563 25.601563 0 14.136718 11.460938 25.601562 25.601563 25.601562zm0-34.136718c4.710937 0 8.53125 3.820312 8.53125 8.535156 0 4.710937-3.820313 8.53125-8.53125 8.53125-4.714844 0-8.535156-3.820313-8.535156-8.53125 0-4.714844 3.820312-8.535156 8.535156-8.535156zm0 0"/><path d="m265.023438 332.785156c14.140624 0 25.601562-11.464844 25.601562-25.601562 0-14.140625-11.460938-25.601563-25.601562-25.601563-14.136719 0-25.597657 11.460938-25.597657 25.601563 0 14.136718 11.460938 25.601562 25.597657 25.601562zm0-34.136718c4.714843 0 8.535156 3.820312 8.535156 8.535156 0 4.710937-3.820313 8.53125-8.535156 8.53125-4.710938 0-8.53125-3.820313-8.53125-8.53125 0-4.714844 3.820312-8.535156 8.53125-8.535156zm0 0"/><path d="m127.902344 267.777344h.597656c4.492188.011718 8.222656-3.464844 8.535156-7.945313.902344-13.21875 19.421875-21.46875 19.726563-21.605469 4.347656-1.820312 6.398437-6.820312 4.578125-11.167968-1.816406-4.347656-6.816406-6.394532-11.164063-4.578125-1.203125.511719-28.511719 12.167969-30.21875 36.199219-.152343 2.261718.597657 4.488281 2.085938 6.195312 1.492187 1.707031 3.597656 2.75 5.859375 2.902344zm0 0"/><path d="m253.863281 238.257812c.1875.078126 18.773438 8.195313 19.710938 21.601563.3125 4.480469 4.042969 7.953125 8.535156 7.941406h.597656c2.257813-.15625 4.363281-1.207031 5.851563-2.917969 1.484375-1.710937 2.226562-3.941406 2.066406-6.203124-1.65625-24.019532-29.011719-35.6875-30.175781-36.171876-2.8125-1.175781-6.039063-.757812-8.460938 1.09375-2.425781 1.847657-3.675781 4.851563-3.285156 7.875.390625 3.023438 2.363281 5.609376 5.175781 6.78125zm0 0"/><path d="m22.074219 348.867188c-8.515625 16.015624-12.992188 33.867187-13.050781 52.003906.105468 28.96875 11.804687 56.691406 32.488281 76.980468 21.585937 21.660157 50.851562 33.929688 81.433593 34.132813h167.679688c38.964844 0 75.074219-20.441406 95.125-53.851563 20.050781-33.410156 21.101562-74.890624 2.769531-109.273437 13.519531-9.578125 21.558594-25.109375 21.570313-41.675781 0-25.488282-39.652344-83.625-44.175782-90.179688-1.675781-2.183594-4.269531-3.460937-7.023437-3.460937-2.75 0-5.34375 1.277343-7.023437 3.460937-1.78125 2.558594-9.070313 13.277344-17.21875 26.785156-5.398438-10.308593-12.101563-19.882812-19.941407-28.484374l69.484375-119.652344c8.847656-15.25 10.976563-33.480469 5.878906-50.355469-5.097656-16.871094-16.964843-30.878906-32.773437-38.675781-.257813-.160156-.519531-.304688-.792969-.433594-16.027344-7.632812-34.511718-8.226562-50.996094-1.640625-16.484374 6.585937-29.46875 19.753906-35.824218 36.328125l-49.886719 130.003906c-1.988281-.082031-3.964844-.230468-5.972656-.230468h-17.066407c-2.082031 0-4.121093.214843-6.195312.300781l-49.835938-130.074219c-6.371093-16.578125-19.375-29.746094-35.871093-36.332031-16.496094-6.585938-34.992188-5.988281-51.03125 1.644531-.238281.117188-.484375.246094-.714844.390625-15.832031 7.789063-27.726563 21.796875-32.839844 38.683594-5.113281 16.882812-2.988281 35.136719 5.863281 50.398437l70.171876 120.832032-19.011719 29.488281c-8.671875-14.503907-16.660157-26.253907-18.535157-29.011719-1.675781-2.179688-4.273437-3.460938-7.023437-3.460938s-5.347656 1.28125-7.023437 3.460938c-4.566407 6.589844-44.21875 64.726562-44.21875 90.214844.011718 16.570312 8.054687 32.109375 21.582031 41.683594zm183.21875 43.648437c14.136719 0 25.597656 11.460937 25.597656 25.601563 0 14.136718-11.460937 25.597656-25.597656 25.597656-14.140625 0-25.601563-11.460938-25.601563-25.597656 0-14.140626 11.460938-25.601563 25.601563-25.601563zm-.222657 102.402344c.078126-.09375.152344-.171875.222657-.265625.066406.09375.144531.171875.21875.265625zm153.820313-257.707031c15.359375 23.671874 34.132813 56.863281 34.132813 69.972656 0 18.851562-15.28125 34.132812-34.132813 34.132812s-34.132813-15.28125-34.132813-34.132812c0-13.117188 18.773438-46.3125 34.132813-69.972656zm-73.265625-190.226563c4.605469-12.015625 13.980469-21.589844 25.894531-26.453125 11.917969-4.863281 25.3125-4.578125 37.011719.785156.234375.136719.472656.265625.71875.382813 11.722656 5.613281 20.570312 15.867187 24.402344 28.289062 3.832031 12.421875 2.300781 25.878907-4.222656 37.121094l-67.414063 116.105469c-18.488281-15.664063-40.796875-26.15625-64.65625-30.40625zm-248.917969 2.902344c3.785157-12.40625 12.636719-22.632813 24.371094-28.160157.226563-.109374.445313-.226562.65625-.359374 11.71875-5.386719 25.140625-5.683594 37.082031-.820313 11.945313 4.859375 21.34375 14.445313 25.972656 26.480469l48.222657 125.832031c-23.898438 4.160156-46.230469 14.699219-64.632813 30.5l-67.480468-116.226563c-6.601563-11.265624-8.125-24.796874-4.191407-37.246093zm76.269531 172.246093c22.261719-22.128906 52.394532-34.507812 83.78125-34.417968h17.066407c48.410156.171875 91.976562 29.417968 110.464843 74.15625-8.917968 16.648437-16.597656 34.125-16.597656 45.3125-.039062 16.074218 7.496094 31.230468 20.332032 40.90625 12.835937 9.679687 29.476562 12.75 44.921874 8.289062 15.878907 29.035156 15.25 64.292969-1.65625 92.742188-16.902343 28.449218-47.570312 45.859375-80.664062 45.796875h-51.199219c-14.140625 0-25.601562-11.460938-25.601562-25.601563v-8.53125c-.039063-.289062-.09375-.574218-.167969-.855468 19.890625-3.996094 34.21875-21.453126 34.261719-41.742188.039062-20.292969-14.214844-37.804688-34.09375-41.882812v-12.648438l12.347656-6.167969c4.21875-2.109375 5.929687-7.234375 3.824219-11.453125-2.105469-4.21875-7.234375-5.929687-11.453125-3.824218l-13.25 6.632812-13.253907-6.671875c-4.21875-2.109375-9.34375-.398437-11.453124 3.820313-2.105469 4.21875-.394532 9.347656 3.824218 11.453124l12.347656 6.210938v12.648438c-19.875 4.078124-34.132812 21.589843-34.089843 41.882812.039062 20.289062 14.367187 37.746094 34.261719 41.742188-.074219.28125-.132813.566406-.171876.855468v8.53125c0 14.140625-11.460937 25.601563-25.597656 25.601563h-48.214844c-26.046874-.183594-50.96875-10.636719-69.351562-29.089844-17.472656-17.09375-27.378906-40.472656-27.503906-64.914063.113281-15.574218 4.085937-30.875 11.554687-44.535156 15.445313 4.460938 32.085938 1.390625 44.921875-8.289062 12.835938-9.675782 20.367188-24.832032 20.324219-40.90625 0-11-7.390625-28.066406-16.144531-44.449219zm-61.285156 15.078126c15.359375 23.671874 34.132813 56.863281 34.132813 69.972656 0 18.851562-15.28125 34.132812-34.132813 34.132812-18.851562 0-34.132812-15.28125-34.132812-34.132812 0-13.117188 18.773437-46.3125 34.132812-69.972656zm0 0"/></svg>