<svg height="511pt" viewBox="-59 0 511 511.98334" width="511pt" xmlns="http://www.w3.org/2000/svg"><path d="m175.425781 443.714844c8.039063 0 15.734375-3.257813 21.332031-9.027344 8.46875 8.707031 21.371094 11.40625 32.621094 6.828125 11.246094-4.578125 18.597656-15.519531 18.578125-27.664063v-4.269531c0-4.710937-3.820312-8.53125-8.53125-8.53125-4.714843 0-8.535156 3.820313-8.535156 8.53125v4.269531c0 7.066407-5.730469 12.796876-12.800781 12.796876-7.066406 0-12.796875-5.730469-12.796875-12.796876v-24.59375l12.347656-6.171874c4.214844-2.105469 5.929687-7.230469 3.820313-11.449219-2.105469-4.21875-7.230469-5.929688-11.449219-3.824219l-13.253907 6.628906-13.25-6.628906c-4.21875-2.105469-9.347656-.394531-11.453124 3.824219-2.105469 4.21875-.394532 9.34375 3.824218 11.449219l12.347656 6.171874v24.59375c0 7.066407-5.730468 12.796876-12.800781 12.796876-7.070312 0-12.800781-5.730469-12.800781-12.796876v-4.269531c0-4.710937-3.820312-8.53125-8.535156-8.53125-4.710938 0-8.53125 3.820313-8.53125 8.53125v4.269531c0 16.492188 13.371094 29.863282 29.867187 29.863282zm0 0"/><path d="m107.609375 255.128906c2.027344 1.015625 4.371094 1.179688 6.519531.460938 2.148438-.714844 3.921875-2.257813 4.933594-4.28125 5.90625-11.863282 26.128906-12.390625 26.496094-12.390625 4.710937 0 8.53125-3.820313 8.53125-8.535157 0-4.710937-3.820313-8.53125-8.53125-8.53125-1.261719 0-30.992188.246094-41.769532 21.785157-1.027343 2.027343-1.199218 4.382812-.484374 6.542969.71875 2.15625 2.269531 3.941406 4.304687 4.949218zm0 0"/><path d="m247.957031 238.917969c.207031 0 20.480469.339843 26.453125 12.347656 1.363282 2.726563 4.078125 4.523437 7.125 4.707031 3.042969.183594 5.953125-1.269531 7.636719-3.816406 1.679687-2.542969 1.878906-5.792969.515625-8.519531-10.734375-21.539063-40.464844-21.785157-41.730469-21.785157-4.710937 0-8.53125 3.820313-8.53125 8.53125 0 4.714844 3.820313 8.535157 8.53125 8.535157zm0 0"/><path d="m114.410156 511.984375h167.679688c49.292968.007813 92.679687-32.507813 106.503906-79.820313s-5.226562-98.074218-46.769531-124.605468v-.375c-.03125-15.679688-2.78125-31.230469-8.132813-45.96875 2.480469-2.140625 5.171875-4.015625 8.039063-5.597656.707031 2.324218.800781 4.792968.273437 7.167968-.859375 4.570313 2.101563 8.988282 6.652344 9.929688 4.554688.945312 9.027344-1.929688 10.054688-6.464844 1.714843-7.324219.371093-15.027344-3.726563-21.335938-3.203125-3.953124-8.074219-6.171874-13.160156-5.996093-5.476563.75-10.652344 2.960937-14.976563 6.40625-5.558594-10.832031-12.535156-20.875-20.742187-29.867188l69.554687-119.773437c8.859375-15.25 10.992188-33.488282 5.894532-50.371094-5.097657-16.882812-16.972657-30.894531-32.792969-38.691406-.253907-.160156-.519531-.304688-.792969-.433594-16.027344-7.632812-34.511719-8.226562-50.992188-1.640625-16.484374 6.585937-29.46875 19.753906-35.824218 36.328125l-49.886719 130.074219c-1.980469-.085938-3.933594-.300781-5.972656-.300781h-17.066407c-2.09375 0-4.125.222656-6.1875.316406l-49.84375-130.089844c-6.375-16.578125-19.375-29.746094-35.871093-36.332031-16.5-6.585938-34.992188-5.988281-51.03125 1.644531-.238281.117188-.488281.246094-.71875.390625-15.832031 7.789063-27.722657 21.796875-32.835938 38.683594-5.113281 16.882812-2.992187 35.136719 5.863281 50.398437l69.648438 119.945313c-8.140625 8.957031-15.058594 18.949219-20.582031 29.71875-4.324219-3.445313-9.5-5.65625-14.976563-6.40625-5.078125-.183594-9.949218 2.027343-13.15625 5.972656-4.097656 6.304687-5.445312 14.011719-3.730468 21.332031 1.027343 4.535156 5.5 7.410156 10.054687 6.46875 4.554687-.945312 7.511719-5.363281 6.652344-9.933594-.332031-2.257812-.46875-4.542968-.410157-6.824218 3.148438 1.359375 6.070313 3.1875 8.671876 5.425781-5.316407 14.695313-8.050782 30.199219-8.082032 45.824219v.359375c-31.886718 20.296875-51.199218 55.476562-51.199218 93.277343.074218 28.980469 11.753906 56.722657 32.425781 77.03125 21.601562 21.675782 50.890625 33.945313 81.492187 34.132813zm82.125-17.066406c.078125-.09375.15625-.171875.222656-.265625.070313.09375.144532.171875.222657.265625zm80.554688-447.933594c4.609375-12.015625 13.980468-21.589844 25.898437-26.453125 11.914063-4.863281 25.3125-4.578125 37.011719.785156.230469.136719.472656.265625.714844.382813 11.726562 5.613281 20.570312 15.867187 24.402344 28.289062 3.832031 12.421875 2.304687 25.878907-4.21875 37.121094l-67.414063 116.050781c-18.476563-15.695312-40.816406-26.167968-64.699219-30.324218zm-248.917969 2.902344c3.789063-12.40625 12.640625-22.632813 24.375-28.160157.222656-.109374.441406-.226562.65625-.359374 11.714844-5.386719 25.136719-5.683594 37.082031-.820313 11.941406 4.859375 21.34375 14.445313 25.96875 26.480469l48.230469 125.867187c-23.875 4.207031-46.191406 14.722657-64.640625 30.457031l-67.480469-116.261718c-6.585937-11.253906-8.109375-24.765625-4.191406-37.203125zm160.054687 137.828125h17.066407c46.148437.078125 88.132812 26.714844 107.859375 68.4375-3.078125 2.742187-6.117188 5.574218-8.96875 8.363281h-13.558594c-.265625.042969-.527344.097656-.785156.164063-.492188-.082032-.988282-.132813-1.484375-.164063h-63.703125c-17.277344-9.929687-38.527344-9.929687-55.804688 0h-63.6875c-.496094.03125-.992187.082031-1.484375.164063-.257812-.066407-.519531-.121094-.785156-.164063h-13.558594c-2.851562-2.789063-5.886719-5.621094-8.96875-8.363281 19.726563-41.722656 61.710938-68.359375 107.863281-68.4375zm100.136719 93.867187-3.105469 24.816407c-1.890624 15.070312-14.707031 26.378906-29.898437 26.378906-15.1875 0-28.003906-11.308594-29.894531-26.378906l-3.105469-24.816407zm-117.203125 0-3.109375 24.816407c-1.890625 15.070312-14.707031 26.378906-29.894531 26.378906-15.191406 0-28.003906-11.308594-29.898438-26.378906l-3.097656-24.816407zm-126.148437 53.054688c5.972656-5.964844 12.730469-11.09375 20.085937-15.242188 3.417969-1.925781 5.082032-5.929687 4.035156-9.710937-.242187-.8125-.367187-1.652344-.375-2.5.015626-11.484375 1.691407-22.90625 4.976563-33.910156 2.039063 1.894531 4.078125 3.828124 6.058594 5.808593 1.597656 1.601563 3.769531 2.5 6.03125 2.5h2.355469c-.046876.707031-.046876 1.414063 0 2.117188l3.105468 24.816406c2.984375 23.613281 23.0625 41.324219 46.867188 41.335937 23.785156-.035156 43.835937-17.742187 46.820312-41.335937l3.097656-24.816406c.328126-2.796875-.046874-5.632813-1.089843-8.25 6.402343-1.8125 13.171875-1.90625 19.625-.273438-1.132813 2.691407-1.550781 5.632813-1.210938 8.53125l3.097657 24.816407c2.988281 23.605468 23.0625 41.308593 46.855468 41.328124 23.785156-.03125 43.84375-17.738281 46.824219-41.335937l3.105469-24.816406c.046875-.703125.046875-1.410157 0-2.117188h2.414062c2.261719 0 4.433594-.898437 6.035156-2.5 1.976563-1.980469 4.015626-3.914062 6.058594-5.820312 3.28125 11.007812 4.957032 22.433593 4.972656 33.921875-.003906.847656-.132812 1.6875-.375 2.5-1.046874 3.769531.605469 7.769531 4.011719 9.703125 37.085938 21.015625 55.351563 64.386719 44.480469 105.605469-10.875 41.21875-48.15625 69.933593-90.785156 69.925781h-51.199219c-14.136719 0-25.597656-11.460938-25.597656-25.601563v-8.53125c0-4.714844-3.820313-8.535156-8.535157-8.535156-4.710937 0-8.53125 3.820312-8.53125 8.535156v8.53125c0 14.140625-11.464843 25.601563-25.601562 25.601563h-48.214844c-26.058594-.183594-50.988281-10.648438-69.375-29.117188-17.472656-17.105469-27.371094-40.496093-27.476562-64.945312-.03125-24.847657 9.847656-48.683594 27.453125-66.21875zm0 0"/><path d="m61.933594 69.957031c-1.78125-2.992187-2.195313-6.601562-1.136719-9.917969 1.023437-3.371093 3.441406-6.148437 6.640625-7.625 2.019531-.996093 3.558594-2.753906 4.277344-4.890624.714844-2.132813.554687-4.464844-.457032-6.476563-2.128906-4.226563-7.261718-5.953125-11.511718-3.875-7.355469 3.597656-12.890625 10.085937-15.277344 17.921875s-1.410156 16.308594 2.691406 23.394531c2.453125 3.859375 7.511719 5.101563 11.472656 2.8125 3.957032-2.289062 5.410157-7.292969 3.289063-11.34375zm0 0"/><path d="m77.292969 102.382812c0 4.714844-3.820313 8.535157-8.535157 8.535157-4.710937 0-8.53125-3.820313-8.53125-8.535157 0-4.710937 3.820313-8.53125 8.53125-8.53125 4.714844 0 8.535157 3.820313 8.535157 8.53125zm0 0"/><path d="m300.148438 62.371094c1.136718.554687 2.386718.847656 3.652343.851562 3.285157-.011718 6.273438-1.910156 7.679688-4.878906 1.464843-3.160156 4.210937-5.542969 7.542969-6.554688 3.402343-1.070312 7.101562-.628906 10.15625 1.210938 1.96875 1.070312 4.28125 1.308594 6.429687.667969 2.144531-.640625 3.949219-2.109375 5.011719-4.082031 2.242187-4.136719.75-9.308594-3.351563-11.621094-7.136719-4.035156-15.628906-4.917969-23.445312-2.441406-7.8125 2.476562-14.246094 8.089843-17.753907 15.496093-2.003906 4.261719-.179687 9.339844 4.078126 11.351563zm0 0"/><path d="m295.464844 92.347656c3.878906-2.671875 4.859375-7.984375 2.1875-11.867187-2.671875-3.878907-7.980469-4.863281-11.863282-2.191407-3.882812 2.671876-4.867187 7.984376-2.195312 11.867188 1.28125 1.863281 3.253906 3.144531 5.480469 3.554688 2.226562.410156 4.523437-.078126 6.390625-1.363282zm0 0"/></svg>