<svg height="511pt" viewBox="-59 0 511 511.98379" width="511pt" xmlns="http://www.w3.org/2000/svg"><path d="m.492188 400.820312c.074218 28.980469 11.753906 56.722657 32.425781 77.03125 21.59375 21.667969 50.871093 33.933594 81.460937 34.132813h167.714844c49.289062.007813 92.675781-32.507813 106.5-79.820313s-5.226562-98.074218-46.769531-124.605468v-.375c-.011719-33.976563-12.757813-66.714844-35.71875-91.757813l69.554687-119.765625c8.847656-15.25 10.976563-33.480468 5.875-50.355468-5.097656-16.875-16.964844-30.882813-32.773437-38.683594-.253907-.15625-.515625-.304688-.785157-.433594-16.027343-7.632812-34.511718-8.230469-50.996093-1.644531-16.488281 6.585937-29.472657 19.757812-35.828125 36.332031l-49.886719 130.074219c-1.980469-.085938-3.933594-.296875-5.972656-.296875h-17.066407c-2.09375 0-4.121093.21875-6.1875.3125l-49.84375-130.089844c-6.375-16.578125-19.375-29.746094-35.871093-36.332031-16.496094-6.585938-34.992188-5.988281-51.03125 1.644531-.238281.121094-.488281.246094-.71875.390625-15.832031 7.789063-27.722657 21.796875-32.835938 38.683594s-2.992187 35.136719 5.863281 50.398437l69.648438 119.945313c-22.859375 25.023437-35.542969 57.683593-35.558594 91.578125v.359375c-31.886718 20.296875-51.199218 55.476562-51.199218 93.277343zm196.042968 94.097657c.078125-.09375.15625-.171875.222656-.265625.070313.09375.144532.171875.222657.265625zm80.554688-447.933594c4.609375-12.015625 13.984375-21.589844 25.898437-26.453125 11.914063-4.859375 25.3125-4.578125 37.011719.785156.230469.136719.472656.265625.714844.382813 11.726562 5.613281 20.570312 15.871093 24.402344 28.289062 3.832031 12.421875 2.296874 25.878907-4.226563 37.121094l-67.414063 116.054687c-18.476562-15.699218-40.816406-26.171874-64.699218-30.328124zm-248.914063 2.902344c3.785157-12.40625 12.636719-22.632813 24.371094-28.160157.222656-.109374.441406-.226562.65625-.359374 11.714844-5.382813 25.136719-5.683594 37.082031-.820313 11.941406 4.859375 21.34375 14.445313 25.96875 26.480469l48.230469 125.867187c-23.875 4.207031-46.191406 14.722657-64.640625 30.457031l-67.480469-116.257812c-6.585937-11.253906-8.109375-24.769531-4.1875-37.207031zm36.921875 269.507812c3.417969-1.925781 5.082032-5.929687 4.035156-9.710937-.242187-.8125-.367187-1.652344-.375-2.5.070313-65.949219 53.515626-119.394532 119.46875-119.464844h17.066407c65.949219.070312 119.394531 53.515625 119.464843 119.464844-.003906.847656-.132812 1.6875-.375 2.5-1.046874 3.773437.605469 7.769531 4.011719 9.703125 37.085938 21.019531 55.351563 64.386719 44.480469 105.605469s-48.15625 69.933593-90.78125 69.925781h-51.203125c-14.136719 0-25.597656-11.460938-25.597656-25.601563v-8.53125c0-4.714844-3.820313-8.535156-8.535157-8.535156-4.710937 0-8.53125 3.820312-8.53125 8.535156v8.53125c0 14.140625-11.460937 25.601563-25.601562 25.601563h-48.214844c-26.058594-.183594-50.988281-10.648438-69.375-29.117188-17.472656-17.101562-27.371094-40.496093-27.476562-64.945312-.015625-33.742188 18.152344-64.878907 47.539062-81.460938zm0 0"/><path d="m175.878906 366.0625 12.347656 6.128906v5.640625l-19.765624 6.585938c-2.894532.964843-5.058594 3.398437-5.671876 6.390625-.613281 2.988281.414063 6.078125 2.695313 8.105468 2.285156 2.027344 5.472656 2.683594 8.371094 1.71875l22.902343-7.65625 22.902344 7.640626c4.480469 1.488281 9.316406-.933594 10.804688-5.410157 1.488281-4.480469-.933594-9.316406-5.410156-10.804687l-19.761719-6.570313v-5.640625l12.347656-6.171875c4.21875-2.105469 5.929687-7.230469 3.820313-11.449219-2.105469-4.21875-7.230469-5.929687-11.449219-3.824218l-13.253907 6.628906-13.25-6.628906c-4.21875-2.105469-9.347656-.394532-11.453124 3.824218-2.105469 4.21875-.394532 9.34375 3.824218 11.449219zm0 0"/><path d="m119.957031 255.984375c1.324219 0 2.625-.308594 3.808594-.898437 9.480469-4.585938 19.800781-7.183594 30.328125-7.636719 4.710938 0 8.53125-3.820313 8.53125-8.53125 0-4.714844-3.820312-8.535157-8.53125-8.535157-13.171875.4375-26.105469 3.652344-37.949219 9.429688-3.546875 1.765625-5.410156 5.742188-4.5 9.597656.910157 3.855469 4.351563 6.578125 8.3125 6.574219zm0 0"/><path d="m239.425781 247.449219c10.527344.453125 20.851563 3.050781 30.335938 7.636719 4.21875 2.109374 9.34375.398437 11.453125-3.820313 2.105468-4.21875.394531-9.347656-3.824219-11.453125-11.851563-5.78125-24.789063-8.992188-37.964844-9.429688-4.714843 0-8.535156 3.820313-8.535156 8.535157 0 4.710937 3.820313 8.53125 8.535156 8.53125zm0 0"/><path d="m61.933594 69.957031c-1.78125-2.992187-2.195313-6.601562-1.136719-9.914062 1.023437-3.375 3.441406-6.148438 6.640625-7.628907 2.019531-.996093 3.558594-2.753906 4.277344-4.890624.71875-2.132813.554687-4.464844-.457032-6.476563-2.125-4.226563-7.261718-5.957031-11.511718-3.875-7.355469 3.597656-12.890625 10.089844-15.277344 17.921875-2.386719 7.835938-1.410156 16.308594 2.691406 23.398438 2.453125 3.859374 7.511719 5.097656 11.472656 2.808593 3.957032-2.289062 5.410157-7.292969 3.289063-11.34375zm0 0"/><path d="m77.292969 102.382812c0 4.714844-3.820313 8.535157-8.535157 8.535157-4.710937 0-8.53125-3.820313-8.53125-8.535157 0-4.710937 3.820313-8.53125 8.53125-8.53125 4.714844 0 8.535157 3.820313 8.535157 8.53125zm0 0"/><path d="m300.148438 62.371094c1.136718.554687 2.386718.847656 3.652343.851562 3.285157-.011718 6.273438-1.910156 7.679688-4.878906 1.464843-3.160156 4.210937-5.542969 7.542969-6.554688 3.402343-1.070312 7.101562-.628906 10.15625 1.210938 1.96875 1.066406 4.28125 1.308594 6.429687.667969 2.144531-.640625 3.949219-2.109375 5.011719-4.078125 2.242187-4.140625.75-9.3125-3.351563-11.625-7.136719-4.03125-15.628906-4.917969-23.441406-2.441406-7.816406 2.476562-14.25 8.089843-17.757813 15.5-2.003906 4.257812-.179687 9.335937 4.078126 11.347656zm0 0"/><path d="m295.464844 92.347656c3.878906-2.671875 4.859375-7.984375 2.1875-11.867187-2.667969-3.878907-7.980469-4.863281-11.863282-2.191407-3.882812 2.671876-4.867187 7.984376-2.195312 11.867188 1.28125 1.863281 3.253906 3.144531 5.480469 3.554688 2.226562.410156 4.523437-.078126 6.390625-1.363282zm0 0"/><path d="m156.59375 275.550781-11.035156 11.035157-11.035156-11.035157c-3.347657-3.234375-8.667969-3.1875-11.960938.105469-3.292969 3.289062-3.335938 8.613281-.105469 11.960938l11.035157 11.035156-11.035157 11.03125c-2.214843 2.144531-3.105469 5.316406-2.324219 8.300781.78125 2.980469 3.109376 5.3125 6.09375 6.09375 2.984376.78125 6.15625-.109375 8.296876-2.328125l11.035156-11.035156 11.035156 11.035156c3.347656 3.234375 8.667969 3.1875 11.960938-.105469 3.292968-3.289062 3.335937-8.613281.105468-11.960937l-11.035156-11.03125 11.035156-11.035156c3.230469-3.347657 3.1875-8.671876-.105468-11.960938-3.292969-3.292969-8.613282-3.339844-11.960938-.105469zm0 0"/><path d="m224.859375 321.75c3.332031 3.332031 8.734375 3.332031 12.066406 0l11.03125-11.035156 11.035157 11.035156c3.347656 3.234375 8.671874 3.1875 11.960937-.105469 3.292969-3.289062 3.339844-8.613281.105469-11.960937l-11.035156-11.03125 11.035156-11.035156c3.234375-3.347657 3.1875-8.671876-.105469-11.960938-3.289063-3.292969-8.613281-3.339844-11.960937-.105469l-11.035157 11.035157-11.03125-11.035157c-3.347656-3.234375-8.671875-3.1875-11.964843.105469-3.289063 3.289062-3.335938 8.613281-.101563 11.960938l11.03125 11.035156-11.03125 11.03125c-3.332031 3.332031-3.332031 8.734375 0 12.066406zm0 0"/></svg>