<svg height="511pt" viewBox="-60 0 511 511.98648" width="511pt" xmlns="http://www.w3.org/2000/svg"><path d="m114.4375 511.988281h167.679688c49.289062.007813 92.675781-32.507812 106.5-79.820312 13.824218-47.3125-5.226563-98.074219-46.765626-124.605469v-.375c-.015624-33.976562-12.761718-66.710938-35.722656-91.75l69.554688-119.773438c8.847656-15.25 10.976562-33.484374 5.878906-50.359374s-16.964844-30.878907-32.773438-38.679688c-.257812-.160156-.523437-.304688-.796874-.433594-16.023438-7.636718-34.507813-8.230468-50.988282-1.644531-16.484375 6.585937-29.46875 19.757813-35.820312 36.332031l-49.894532 130.074219c-1.980468-.085937-3.933593-.300781-5.972656-.300781h-17.066406c-2.089844 0-4.121094.222656-6.1875.316406l-49.84375-130.089844c-6.371094-16.582031-19.371094-29.75-35.871094-36.335937-16.496094-6.585938-34.992187-5.988281-51.03125 1.648437-.246094.117188-.503906.253906-.742187.398438-15.824219 7.796875-27.703125 21.804687-32.8125 38.6875-5.105469 16.882812-2.984375 35.125 5.863281 50.386718l69.648438 119.941407c-22.859376 25.023437-35.539063 57.6875-35.558594 91.582031v.355469c-28.28125 17.742187-46.90625 47.433593-50.5625 80.617187-3.660156 33.183594 8.050781 66.21875 31.789062 89.691406 21.601563 21.679688 50.890625 33.945313 81.496094 34.136719zm82.125-17.070312c.074219-.09375.152344-.167969.21875-.261719.070312.09375.148438.167969.222656.261719zm80.554688-447.929688c4.605468-12.015625 13.980468-21.589843 25.894531-26.453125 11.917969-4.863281 25.3125-4.578125 37.011719.785156.230468.140626.472656.269532.71875.382813 11.722656 5.613281 20.570312 15.867187 24.398437 28.289063 3.832031 12.421874 2.300781 25.878906-4.226563 37.121093l-67.414062 116.050781c-18.476562-15.695312-40.816406-26.167968-64.699219-30.328124zm-248.917969 2.902344c3.78125-12.40625 12.636719-22.636719 24.371093-28.160156.222657-.113281.441407-.230469.671876-.367188 11.71875-5.375 25.132812-5.664062 37.074218-.804687 11.9375 4.859375 21.332032 14.441406 25.964844 26.472656l48.230469 125.875c-23.875 4.203125-46.195313 14.710938-64.640625 30.4375l-67.484375-116.25c-6.589844-11.25-8.113281-24.769531-4.1875-37.203125zm16.835937 284.746094c5.972656-5.96875 12.730469-11.09375 20.085938-15.238281 3.417968-1.925782 5.082031-5.933594 4.039062-9.710938-.246094-.8125-.371094-1.652344-.378906-2.5.074219-65.953125 53.519531-119.398438 119.46875-119.46875h17.066406c65.949219.070312 119.394532 53.515625 119.464844 119.46875-.003906.847656-.128906 1.6875-.375 2.5-1.042969 3.773438.613281 7.773438 4.019531 9.703125 37.089844 21.015625 55.355469 64.390625 44.480469 105.609375s-48.160156 69.933594-90.789062 69.917969h-51.199219c-14.140625 0-25.601563-11.460938-25.601563-25.597657v-8.535156c0-4.710937-3.820312-8.53125-8.535156-8.53125-4.710938 0-8.53125 3.820313-8.53125 8.53125v8.535156c0 14.136719-11.460938 25.597657-25.601562 25.597657h-48.210938c-26.0625-.179688-50.996094-10.648438-69.378906-29.121094-17.472656-17.101563-27.367188-40.492187-27.476563-64.941406-.03125-24.847657 9.847657-48.679688 27.453125-66.21875zm0 0"/><path d="m175.902344 366.066406 12.347656 6.128906v5.972657l-37.300781 14.914062c-2.832031 1.132813-4.84375 3.6875-5.28125 6.707031-.4375 3.019532.769531 6.039063 3.164062 7.925782 2.398438 1.886718 5.617188 2.355468 8.449219 1.222656l30.96875-12.347656v21.53125c0 14.136718 11.460938 25.597656 25.601562 25.597656 14.136719 0 25.597657-11.460938 25.597657-25.597656v-8.535156c4.09375.003906 7.613281-2.902344 8.386719-6.921876.773437-4.019531-1.417969-8.023437-5.21875-9.539062l-37.300782-14.914062v-5.976563l12.347656-6.167969c4.21875-2.105468 5.929688-7.234375 3.824219-11.453125-2.109375-4.214843-7.234375-5.929687-11.453125-3.820312l-13.253906 6.585937-13.25-6.628906c-4.21875-2.109375-9.34375-.394531-11.453125 3.820312-2.105469 4.21875-.394531 9.347657 3.824219 11.453126zm37.949218 60.585938c-4.714843 0-8.535156-3.820313-8.535156-8.53125v-21.53125l17.066406 6.828125v14.703125c0 4.710937-3.820312 8.53125-8.53125 8.53125zm0 0"/><path d="m119.984375 255.988281c1.320313 0 2.621094-.308593 3.804687-.898437 9.480469-4.585938 19.804688-7.1875 30.328126-7.636719 4.710937 0 8.53125-3.820313 8.53125-8.535156 0-4.710938-3.820313-8.53125-8.53125-8.53125-13.171876.4375-26.105469 3.652343-37.949219 9.429687-3.542969 1.765625-5.40625 5.742188-4.5 9.597656.910156 3.851563 4.355469 6.574219 8.316406 6.574219zm0 0"/><path d="m239.449219 247.453125c10.53125.449219 20.855469 3.046875 30.34375 7.636719 2.730469 1.363281 5.976562 1.167968 8.523437-.515625 2.542969-1.679688 3.996094-4.59375 3.8125-7.636719s-1.976562-5.757812-4.707031-7.121094c-11.851563-5.78125-24.792969-8.996094-37.972656-9.429687-4.710938 0-8.53125 3.820312-8.53125 8.53125 0 4.714843 3.820312 8.535156 8.53125 8.535156zm0 0"/><path d="m61.957031 69.960938c-1.78125-2.996094-2.191406-6.613282-1.128906-9.933594 1.050781-3.390625 3.484375-6.179688 6.699219-7.679688 2.007812-1.007812 3.527344-2.777344 4.230468-4.90625.699219-2.132812.523438-4.457031-.492187-6.460937-2.140625-4.199219-7.257813-5.910157-11.492187-3.839844-7.367188 3.597656-12.90625 10.09375-15.292969 17.9375s-1.40625 16.324219 2.703125 23.414063c2.453125 3.859374 7.515625 5.097656 11.472656 2.8125 3.960938-2.289063 5.410156-7.292969 3.292969-11.34375zm0 0"/><path d="m77.316406 102.386719c0 4.710937-3.820312 8.53125-8.535156 8.53125-4.710938 0-8.53125-3.820313-8.53125-8.53125 0-4.714844 3.820312-8.535157 8.53125-8.535157 4.714844 0 8.535156 3.820313 8.535156 8.535157zm0 0"/><path d="m300.171875 62.382812c2.046875.96875 4.394531 1.085938 6.527344.324219 2.128906-.761719 3.871093-2.339843 4.839843-4.386719 1.464844-3.160156 4.210938-5.542968 7.542969-6.554687 3.402344-1.066406 7.101563-.625 10.15625 1.210937 1.96875 1.070313 4.28125 1.3125 6.429688.671876 2.148437-.640626 3.949219-2.109376 5.011719-4.082032 2.242187-4.140625.75-9.3125-3.351563-11.625-7.136719-4.03125-15.628906-4.917968-23.441406-2.441406-7.816407 2.476562-14.25 8.089844-17.757813 15.5-.976562 2.042969-1.097656 4.394531-.339844 6.53125.757813 2.132812 2.335938 3.878906 4.382813 4.851562zm0 0"/><path d="m295.488281 92.351562c3.882813-2.671874 4.863281-7.984374 2.191407-11.867187-2.671876-3.882813-7.984376-4.863281-11.867188-2.191406s-4.863281 7.984375-2.195312 11.867187c1.285156 1.863282 3.253906 3.140625 5.480468 3.554688 2.226563.410156 4.527344-.078125 6.390625-1.363282zm0 0"/><path d="m156.617188 275.554688-11.035157 11.03125-11.03125-11.03125c-3.351562-3.234376-8.671875-3.1875-11.964843.101562-3.289063 3.292969-3.335938 8.613281-.101563 11.964844l11.03125 11.03125-11.03125 11.035156c-2.21875 2.140625-3.109375 5.316406-2.328125 8.296875.78125 2.984375 3.109375 5.316406 6.09375 6.09375 2.984375.78125 6.15625-.105469 8.300781-2.324219l11.03125-11.035156 11.035157 11.035156c3.347656 3.234375 8.671874 3.1875 11.960937-.105468 3.292969-3.292969 3.339844-8.613282.105469-11.960938l-11.035156-11.035156 11.035156-11.03125c3.234375-3.351563 3.1875-8.671875-.105469-11.964844-3.289063-3.289062-8.613281-3.335938-11.960937-.101562zm0 0"/><path d="m224.882812 321.753906c3.332032 3.332032 8.734376 3.332032 12.066407 0l11.035156-11.035156 11.03125 11.035156c3.347656 3.234375 8.671875 3.1875 11.964844-.105468 3.289062-3.292969 3.335937-8.613282.101562-11.960938l-11.03125-11.035156 11.03125-11.03125c3.234375-3.351563 3.1875-8.671875-.101562-11.964844-3.292969-3.289062-8.617188-3.335938-11.964844-.101562l-11.03125 11.03125-11.035156-11.03125c-3.347657-3.234376-8.671875-3.1875-11.960938.101562-3.292969 3.292969-3.339843 8.613281-.105469 11.964844l11.035157 11.03125-11.035157 11.035156c-3.332031 3.332031-3.332031 8.734375 0 12.066406zm0 0"/></svg>