<svg height="511pt" viewBox="-46 0 511 511.98648" width="511pt" xmlns="http://www.w3.org/2000/svg"><path d="m175.878906 366.066406 12.347656 6.128906v17.328126l-32.265624 40.328124c-1.902344 2.382813-2.394532 5.597657-1.285157 8.441407 1.109375 2.839843 3.648438 4.871093 6.664063 5.332031s6.046875-.722656 7.953125-3.105469l27.46875-34.347656 27.46875 34.339844c1.902343 2.378906 4.933593 3.5625 7.949219 3.105469 3.015624-.460938 5.554687-2.492188 6.664062-5.335938 1.109375-2.839844.621094-6.054688-1.285156-8.4375l-32.265625-40.320312v-17.328126l12.347656-6.171874c4.21875-2.105469 5.929687-7.234376 3.824219-11.453126-2.109375-4.214843-7.234375-5.929687-11.453125-3.820312l-13.25 6.628906-13.253907-6.628906c-4.21875-2.109375-9.34375-.394531-11.453124 3.820312-2.105469 4.21875-.394532 9.347657 3.824218 11.453126zm0 0"/><path d="m145.558594 307.1875c0 4.710938-3.820313 8.53125-8.53125 8.53125-4.714844 0-8.535156-3.820312-8.535156-8.53125 0-4.714844-3.820313-8.535156-8.53125-8.535156-4.714844 0-8.535157 3.820312-8.535157 8.535156 0 14.136719 11.460938 25.597656 25.601563 25.597656 14.136718 0 25.597656-11.460937 25.597656-25.597656 0-4.714844-3.820312-8.535156-8.53125-8.535156-4.714844 0-8.535156 3.820312-8.535156 8.535156zm0 0"/><path d="m256.492188 332.785156c14.140624 0 25.601562-11.460937 25.601562-25.597656 0-4.714844-3.820312-8.535156-8.535156-8.535156-4.710938 0-8.53125 3.820312-8.53125 8.535156 0 4.710938-3.820313 8.53125-8.535156 8.53125-4.710938 0-8.53125-3.820312-8.53125-8.53125 0-4.714844-3.820313-8.535156-8.535157-8.535156-4.710937 0-8.53125 3.820312-8.53125 8.535156 0 14.136719 11.460938 25.597656 25.597657 25.597656zm0 0"/><path d="m111.425781 281.585938c1.253907 0 31.003907-.246094 41.773438-21.785157 2.105469-4.21875.394531-9.34375-3.824219-11.453125-4.21875-2.105468-9.34375-.394531-11.453125 3.824219-5.902344 11.820313-26.128906 12.347656-26.496094 12.347656-4.710937 0-8.53125 3.820313-8.53125 8.535157 0 4.710937 3.820313 8.53125 8.53125 8.53125zm0 0"/><path d="m282.09375 281.585938c4.710938 0 8.53125-3.820313 8.53125-8.53125 0-4.714844-3.820312-8.535157-8.53125-8.535157-.195312 0-20.480469-.339843-26.453125-12.347656-2.105469-4.21875-7.234375-5.929687-11.453125-3.824219-4.21875 2.109375-5.929688 7.234375-3.820312 11.453125 10.722656 21.539063 40.472656 21.785157 41.726562 21.785157zm0 0"/><path d="m114.414062 511.988281h167.679688c49.289062.007813 92.675781-32.507812 106.5-79.820312s-5.226562-98.074219-46.765625-124.605469v-.375c-.027344-5.777344-.417969-11.546875-1.171875-17.273438.1875 0 .367188.085938.546875.09375.179687.007813.402344.113282.625.113282.570313 0 1.144531-.058594 1.707031-.171875.167969-.058594.332032-.128907.492188-.203125 1.023437-.339844 2-.804688 2.910156-1.382813.121094-.085937.265625-.121093.382812-.214843 1.359376-1.132813 33.28125-27.726563 43.523438-37.8125 1.339844-1.3125 2.773438-2.625 4.265625-3.976563 14.726563-11.109375 23.425781-28.457031 23.515625-46.90625 0-27.859375-17.246094-45.867187-43.929688-45.867187-12.417968-.035157-24.300781 5.039062-32.867187 14.03125-1.644531-1.6875-3.414063-3.25-5.292969-4.667969l39.125-67.296875c8.84375-15.246094 10.972656-33.476563 5.875-50.351563-5.097656-16.871093-16.964844-30.875-32.769531-38.675781-.257813-.160156-.523437-.304688-.796875-.433594-16.023438-7.636718-34.507812-8.230468-50.988281-1.644531-16.484375 6.585937-29.46875 19.757813-35.820313 36.332031l-49.894531 129.917969c-1.925781-.085937-3.90625-.144531-5.972656-.144531h-17.066407c-2.082031 0-4.128906.214844-6.195312.300781l-49.835938-130.074219c-6.371093-16.582031-19.371093-29.75-35.871093-36.335937-16.496094-6.585938-34.992188-5.988281-51.03125 1.648437-.246094.117188-.503907.253906-.742188.398438-15.820312 7.796875-27.703125 21.804687-32.808593 38.6875-5.109376 16.882812-2.988282 35.125 5.859374 50.386718l69.660157 119.960938c-22.925781 24.976562-35.621094 57.660156-35.570313 91.5625v.355469c-6.789062 4.296875-13.085937 9.328125-18.769531 15.003906-20.800781 20.753906-32.472656 48.945313-32.429687 78.328125.113281 28.96875 11.8125 56.691406 32.496093 76.976562 21.585938 21.664063 50.847657 33.929688 81.425781 34.136719zm82.125-17.070312c.074219-.09375.152344-.167969.222657-.261719.066406.09375.144531.167969.21875.261719zm135.285157-312.703125-6.621094 19.875c-1.023437 3.066406-.226563 6.445312 2.058594 8.730468l11.03125 11.03125-11.03125 11.035157c-2.007813 2.011719-2.882813 4.890625-2.332031 7.679687l3.738281 18.714844c-9.121094-7.792969-19.121094-16.496094-23.84375-21.136719-1.464844-1.445312-3.027344-2.886719-4.640625-4.371093-9.308594-8.53125-18.089844-16.648438-18.089844-34.347657 0-18.53125 9.539062-28.773437 26.863281-28.773437 9.039063-.054688 17.554688 4.25 22.867188 11.5625zm42.871093-11.5625c17.324219 0 26.863282 10.242187 26.863282 28.800781 0 17.699219-8.78125 25.777344-18.089844 34.347656-1.613281 1.484375-3.171875 2.925781-4.640625 4.367188-6.109375 5.972656-21.035156 18.773437-31.464844 27.605469l-4.800781-24.046876 13.832031-13.839843c3.328125-3.332031 3.328125-8.734375 0-12.066407l-13.332031-13.335937 4.855469-14.601563c.617187-.574218 1.128906-1.246093 1.519531-1.988281 4.96875-9.34375 14.675781-15.203125 25.257812-15.242187zm-97.601562-123.664063c4.605469-12.015625 13.980469-21.589843 25.894531-26.453125 11.917969-4.863281 25.3125-4.578125 37.011719.785156.234375.136719.472656.265626.71875.382813 11.722656 5.613281 20.570312 15.867187 24.402344 28.289063 3.832031 12.421874 2.300781 25.875-4.222656 37.121093l-39.652344 68.179688c-4-1.132813-8.132813-1.707031-12.289063-1.707031-19.941406-1.148438-37.769531 12.335937-42.085937 31.839843-11.984375-6.089843-24.808594-10.355469-38.050782-12.65625zm-248.917969 2.902344c3.785157-12.40625 12.636719-22.636719 24.371094-28.160156.222656-.113281.445313-.230469.675781-.367188 11.714844-5.375 25.132813-5.664062 37.070313-.804687s21.335937 14.441406 25.964843 26.472656l48.210938 125.832031c-23.890625 4.160157-46.214844 14.695313-64.613281 30.488281l-67.488281-116.257812c-6.59375-11.25-8.117188-24.769531-4.191407-37.203125zm16.835938 284.746094c5.972656-5.96875 12.730469-11.09375 20.085937-15.238281 3.417969-1.925782 5.082032-5.933594 4.039063-9.710938-.246094-.8125-.371094-1.652344-.375-2.5.101562-65.9375 53.527343-119.363281 119.464843-119.46875h17.066407c3.65625-.015625 7.3125.175781 10.949219.5625 17.34375 1.59375 34.117187 7.019531 49.109374 15.882812 1.550782 16.691407 9.984376 31.984376 23.277344 42.195313 1.46875 1.351563 2.894532 2.664063 4.269532 3.976563 5.519531 5.4375 17.328124 15.660156 27.304687 24.117187 3.035156 10.644531 4.570313 21.664063 4.558594 32.734375-.007813.847656-.132813 1.6875-.378907 2.5-1.042968 3.773438.613282 7.773438 4.019532 9.703125 37.089844 21.015625 55.355468 64.390625 44.480468 105.609375s-48.160156 69.933594-90.789062 69.917969h-51.199219c-14.140625 0-25.601562-11.460938-25.601562-25.597657v-8.535156c0-4.710937-3.820313-8.53125-8.53125-8.53125-4.714844 0-8.535157 3.820313-8.535157 8.53125v8.535156c0 14.136719-11.460937 25.597657-25.601562 25.597657h-48.210938c-26.046874-.179688-50.96875-10.632813-69.351562-29.089844-17.472656-17.09375-27.378906-40.472656-27.503906-64.921875-.023438-24.859375 9.855468-48.707031 27.453125-66.269531zm0 0"/><path d="m61.933594 69.960938c-1.78125-2.996094-2.191406-6.613282-1.125-9.933594 1.046875-3.390625 3.480468-6.179688 6.695312-7.679688 2.007813-1.007812 3.527344-2.777344 4.230469-4.90625.699219-2.132812.523437-4.457031-.492187-6.460937-2.140626-4.199219-7.257813-5.910157-11.492188-3.839844-7.367188 3.597656-12.90625 10.09375-15.292969 17.9375s-1.40625 16.324219 2.707031 23.414063c2.453126 3.859374 7.511719 5.097656 11.46875 2.8125 3.960938-2.289063 5.410157-7.292969 3.292969-11.34375zm0 0"/><path d="m77.292969 102.386719c0 4.710937-3.820313 8.53125-8.53125 8.53125-4.714844 0-8.535157-3.820313-8.535157-8.53125 0-4.714844 3.820313-8.535157 8.535157-8.535157 4.710937 0 8.53125 3.820313 8.53125 8.535157zm0 0"/><path d="m300.148438 62.382812c2.046874.96875 4.394531 1.085938 6.527343.324219 2.128907-.761719 3.871094-2.339843 4.839844-4.386719 1.46875-3.160156 4.210937-5.542968 7.542969-6.554687 3.402344-1.066406 7.101562-.625 10.15625 1.210937 1.96875 1.070313 4.28125 1.3125 6.429687.671876 2.148438-.640626 3.949219-2.109376 5.011719-4.082032 2.242188-4.140625.75-9.3125-3.351562-11.625-7.136719-4.03125-15.628907-4.917968-23.441407-2.441406-7.816406 2.476562-14.25 8.089844-17.757812 15.5-.976563 2.042969-1.097657 4.394531-.339844 6.53125.757813 2.132812 2.335937 3.878906 4.382813 4.851562zm0 0"/><path d="m295.464844 92.351562c3.882812-2.671874 4.863281-7.984374 2.191406-11.867187s-7.984375-4.863281-11.867188-2.191406c-3.882812 2.671875-4.863281 7.984375-2.195312 11.867187 1.285156 1.863282 3.257812 3.140625 5.480469 3.554688 2.226562.410156 4.527343-.078125 6.390625-1.363282zm0 0"/></svg>