<svg height="511pt" viewBox="-60 0 511 511.98648" width="511pt" xmlns="http://www.w3.org/2000/svg"><path d="m114.4375 511.988281h167.679688c49.289062.007813 92.675781-32.507812 106.5-79.820312 13.824218-47.3125-5.226563-98.074219-46.765626-124.605469v-.375c-.015624-33.976562-12.761718-66.710938-35.722656-91.75l69.554688-119.773438c8.847656-15.25 10.976562-33.484374 5.878906-50.359374s-16.964844-30.878907-32.773438-38.679688c-.257812-.160156-.523437-.304688-.796874-.433594-16.023438-7.636718-34.507813-8.230468-50.988282-1.644531-16.484375 6.585937-29.46875 19.757813-35.820312 36.332031l-49.894532 130.074219c-1.980468-.085937-3.933593-.300781-5.972656-.300781h-17.066406c-2.089844 0-4.121094.222656-6.1875.316406l-49.84375-130.089844c-6.371094-16.582031-19.371094-29.75-35.871094-36.335937-16.496094-6.585938-34.992187-5.988281-51.03125 1.648437-.246094.117188-.503906.253906-.742187.398438-15.824219 7.796875-27.703125 21.804687-32.8125 38.6875-5.105469 16.882812-2.984375 35.125 5.863281 50.386718l69.648438 119.941407c-22.859376 25.023437-35.539063 57.6875-35.558594 91.582031v.355469c-28.28125 17.742187-46.90625 47.433593-50.5625 80.617187-3.660156 33.183594 8.050781 66.21875 31.789062 89.691406 21.601563 21.679688 50.890625 33.945313 81.496094 34.136719zm65.277344-77.238281c6.480468-.90625 12.480468-3.925781 17.066406-8.589844 4.589844 4.664063 10.589844 7.683594 17.070312 8.589844v8.96875c0 9.425781-7.644531 17.066406-17.070312 17.066406s-17.066406-7.640625-17.066406-17.066406zm17.066406 60.085938.0625.082031h-.121094zm80.335938-447.847657c4.605468-12.015625 13.980468-21.589843 25.894531-26.453125 11.917969-4.863281 25.3125-4.578125 37.011719.785156.230468.140626.472656.269532.71875.382813 11.722656 5.613281 20.570312 15.867187 24.398437 28.289063 3.832031 12.421874 2.300781 25.878906-4.226563 37.121093l-67.414062 116.050781c-18.476562-15.695312-40.816406-26.167968-64.699219-30.328124zm-248.917969 2.902344c3.78125-12.40625 12.636719-22.636719 24.371093-28.160156.222657-.113281.441407-.230469.671876-.367188 11.71875-5.375 25.132812-5.664062 37.074218-.804687 11.9375 4.859375 21.332032 14.441406 25.964844 26.472656l48.230469 125.875c-23.875 4.203125-46.195313 14.710938-64.640625 30.4375l-67.484375-116.25c-6.589844-11.25-8.113281-24.769531-4.1875-37.203125zm16.835937 284.746094c5.972656-5.96875 12.730469-11.09375 20.085938-15.238281 3.417968-1.925782 5.082031-5.933594 4.039062-9.710938-.246094-.8125-.371094-1.652344-.378906-2.5 0-1.441406.164062-2.835938.214844-4.269531l18.289062 12.359375-.597656 29.59375c-.09375 4.605468 2.4375 8.867187 6.527344 10.988281 4.183594 2.226563 9.269531 1.882813 13.113281-.886719l25.210937-18.140625 29.582032 9.460938c4.523437 1.46875 9.488281.238281 12.800781-3.171875 3.230469-3.289063 4.316406-8.125 2.800781-12.476563l-9.703125-27.957031 18.628907-23.890625c2.917968-3.671875 3.441406-8.703125 1.339843-12.894531-2.148437-4.253906-6.542969-6.90625-11.308593-6.828125l-31.214844.589843-17.773438-24.234374c-2.769531-3.726563-7.382812-5.605469-11.96875-4.871094-4.585937.734375-8.382812 3.957031-9.851562 8.359375l-9.386719 28.546875-21.90625 6.664062c14.761719-51.09375 61.488281-86.300781 114.671875-86.410156h17.066406c53.183594.085938 99.921875 35.277344 114.703125 86.367188l-21.902343-6.664063-9.414063-28.503906c-1.480469-4.394531-5.277344-7.609375-9.859375-8.335938-4.582031-.726562-9.191406 1.152344-11.960938 4.875l-17.773437 24.234375-31.214844-.589844c-4.726562-.152343-9.109375 2.449219-11.25 6.664063-2.136719 4.21875-1.640625 9.289063 1.273438 13.011719l18.636719 23.894531-9.703126 27.945313c-1.515624 4.355468-.433593 9.195312 2.800782 12.484374 3.308594 3.421876 8.277344 4.652344 12.800781 3.175782l29.585937-9.464844 25.199219 18.160156c3.835938 2.785156 8.921875 3.148438 13.113281.929688 4.09375-2.125 6.621094-6.386719 6.527344-11l-.597656-29.582032 18.289062-12.402343c.050782 1.425781.210938 2.816406.210938 4.269531-.003906.847656-.128906 1.6875-.375 2.5-1.042969 3.773438.613281 7.773438 4.019531 9.703125 37.089844 21.015625 55.355469 64.390625 44.480469 105.609375s-48.160156 69.933594-90.789062 69.917969h-51.199219c-11.40625-.050781-21.398438-7.644531-24.507813-18.617188 14.480469-4.234375 24.453125-17.492187 24.507813-32.582031v-11.527344c10.382812-4.925781 17.019531-15.375 17.066406-26.871094v-4.265624c0-4.714844-3.820313-8.535157-8.535156-8.535157-4.710938 0-8.53125 3.820313-8.53125 8.535157v4.265624c0 7.070313-5.730469 12.800782-12.800781 12.800782-7.070313 0-12.800782-5.730469-12.800782-12.800782v-24.59375l12.347656-6.167968c4.21875-2.109375 5.929688-7.234375 3.824219-11.453125-2.109375-4.21875-7.234375-5.929688-11.453125-3.824219l-13.253906 6.632812-13.25-6.632812c-4.21875-2.105469-9.34375-.394531-11.453125 3.824219-2.105469 4.21875-.394531 9.34375 3.824219 11.453125l12.347656 6.167968v24.59375c0 7.070313-5.730469 12.800782-12.800781 12.800782-7.070313 0-12.800781-5.730469-12.800781-12.800782v-4.265624c0-4.714844-3.820313-8.535157-8.53125-8.535157-4.714844 0-8.535157 3.820313-8.535157 8.535157v4.265624c.042969 11.496094 6.679688 21.945313 17.066407 26.871094v11.527344c.054687 15.089844 10.027343 28.347656 24.507812 32.582031-3.109375 10.972657-13.101562 18.566407-24.507812 18.617188h-48.210938c-26.0625-.179688-50.996094-10.648438-69.378906-29.121094-17.472656-17.101563-27.367188-40.492187-27.476563-64.941406-.03125-24.847657 9.847657-48.679688 27.453125-66.21875zm104.960938-28.933594 7.449218 21.453125-22.886718-7.324219c-3.769532-1.191406-7.882813-.539062-11.09375 1.765625l-19.523438 14.03125.460938-22.699218c.085937-4.125-1.9375-8.011719-5.367188-10.308594l-18.824218-12.722656 22.507812-6.828126c3.851562-1.160156 6.898438-4.125 8.167969-7.945312l7.363281-22.320312 13.894531 18.953124c2.359375 3.277344 6.199219 5.167969 10.238281 5.03125l23.527344-.441406-13.988281 17.917969c-2.542969 3.238281-3.265625 7.546875-1.910156 11.4375zm139.628906 29.925781-19.457031-14.03125c-3.21875-2.285156-7.320313-2.9375-11.089844-1.765625l-22.886719 7.324219 7.449219-21.445312c1.363281-3.898438.644531-8.222657-1.914063-11.46875l-13.976562-17.921876 23.519531.445313c4.011719.023437 7.800781-1.839844 10.238281-5.027344l13.78125-18.960937 7.355469 22.316406c1.273438 3.824219 4.324219 6.789062 8.183594 7.953125l22.503906 6.824219-18.773437 12.714844c-3.433594 2.296874-5.460938 6.179687-5.375 10.308593zm0 0"/><path d="m61.957031 69.960938c-1.78125-2.996094-2.191406-6.613282-1.128906-9.933594 1.050781-3.390625 3.484375-6.179688 6.699219-7.679688 2.007812-1.007812 3.527344-2.777344 4.230468-4.90625.699219-2.132812.523438-4.457031-.492187-6.460937-2.140625-4.199219-7.257813-5.910157-11.492187-3.839844-7.367188 3.597656-12.90625 10.09375-15.292969 17.9375s-1.40625 16.324219 2.703125 23.414063c2.453125 3.859374 7.515625 5.097656 11.472656 2.8125 3.960938-2.289063 5.410156-7.292969 3.292969-11.34375zm0 0"/><path d="m77.316406 102.386719c0 4.710937-3.820312 8.53125-8.535156 8.53125-4.710938 0-8.53125-3.820313-8.53125-8.53125 0-4.714844 3.820312-8.535157 8.53125-8.535157 4.714844 0 8.535156 3.820313 8.535156 8.535157zm0 0"/><path d="m300.171875 62.382812c2.046875.96875 4.394531 1.085938 6.527344.324219 2.128906-.761719 3.871093-2.339843 4.839843-4.386719 1.464844-3.160156 4.210938-5.542968 7.542969-6.554687 3.402344-1.066406 7.101563-.625 10.15625 1.210937 1.96875 1.066407 4.28125 1.308594 6.429688.667969 2.144531-.640625 3.949219-2.109375 5.011719-4.078125 2.242187-4.140625.75-9.3125-3.351563-11.625-7.136719-4.03125-15.628906-4.917968-23.441406-2.441406-7.816407 2.476562-14.25 8.089844-17.757813 15.5-.976562 2.042969-1.097656 4.394531-.339844 6.53125.757813 2.132812 2.335938 3.878906 4.382813 4.851562zm0 0"/><path d="m295.488281 92.351562c3.882813-2.671874 4.863281-7.984374 2.191407-11.867187-2.671876-3.882813-7.984376-4.863281-11.867188-2.191406s-4.863281 7.984375-2.195312 11.867187c1.285156 1.863282 3.253906 3.140625 5.480468 3.554688 2.226563.410156 4.527344-.078125 6.390625-1.363282zm0 0"/></svg>