<svg height="510pt" viewBox="0 0 510 510.81692" width="510pt" xmlns="http://www.w3.org/2000/svg"><path d="m37.648438 279.359375c12.023437 7.988281 26 12.535156 40.421874 13.148437 7.578126-.042968 15.066407-1.601562 22.03125-4.582031 9.164063 15.34375 21.511719 28.535157 36.21875 38.691407-.394531 4.597656-.648437 9.097656-.648437 13.53125.015625 1.296874.339844 2.574218.9375 3.722656-.367187.851562-.59375 1.753906-.675781 2.679687-.175782 3.5625-.261719 7.117188-.261719 10.667969 0 20.136719 7.839844 153.597656 42.066406 153.597656 8.808594 0 20.867188-5.410156 30.378907-29.574218 15.503906 2.875 31.253906 4.207031 47.019531 3.976562 15.765625.222656 31.515625-1.109375 47.019531-3.988281 9.503906 24.175781 21.570312 29.585937 30.378906 29.585937 16.210938 0 26.527344-30.035156 32.871094-63.761718 15.839844 7.28125 34.515625 4.171874 47.148438-7.84375 12.628906-12.015626 16.664062-30.515626 10.183593-46.699219-6.480469-16.183594-22.167969-26.785157-39.601562-26.761719-2.964844.03125-5.914063.378906-8.804688 1.03125.1875-4.1875.273438-7.5.273438-9.5625 0-3.558594-.085938-7.109375-.257813-10.242188l-3.226562-.128906c2.160156-1.554687 3.449218-4.039062 3.484375-6.699218 0-4.433594-.257813-8.933594-.648438-13.53125 14.703125-10.15625 27.050781-23.347657 36.214844-38.691407 6.964844 2.984375 14.457031 4.539063 22.03125 4.582031 14.425781-.617187 28.40625-5.167968 40.429687-13.15625 46.082032-27.914062 49.195313-67.226562 10.394532-131.414062-37.742188-62.363281-134.375-169.667969-176.828125-144.058594-8.324219 5.691406-13.757813 14.722656-14.890625 24.746094-23.816406-5.367188-48.527344-5.367188-72.34375 0-1.121094-10.023438-6.554688-19.058594-14.882813-24.746094-42.496093-25.601562-139.09375 81.6875-176.835937 144.03125-38.800782 64.238282-35.695313 103.492188 10.402344 131.449219zm119.910156-32.300781c-2.132813 4.683594-4.15625 9.519531-6.066406 14.507812-4.472657-1.664062-9.03125-3.089844-13.65625-4.265625 3.523437-4.273437 7.085937-9.003906 10.6875-14.191406 2.890624 1.40625 5.921874 2.695313 9.035156 3.949219zm225.578125 135.757812c11.089843-.066406 20.960937 7.015625 24.453125 17.539063 3.492187 10.527343-.191406 22.105469-9.125 28.679687-8.929688 6.574219-21.078125 6.648438-30.089844.1875 2.328125-15.863281 3.882812-31.523437 4.855469-44.375 3.132812-1.332031 6.5-2.023437 9.90625-2.03125zm-35.300781-58.949218c-2.59375 1.609374-4.128907 4.480468-4.03125 7.53125.097656 3.046874 1.816406 5.8125 4.507812 7.253906 2.6875 1.4375 5.941406 1.332031 8.535156-.277344.210938-.128906.417969-.273438.621094-.402344 0 .726563.066406 1.46875.066406 2.195313.035156 2.78125 1.449219 5.359375 3.773438 6.886719l-4.011719.367187c.164063 3.265625.238281 6.542969.238281 9.8125 0 56.910156-15.128906 128.851563-25.640625 136.480469-3.558593-.585938-8.535156-5.972656-13.109375-16.921875 2.203125-.75 4.34375-1.554688 6.417969-2.414063 2.816406-1.171875 4.789063-3.757812 5.179687-6.78125.390626-3.023437-.863281-6.027344-3.285156-7.878906-2.425781-1.847656-5.648437-2.265625-8.464844-1.089844-20.355468 7.222656-41.914062 10.453125-63.496093 9.519532-21.367188.898437-42.710938-2.257813-62.90625-9.289063-4.359375-1.757813-9.316407.339844-11.089844 4.691406-1.773437 4.351563.300781 9.316407 4.644531 11.109375 1.84375.753906 3.765625 1.433594 5.710938 2.109375-4.601563 10.914063-9.558594 16.339844-13.117188 16.929688-10.511718-7.679688-25.597656-79.574219-25.597656-136.480469 0-3.269531.074219-6.546875.253906-10.582031-.015625-1.230469-.304687-2.441407-.851562-3.542969.359375-.9375.550781-1.9375.554687-2.945312 0-.722657.050781-1.464844.066407-2.191407.207031.128907.410156.273438.625.402344 1.347656.84375 2.90625 1.289063 4.496093 1.289063 3.808594 0 7.160157-2.523438 8.207031-6.1875 1.050782-3.664063-.457031-7.578126-3.695312-9.59375-32.960938-20.480469-47.28125-40.609376-49.011719-48.042969.015625-.589844-.035156-1.179688-.15625-1.757813.019531-.257812.089844-.507812.207031-.742187.390626-.613281 5.324219-3.0625 19.429688.300781 16.851562 4.609375 32.894531 11.796875 47.554688 21.296875 4.007812 2.488281 9.269531 1.261719 11.757812-2.746094 2.492188-4.003906 1.261719-9.269531-2.746094-11.757812-7.195312-4.449219-14.632812-8.488281-22.28125-12.101563 2.042969-5.386718 4.214844-10.554687 6.511719-15.503906 26.496094 7.410156 53.925781 10.957031 81.433594 10.539062 27.511719.410157 54.9375-3.148437 81.433593-10.566406 2.304688 4.957032 4.472657 10.125 6.511719 15.507813-7.632812 3.621093-15.058593 7.667969-22.238281 12.125-4.007812 2.488281-5.234375 7.753906-2.746094 11.757812 2.488282 4.007813 7.75 5.234375 11.757813 2.746094 14.644531-9.507813 30.671875-16.707031 47.511719-21.332031 14.105468-3.414063 19.046874-.914063 19.429687-.296875.117187.230469.1875.484375.207031.742187-.121094.578125-.171875 1.167969-.152344 1.757813-1.769531 7.464843-16.054687 27.570312-49.015624 48.074219zm13.917968-80.75c3.597656 5.1875 7.160156 9.917968 10.683594 14.191406-4.625 1.175781-9.183594 2.601562-13.65625 4.265625-1.921875-5.011719-3.945312-9.847657-6.066406-14.503907 3.117187-1.265624 6.144531-2.554687 9.039062-3.953124zm-319.90625-86.367188c46.890625-77.429688 129.996094-152.464844 153.417969-138.246094 4.3125 3.679688 6.902344 8.980469 7.160156 14.644532-.417969.132812-.851562.226562-1.269531.375-4.457031 1.535156-6.824219 6.394531-5.289062 10.847656 1.539062 4.457031 6.394531 6.824218 10.851562 5.289062 31.367188-10.847656 65.46875-10.847656 96.835938 0 4.457031 1.535156 9.3125-.832031 10.851562-5.289062 1.535156-4.453125-.832031-9.3125-5.289062-10.847656-.425782-.148438-.851563-.242188-1.269532-.375.265625-5.664063 2.859375-10.96875 7.167969-14.652344 23.421875-14.097656 106.519531 60.824218 153.402344 138.246094 42.949219 71.066406 21.265625 92.332031-4.605469 108.007812-19.960938 12.046875-34.851562 13.808594-50.203125 5.972656-.351563-2.261718-1.140625-4.429687-2.320313-6.390625-4.097656-5.878906-10.832031-9.355469-17.996093-9.285156-6.082031-6.335937-11.648438-13.148437-16.648438-20.367187 25.082031-14.695313 40.53125-41.550782 40.625-70.625 0-41.324219-28.363281-85.816407-72.269531-113.347657-2.582031-1.710937-5.890625-1.886719-8.644531-.457031-2.75 1.425781-4.511719 4.234375-4.597657 7.332031-.085937 3.097657 1.515626 6 4.179688 7.582031 39.042969 24.488282 64.265625 63.300782 64.265625 98.890626 0 28.007812-16.09375 47.59375-40.207031 60.664062-.070313.042969-.148438.042969-.214844.085938l-.058594.058593c-28.085937 15.113281-66.972656 21.421875-104.585937 21.421875s-76.5-6.308594-104.585938-21.421875l-.058593-.058593c-.066407 0-.144532 0-.210938-.085938-24.117188-13.0625-40.210938-32.65625-40.210938-60.664062 0-35.589844 25.222657-74.402344 64.265626-98.890626 2.664062-1.582031 4.265624-4.484374 4.179687-7.582031-.085937-3.097656-1.847656-5.90625-4.597656-7.332031-2.753907-1.429688-6.0625-1.253906-8.644531.457031-43.90625 27.53125-72.269532 72.023438-72.269532 113.347657.097656 29.066406 15.546875 55.914062 40.625 70.605468-4.996094 7.222656-10.5625 14.035156-16.648437 20.371094-7.164063-.074219-13.90625 3.402344-18.003907 9.285156-1.179687 1.957032-1.96875 4.128906-2.320312 6.390625-15.359375 7.851563-30.242188 6.082031-50.183594-5.972656-25.882812-15.660156-47.566406-36.925781-4.625-107.984375zm0 0"/><path d="m195.402344 143.882812c0 9.425782-7.640625 17.066407-17.066406 17.066407-9.425782 0-17.066407-7.640625-17.066407-17.066407 0-9.425781 7.640625-17.066406 17.066407-17.066406 9.425781 0 17.066406 7.640625 17.066406 17.066406zm0 0"/><path d="m349.003906 143.882812c0 9.425782-7.640625 17.066407-17.066406 17.066407s-17.066406-7.640625-17.066406-17.066407c0-9.425781 7.640625-17.066406 17.066406-17.066406s17.066406 7.640625 17.066406 17.066406zm0 0"/><path d="m238.070312 203.617188c6.316407-.023438 12.402344-2.394532 17.066407-6.65625 7.476562 6.820312 18.273437 8.570312 27.523437 4.464843 9.246094-4.105469 15.1875-13.292969 15.144532-23.410156 0-4.710937-3.820313-8.53125-8.535157-8.53125-4.710937 0-8.53125 3.820313-8.53125 8.53125 0 4.714844-3.820312 8.535156-8.535156 8.535156-4.710937 0-8.53125-3.820312-8.53125-8.535156 0-4.710937-3.820313-8.53125-8.535156-8.53125-4.710938 0-8.53125 3.820313-8.53125 8.53125 0 4.714844-3.824219 8.535156-8.535157 8.535156-4.710937 0-8.535156-3.820312-8.535156-8.535156 0-4.710937-3.820312-8.53125-8.53125-8.53125-4.714844 0-8.535156 3.820313-8.535156 8.53125 0 14.140625 11.464844 25.601563 25.601562 25.601563zm0 0"/></svg>