<svg height="512pt" viewBox="-1 0 512 512.00853" width="512pt" xmlns="http://www.w3.org/2000/svg"><path d="m37.226562 498.816406c12.023438 8.011719 26.015626 12.574219 40.449219 13.183594 4.757813-.058594 9.488281-.71875 14.082031-1.960938 3.800782 1.242188 7.773438 1.886719 11.773438 1.902344 21.335938 0 50.015625-14.117187 76.09375-38.066406 24.546875 6.191406 49.792969 9.1875 75.109375 8.90625 25.308594.28125 50.550781-2.710938 75.09375-8.898438 26.078125 23.960938 54.722656 38.066407 76.089844 38.066407 4.003906-.015625 7.976562-.660157 11.777343-1.902344 4.589844 1.246094 9.324219 1.90625 14.082032 1.960937 14.429687-.613281 28.417968-5.171874 40.4375-13.183593 46.082031-27.921875 49.195312-67.234375 10.394531-131.414063-22.386719-36.214844-49.234375-69.46875-79.914063-98.984375 14.265626-27.625 22.03125-58.144531 22.707032-89.226562 0-66.867188-42.472656-110.496094-119.679688-123.734375.109375-1.40625.210938-2.824219.210938-4.265625 0-28.277344-22.921875-51.199219-51.199219-51.199219s-51.199219 22.921875-51.199219 51.199219c0 1.433593.101563 2.851562.210938 4.265625-77.207032 13.238281-119.679688 56.867187-119.679688 123.734375.6875 31.144531 8.492188 61.71875 22.820313 89.378906-30.527344 29.625-57.398438 62.796875-80.042969 98.808594-38.800781 64.203125-35.695312 103.515625 10.382812 131.429687zm58.242188-5.359375c-1.257812-.550781-2.386719-1.347656-3.328125-2.347656-7.339844-7.523437-1.828125-31.871094 17.109375-58.613281 13.554688 16.292968 31.328125 28.542968 51.378906 35.414062-27.066406 22.355469-53.425781 30.777344-65.160156 25.546875zm253.371094-25.546875c20.054687-6.863281 37.828125-19.117187 51.378906-35.414062 18.9375 26.742187 24.441406 51.089844 17.066406 58.683594-.925781.976562-2.039062 1.75-3.277344 2.277343-11.742187 5.246094-38.101562-3.183593-65.167968-25.546875zm-94.105469-450.84375c18.851563 0 34.132813 15.28125 34.132813 34.132813 0 18.851562-15.28125 34.132812-34.132813 34.132812s-34.132813-15.28125-34.132813-34.132812c0-18.851563 15.28125-34.132813 34.132813-34.132813zm-153.601563 162.132813c0-73.300781 56.550782-98.902344 106.855469-107.210938 8.195313 18.488281 26.519531 30.410157 46.746094 30.410157s38.550781-11.921876 46.746094-30.410157c50.304687 8.308594 106.855469 33.910157 106.855469 107.210938-.5625 26.804687-6.945313 53.164062-18.714844 77.253906-7.683594-6.757813-15.746094-13.074219-24.140625-18.917969-25.761719-17.734375-45.839844-22.519531-59.683594-14.191406-8.316406 5.675781-13.75 14.691406-14.890625 24.695312-23.816406-5.367187-48.527344-5.367187-72.34375 0-1.140625-10-6.570312-19.011718-14.882812-24.6875-19.898438-12.015624-51.6875 5.121094-83.730469 33.21875-11.820313-24.113281-18.242188-50.519531-18.816407-77.371093zm-59.6875 197.019531c22.734376-36.871094 50.28125-70.542969 81.917969-100.132812.195313-.203126.453125-.355469.632813-.578126 30.71875-28.332031 58.8125-44.851562 70.902344-37.546874 4.304687 3.671874 6.894531 8.964843 7.160156 14.617187-.417969.144531-.855469.238281-1.273438.382813-4.328125 1.625-6.578125 6.402343-5.070312 10.773437 1.507812 4.375 6.226562 6.746094 10.636718 5.355469 31.367188-10.847656 65.46875-10.847656 96.835938 0 2.902344 1.089844 6.171875.515625 8.53125-1.496094 2.359375-2.015625 3.441406-5.152344 2.824219-8.191406-.617188-3.039063-2.832031-5.507813-5.792969-6.441406-.417969-.144532-.851562-.238282-1.269531-.382813.261719-5.648437 2.851562-10.933594 7.148437-14.609375 7.253906-4.378906 22.273438.589844 41.21875 13.652344 36.453125 24.96875 83.625 77.371094 112.203125 124.589844 42.949219 71.0625 21.265625 92.328124-4.625 108.011718-8.519531 5.695313-18.25 9.320313-28.417969 10.589844 8.535157-20.15625-5.535156-52.410156-25.179687-78.085938 4.710937-10.445312 7.113281-21.78125 7.039063-33.238281 0-41.320312-28.363282-85.820312-72.269532-113.347656-2.582031-1.710937-5.890625-1.890625-8.644531-.460937-2.75 1.429687-4.511719 4.238281-4.597656 7.335937-.085938 3.097656 1.515625 6 4.179687 7.578125 39.042969 24.492188 64.265625 63.308594 64.265625 98.894531.125 10.5-2.417969 20.863281-7.390625 30.113281-.050781.09375-.125.179688-.179687.273438-20.707031 37.640625-80.664063 51.839844-137.496094 51.839844s-116.789063-14.199219-137.496094-51.847656c-.050781-.09375-.128906-.179688-.179687-.273438-4.972656-9.246094-7.515625-19.605469-7.390625-30.105469 0-35.585937 25.222656-74.402343 64.265625-98.894531 2.664062-1.578125 4.265625-4.480469 4.179687-7.578125-.085937-3.097656-1.847656-5.90625-4.597656-7.335937-2.753906-1.429688-6.0625-1.25-8.644531.460937-43.90625 27.527344-72.269532 72.046875-72.269532 113.347656-.070312 11.472657 2.34375 22.828125 7.074219 33.28125-19.628906 25.699219-33.722656 57.972657-25.199219 78.085938-10.160156-1.269531-19.886718-4.894531-28.398437-10.589844-25.890625-15.726563-47.574219-36.992187-4.632813-108.046875zm0 0"/><path d="m195 363.316406c0 9.425782-7.640625 17.066406-17.066406 17.066406-9.425782 0-17.066406-7.640624-17.066406-17.066406 0-9.425781 7.640624-17.066406 17.066406-17.066406 9.425781 0 17.066406 7.640625 17.066406 17.066406zm0 0"/><path d="m348.601562 363.316406c0 9.425782-7.640624 17.066406-17.066406 17.066406-9.425781 0-17.066406-7.640624-17.066406-17.066406 0-9.425781 7.640625-17.066406 17.066406-17.066406 9.425782 0 17.066406 7.640625 17.066406 17.066406zm0 0"/><path d="m237.667969 423.046875c6.320312-.015625 12.402343-2.390625 17.066406-6.65625 7.476563 6.820313 18.273437 8.574219 27.519531 4.464844 9.25-4.105469 15.191406-13.289063 15.148438-23.40625 0-4.714844-3.820313-8.535157-8.535156-8.535157-4.710938 0-8.53125 3.820313-8.53125 8.535157 0 4.710937-3.820313 8.53125-8.535157 8.53125-4.710937 0-8.53125-3.820313-8.53125-8.53125 0-4.714844-3.824219-8.535157-8.535156-8.535157s-8.535156 3.820313-8.535156 8.535157c0 4.710937-3.820313 8.53125-8.53125 8.53125-4.714844 0-8.535157-3.820313-8.535157-8.53125 0-4.714844-3.820312-8.535157-8.53125-8.535157-4.714843 0-8.535156 3.820313-8.535156 8.535157 0 6.789062 2.699219 13.300781 7.5 18.101562 4.800782 4.800781 11.3125 7.496094 18.101563 7.496094zm0 0"/></svg>