<svg height="512pt" viewBox="0 0 512 512.00853" width="512pt" xmlns="http://www.w3.org/2000/svg"><path d="m196.269531 392.535156c0 9.425782-7.640625 17.066406-17.066406 17.066406s-17.066406-7.640624-17.066406-17.066406c0-9.425781 7.640625-17.070312 17.066406-17.070312s17.066406 7.644531 17.066406 17.070312zm0 0"/><path d="m349.871094 392.535156c0 9.425782-7.640625 17.066406-17.066406 17.066406-9.425782 0-17.066407-7.640624-17.066407-17.066406 0-9.425781 7.640625-17.070312 17.066407-17.070312 9.425781 0 17.066406 7.644531 17.066406 17.070312zm0 0"/><path d="m221.871094 366.933594c4.710937 0 8.53125-3.820313 8.53125-8.535156 0-4.710938 3.824218-8.53125 8.535156-8.53125 4.714844 0 8.535156 3.820312 8.535156 8.53125 0 4.714843 3.820313 8.535156 8.53125 8.535156 4.714844 0 8.535156-3.820313 8.535156-8.535156 0-4.710938 3.820313-8.53125 8.53125-8.53125 4.714844 0 8.535157 3.820312 8.535157 8.53125 0 4.714843 3.820312 8.535156 8.53125 8.535156 4.714843 0 8.535156-3.820313 8.535156-8.535156.042969-10.117188-5.898437-19.300782-15.144531-23.40625-9.25-4.105469-20.046875-2.355469-27.523438 4.464843-7.472656-6.820312-18.273437-8.570312-27.519531-4.464843-9.25 4.105468-15.191406 13.289062-15.148437 23.40625 0 4.714843 3.820312 8.535156 8.535156 8.535156zm0 0"/><path d="m102.660156 512c23.71875-.15625 47.414063-1.507812 70.996094-4.054688 9.882812-.988281 20.652344-2.335937 31.957031-3.976562 32.742188 10.714844 68.046875 10.714844 100.789063 0 11.296875 1.640625 22.066406 2.996094 31.898437 3.976562 4.820313.523438 9.554688.957032 14.328125 1.382813 20.417969 1.785156 39.5 2.679687 56.71875 2.679687 86.296875-.007812 102.65625-22.5 102.65625-64.007812 0-40.15625-15.511718-62.457031-94.660156-63.863281.511719-3.90625.777344-7.839844.792969-11.777344 0-35.914063-21.496094-63.769531-59.339844-80.734375 24.273437-31.796875 38.769531-69.96875 41.71875-109.863281.085937-.28125.15625-.566407.207031-.855469.066406-1.707031.058594-3.550781.101563-5.296875.042969-1.75.246093-3.304687.246093-4.941406 0-.242188-.117187-.4375-.136718-.675781 0-.777344 0-1.476563 0-2.261719.136718-1.929688.136718-3.667969.136718-5.597657 0-80.570312-17.585937-162.132812-51.199218-162.132812-15.769532 0-28.824219 17.570312-38.074219 50.59375-4.386719-1.332031-8.886719-2.496094-13.5-3.5.207031-1.464844.332031-2.945312.375-4.425781 0-23.566407-19.101563-42.667969-42.667969-42.667969-23.5625 0-42.667968 19.101562-42.667968 42.667969.046874 1.484375.171874 2.964843.378906 4.4375-4.617188.992187-9.117188 2.15625-13.5 3.480469-9.25-33.015626-22.308594-50.585938-38.078125-50.585938-33.613281 0-51.199219 81.5625-51.199219 162.132812 0 1.929688 0 3.667969.085938 5.804688 0 .707031 0 1.398438.042968 2.105469 0 .222656-.128906.402343-.128906.625 0 1.519531.1875 3.0625.230469 4.589843.042969 1.910157 0 3.855469.109375 5.734376h.171875c2.8125 40.167968 17.332031 78.628906 41.761719 110.632812-37.84375 16.964844-59.339844 44.820312-59.339844 80.734375.015625 3.9375.28125 7.871094.792968 11.777344-79.144531 1.40625-94.66015575 23.707031-94.66015575 63.863281 0 41.507812 16.35937475 64 102.65624975 64zm127.742188-469.332031c0-14.140625 11.464844-25.601563 25.601562-25.601563 14.140625 0 25.601563 11.460938 25.601563 25.601563 0 .511719-.09375 1.003906-.128907 1.507812-16.921874-2.023437-34.023437-2.023437-50.945312 0-.023438-.492187-.128906-1.003906-.128906-1.507812zm-102.167969 132.460937c-.058594-2.386718-.144531-4.761718-.144531-7.191406 0-.128906 0-.855469 0-1-.085938-1.648438-.085938-3.148438-.085938-4.804688 0-93.867187 22.554688-145.066406 34.132813-145.066406 4.761719 0 14.21875 10.648438 22.058593 39.320313-6.101562 2.59375-12.003906 5.628906-17.664062 9.082031-3.777344 2.566406-4.867188 7.65625-2.464844 11.542969s7.4375 5.191406 11.425782 2.960937c24.464843-14.023437 52.324218-21.027344 80.511718-20.238281 28.550782-.820313 56.757813 6.394531 81.410156 20.820313 2.578126 1.746093 5.902344 1.945312 8.675782.523437 2.769531-1.421875 4.546875-4.238281 4.632812-7.351563.089844-3.113281-1.527344-6.027343-4.214844-7.601562-5.964843-3.738281-12.210937-7-18.6875-9.761719 7.84375-28.65625 17.289063-39.296875 22.050782-39.296875 11.578125 0 34.132812 51.199219 34.132812 145.066406 0 1.65625 0 3.15625-.078125 4.804688v1c0 2.371094-.09375 4.8125-.144531 7.21875-1.925781 40.164062-16.496094 78.691406-41.632812 110.078125-27.898438-8.546875-56.96875-12.652344-86.144532-12.167969-29.171875-.492187-58.238281 3.605469-86.136718 12.144532-25.132813-31.390626-39.703126-69.917969-41.632813-110.082032zm-29.808594 225.9375c8.183594 25.566406 23.144531 48.4375 43.300781 66.167969 2.25 2.128906 5.472657 2.871094 8.425782 1.941406 2.953125-.929687 5.171875-3.386719 5.796875-6.417969.621093-3.035156-.445313-6.167968-2.789063-8.1875-26.453125-23.894531-42.222656-54.613281-42.222656-82.242187 0-34.691406 24.574219-56.550781 58.699219-68.960937.164062-.050782.324219-.09375.488281-.160157 27.695312-9.128906 56.722656-13.546875 85.878906-13.074219 29.160156-.460937 58.1875 3.96875 85.878906 13.109376.164063.066406.324219.109374.488282.160156 34.132812 12.40625 58.699218 34.269531 58.699218 68.957031 0 27.691406-15.847656 58.496094-42.394531 82.398437-2.335937 2.023438-3.394531 5.148438-2.773437 8.171876.621094 3.027343 2.832031 5.480468 5.773437 6.414062 2.945313.9375 6.164063.207031 8.417969-1.90625 20.253906-17.765625 35.289062-40.707031 43.488281-66.371094 81.296875.757813 81.355469 22.1875 81.355469 46.933594 0 25.183594 0 46.933594-85.589844 46.933594-16.726562 0-35.308594-.855469-55.210937-2.613282-4.640625-.417968-9.292969-.851562-14.078125-1.355468-8.910156-.851563-18.636719-2.117188-28.785156-3.558594-2.078126-1.175781-4.5625-1.410156-6.824219-.648438-31.367188 10.847657-65.46875 10.847657-96.835938 0-2.265625-.757812-4.746093-.523437-6.828125.648438-10.136718 1.441406-19.867187 2.671875-28.808594 3.558594-23.023437 2.492187-46.160156 3.816406-69.316406 3.96875-85.589844 0-85.589844-21.75-85.589844-46.933594 0-24.746094.058594-46.175781 81.355469-46.933594zm0 0"/><path d="m239.132812 214.945312c-21.085937-37.265624-51.089843-73.222656-72.53125-63.144531-26.941406 12.5-5.078124 76.449219 2.261719 95.75 1.257813 3.316407 4.433594 5.503907 7.976563 5.503907 1.035156 0 2.0625-.1875 3.03125-.5625 4.402344-1.675782 6.613281-6.601563 4.941406-11.007813-18.015625-47.367187-15.191406-72.269531-10.984375-74.238281 4.207031-1.972656 25.652344 11.945312 50.839844 56.753906 2.054687 3.652344 6.453125 5.277344 10.386719 3.832031h.085937c2.472656-.925781 4.378906-2.945312 5.160156-5.46875.78125-2.523437.351563-5.265625-1.167969-7.425781zm0 0"/><path d="m276.953125 227.839844c3.933594 1.445312 8.335937-.175782 10.386719-3.832032 25.199218-44.824218 46.566406-58.71875 50.882812-56.738281 4.164063 1.9375 6.988282 26.839844-11.023437 74.242188-1.675781 4.402343.535156 9.332031 4.9375 11.007812.96875.371094 1.996093.5625 3.03125.5625 3.542969 0 6.71875-2.191406 7.980469-5.503906 7.335937-19.304687 29.199218-83.25 2.292968-95.734375-21.453125-10.089844-51.457031 25.804688-72.53125 63.058594-.4375.617187-.789062 1.289062-1.050781 1.996094-1.585937 4.429687.6875 9.304687 5.09375 10.941406zm0 0"/></svg>