<svg height="510pt" viewBox="0 0 510 510.81692" width="510pt" xmlns="http://www.w3.org/2000/svg"><path d="m37.648438 279.359375c12.023437 7.988281 26 12.535156 40.421874 13.148437 11.148438-.089843 22.046876-3.328124 31.4375-9.34375.296876-.175781.582032-.375.851563-.589843l16.410156-13.089844c8.136719-8.121094 15.46875-17.011719 21.886719-26.546875 2.902344 1.402344 5.863281 2.757812 8.96875 4.019531-16.941406 39.574219-24.332031 82.578125-21.570312 125.535157 1.15625 29.089843 4.949218 58.011718 11.332031 86.417968l.742187 3.503906c3.5 16.914063 10.007813 48.402344 29.609375 48.402344 8.808594 0 20.867188-5.410156 30.378907-29.574218 15.503906 2.875 31.253906 4.207031 47.019531 3.976562 15.765625.222656 31.515625-1.109375 47.019531-3.988281 9.503906 24.175781 21.570312 29.585937 30.378906 29.585937 18.0625 0 24.40625-26.886718 27.808594-41.335937l.707031-2.933594c1.605469-6.28125 3.039063-12.800781 4.363281-19.492187 15.839844 7.28125 34.519532 4.171874 47.148438-7.84375 12.632812-12.019532 16.664062-30.519532 10.179688-46.703126-6.480469-16.183593-22.171876-26.785156-39.605469-26.757812-2.871094.035156-5.730469.363281-8.53125.980469.945312-18.734375.472656-37.511719-1.410157-56.171875-2.824218-22.292969-9.679687-43.882813-20.230468-63.71875 3.003906-1.230469 5.878906-2.5625 8.695312-3.902344 6.585938 9.753906 14.125 18.832031 22.507813 27.09375l15.789062 12.542969c.269531.214843.554688.414062.851563.589843 9.390625 6.015626 20.289062 9.257813 31.4375 9.34375 14.425781-.617187 28.40625-5.167968 40.429687-13.15625 46.082031-27.914062 49.195313-67.226562 10.394531-131.414062-37.785156-62.363281-134.425781-169.667969-176.871093-144.058594-8.324219 5.691406-13.757813 14.722656-14.890625 24.746094-23.816406-5.367188-48.527344-5.367188-72.34375 0-1.121094-10.023438-6.554688-19.058594-14.882813-24.746094-42.496093-25.601562-139.09375 81.6875-176.835937 144.03125-38.800782 64.238282-35.695313 103.492188 10.402344 131.449219zm140.183593 214.390625c-1.449219-.445312-6.671875-4.265625-12.996093-34.808594l-.808594-3.820312c-6.152344-27.394532-9.808594-55.292969-10.921875-83.347656-2.707031-40.816407 4.390625-81.691407 20.699219-119.210938 13.507812 3.988281 27.335937 6.800781 41.328124 8.40625l-.316406 1.085938c-2.449218 9.070312-4.460937 18.855468-6.117187 28.609374-8.355469 1.792969-16.515625 4.386719-24.371094 7.75-2.8125 1.175782-4.785156 3.765626-5.171875 6.789063s.871094 6.023437 3.292969 7.871094c2.425781 1.847656 5.652343 2.261719 8.464843 1.082031 25.753907-10.785156 37.488282-8.351562 38.511719-6.707031.199219.882812.140625 1.804687-.160156 2.65625-.054687.179687-.179687.304687-.214844.484375-.035156.179687 0 .15625 0 .230468-1.890625 5.152344-4.773437 9.882813-8.480469 13.925782-11.585937 13.085937-25.113281 24.3125-40.109374 33.28125-2.589844 1.609375-4.125 4.480468-4.027344 7.527344.097656 3.050781 1.816406 5.816406 4.503906 7.253906 2.691406 1.441406 5.945312 1.335937 8.535156-.273438 5.632813-3.507812 10.992188-7.195312 16.070313-10.964844 1.003906 8.335938 3.925781 16.324219 8.53125 23.347657-11.640625 4.78125-19.078125 16.304687-18.640625 28.882812s8.65625 23.558594 20.605468 27.519531c-.09375 1.117188-.136718 2.253907-.136718 3.414063.011718 7.59375 2.125 15.03125 6.109375 21.496094-10.191407-1.171875-20.195313-3.628907-29.765625-7.320313-4.359375-1.757812-9.316406.339844-11.089844 4.691406-1.773438 4.351563.304688 9.320313 4.648438 11.109376 1.84375.753906 3.761718 1.433593 5.707031 2.101562-4.898438 11.542969-10.179688 16.9375-13.679688 16.9375zm99.621094-65.3125c-1.957031 2.347656-2.507813 5.5625-1.445313 8.429688.898438 2.503906 1.34375 5.148437 1.316407 7.808593 0 12.253907-9.933594 22.1875-22.1875 22.1875-12.253907 0-22.1875-9.933593-22.1875-22.1875-.027344-2.660156.417969-5.304687 1.316406-7.808593.992187-2.902344.375-6.117188-1.632813-8.441407-1.683593-1.960937-4.144531-3.085937-6.730468-3.078125-.5.003906-.996094.046875-1.484375.136719-7.070313 0-12.800781-5.730469-12.800781-12.800781 0-7.070313 5.730468-12.800782 12.800781-12.800782h61.4375c7.070312.101563 12.71875 5.914063 12.617187 12.984376-.101562 7.070312-5.914062 12.71875-12.984375 12.617187-3.015625-.527344-6.082031.601563-8.035156 2.960937zm-22.316406-45.621094c-17.066407 0-28.289063-.066406-32.425781-21.570312 12.359374 2.878906 25 4.390625 37.691406 4.503906 9.070312.035156 18.109375-1.089844 26.898437-3.34375-4.242187 20.324219-15.378906 20.410156-32.164062 20.410156zm-29.464844-38.460937c2.925781-2.90625 5.632813-5.828125 8.019531-8.703125 3.574219-4.179688 6.644532-8.761719 9.15625-13.652344 4.484375.691406 9.007813 1.0625 13.542969 1.109375 3.738281-.023437 7.46875-.289063 11.171875-.792969 2.496094 4.78125 5.519531 9.269532 9.019531 13.378906 2.8125 3.339844 5.796875 6.535157 8.933594 9.574219-19.722656 4.605469-40.273437 4.292969-59.84375-.914062zm40.6875-45.90625c-1.308594 2.175781-2.144531 4.601562-2.449219 7.125-5.851562.601562-11.753906.5-17.578125-.300781-.332031-2.414063-1.152343-4.738282-2.417969-6.824219-4.0625-5.714844-10.632812-9.113281-17.644531-9.132813.851563-4.71875 1.824219-9.292968 2.890625-13.839844 8.820313 2.601563 17.964844 3.941407 27.164063 3.976563 8.421875.015625 16.796875-1.25 24.839843-3.746094 1.050782 4.488281 1.988282 8.976563 2.839844 13.601563-7.011718.015625-13.585937 3.421875-17.644531 9.140625zm9.597656-42.429688.855469 3.019531c-14.132812 4.355469-29.25 4.316407-43.359375-.109374l.777344-2.6875c9.421875-29.167969 18.285156-35.558594 20.90625-35.558594 2.621093 0 11.484375 6.390625 20.820312 35.335937zm107.179688 126.796875c11.054687-.054687 20.898437 6.992188 24.40625 17.476563 3.507812 10.484375-.109375 22.039062-8.972657 28.648437-8.863281 6.605469-20.96875 6.777344-30.015624.425782 1.996093-12.902344 3.558593-26.609376 4.71875-41.3125.085937-1.125.144531-2.191407.230468-3.300782 3.054688-1.261718 6.328125-1.921875 9.632813-1.9375zm-26.941407-70.433594c2.339844 24.726563 2.359376 49.613282.0625 74.34375-1.75 25.488282-5.675781 50.785157-11.742187 75.605469l-.785156 3.234375c-5.597657 23.761719-9.824219 27.644532-11.195313 28.160156-3.578125 0-8.867187-5.386718-13.75-16.976562 2.203125-.75 4.34375-1.554688 6.417969-2.414062 4.351563-1.8125 6.40625-6.8125 4.59375-11.160157-1.816406-4.351562-6.8125-6.40625-11.164063-4.589843-9.742187 3.832031-19.941406 6.375-30.34375 7.566406 3.96875-6.457032 6.082032-13.886719 6.101563-21.46875 0-1.152344-.042969-2.285156-.136719-3.414063 11.9375-3.964843 20.148438-14.933593 20.59375-27.503906.445313-12.570313-6.972656-24.09375-18.597656-28.890625 4.621094-7.015625 7.542969-15.007812 8.535156-23.347656 5.074219 3.769531 10.425782 7.457031 16.058594 10.957031 1.347656.84375 2.90625 1.289063 4.496094 1.289063 3.8125 0 7.160156-2.523438 8.210937-6.1875 1.046875-3.664063-.460937-7.578126-3.695312-9.59375-14.996094-8.96875-28.523438-20.195313-40.105469-33.277344-3.636719-3.984375-6.488281-8.617188-8.40625-13.65625.003906-.046875.003906-.09375 0-.144532-.050781-.132812-.109375-.265624-.171875-.390624-.390625-.976563-.488281-2.042969-.28125-3.074219 1.050781-1.707031 12.960937-4.101563 39.089844 6.949219 4.300781 1.660156 9.144531-.390626 10.9375-4.636719 1.796875-4.242188-.101563-9.148438-4.289063-11.074219-8.054687-3.488281-16.429687-6.175781-25.011718-8.023438-1.65625-9.753906-3.667969-19.558593-6.144532-28.722656l-.28125-.972656c14.070313-1.621094 27.972656-4.453125 41.550782-8.472656 10.078124 18.609375 16.671874 38.90625 19.453124 59.886718zm-314.347656-155.632812c46.890625-77.429688 130.011719-152.464844 153.417969-138.246094 4.3125 3.679688 6.902344 8.980469 7.160156 14.644532-.417969.132812-.851562.226562-1.269531.375-4.457031 1.535156-6.824219 6.394531-5.289062 10.847656 1.539062 4.457031 6.394531 6.824218 10.851562 5.289062 31.367188-10.847656 65.46875-10.847656 96.835938 0 4.457031 1.535156 9.3125-.832031 10.851562-5.289062 1.535156-4.453125-.832031-9.3125-5.289062-10.847656-.425782-.148438-.851563-.242188-1.269532-.375.265625-5.664063 2.859375-10.96875 7.167969-14.652344 23.382813-14.097656 106.519531 60.824218 153.402344 138.246094 42.949219 71.066406 21.265625 92.332031-4.605469 108.007812-21.480469 12.945312-37.070312 14.15625-53.691406 4.128906l-14.730469-11.664062c-6.976563-6.972656-13.289063-14.574219-18.859375-22.714844 25.085938-14.640625 40.574219-41.4375 40.738281-70.476562 0-41.320313-28.363281-85.796876-72.269531-113.296876-3.980469-2.359374-9.121094-1.113281-11.578125 2.808594-2.460937 3.921875-1.34375 9.089844 2.515625 11.644532 38.445312 24.089843 64.265625 63.804687 64.265625 98.84375 0 43.082031-41.121094 72.832031-110.265625 80.382812-9.703125-26.957031-21.378906-40.789062-34.800781-40.789062s-25.046875 13.773437-34.789063 40.789062c-69.15625-7.507812-110.277344-37.289062-110.277344-80.382812 0-35.039063 25.820313-74.753907 64.265626-98.84375 2.664062-1.578126 4.265624-4.480469 4.179687-7.578126-.085937-3.101562-1.847656-5.90625-4.597656-7.335937-2.753907-1.429687-6.0625-1.253906-8.644531.460937-43.90625 27.5-72.269532 71.976563-72.269532 113.296876.164063 29.042968 15.660156 55.839843 40.746094 70.476562-5.40625 7.921875-11.507812 15.347656-18.234375 22.1875l-15.359375 12.210938c-16.632812 10.023437-32.214844 8.820312-53.667969-4.125-25.898437-15.699219-47.582031-36.964844-4.640625-108.023438zm0 0"/><path d="m195.402344 143.882812c0 9.425782-7.640625 17.066407-17.066406 17.066407-9.425782 0-17.066407-7.640625-17.066407-17.066407 0-9.425781 7.640625-17.066406 17.066407-17.066406 9.425781 0 17.066406 7.640625 17.066406 17.066406zm0 0"/><path d="m349.003906 143.882812c0 9.425782-7.640625 17.066407-17.066406 17.066407s-17.066406-7.640625-17.066406-17.066407c0-9.425781 7.640625-17.066406 17.066406-17.066406s17.066406 7.640625 17.066406 17.066406zm0 0"/><path d="m221.003906 195.082031c0 4.714844 3.820313 8.535157 8.53125 8.535157.609375 0 13.125-.230469 16.324219-17.066407h18.554687c3.199219 16.835938 15.71875 17.066407 16.324219 17.066407 4.394531-.003907 8.070313-3.351563 8.488281-7.726563.414063-4.378906-2.566406-8.355469-6.886718-9.1875-1.339844-2.6875-1.894532-5.699219-1.601563-8.6875-.292969-2.988281.261719-5.996094 1.601563-8.6875 4.320312-.828125 7.300781-4.804687 6.886718-9.183594-.417968-4.378906-4.09375-7.722656-8.488281-7.726562-.605469 0-13.125.230469-16.324219 17.066406h-18.554687c-3.199219-16.835937-15.714844-17.066406-16.324219-17.066406-4.394531.007812-8.066406 3.355469-8.476562 7.730469-.414063 4.378906 2.566406 8.351562 6.882812 9.179687 1.328125 2.691406 1.882813 5.699219 1.59375 8.6875.289063 2.988281-.265625 5.996094-1.59375 8.6875-4.023437.765625-6.9375 4.285156-6.9375 8.378906zm0 0"/></svg>