<svg height="510pt" viewBox="0 0 510 510.81692" width="510pt" xmlns="http://www.w3.org/2000/svg"><path d="m37.648438 279.359375c12.023437 7.988281 26 12.535156 40.421874 13.148437 11.148438-.089843 22.046876-3.328124 31.4375-9.34375.296876-.175781.582032-.375.851563-.589843l16.410156-13.089844c8.085938-8.070313 15.375-16.898437 21.769531-26.367187 2.890626 1.398437 5.972657 2.6875 9.035157 3.941406-3.035157 6.667968-5.902344 13.585937-8.480469 20.890625-33.136719 21.617187-61.960938 52.148437-50.089844 71.238281 4.84375 6.804688 13.003906 10.445312 21.304688 9.496094 5.257812-.101563 10.484375-.78125 15.59375-2.03125-.15625 3.523437-.230469 7.042968-.230469 10.566406 0 20.136719 7.839844 153.597656 42.066406 153.597656 8.808594 0 20.867188-5.410156 30.378907-29.574218 15.503906 2.875 31.253906 4.207031 47.019531 3.976562 15.765625.222656 31.515625-1.109375 47.019531-3.988281 9.503906 24.175781 21.570312 29.585937 30.378906 29.585937 16.210938 0 26.527344-30.035156 32.871094-63.761718 15.839844 7.28125 34.515625 4.171874 47.148438-7.84375 12.628906-12.015626 16.664062-30.515626 10.183593-46.699219-6.480469-16.183594-22.167969-26.785157-39.601562-26.761719-2.964844.03125-5.914063.378906-8.804688 1.03125.1875-4.1875.273438-7.5.273438-9.5625 0-3.558594-.085938-7.109375-.257813-10.242188l-3.226562-.128906c.363281-.222656.707031-.46875 1.035156-.742187.398438.101562.851562.273437 1.246094.367187 5.414062 1.378906 10.972656 2.121094 16.5625 2.210938 8.308594.949218 16.476562-2.6875 21.332031-9.496094 4.027344-6.496094 5.53125-18.21875-10.238281-37.207031-11.578125-13.210938-25.011719-24.671875-39.878906-34.03125-2.558594-7.304688-5.441407-14.222657-8.480469-20.890625 3.097656-1.253906 6.144531-2.558594 9.042969-3.941406 6.554687 9.6875 14.054687 18.703124 22.382812 26.914062l15.789062 12.542969c.269532.214843.554688.414062.851563.589843 9.390625 6.015626 20.289063 9.253907 31.4375 9.34375 14.425781-.617187 28.40625-5.167968 40.429687-13.15625 46.082032-27.914062 49.195313-67.21875 10.386719-131.414062-37.742187-62.363281-134.355469-169.667969-176.820312-144.058594-8.324219 5.691406-13.757813 14.722656-14.890625 24.746094-23.816406-5.367188-48.527344-5.367188-72.34375 0-1.121094-10.023438-6.554688-19.058594-14.882813-24.746094-42.46875-25.601562-139.09375 81.6875-176.835937 144.03125-38.800782 64.238282-35.695313 103.492188 10.402344 131.449219zm345.488281 103.457031c11.089843-.066406 20.960937 7.015625 24.453125 17.539063 3.492187 10.527343-.191406 22.105469-9.125 28.679687-8.929688 6.574219-21.078125 6.648438-30.089844.1875 2.328125-15.863281 3.882812-31.523437 4.855469-44.375 3.132812-1.332031 6.5-2.023437 9.90625-2.03125zm-39.117188-112.050781c-.699219 3.460937.820313 6.996094 3.816407 8.867187 14.996093 8.96875 28.523437 20.195313 40.105468 33.277344 9.265625 11.164063 9.25 16.675782 8.867188 17.296875-.386719.625-5.316406 3.082031-19.429688-.296875-16.851562-4.597656-32.894531-11.769531-47.558594-21.257812-2.578124-1.953125-6.042968-2.28125-8.941406-.84375-2.902344 1.4375-4.738281 4.390625-4.746094 7.625-.007812 3.238281 1.816407 6.199218 4.710938 7.648437 11.703125 7.339844 24.097656 13.507813 37.007812 18.417969.363282 2.238281 1.628907 4.230469 3.5 5.511719l-4.011718.367187c.164062 3.265625.238281 6.542969.238281 9.8125 0 56.910156-15.128906 128.851563-25.640625 136.480469-3.558594-.585937-8.535156-5.972656-13.109375-16.921875 2.203125-.75 4.34375-1.554688 6.417969-2.414062 4.351562-1.8125 6.40625-6.8125 4.589844-11.160157-1.8125-4.351562-6.808594-6.40625-11.160157-4.589843-20.367187 7.242187-41.941406 10.488281-63.539062 9.5625-21.367188.898437-42.710938-2.257813-62.90625-9.289063-4.359375-1.757813-9.316407.339844-11.089844 4.691406-1.773437 4.351563.300781 9.316407 4.644531 11.109375 1.84375.753906 3.765625 1.433594 5.710938 2.109375-4.601563 10.914063-9.558594 16.339844-13.117188 16.929688-10.511718-7.679688-25.597656-79.574219-25.597656-136.480469 0-3.269531.074219-6.546875.253906-10.582031-.015625-1.230469-.304687-2.441407-.851562-3.542969.15625-.511719.261718-1.039062.324218-1.570312 12.894532-4.921876 25.277344-11.097657 36.964844-18.441407 4.007813-2.488281 5.238282-7.75 2.746094-11.757812-2.488281-4.003907-7.75-5.234375-11.757812-2.746094-14.660157 9.515625-30.699219 16.710937-47.554688 21.332031-14.113281 3.414063-19.046875.921875-19.429688.296875-2.3125-3.71875 10.921876-26.886719 48.960938-50.542969 2.996094-1.871093 4.515625-5.402343 3.816406-8.863281 2.277344-6.257812 4.757813-12.253906 7.449219-17.980469 26.496094 7.40625 53.925781 10.953126 81.433594 10.53125 27.511719.410157 54.9375-3.148437 81.433593-10.566406 2.652344 5.71875 5.15625 11.699219 7.449219 17.980469zm-302.171875-114.015625c46.890625-77.429688 129.988282-152.464844 153.417969-138.246094 4.3125 3.679688 6.902344 8.980469 7.160156 14.644532-.417969.132812-.851562.226562-1.269531.375-4.457031 1.535156-6.824219 6.394531-5.289062 10.847656 1.539062 4.457031 6.394531 6.824218 10.851562 5.289062 31.367188-10.847656 65.46875-10.847656 96.835938 0 4.457031 1.535156 9.3125-.832031 10.851562-5.289062 1.535156-4.453125-.832031-9.3125-5.289062-10.847656-.425782-.148438-.851563-.242188-1.269532-.375.265625-5.664063 2.859375-10.96875 7.167969-14.652344 23.382813-14.097656 106.519531 60.816406 153.402344 138.246094 42.941406 71.066406 21.257812 92.332031-4.617188 108.007812-21.46875 12.953125-37.058593 14.15625-53.679687 4.128906l-14.730469-11.664062c-6.941406-6.921875-13.226563-14.472656-18.773437-22.554688 25.089843-14.683594 40.550781-41.535156 40.652343-70.605468 0-41.324219-28.363281-85.816407-72.269531-113.347657-2.582031-1.710937-5.890625-1.886719-8.644531-.457031-2.75 1.425781-4.511719 4.234375-4.597657 7.332031-.085937 3.097657 1.515626 6 4.179688 7.582031 39.042969 24.488282 64.265625 63.300782 64.265625 98.890626 0 28.007812-16.09375 47.601562-40.207031 60.664062-.070313.042969-.148438.042969-.214844.085938l-.058594.058593c-28.085937 15.113281-66.972656 21.421875-104.585937 21.421875s-76.5-6.308594-104.585938-21.421875l-.058593-.058593c-.066407 0-.144532 0-.210938-.085938-24.117188-13.0625-40.210938-32.65625-40.210938-60.664062 0-35.589844 25.222657-74.402344 64.265626-98.890626 2.664062-1.582031 4.265624-4.484374 4.179687-7.582031-.085937-3.097656-1.847656-5.90625-4.597656-7.332031-2.753907-1.429688-6.0625-1.253906-8.644531.457031-43.90625 27.53125-72.269532 72.023438-72.269532 113.347657.097656 29.070312 15.550782 55.921874 40.636719 70.605468-5.378906 7.859375-11.441406 15.226563-18.125 22.007813l-15.359375 12.210937c-16.632812 10.027344-32.214844 8.824219-53.667969-4.121094-25.898437-15.683593-47.582031-36.949218-4.640625-108.007812zm0 0"/><path d="m195.402344 143.882812c0 9.425782-7.640625 17.066407-17.066406 17.066407-9.425782 0-17.066407-7.640625-17.066407-17.066407 0-9.425781 7.640625-17.066406 17.066407-17.066406 9.425781 0 17.066406 7.640625 17.066406 17.066406zm0 0"/><path d="m349.003906 143.882812c0 9.425782-7.640625 17.066407-17.066406 17.066407s-17.066406-7.640625-17.066406-17.066407c0-9.425781 7.640625-17.066406 17.066406-17.066406s17.066406 7.640625 17.066406 17.066406zm0 0"/><path d="m234.257812 185.695312 12.347657 6.128907v11.792969c0 4.710937 3.820312 8.53125 8.53125 8.53125 4.714843 0 8.535156-3.820313 8.535156-8.53125v-11.792969l12.347656-6.171875c4.214844-2.105469 5.929688-7.230469 3.820313-11.449219-2.105469-4.21875-7.234375-5.929687-11.449219-3.824219l-13.253906 6.632813-13.253907-6.632813c-2.726562-1.363281-5.976562-1.164062-8.519531.515625-2.542969 1.683594-4 4.59375-3.8125 7.636719.183594 3.046875 1.976563 5.761719 4.707031 7.121094zm0 0"/></svg>