<svg height="512pt" viewBox="-1 0 512 512.00853" width="512pt" xmlns="http://www.w3.org/2000/svg"><path d="m37.226562 498.816406c12.019532 8.011719 26.007813 12.574219 40.441407 13.183594 4.757812-.058594 9.488281-.71875 14.078125-1.960938 3.800781 1.242188 7.769531 1.882813 11.769531 1.902344 21.332031 0 50.023437-14.117187 76.097656-38.066406 24.550781 6.191406 49.796875 9.1875 75.113281 8.90625 25.308594.28125 50.550782-2.710938 75.09375-8.898438 26.078126 23.960938 54.730469 38.066407 76.097657 38.066407 4-.015625 7.976562-.660157 11.777343-1.902344 4.589844 1.246094 9.324219 1.90625 14.078126 1.960937 14.429687-.613281 28.414062-5.175781 40.433593-13.183593 46.078125-27.921875 49.195313-67.234375 10.382813-131.414063-22.375-36.214844-49.21875-69.472656-79.894532-98.984375 14.261719-27.625 22.023438-58.144531 22.695313-89.226562 0-66.867188-42.46875-110.496094-119.679687-123.734375.113281-1.40625.214843-2.824219.214843-4.265625 0-28.277344-22.921875-51.199219-51.199219-51.199219-28.277343 0-51.199218 22.921875-51.199218 51.199219 0 1.433593.101562 2.851562.210937 4.265625-77.210937 13.238281-119.679687 56.867187-119.679687 123.734375.679687 31.144531 8.484375 61.71875 22.820312 89.378906-30.507812 29.632813-57.363281 62.800781-79.992187 98.808594-38.851563 64.203125-35.746094 103.515625 10.339843 131.429687zm58.242188-5.359375c-1.261719-.546875-2.394531-1.347656-3.335938-2.347656-7.339843-7.535156-1.820312-31.871094 17.066407-58.613281 13.558593 16.292968 31.335937 28.542968 51.386719 35.414062-27.035157 22.363282-53.417969 30.785156-65.117188 25.546875zm253.363281-25.546875c20.054688-6.867187 37.832031-19.121094 51.386719-35.414062 18.917969 26.742187 24.429688 51.089844 17.015625 58.699218-.917969.96875-2.023437 1.738282-3.25 2.261719-11.726563 5.222657-38.085937-3.183593-65.152344-25.546875zm-94.105469-450.84375c18.851563 0 34.132813 15.28125 34.132813 34.132813 0 18.851562-15.28125 34.132812-34.132813 34.132812-18.851562 0-34.132812-15.28125-34.132812-34.132812 0-18.851563 15.28125-34.132813 34.132812-34.132813zm-153.601562 162.132813c0-73.300781 56.558594-98.902344 106.855469-107.210938 8.195312 18.488281 26.519531 30.410157 46.746093 30.410157 20.222657 0 38.550782-11.921876 46.746094-30.410157 50.292969 8.308594 106.851563 33.910157 106.851563 107.210938-.558594 26.804687-6.941407 53.167969-18.703125 77.261719-7.6875-6.761719-15.75-13.078126-24.148438-18.925782-25.78125-17.742187-45.851562-22.527344-59.734375-14.191406-8.308593 5.679688-13.742187 14.691406-14.882812 24.695312-23.816407-5.359374-48.527344-5.359374-72.34375 0-1.140625-10-6.574219-19.011718-14.882813-24.6875-19.902344-12.023437-51.6875 5.121094-83.738281 33.21875-11.800781-24.121093-18.207031-50.523437-18.765625-77.371093zm-59.679688 197.019531c22.765626-36.933594 50.363282-70.660156 82.0625-100.285156.128907-.144532.308594-.246094.425782-.390625 30.773437-28.347657 58.882812-44.886719 70.914062-37.546875 4.304688 3.671875 6.902344 8.960937 7.167969 14.617187-.417969.136719-.855469.230469-1.261719.375-4.460937 1.53125-6.832031 6.386719-5.300781 10.84375 1.53125 4.460938 6.386719 6.832031 10.847656 5.300781 31.367188-10.863281 65.480469-10.863281 96.851563 0 .894531.300782 1.828125.457032 2.773437.460938 4.171875.003906 7.734375-3.011719 8.421875-7.128906.6875-4.113282-1.699218-8.125-5.648437-9.476563-.417969-.144531-.855469-.238281-1.261719-.375.265625-5.648437 2.855469-10.9375 7.15625-14.609375 7.230469-4.351562 22.257812.589844 41.210938 13.652344 36.460937 24.976562 83.625 77.378906 112.203124 124.585938 42.949219 71.074218 21.257813 92.332031-4.632812 108.015624-8.519531 5.699219-18.25 9.324219-28.417969 10.589844 8.535157-20.15625-5.527343-52.410156-25.179687-78.089844 4.738281-10.449218 7.15625-21.804687 7.082031-33.277343 0-41.320313-28.367187-85.820313-72.269531-113.347657-2.582032-1.714843-5.894532-1.890624-8.644532-.460937s-4.511718 4.234375-4.597656 7.335937c-.085937 3.097657 1.511719 6 4.179688 7.578126 39.039062 24.5 64.265625 63.316406 64.265625 98.902343.125 10.5-2.417969 20.863281-7.390625 30.113281-.050782.101563-.128906.179688-.171875.273438-20.710938 37.640625-80.671875 51.839844-137.503907 51.839844-56.832031 0-116.796874-14.199219-137.5-51.847656-.050781-.09375-.125-.179688-.179687-.273438-4.96875-9.246094-7.511719-19.605469-7.386719-30.105469 0-35.585937 25.222656-74.402343 64.261719-98.894531 2.667969-1.578125 4.269531-4.480469 4.183594-7.578125-.089844-3.097656-1.847657-5.90625-4.601563-7.335937-2.75-1.429688-6.058594-1.25-8.644531.460937-43.902344 27.527344-72.265625 72.046875-72.265625 113.347656-.074219 11.476563 2.34375 22.828125 7.082031 33.28125-19.679687 25.699219-33.742187 58.023438-25.207031 78.09375-10.160156-1.273437-19.882812-4.902343-28.390625-10.597656-25.890625-15.726563-47.582031-36.984375-4.632813-108.046875zm0 0"/><path d="m194.992188 363.316406c0 9.425782-7.640626 17.066406-17.066407 17.066406s-17.066406-7.640624-17.066406-17.066406c0-9.425781 7.640625-17.066406 17.066406-17.066406s17.066407 7.640625 17.066407 17.066406zm0 0"/><path d="m348.59375 363.316406c0 9.425782-7.640625 17.066406-17.066406 17.066406-9.425782 0-17.070313-7.640624-17.070313-17.066406 0-9.425781 7.644531-17.066406 17.070313-17.066406 9.425781 0 17.066406 7.640625 17.066406 17.066406zm0 0"/><path d="m229.125 408.03125v18.636719c0 14.136719 11.460938 25.597656 25.601562 25.597656 14.136719 0 25.597657-11.460937 25.597657-25.597656v-18.636719c10.191406-3.605469 17.023437-13.222656 17.066406-24.03125 0-4.710938-3.820313-8.535156-8.53125-8.535156-4.714844 0-8.535156 3.824218-8.535156 8.535156s-3.820313 8.535156-8.53125 8.535156c-4.714844 0-8.535157-3.824218-8.535157-8.535156s-3.820312-8.535156-8.53125-8.535156c-4.714843 0-8.535156 3.824218-8.535156 8.535156s-3.820312 8.535156-8.53125 8.535156c-4.714844 0-8.535156-3.824218-8.535156-8.535156s-3.820312-8.535156-8.53125-8.535156c-4.714844 0-8.535156 3.824218-8.535156 8.535156.046875 10.808594 6.875 20.425781 17.066406 24.03125zm25.601562-5.121094c2.480469 2.246094 5.378907 3.988282 8.53125 5.121094v18.636719c0 4.710937-3.820312 8.53125-8.53125 8.53125-4.714843 0-8.535156-3.820313-8.535156-8.53125v-18.636719c3.152344-1.121094 6.050782-2.847656 8.535156-5.085938zm0 0"/></svg>