<svg height="512pt" viewBox="-1 0 512 512.00853" width="512pt" xmlns="http://www.w3.org/2000/svg"><path d="m37.226562 498.816406c12.019532 8.011719 26.007813 12.574219 40.441407 13.183594 4.757812-.058594 9.488281-.71875 14.078125-1.960938 3.800781 1.242188 7.769531 1.882813 11.769531 1.902344 21.332031 0 50.023437-14.117187 76.097656-38.066406 24.550781 6.191406 49.796875 9.1875 75.113281 8.90625 25.308594.28125 50.550782-2.710938 75.09375-8.898438 26.078126 23.960938 54.730469 38.066407 76.097657 38.066407 4-.015625 7.976562-.660157 11.777343-1.902344 4.589844 1.246094 9.324219 1.90625 14.078126 1.960937 14.429687-.613281 28.414062-5.175781 40.433593-13.183593 46.078125-27.921875 49.195313-67.234375 10.382813-131.414063-22.375-36.214844-49.21875-69.472656-79.894532-98.984375 14.261719-27.625 22.023438-58.144531 22.695313-89.226562 0-66.867188-42.46875-110.496094-119.679687-123.734375.113281-1.40625.214843-2.824219.214843-4.265625 0-28.277344-22.921875-51.199219-51.199219-51.199219-28.277343 0-51.199218 22.921875-51.199218 51.199219 0 1.433593.101562 2.851562.210937 4.265625-77.210937 13.238281-119.679687 56.867187-119.679687 123.734375.679687 31.144531 8.484375 61.71875 22.820312 89.378906-30.511718 29.625-57.367187 62.796875-79.992187 98.808594-38.851563 64.203125-35.746094 103.515625 10.339843 131.429687zm58.242188-5.359375c-1.261719-.546875-2.394531-1.347656-3.335938-2.347656-7.339843-7.535156-1.820312-31.871094 17.066407-58.613281 13.558593 16.292968 31.335937 28.542968 51.386719 35.414062-27.035157 22.363282-53.4375 30.785156-65.117188 25.546875zm253.363281-25.546875c20.054688-6.867187 37.832031-19.121094 51.386719-35.414062 18.917969 26.742187 24.429688 51.089844 17.015625 58.699218-.917969.96875-2.023437 1.738282-3.25 2.261719-11.71875 5.222657-38.085937-3.183593-65.152344-25.546875zm-94.105469-450.84375c18.851563 0 34.132813 15.28125 34.132813 34.132813 0 18.851562-15.28125 34.132812-34.132813 34.132812-18.851562 0-34.132812-15.28125-34.132812-34.132812 0-18.851563 15.28125-34.132813 34.132812-34.132813zm-153.601562 162.132813c0-73.300781 56.558594-98.902344 106.855469-107.210938 8.195312 18.488281 26.519531 30.410157 46.746093 30.410157 20.222657 0 38.550782-11.921876 46.746094-30.410157 50.292969 8.308594 106.851563 33.910157 106.851563 107.210938-.558594 26.804687-6.941407 53.167969-18.703125 77.261719-7.6875-6.761719-15.75-13.078126-24.148438-18.925782-25.78125-17.742187-45.851562-22.527344-59.734375-14.191406-8.308593 5.679688-13.742187 14.691406-14.882812 24.695312-23.816407-5.359374-48.527344-5.359374-72.34375 0-1.140625-10-6.574219-19.011718-14.882813-24.6875-19.910156-12.023437-51.695312 5.121094-83.738281 33.210938-11.800781-24.117188-18.207031-50.519531-18.765625-77.363281zm-59.679688 197.019531c22.78125-36.96875 50.410157-70.722656 82.148438-100.363281.101562-.109375.238281-.1875.332031-.296875 30.78125-28.355469 58.878907-44.902344 70.921875-37.597656 4.304688 3.671874 6.902344 8.964843 7.167969 14.617187-.417969.136719-.855469.230469-1.261719.375-4.460937 1.53125-6.832031 6.386719-5.300781 10.847656 1.53125 4.457031 6.386719 6.828125 10.847656 5.296875 31.367188-10.863281 65.480469-10.863281 96.851563 0 .894531.304688 1.828125.457032 2.773437.460938 4.171875.003906 7.734375-3.011719 8.421875-7.125.6875-4.117188-1.699218-8.128906-5.648437-9.480469-.417969-.144531-.855469-.238281-1.261719-.375.265625-5.648437 2.855469-10.9375 7.15625-14.609375 7.238281-4.351562 22.257812.589844 41.210938 13.652344 36.460937 24.976562 83.625 77.382812 112.203124 124.589844 42.949219 71.070312 21.257813 92.328124-4.632812 108.011718-8.515625 5.703125-18.246094 9.328125-28.417969 10.589844 8.535157-20.15625-5.527343-52.410156-25.179687-78.085938 4.738281-10.453124 7.15625-21.804687 7.082031-33.28125 0-41.320312-28.367187-85.820312-72.269531-113.347656-2.582032-1.710937-5.894532-1.886718-8.644532-.460937-2.75 1.429687-4.511718 4.238281-4.597656 7.335937-.085937 3.097656 1.511719 6 4.179688 7.578125 39.039062 24.535157 64.265625 63.351563 64.265625 98.9375.125 10.5-2.417969 20.863281-7.390625 30.113281-.050782.101563-.128906.179688-.171875.273438-20.710938 37.640625-80.671875 51.839844-137.503907 51.839844-56.832031 0-116.796874-14.199219-137.5-51.847656-.050781-.09375-.125-.179688-.179687-.273438-4.96875-9.246094-7.511719-19.605469-7.386719-30.105469 0-35.585937 25.222656-74.402343 64.261719-98.894531 2.667969-1.578125 4.269531-4.480469 4.183594-7.578125-.089844-3.097656-1.847657-5.90625-4.601563-7.335937-2.75-1.429688-6.058594-1.25-8.644531.460937-43.902344 27.527344-72.265625 72.046875-72.265625 113.347656-.074219 11.476563 2.34375 22.828125 7.082031 33.28125-19.679687 25.699219-33.742187 58.023438-25.207031 78.09375-10.160156-1.273437-19.882812-4.902343-28.390625-10.597656-25.890625-15.726563-47.582031-36.984375-4.632813-108.046875zm0 0"/><path d="m314.457031 366.933594c.046875 7.9375 5.558594 14.792968 13.300781 16.546875 7.742188 1.75 15.667969-2.066407 19.128907-9.207031 3.355469.792968 6.789062 1.195312 10.238281 1.191406 4.714844 0 8.535156-3.820313 8.535156-8.53125 0-4.714844-3.820312-8.535156-8.535156-8.535156-11.902344-.695313-22.203125-8.527344-26.050781-19.8125-1.503907-4.476563-6.351563-6.886719-10.828125-5.386719-4.480469 1.503906-6.890625 6.351562-5.386719 10.832031 1.304687 3.628906 3.023437 7.097656 5.121094 10.332031-3.527344 3.226563-5.535157 7.789063-5.523438 12.570313zm0 0"/><path d="m152.324219 358.398438c-4.710938 0-8.53125 3.820312-8.53125 8.535156 0 4.710937 3.820312 8.53125 8.53125 8.53125 3.449219.003906 6.886719-.398438 10.242187-1.191406 2.898438 6.316406 9.34375 10.246093 16.289063 9.929687 6.945312-.320313 13.003906-4.816406 15.316406-11.375 2.3125-6.554687.414063-13.859375-4.792969-18.464844 2.113282-3.234375 3.84375-6.703125 5.160156-10.332031 1.382813-4.429688-1.023437-9.152344-5.421874-10.632812-4.398438-1.480469-9.171876.824218-10.746094 5.1875-3.851563 11.28125-14.144532 19.113281-26.046875 19.8125zm0 0"/><path d="m233.863281 450.832031 20.863281-13.925781 20.863282 13.910156c2.535156 1.691406 5.78125 1.902344 8.515625.550782 2.734375-1.351563 4.539062-4.054688 4.738281-7.097657.195312-3.042969-1.246094-5.960937-3.78125-7.652343l-21.804688-14.515626v-7.226562l12.347657-6.171875c4.21875-2.105469 5.929687-7.234375 3.824219-11.449219-2.105469-4.21875-7.234376-5.929687-11.453126-3.824218l-13.25 6.628906-13.253906-6.628906c-4.21875-2.105469-9.34375-.394532-11.449218 3.824218-2.109376 4.214844-.398438 9.34375 3.820312 11.449219l12.347656 6.171875v7.226562l-21.800781 14.507813c-3.921875 2.613281-4.980469 7.914063-2.363281 11.835937 2.613281 3.917969 7.914062 4.976563 11.835937 2.363282zm0 0"/></svg>