<svg height="512pt" viewBox="0 0 512 512.00853" width="512pt" xmlns="http://www.w3.org/2000/svg"><path d="m102.660156 512c23.71875-.15625 47.414063-1.507812 70.996094-4.054688 9.882812-.988281 20.644531-2.335937 31.957031-3.976562 32.742188 10.714844 68.046875 10.714844 100.789063 0 11.296875 1.640625 22.066406 2.996094 31.898437 3.976562 4.8125.523438 9.566407.957032 14.328125 1.382813 20.417969 1.785156 39.5 2.679687 56.71875 2.679687 86.296875-.007812 102.65625-22.5 102.65625-64.007812 0-40.15625-15.511718-62.457031-94.660156-63.863281.511719-3.90625.777344-7.839844.792969-11.777344 0-35.914063-21.503907-63.769531-59.339844-80.734375 24.273437-31.796875 38.769531-69.96875 41.71875-109.863281.085937-.28125.15625-.566407.207031-.855469.074219-1.707031.058594-3.558594.101563-5.316406.042969-1.757813.246093-3.285156.246093-4.921875 0-.242188-.117187-.445313-.136718-.675781 0-.777344 0-1.476563 0-2.261719.136718-1.929688.136718-3.667969.136718-5.597657 0-80.570312-17.585937-162.132812-51.199218-162.132812-15.777344 0-28.835938 17.570312-38.074219 50.59375-4.375-1.332031-8.875-2.496094-13.492187-3.5.199218-1.46875.320312-2.945312.367187-4.425781 0-23.566407-19.101563-42.667969-42.667969-42.667969-23.5625 0-42.667968 19.101562-42.667968 42.667969.046874 1.484375.171874 2.964843.378906 4.4375-4.617188.992187-9.117188 2.15625-13.511719 3.480469-9.238281-33.015626-22.289063-50.585938-38.066406-50.585938-33.613281 0-51.199219 81.5625-51.199219 162.132812 0 1.929688 0 3.667969.085938 5.804688 0 .707031 0 1.398438.042968 2.105469 0 .222656-.128906.402343-.128906.625 0 1.519531.1875 3.0625.230469 4.597656.042969 1.902344 0 3.847656.109375 5.726563h.171875c2.808593 40.167968 17.328125 78.628906 41.761719 110.632812-37.835938 16.964844-59.339844 44.820312-59.339844 80.734375.015625 3.9375.28125 7.871094.792968 11.777344-79.144531 1.40625-94.66015575 23.707031-94.66015575 63.863281 0 41.507812 16.35937475 64 102.65624975 64zm127.742188-469.332031c0-14.140625 11.464844-25.601563 25.601562-25.601563 14.140625 0 25.601563 11.460938 25.601563 25.601563 0 .511719-.09375 1.003906-.128907 1.507812-16.921874-2.023437-34.023437-2.023437-50.945312 0-.03125-.492187-.128906-1.003906-.128906-1.507812zm-102.167969 132.46875c-.058594-2.394531-.144531-4.769531-.144531-7.199219 0-.128906 0-.855469 0-1-.085938-1.648438-.085938-3.148438-.085938-4.804688 0-93.867187 22.554688-145.066406 34.132813-145.066406 4.761719 0 14.21875 10.648438 22.058593 39.320313-6.101562 2.59375-12.003906 5.628906-17.664062 9.082031-3.777344 2.566406-4.867188 7.65625-2.464844 11.542969s7.4375 5.191406 11.425782 2.960937c24.464843-14.023437 52.324218-21.027344 80.511718-20.238281 28.550782-.820313 56.757813 6.394531 81.410156 20.820313 2.578126 1.746093 5.902344 1.945312 8.675782.523437 2.769531-1.421875 4.546875-4.238281 4.632812-7.351563.089844-3.113281-1.527344-6.027343-4.214844-7.601562-5.964843-3.738281-12.210937-7-18.6875-9.761719 7.835938-28.65625 17.289063-39.296875 22.050782-39.296875 11.578125 0 34.132812 51.199219 34.132812 145.066406 0 1.65625 0 3.15625-.078125 4.804688v1c0 2.371094-.09375 4.8125-.144531 7.21875-1.929688 40.164062-16.5 78.691406-41.632812 110.078125-27.898438-8.546875-56.96875-12.652344-86.144532-12.167969-29.171875-.492187-58.238281 3.605469-86.136718 12.144532-25.132813-31.386719-39.703126-69.910157-41.632813-110.074219zm-29.796875 225.929687c8.175781 25.566406 23.136719 48.4375 43.289062 66.167969 2.25 2.128906 5.472657 2.871094 8.425782 1.941406 2.953125-.929687 5.171875-3.386719 5.796875-6.417969.621093-3.035156-.445313-6.167968-2.789063-8.1875-26.453125-23.894531-42.222656-54.613281-42.222656-82.242187 0-34.691406 24.566406-56.550781 58.691406-68.960937.171875-.050782.332032-.09375.503906-.160157 27.691407-9.128906 56.71875-13.546875 85.871094-13.074219 29.15625-.460937 58.183594 3.96875 85.871094 13.109376.171875.066406.332031.109374.503906.160156 34.132813 12.40625 58.691406 34.269531 58.691406 68.957031 0 27.699219-15.847656 58.496094-42.394531 82.398437-2.335937 2.023438-3.394531 5.148438-2.773437 8.171876.621094 3.027343 2.832031 5.480468 5.773437 6.414062 2.945313.9375 6.164063.207031 8.417969-1.90625 20.253906-17.765625 35.289062-40.707031 43.488281-66.371094 81.296875.757813 81.355469 22.1875 81.355469 46.933594 0 25.183594 0 46.933594-85.589844 46.933594-16.726562 0-35.308594-.855469-55.210937-2.613282-4.640625-.417968-9.292969-.851562-14.078125-1.355468-8.917969-.851563-18.644532-2.117188-28.792969-3.558594-2.078125-1.175781-4.5625-1.410156-6.824219-.648438-31.375 10.855469-65.484375 10.855469-96.855468 0-2.265626-.761718-4.746094-.527343-6.828126.648438-10.136718 1.441406-19.863281 2.671875-28.808593 3.558594-23.011719 2.492187-46.140625 3.816406-69.289063 3.96875-85.589844 0-85.589844-21.75-85.589844-46.933594 0-24.746094.058594-46.175781 81.367188-46.933594zm0 0"/><path d="m239.140625 214.964844c-21.074219-37.273438-51.027344-73.21875-72.53125-63.148438-26.941406 12.5-5.078125 76.449219 2.261719 95.753906 1.257812 3.3125 4.433594 5.503907 7.976562 5.503907 1.039063 0 2.0625-.191407 3.03125-.5625 4.402344-1.679688 6.613282-6.605469 4.941406-11.011719-18.015624-47.367188-15.183593-72.265625-10.984374-74.238281 4.199218-1.972657 25.652343 11.945312 50.84375 56.753906 2.082031 3.707031 6.574218 5.316406 10.539062 3.773437h.066406c4.375-1.71875 6.535156-6.652343 4.828125-11.035156-.25-.632812-.578125-1.234375-.972656-1.789062zm0 0"/><path d="m276.808594 227.839844c3.960937 1.539062 8.449218-.070313 10.53125-3.773438 25.199218-44.824218 46.589844-58.765625 50.882812-56.734375 4.15625 1.933594 6.988282 26.835938-11.023437 74.238281-1.675781 4.402344.535156 9.332032 4.9375 11.007813.96875.371094 1.996093.5625 3.03125.5625 3.542969 0 6.71875-2.191406 7.980469-5.503906 7.335937-19.300781 29.199218-83.25 2.292968-95.734375-21.496094-10.121094-51.472656 25.820312-72.53125 63.078125-.402344.570312-.734375 1.1875-.992187 1.835937-1.691407 4.394532.496093 9.328125 4.890625 11.023438zm0 0"/><path d="m162.136719 418.132812c2.265625 0 4.433593-.898437 6.035156-2.5l11.03125-11.035156 11.035156 11.035156c3.347657 3.234376 8.671875 3.1875 11.960938-.105468 3.292969-3.289063 3.339843-8.613282.105469-11.960938l-11.035157-11.03125 11.035157-11.035156c3.234374-3.347656 3.1875-8.671875-.105469-11.960938-3.289063-3.292968-8.613281-3.339843-11.960938-.105468l-11.035156 11.035156-11.03125-11.035156c-3.347656-3.234375-8.671875-3.1875-11.964844.105468-3.289062 3.289063-3.335937 8.613282-.101562 11.960938l11.03125 11.035156-11.03125 11.03125c-2.441407 2.441406-3.171875 6.109375-1.851563 9.300782 1.320313 3.1875 4.433594 5.265624 7.882813 5.265624zm0 0"/><path d="m309.703125 415.632812c3.332031 3.332032 8.734375 3.332032 12.066406 0l11.035157-11.035156 11.03125 11.035156c3.351562 3.234376 8.671874 3.1875 11.964843-.105468 3.289063-3.289063 3.335938-8.613282.101563-11.960938l-11.03125-11.03125 11.03125-11.035156c3.234375-3.347656 3.1875-8.671875-.101563-11.960938-3.292969-3.292968-8.613281-3.339843-11.964843-.105468l-11.03125 11.035156-11.035157-11.035156c-3.347656-3.234375-8.667969-3.1875-11.960937.105468-3.292969 3.289063-3.339844 8.613282-.105469 11.960938l11.035156 11.035156-11.035156 11.03125c-3.328125 3.332032-3.328125 8.734375 0 12.066406zm0 0"/><path d="m247.472656 337.367188v7.226562l-12.347656 6.167969c-4.21875 2.109375-5.929688 7.234375-3.824219 11.453125s7.234375 5.929687 11.453125 3.824218l13.25-6.632812 13.253906 6.632812c2.726563 1.359376 5.976563 1.164063 8.519532-.515624 2.546875-1.683594 4-4.59375 3.816406-7.640626-.1875-3.042968-1.980469-5.757812-4.707031-7.121093l-12.347657-6.167969v-7.226562l21.800782-14.507813c2.535156-1.691406 3.976562-4.609375 3.78125-7.652344-.199219-3.042969-2.003906-5.75-4.734375-7.097656-2.734375-1.351563-5.980469-1.140625-8.519531.550781l-20.863282 13.898438-20.863281-13.90625c-3.921875-2.617188-9.21875-1.558594-11.835937 2.363281-2.617188 3.917969-1.558594 9.21875 2.363281 11.835937zm0 0"/></svg>