<svg height="510pt" viewBox="0 0 510 510.83021" width="510pt" xmlns="http://www.w3.org/2000/svg"><path d="m37.652344 279.371094c12.019531 7.992187 25.996094 12.539062 40.414062 13.152344 7.574219-.046876 15.0625-1.605469 22.027344-4.582032 2.507812 4.867188 5.566406 9.425782 9.121094 13.589844 8.058594 9.367188 17.15625 17.789062 27.117187 25.097656-.40625 4.601563-.664062 9.097656-.664062 13.535156.019531 1.292969.339843 2.5625.929687 3.710938-.359375.855469-.585937 1.757812-.664062 2.679688-.175782 3.5625-.265625 7.121093-.265625 10.675781 0 20.136719 7.84375 153.601562 42.070312 153.601562 8.804688 0 20.863281-5.410156 30.371094-29.578125 15.503906 2.878906 31.257813 4.210938 47.023437 3.976563 15.769532.226562 31.515626-1.109375 47.019532-3.984375 9.515625 24.175781 21.574218 29.585937 30.378906 29.585937 16.214844 0 26.53125-30.039062 32.871094-63.761719 16.867187 7.917969 36.917968 3.976563 49.535156-9.734374 12.613281-13.710938 14.875-34.023438 5.578125-50.171876-9.296875-16.148437-27.992187-24.398437-46.1875-20.375.1875-4.183593.273437-7.492187.273437-9.558593 0-3.558594-.085937-7.117188-.257812-10.242188l-3.222656-.125c2.15625-1.554687 3.449218-4.039062 3.480468-6.699219 0-4.4375-.257812-8.933593-.648437-13.535156 9.953125-7.3125 19.046875-15.730468 27.101563-25.097656 3.546874-4.160156 6.601562-8.71875 9.105468-13.582031 6.964844 2.972656 14.453125 4.527343 22.023438 4.574219 14.425781-.617188 28.40625-5.167969 40.433594-13.160157 46.078124-27.914062 49.191406-67.21875 10.382812-131.414062-37.726562-62.359375-134.3125-169.667969-176.800781-144.058594-8.332031 5.6875-13.769531 14.722656-14.890625 24.746094-23.820313-5.359375-48.527344-5.359375-72.347656 0-1.117188-10.019531-6.550782-19.054688-14.871094-24.746094-42.488282-25.660156-139.09375 81.679687-176.796875 144.042969-38.851563 64.230468-35.746094 103.484375 10.359375 131.4375zm119.894531-32.296875c-2.121094 4.667969-4.136719 9.503906-6.039063 14.507812-4.472656-1.675781-9.027343-3.097656-13.65625-4.269531 3.515626-4.265625 7.074219-8.988281 10.667969-14.164062 2.890625 1.382812 5.921875 2.671874 9.027344 3.925781zm225.585937 135.757812c11.089844-.070312 20.964844 7.011719 24.453126 17.539063 3.492187 10.523437-.191407 22.101562-9.121094 28.675781-8.933594 6.574219-21.082032 6.648437-30.09375.1875 2.332031-15.863281 3.882812-31.523437 4.855468-44.375 3.132813-1.332031 6.503907-2.019531 9.90625-2.027344zm4.804688-92.160156c-11.585938 13.082031-25.109375 24.304687-40.105469 33.277344-3.238281 2.015625-4.746093 5.933593-3.695312 9.597656s4.40625 6.1875 8.21875 6.179687c1.589843.003907 3.148437-.441406 4.496093-1.285156.214844-.128906.417969-.273437.625-.402344 0 .726563.066407 1.46875.066407 2.191407.035156 2.78125 1.449219 5.367187 3.773437 6.894531l-4.019531.367188c.160156 3.226562.238281 6.472656.238281 9.738281 0 56.910156-15.128906 128.851562-25.644531 136.480469-3.546875-.585938-8.53125-5.972657-13.105469-16.921876 2.203125-.75 4.339844-1.554687 6.417969-2.414062 2.8125-1.171875 4.785156-3.757812 5.175781-6.78125s-.859375-6.027344-3.285156-7.878906c-2.421875-1.847656-5.648438-2.265625-8.460938-1.089844-20.359374 7.230469-41.917968 10.46875-63.5 9.539062-21.367187.894532-42.710937-2.257812-62.90625-9.292968-2.824218-1.152344-6.046874-.710938-8.457031 1.15625-2.40625 1.871094-3.636719 4.882812-3.222656 7.902344.410156 3.019531 2.40625 5.59375 5.230469 6.746093 1.839844.75 3.769531 1.433594 5.714844 2.105469-4.597657 10.914062-9.554688 16.34375-13.113282 16.929688-10.515625-7.679688-25.601562-79.570313-25.601562-136.480469 0-3.269531.085937-6.535157.257812-10.582031-.011718-1.230469-.304687-2.441407-.855468-3.539063.363281-.941406.550781-1.9375.554687-2.945313 0-.726562.050781-1.46875.070313-2.195312.203124.128906.40625.273438.621093.402344 1.347657.84375 2.90625 1.292968 4.496094 1.289062 3.8125.007813 7.167969-2.515625 8.21875-6.183594 1.050781-3.664062-.457031-7.582031-3.695313-9.59375-14.996093-8.972656-28.523437-20.195312-40.105468-33.28125-4.21875-4.34375-7.265625-9.6875-8.859375-15.53125 0-.238281 0-.46875-.074219-.707031-.046875-.34375-.011719-.695312.09375-1.023437.382812-.613282 5.316406-3.082032 19.429688.296875 16.84375 4.613281 32.875 11.796875 47.53125 21.300781 2.589843 1.609375 5.84375 1.71875 8.535156.277344 2.691406-1.4375 4.410156-4.203125 4.511718-7.253906.097657-3.046876-1.4375-5.917969-4.027343-7.53125-7.183594-4.476563-14.609375-8.554688-22.238281-12.21875 2.03125-5.355469 4.1875-10.492188 6.476562-15.410157 26.488281 7.414063 53.910156 10.972657 81.414062 10.5625 27.511719.410157 54.941407-3.144531 81.433594-10.5625 2.277344 4.917969 4.4375 10.058594 6.480469 15.417969-7.636719 3.660156-15.066406 7.738281-22.257813 12.210938-2.589843 1.613281-4.125 4.484374-4.027343 7.53125.101562 3.050781 1.820312 5.816406 4.511719 7.253906 2.691406 1.441406 5.945312 1.332031 8.535156-.277344 14.660156-9.515625 30.703125-16.714844 47.558594-21.332031 14.105468-3.414063 19.054687-.921875 19.429687-.300781.105469.332031.136719.679687.09375 1.023437-.042969.238281-.050781.46875-.078125.710937-1.582031 5.878907-4.636719 11.257813-8.875 15.632813zm-26.1875-47.507813c3.601562 5.179688 7.15625 9.898438 10.667969 14.167969-4.625 1.175781-9.183594 2.597657-13.65625 4.265625-1.910157-4.996094-3.921875-9.832031-6.039063-14.507812 3.105469-1.269532 6.132813-2.558594 9.027344-3.957032zm-319.898438-86.398437c46.882813-77.441406 129.972657-152.464844 153.414063-138.25 4.308594 3.675781 6.90625 8.976563 7.167969 14.636719-.417969.144531-.855469.238281-1.273438.382812-4.359375 1.597656-6.644531 6.394532-5.132812 10.785156 1.511718 4.394532 6.257812 6.773438 10.679687 5.351563 31.375-10.855469 65.480469-10.855469 96.855469 0 4.421875 1.421875 9.167969-.957031 10.679688-5.351563 1.511718-4.390624-.773438-9.1875-5.132813-10.785156-.417969-.144531-.855469-.238281-1.273437-.382812.265624-5.667969 2.867187-10.96875 7.1875-14.644532 23.328124-14.113281 106.511718 60.835938 153.394531 138.25 42.9375 71.0625 21.253906 92.328126-4.617188 108.003907-19.953125 12.023437-34.816406 13.800781-50.132812 5.976562-.371094-2.273437-1.175781-4.453125-2.375-6.417969-4.109375-5.890624-10.855469-9.375-18.039063-9.320312-6.0625-6.328125-11.621094-13.128906-16.613281-20.335938 25.082031-14.683593 40.53125-41.53125 40.628906-70.59375 0-41.328124-28.367187-85.820312-72.269531-113.347656-2.585938-1.714844-5.894531-1.890625-8.644531-.460937-2.75 1.429687-4.511719 4.234375-4.597657 7.335937-.089843 3.097656 1.511719 6 4.179688 7.578125 39.039062 24.492188 64.265625 63.300781 64.265625 98.894531 0 27.988282-16.078125 47.582032-40.175781 60.644532-.085938.050781-.179688.050781-.257813.105468l-.074219.066407c-28.078124 15.113281-66.953124 21.410156-104.5625 21.410156-37.605468 0-76.480468-6.296875-104.558593-21.410156l-.074219-.066407c-.078125-.054687-.171875-.054687-.25-.105468-24.105469-13.0625-40.183594-32.65625-40.183594-60.644532 0-35.59375 25.226563-74.402343 64.265625-98.894531 2.667969-1.578125 4.269531-4.480469 4.179688-7.578125-.085938-3.101562-1.847657-5.90625-4.597657-7.335937-2.75-1.429688-6.058593-1.253907-8.644531.460937-43.902343 27.527344-72.269531 72.019532-72.269531 113.347656.09375 29.066407 15.546875 55.917969 40.628906 70.605469-4.992187 7.207031-10.546875 14.007813-16.613281 20.332031-7.183594-.058593-13.933594 3.429688-18.039063 9.320313-1.199218 1.96875-2.007812 4.148437-2.375 6.425781-15.316406 7.816406-30.199218 6.042969-50.117187-5.972656-25.886719-15.695312-47.570313-36.960938-4.632813-108.015625zm0 0"/><path d="m161.269531 143.898438c.019531 1.9375.371094 3.855468 1.039063 5.671874-2.578125 1.476563-4.953125 3.277344-7.074219 5.359376-3.25 3.335937-3.226563 8.660156.050781 11.964843 3.277344 3.308594 8.601563 3.375 11.964844.152344 2.789062-3.1875 6.8125-5.019531 11.046875-5.03125 4.234375-.007813 8.269531 1.804687 11.070313 4.980469 3.347656 3.234375 8.671874 3.1875 11.964843-.101563 3.289063-3.292969 3.335938-8.617187.101563-11.964843-2.105469-2.121094-4.460938-3.984376-7.011719-5.546876 2.277344-6.429687.507813-13.597656-4.5-18.226562-5.007813-4.632812-12.289063-5.839844-18.523437-3.066406-6.230469 2.769531-10.214844 8.988281-10.128907 15.808594zm0 0"/><path d="m229.535156 193.527344v10.101562c0 14.140625 11.460938 25.601563 25.597656 25.601563 14.140626 0 25.601563-11.460938 25.601563-25.601563v-10.101562c10.191406-3.605469 17.023437-13.21875 17.066406-24.03125 0-4.710938-3.820312-8.53125-8.53125-8.53125-4.714843 0-8.535156 3.820312-8.535156 8.53125 0 4.714844-3.820313 8.535156-8.53125 8.535156-4.714844 0-8.535156-3.820312-8.535156-8.535156 0-4.710938-3.820313-8.53125-8.535157-8.53125-4.710937 0-8.53125 3.820312-8.53125 8.53125 0 4.714844-3.820312 8.535156-8.535156 8.535156-4.710937 0-8.53125-3.820312-8.53125-8.535156 0-4.710938-3.820312-8.53125-8.535156-8.53125-4.710938 0-8.53125 3.820312-8.53125 8.53125.042969 10.8125 6.875 20.425781 17.066406 24.03125zm25.597656-5.121094c2.484376 2.246094 5.382813 3.988281 8.535157 5.121094v10.101562c0 4.714844-3.820313 8.535156-8.535157 8.535156-4.710937 0-8.53125-3.820312-8.53125-8.535156v-10.101562c3.148438-1.121094 6.050782-2.847656 8.53125-5.085938zm0 0"/><path d="m320.839844 167.046875c2.789062-3.1875 6.8125-5.019531 11.050781-5.03125 4.234375-.007813 8.265625 1.804687 11.070313 4.980469 3.347656 3.234375 8.667968 3.1875 11.960937-.101563 3.292969-3.292969 3.339844-8.617187.105469-11.964843-2.109375-2.121094-4.464844-3.984376-7.015625-5.546876 2.511719-7.09375.074219-14.996093-5.992188-19.449218-6.070312-4.453125-14.339843-4.40625-20.355469.117187-6.015624 4.523438-8.355468 12.453125-5.761718 19.519531-2.578125 1.476563-4.957032 3.277344-7.074219 5.359376-3.253906 3.335937-3.230469 8.660156.046875 11.964843 3.28125 3.308594 8.605469 3.375 11.964844.152344zm0 0"/></svg>