<svg height="512pt" viewBox="-43 0 512 512.03456" width="512pt" xmlns="http://www.w3.org/2000/svg"><path d="m227.984375 305.417969c2.136719-2.179688 2.945313-5.332031 2.125-8.273438-.824219-2.9375-3.148437-5.214843-6.101563-5.972656-2.957031-.757813-6.089843.117187-8.226562 2.296875-2.554688 3.066406-6.257812 4.941406-10.238281 5.191406h-.09375c-3.308594-.15625-6.496094-1.28125-9.164063-3.234375v-23.203125c14.855469-2.78125 25.597656-12.605468 25.597656-24.746094 0-14.363281-14.992187-25.601562-34.132812-25.601562s-34.132812 11.238281-34.132812 25.601562c0 12.125 10.742187 21.945313 25.601562 24.746094v23.21875c-2.671875 1.953125-5.859375 3.078125-9.167969 3.234375-4.011719-.222656-7.753906-2.101562-10.332031-5.1875-2.132812-2.179687-5.269531-3.058593-8.222656-2.296875-2.957032.757813-5.28125 3.035156-6.101563 5.972656-.820312 2.9375-.011719 6.089844 2.121094 8.269532 5.761719 6.40625 13.921875 10.136718 22.535156 10.308594 6.308594-.113282 12.453125-2.035157 17.699219-5.539063 5.246094 3.503906 11.390625 5.425781 17.699219 5.539063 8.617187-.175782 16.777343-3.914063 22.535156-10.324219zm-57.300781-57.941407c0-3.484374 6.648437-8.535156 17.066406-8.535156s17.066406 5.050782 17.066406 8.535156c0 3.480469-6.648437 8.53125-17.066406 8.53125s-17.066406-5.050781-17.066406-8.53125zm0 0"/><path d="m145.828125 350.617188c-4.289063 1.941406-6.195313 6.980468-4.269531 11.273437 2.402344 5.640625 3.601562 11.722656 3.523437 17.851563 0 14.15625-5.742187 21.332031-17.066406 21.332031-11.320313 0-17.066406-7.175781-17.066406-21.332031-.0625-6.132813 1.152343-12.214844 3.566406-17.851563 1.246094-2.785156.910156-6.019531-.878906-8.488281-1.789063-2.46875-4.757813-3.796875-7.789063-3.480469-3.035156.3125-5.667968 2.222656-6.910156 5.003906-3.394531 7.832031-5.113281 16.285157-5.054688 24.816407 0 28.304687 17.632813 38.398437 34.132813 38.398437 16.503906 0 34.136719-10.09375 34.136719-38.398437.058594-8.53125-1.664063-16.984376-5.054688-24.816407-.921875-2.066406-2.628906-3.679687-4.742187-4.488281s-4.460938-.742188-6.527344.179688zm0 0"/><path d="m265.292969 350.617188c-2.066407.925781-3.679688 2.628906-4.488281 4.746093-.808594 2.113281-.746094 4.460938.179687 6.527344 2.414063 5.636719 3.628906 11.71875 3.566406 17.851563 0 14.15625-5.742187 21.332031-17.066406 21.332031s-17.066406-7.175781-17.066406-21.332031c-.0625-6.132813 1.152343-12.214844 3.566406-17.851563 1.921875-4.304687-.007813-9.351563-4.308594-11.273437-4.304687-1.921876-9.351562.007812-11.273437 4.308593-3.390625 7.832031-5.113282 16.285157-5.050782 24.816407 0 28.304687 17.628907 38.398437 34.132813 38.398437s34.132813-10.09375 34.132813-38.398437c.058593-8.53125-1.660157-16.984376-5.050782-24.816407-.925781-2.066406-2.628906-3.679687-4.746094-4.488281-2.113281-.808594-4.460937-.742188-6.527343.179688zm0 0"/><path d="m426.4375 408.847656c-.667969-2.703125-2.617188-4.910156-5.214844-5.910156-12.226562-5.050781-25.636718-6.53125-38.671875-4.269531-5.382812-2.917969-11.242187-4.847657-17.308593-5.691407 19.664062-53.207031 10.644531-112.785156-23.890626-157.789062 0-.171875 0-.339844 0-.511719-.890624-49.886719-28.527343-95.445312-72.363281-119.28125l29.566407-41.582031c10.410156-14.605469 11.535156-33.878906 2.898437-49.597656s-25.511719-25.101563-43.421875-24.1445315-33.6875 12.0859375-40.601562 28.6367185l-27.390626 65.269531c-.769531 0-1.511718-.101562-2.289062-.101562s-1.519531.09375-2.285156.101562l-27.402344-65.289062c-6.917969-16.542969-22.699219-27.667969-40.605469-28.6210938-17.910156-.9531252-34.78125 8.4335938-43.417969 24.1523438-8.632812 15.71875-7.503906 34.992188 2.90625 49.59375l29.566407 41.582031c-43.832031 23.835938-71.472657 69.394531-72.359375 119.28125v.511719c-22.113282 29.011719-34.1015628 64.472656-34.136719 100.949219.171875 39.289062 14.054687 77.289062 39.253906 107.433593-12.496093 4.992188-21.089843 16.628907-22.1875 30.039063 0 38.398437 31.738281 38.398437 59.734375 38.398437 15.359375.394532 30.496094-3.738281 43.519532-11.886718 43.546874 15.839844 91.28125 15.839844 134.828124 0 13.027344 8.148437 28.160157 12.28125 43.519532 11.886718 21.453125 0 45.039062-.066406 54.929687-17.332031 1.613281.148438 3.21875.265625 4.804688.265625 14.671875.542969 28.824219-5.46875 38.621093-16.402344 9.796876-10.933593 14.226563-25.65625 12.082032-40.179687 4.519531-7.707031 9.6875-15.011719 15.445312-21.839844 1.839844-2.097656 2.539063-4.960937 1.871094-7.671875zm-193.28125-373.519531c4.640625-11.0625 15.472656-18.257813 27.46875-18.253906 4.996094-.003907 9.910156 1.265625 14.277344 3.695312 7.367187 4.125 12.640625 11.183594 14.507812 19.421875 1.890625 8.234375.148438 16.882813-4.789062 23.742188l-31.085938 43.714844c-14.496094-6.332032-29.839844-10.507813-45.542968-12.398438zm-142.300781 28.605469c-4.9375-6.859375-6.683594-15.507813-4.789063-23.742188 1.867188-8.230468 7.140625-15.277344 14.507813-19.394531 4.371093-2.441406 9.292969-3.722656 14.300781-3.722656 11.992188-.007813 22.816406 7.183593 27.460938 18.238281l25.148437 59.9375c-15.703125 1.890625-31.046875 6.066406-45.542969 12.398438zm207.828125 431.007812c-12.625.515625-25.089844-2.992187-35.59375-10.015625-.265625-.273437-.550782-.523437-.851563-.753906-3.511719-2.449219-5.785156-6.304687-6.222656-10.5625 0-4.714844-3.820313-8.535156-8.53125-8.535156-4.714844 0-8.535156 3.820312-8.535156 8.535156.050781 4.496094 1.222656 8.914063 3.414062 12.84375-35.542969 11.023437-73.59375 11.023437-109.140625 0 2.160156-3.9375 3.304688-8.351563 3.328125-12.84375 0-4.714844-3.820312-8.535156-8.535156-8.535156-4.710937 0-8.53125 3.820312-8.53125 8.535156-.441406 4.269531-2.722656 8.136719-6.246094 10.589844-.304687.21875-.589843.460937-.855469.726562-10.496093 7.015625-22.949218 10.523438-35.566406 10.015625-32.238281 0-42.664062-1.65625-42.664062-21.332031 0-10.09375 17.515625-21.332031 42.664062-21.332031 4.714844 0 8.535156-3.824219 8.535156-8.535156 0-4.714844-3.820312-8.535157-8.535156-8.535157-6.839844-.003906-13.660156.75-20.335937 2.253907-25.164063-27.769532-39.195313-63.847657-39.398438-101.324219.015625-26.136719 6.910157-51.8125 19.996094-74.4375.972656 4.753906 2.210937 9.449219 3.710937 14.0625.960938 2.898437 3.394532 5.0625 6.382813 5.679687 2.988281.613282 6.078125-.410156 8.105469-2.6875 2.027344-2.28125 2.6875-5.46875 1.726562-8.367187-3.832031-11.515625-5.785156-23.574219-5.785156-35.710938 0-68.265625 61.25-123.734375 136.53125-123.734375s136.535156 55.46875 136.535156 123.734375c0 12.136719-1.945312 24.195313-5.769531 35.710938-1.484375 4.46875.933594 9.296875 5.402344 10.785156.867187.285156 1.773437.433594 2.6875.4375 3.679687.003906 6.945312-2.351563 8.105469-5.847656 1.5-4.613281 2.738281-9.308594 3.710937-14.0625 13.085937 22.625 19.984375 48.300781 19.996094 74.4375-.203125 37.476562-14.234375 73.554687-39.398438 101.324219-6.675781-1.503907-13.496093-2.257813-20.335937-2.253907-4.710938 0-8.53125 3.820313-8.53125 8.535157 0 4.710937 3.820312 8.535156 8.53125 8.535156 25.148437 0 42.667968 11.238281 42.667968 21.332031 0 19.675781-10.429687 21.332031-42.667968 21.332031zm59.734375-17.066406h-.230469c.09375-1.390625.230469-2.738281.230469-4.265625-1.097657-13.410156-9.691407-25.046875-22.1875-30.039063 8.625-10.425781 16-21.824218 21.980469-33.960937 3.039062-.066406 6.070312.328125 8.988281 1.175781.082031.882813.300781 1.746094.65625 2.5625 2.046875 4.21875 7.117187 5.992188 11.347656 3.976563 1.332031-.546875 2.707031-.976563 4.113281-1.28125 6.652344-1.578125 13.566406-1.714844 20.277344-.410157-3.921875 5.339844-7.496094 10.929688-10.691406 16.734376-.128906.347656-.238282.699218-.324219 1.058593-.234375.546875-.40625 1.121094-.515625 1.707031-.054688.566407-.054688 1.136719 0 1.707032-.023438.367187-.023438.734375 0 1.097656.335938 1.917969.496094 3.859375.488281 5.804688 0 18.851562-15.28125 34.132812-34.132812 34.132812zm0 0"/><path d="m149.351562 221.875c11.78125 0 21.332032-9.550781 21.332032-21.332031s-9.550782-21.335938-21.332032-21.335938-21.335937 9.554688-21.335937 21.335938 9.554687 21.332031 21.335937 21.332031zm0-25.597656c2.355469 0 4.265626 1.910156 4.265626 4.265625s-1.910157 4.265625-4.265626 4.265625c-2.355468 0-4.269531-1.910156-4.269531-4.265625s1.914063-4.265625 4.269531-4.265625zm0 0"/><path d="m226.152344 221.875c11.78125 0 21.332031-9.550781 21.332031-21.332031s-9.550781-21.335938-21.332031-21.335938c-11.785156 0-21.335938 9.554688-21.335938 21.335938s9.550782 21.332031 21.335938 21.332031zm0-25.597656c2.355468 0 4.265625 1.910156 4.265625 4.265625s-1.910157 4.265625-4.265625 4.265625c-2.359375 0-4.269532-1.910156-4.269532-4.265625s1.910157-4.265625 4.269532-4.265625zm0 0"/><path d="m110.949219 256.007812h8.535156c4.710937 0 8.53125-3.820312 8.53125-8.53125 0-4.714843-3.820313-8.535156-8.53125-8.535156h-8.535156c-4.710938 0-8.53125 3.820313-8.53125 8.535156 0 4.710938 3.820312 8.53125 8.53125 8.53125zm0 0"/><path d="m256.015625 256.007812h8.535156c4.710938 0 8.53125-3.820312 8.53125-8.53125 0-4.714843-3.820312-8.535156-8.53125-8.535156h-8.535156c-4.710937 0-8.53125 3.820313-8.53125 8.535156 0 4.710938 3.820313 8.53125 8.53125 8.53125zm0 0"/></svg>