<svg height="511pt" viewBox="-42 0 511 511.94049" width="511pt" xmlns="http://www.w3.org/2000/svg"><path d="m231.613281 367.589844c-2.066406.925781-3.683593 2.628906-4.488281 4.746094-.808594 2.113281-.746094 4.460937.179688 6.527343 2.414062 5.636719 3.628906 11.71875 3.566406 17.851563 0 14.15625-5.742188 21.332031-17.066406 21.332031-11.324219 0-17.066407-7.175781-17.066407-21.332031-.0625-6.132813 1.152344-12.214844 3.566407-17.851563 1.925781-4.292969.019531-9.332031-4.265626-11.273437-2.539062-1.109375-5.460937-.882813-7.792968.605468-2.335938-1.476562-5.253906-1.703124-7.789063-.605468-4.289062 1.941406-6.195312 6.980468-4.269531 11.273437 2.386719 5.644531 3.570312 11.722657 3.484375 17.851563 0 14.15625-5.746094 21.332031-17.066406 21.332031-11.324219 0-17.070313-7.175781-17.070313-21.332031-.058594-6.132813 1.152344-12.214844 3.570313-17.851563 1.242187-2.785156.90625-6.019531-.882813-8.488281-1.789062-2.46875-4.757812-3.796875-7.789062-3.480469-3.035156.3125-5.667969 2.222657-6.910156 5.003907-3.394532 7.832031-5.113282 16.285156-5.054688 24.816406 0 28.304687 17.632812 38.398437 34.136719 38.398437 9.796875.226563 19.183593-3.9375 25.597656-11.347656 6.414063 7.410156 15.800781 11.574219 25.601563 11.347656 16.503906 0 34.132812-10.09375 34.132812-38.398437.058594-8.53125-1.660156-16.984375-5.050781-24.816406-.925781-2.066407-2.632813-3.679688-4.746094-4.488282s-4.460937-.742187-6.527344.179688zm0 0"/><path d="m426.890625 408.753906c-.667969-2.703125-2.617187-4.910156-5.214844-5.914062-12.230469-5.046875-25.636719-6.527344-38.671875-4.265625-5.382812-2.917969-11.242187-4.847657-17.308594-5.691407 19.664063-53.210937 10.644532-112.789062-23.890624-157.789062 0-.171875 0-.339844 0-.511719-.65625-45.636719-23.972657-87.960937-62.199219-112.898437l10.308593-68.007813c1.992188-13.230469-1.777343-26.675781-10.359374-36.9375-8.582032-10.265625-21.148438-16.359375-34.519532-16.738281h-1.621094c-12.984374.0195312-25.378906 5.429688-34.226562 14.933594-8.863281 9.4375-13.34375 22.171875-12.347656 35.082031l3.191406 44.3125c-3.917969-.273437-7.835938-.546875-11.828125-.546875s-7.917969.273438-11.84375.546875l3.207031-44.296875c.996094-12.914062-3.484375-25.652344-12.347656-35.097656-8.847656-9.503906-21.242188-14.9140628-34.226562-14.933594h-1.960938c-13.3125.476562-25.789062 6.609375-34.292969 16.859375-8.503906 10.25-12.230469 23.644531-10.242187 36.816406l10.308594 68.019531c-38.230469 24.929688-61.546876 67.25-62.199219 112.886719v.511719c-22.113281 29.011719-34.101563 64.472656-34.136719 100.949219.171875 39.289062 14.054688 77.289062 39.253906 107.433593-12.496094 4.992188-21.089844 16.625-22.1875 30.039063 0 38.398437 31.738282 38.398437 59.734375 38.398437 15.359375.394532 30.496094-3.738281 43.519531-11.886718 43.546876 15.839844 91.28125 15.839844 134.828126 0 13.027343 8.148437 28.160156 12.28125 43.519531 11.886718 21.453125 0 45.039062-.066406 54.929687-17.332031 1.613282.148438 3.214844.265625 4.804688.265625 14.671875.542969 28.824218-5.46875 38.621094-16.402344 9.796874-10.933593 14.226562-25.65625 12.082031-40.183593 4.519531-7.703125 9.6875-15.007813 15.445312-21.835938 1.839844-2.097656 2.539063-4.960937 1.871094-7.671875zm-213.027344-359.96875c-.582031-8.199218 2.269531-16.273437 7.875-22.289062 5.601563-6.015625 13.453125-9.429688 21.675781-9.429688h1.304688c8.453125.296875 16.375 4.183594 21.78125 10.683594 5.40625 6.503906 7.785156 15 6.535156 23.363281l-9.25 61.03125c-14.605468-7.597656-30.285156-12.914062-46.5-15.761719zm-110.488281 2.328125c-1.246094-8.308593 1.09375-16.757812 6.429688-23.246093 5.335937-6.488282 13.171874-10.414063 21.566406-10.800782h1.621094c8.222656 0 16.078124 3.414063 21.679687 9.433594 5.605469 6.015625 8.457031 14.089844 7.871094 22.292969l-3.414063 47.597656c-16.203125 2.851563-31.875 8.167969-46.472656 15.761719zm195.761719 443.734375c-12.625.515625-25.089844-2.992187-35.59375-10.019531-.265625-.269531-.550781-.519531-.851563-.75-3.511718-2.449219-5.785156-6.304687-6.222656-10.5625 0-4.714844-3.820312-8.535156-8.53125-8.535156-4.714844 0-8.535156 3.820312-8.535156 8.535156.050781 4.496094 1.222656 8.914063 3.414062 12.839844-35.542968 11.027343-73.59375 11.027343-109.140625 0 2.160157-3.933594 3.304688-8.347657 3.328125-12.839844 0-4.714844-3.820312-8.535156-8.535156-8.535156-4.710938 0-8.53125 3.820312-8.53125 8.535156-.441406 4.269531-2.722656 8.132813-6.246094 10.582031-.300781.226563-.585937.472656-.855468.730469-10.496094 7.023437-22.949219 10.53125-35.566407 10.019531-32.238281 0-42.664062-1.65625-42.664062-21.332031 0-10.097656 17.515625-21.335937 42.664062-21.335937 4.714844 0 8.535157-3.820313 8.535157-8.53125 0-4.714844-3.820313-8.535157-8.535157-8.535157-6.839843-.003906-13.660156.75-20.335937 2.253907-25.164063-27.769532-39.195313-63.847657-39.398438-101.324219.015625-26.136719 6.910156-51.8125 19.996094-74.4375.972656 4.753906 2.210938 9.449219 3.710938 14.0625.960937 2.898437 3.394531 5.0625 6.382812 5.679687 2.988281.613282 6.078125-.410156 8.105469-2.691406 2.027343-2.277344 2.6875-5.464844 1.726562-8.363281-3.832031-11.515625-5.785156-23.574219-5.785156-35.710938 0-68.265625 61.25-123.734375 136.53125-123.734375s136.535156 55.46875 136.535156 123.734375c0 12.136719-1.945312 24.191407-5.769531 35.710938-1.484375 4.46875.933594 9.296875 5.402344 10.785156.867187.285156 1.773437.433594 2.6875.4375 3.679687.003906 6.945312-2.355469 8.105468-5.847656 1.5-4.613281 2.738282-9.308594 3.710938-14.0625 13.085938 22.625 19.984375 48.300781 19.996094 74.4375-.203125 37.476562-14.234375 73.554687-39.398438 101.324219-6.675781-1.503907-13.496094-2.257813-20.335937-2.253907-4.710938 0-8.53125 3.820313-8.53125 8.535157 0 4.710937 3.820312 8.53125 8.53125 8.53125 25.148437 0 42.667969 11.238281 42.667969 21.335937 0 19.675781-10.429688 21.332031-42.667969 21.332031zm59.734375-17.066406h-.230469c.09375-1.390625.230469-2.738281.230469-4.265625-1.097656-13.414063-9.691406-25.046875-22.1875-30.039063 8.625-10.425781 16-21.824218 21.980468-33.960937 3.039063-.066406 6.070313.328125 8.988282 1.175781.082031.882813.300781 1.746094.65625 2.5625 2.046875 4.21875 7.117187 5.992188 11.347656 3.976563 1.332031-.546875 2.707031-.976563 4.113281-1.28125 6.652344-1.578125 13.566407-1.714844 20.277344-.410157-3.921875 5.339844-7.496094 10.929688-10.695313 16.734376-.125.34375-.234374.699218-.324218 1.058593-.234375.546875-.402344 1.121094-.511719 1.707031-.054687.566407-.054687 1.136719 0 1.707032-.023437.363281-.023437.734375 0 1.097656.335937 1.917969.496094 3.859375.488281 5.804688 0 18.851562-15.28125 34.132812-34.132812 34.132812zm0 0"/><path d="m239.402344 230.316406c10.921875-.039062 20.613281-7.011718 24.117187-17.359375.484375.140625.980469.238281 1.484375.289063 3.449219 0 6.5625-2.078125 7.882813-5.265625 1.320312-3.1875.589843-6.859375-1.851563-9.300781l-29.863281-29.863282c-3.351563-3.234375-8.671875-3.1875-11.964844.101563-3.289062 3.292969-3.335937 8.613281-.101562 11.964843l.28125.28125c-11.191407 4.765626-17.480469 16.746094-15.050781 28.664063 2.425781 11.917969 12.90625 20.480469 25.066406 20.488281zm0-17.070312c-4.710938 0-8.53125-3.820313-8.53125-8.53125 0-4.714844 3.820312-8.535156 8.53125-8.535156 4.714844 0 8.535156 3.820312 8.535156 8.535156 0 4.710937-3.820312 8.53125-8.535156 8.53125zm0 0"/><path d="m179.671875 263.183594v1.265625c.296875 4.609375-1.402344 9.128906-4.671875 12.394531-3.269531 3.269531-7.785156 4.96875-12.394531 4.671875-4.714844 0-8.535157 3.820313-8.535157 8.53125 0 4.714844 3.820313 8.535156 8.535157 8.535156 9.773437.390625 19.199219-3.691406 25.597656-11.09375 6.402344 7.402344 15.824219 11.484375 25.601563 11.09375 4.710937 0 8.53125-3.820312 8.53125-8.535156 0-4.710937-3.820313-8.53125-8.53125-8.53125-4.613282.296875-9.128907-1.402344-12.398438-4.671875-3.265625-3.265625-4.96875-7.785156-4.667969-12.394531v-1.265625c9.566407-2.070313 16.558594-10.292969 17.066407-20.070313-.550782-6.230469-3.5625-11.984375-8.367188-15.988281s-11.007812-5.925781-17.234375-5.34375c-6.226563-.582031-12.429687 1.339844-17.234375 5.34375s-7.816406 9.757812-8.363281 15.988281c.503906 9.777344 7.496093 18 17.066406 20.070313zm8.53125-24.335938c5.292969 0 8.535156 2.757813 8.535156 4.265625 0 1.511719-3.242187 4.269531-8.535156 4.269531-5.289063 0-8.53125-2.757812-8.53125-4.269531 0-1.507812 3.242187-4.265625 8.53125-4.265625zm0 0"/><path d="m119.9375 238.847656h-17.066406c-4.714844 0-8.535156 3.820313-8.535156 8.535156 0 4.710938 3.820312 8.53125 8.535156 8.53125h17.066406c4.710938 0 8.53125-3.820312 8.53125-8.53125 0-4.714843-3.820312-8.535156-8.53125-8.535156zm0 0"/><path d="m273.535156 238.847656h-17.066406c-4.710938 0-8.53125 3.820313-8.53125 8.535156 0 4.710938 3.820312 8.53125 8.53125 8.53125h17.066406c4.714844 0 8.535156-3.820312 8.535156-8.53125 0-4.714843-3.820312-8.535156-8.535156-8.535156zm0 0"/><path d="m111.402344 213.246094c.503906-.050782 1-.148438 1.484375-.289063 3.800781 11.109375 14.679687 18.199219 26.375 17.1875 11.695312-1.011719 21.199219-9.863281 23.035156-21.457031s-4.464844-22.949219-15.273437-27.523438l.28125-.28125c3.234374-3.351562 3.1875-8.671874-.105469-11.964843-3.292969-3.289063-8.613281-3.335938-11.960938-.101563l-29.867187 29.863282c-2.441406 2.441406-3.171875 6.113281-1.847656 9.300781 1.320312 3.1875 4.429687 5.265625 7.878906 5.265625zm25.601562 0c-4.714844 0-8.535156-3.820313-8.535156-8.53125 0-4.714844 3.820312-8.535156 8.535156-8.535156 4.710938 0 8.53125 3.820312 8.53125 8.535156 0 4.710937-3.820312 8.53125-8.53125 8.53125zm0 0"/></svg>