<svg height="505pt" viewBox="-43 0 505 505.10059" width="505pt" xmlns="http://www.w3.org/2000/svg"><path d="m209.886719 369.3125c-18.828125 0-33.574219 11.054688-33.574219 25.179688 0 11.925781 10.566406 21.585937 25.179688 24.339843v9.234375h-8.394532c-4.632812 0-8.390625 3.757813-8.390625 8.394532 0 4.632812 3.757813 8.390624 8.390625 8.390624h33.574219c4.636719 0 8.394531-3.757812 8.394531-8.390624 0-4.636719-3.757812-8.394532-8.394531-8.394532h-8.390625v-9.234375c14.613281-2.734375 25.179688-12.394531 25.179688-24.339843 0-14.125-14.75-25.179688-33.574219-25.179688zm0 33.574219c-10.25 0-16.789063-4.96875-16.789063-8.394531 0-3.425782 6.539063-8.394532 16.789063-8.394532 10.246093 0 16.785156 4.96875 16.785156 8.394532 0 3.425781-6.539063 8.394531-16.785156 8.394531zm0 0"/><path d="m193.097656 348.328125c0-11.589844-9.394531-20.984375-20.980468-20.984375-11.589844 0-20.984376 9.394531-20.984376 20.984375s9.394532 20.984375 20.984376 20.984375c11.585937 0 20.980468-9.394531 20.980468-20.984375zm-20.980468 4.195313c-2.320313 0-4.199219-1.878907-4.199219-4.195313s1.878906-4.195313 4.199219-4.195313c2.316406 0 4.195312 1.878907 4.195312 4.195313s-1.878906 4.195313-4.195312 4.195313zm0 0"/><path d="m247.65625 327.34375c-11.589844 0-20.984375 9.394531-20.984375 20.984375s9.394531 20.984375 20.984375 20.984375 20.984375-9.394531 20.984375-20.984375-9.394531-20.984375-20.984375-20.984375zm0 25.179688c-2.316406 0-4.195312-1.878907-4.195312-4.195313s1.878906-4.195313 4.195312-4.195313c2.320312 0 4.199219 1.878907 4.199219 4.195313s-1.878907 4.195313-4.199219 4.195313zm0 0"/><path d="m142.738281 377.703125h-8.394531c-4.632812 0-8.390625 3.757813-8.390625 8.394531 0 4.636719 3.757813 8.394532 8.390625 8.394532h8.394531c4.636719 0 8.394531-3.757813 8.394531-8.394532 0-4.636718-3.757812-8.394531-8.394531-8.394531zm0 0"/><path d="m285.425781 377.703125h-8.390625c-4.636718 0-8.394531 3.757813-8.394531 8.394531 0 4.636719 3.757813 8.394532 8.394531 8.394532h8.390625c4.636719 0 8.394531-3.757813 8.394531-8.394532 0-4.636718-3.757812-8.394531-8.394531-8.394531zm0 0"/><path d="m365.164062 377.703125c30.082032 0 54.558594-18.824219 54.558594-41.964844 0-18.078125-14.496094-33.472656-35.65625-39.367187 6.910156-18.324219 10.460938-37.742188 10.476563-57.324219 0-76.148437-52.820313-140.925781-125.902344-163.96875-.105469-15.949219-6.734375-31.160156-18.347656-42.09375 1.769531-7.0625 4.65625-13.796875 8.550781-19.949219 1.710938-2.578125 1.867188-5.882812.40625-8.609375-1.464844-2.726562-4.304688-4.425781-7.394531-4.425781-34.617188 0-53.316407 11.0625-63.179688 20.898438-22.441406 8.648437-37.328125 30.128906-37.542969 54.179687-73.074218 23.042969-125.902343 87.8125-125.902343 163.96875.015625 19.582031 3.566406 39 10.476562 57.324219-21.160156 5.894531-35.6562498 21.289062-35.6562498 39.367187 0 23.140625 24.4765628 41.964844 54.5585938 41.964844.351563 0 .679687-.046875 1.03125-.058594 5.355469 17.101563 14.300781 32.859375 26.238281 46.222657l-10.28125 29.738281c-6.023437 17.515625 3.277344 36.597656 20.78125 42.648437l15.90625 5.546875c3.492188 1.203125 7.164063 1.8125 10.859375 1.804688 14.335938-.019531 27.089844-9.113281 31.777344-22.660157l3.8125-11.03125c35.753906 11.222657 74.078125 11.269532 109.859375.136719l4.25 12.386719c4.648438 13.527344 17.355469 22.625 31.660156 22.664062 3.734375-.007812 7.445313-.632812 10.976563-1.855468l15.914062-5.390625c8.421875-2.886719 15.347657-9.003907 19.253907-17.003907s4.472656-17.226562 1.570312-25.640624l-10.632812-30.929688c12.109374-13.453125 21.179687-29.359375 26.589843-46.636719.308594.011719.636719.058594.988281.058594zm37.769532-41.964844c0 13-15.734375 23.960938-34.921875 24.976563.855469-5.484375 1.308593-11.03125 1.351562-16.582032-.015625-5.390624-.441406-10.773437-1.269531-16.101562 3.355469-5.1875 6.417969-10.558594 9.175781-16.089844 14.964844 3.441406 25.664063 13.027344 25.664063 23.796875zm-206.761719-299.855469c.117187 0 .191406-.136718.300781-.175781.507813-.230469.992188-.511719 1.445313-.839843.484375-.273438.9375-.597657 1.351562-.964844.089844-.085938.207031-.109375.292969-.203125 10.339844-9.808594 23.875-15.546875 38.113281-16.15625-2.4375 5.664062-4.035156 11.652343-4.75 17.777343-.8125 6.421876.234375 12.945313 3.023438 18.792969.992187 1.992188 2.738281 3.507813 4.851562 4.214844 2.113281.703125 4.417969.539063 6.410157-.457031.21875-.105469.34375-.308594.554687-.425782 1.96875 4.132813 3.25 8.5625 3.785156 13.109376-27.421875-5.980469-55.8125-5.980469-83.238281 0 1.871094-15.941407 12.691406-29.414063 27.859375-34.671876zm13.714844 46.960938c92.5625 0 167.867187 70.078125 167.867187 156.203125-.023437 22.820313-5.386718 45.320313-15.652344 65.703125-11.199218-29.148438-31.980468-53.617188-58.929687-69.390625l6.714844-74.632813c1.953125-13.003906-1.75-26.21875-10.179688-36.308593-8.429687-10.089844-20.777343-16.089844-33.921875-16.476563h-1.59375c-12.769531.027344-24.957031 5.34375-33.664062 14.6875-8.664063 9.203125-13.074219 21.621094-12.15625 34.226563l2.058594 53.316406c-7.03125-.402344-14.078126-.402344-21.109376 0l2.070313-53.011719c.980469-12.707031-3.425781-25.238281-12.144531-34.53125-8.707032-9.34375-20.894532-14.660156-33.664063-14.6875h-1.933593c-13.121094.484375-25.417969 6.539063-33.796876 16.652344-8.25 9.921875-11.910156 22.878906-10.074218 35.652344l6.992187 74.988281c-27.03125 15.769531-47.882812 40.28125-59.113281 69.488281-10.257812-20.375-15.613281-42.867187-15.640625-65.675781 0-86.125 75.308594-156.203125 167.871094-156.203125zm-193.050781 252.894531c0-10.769531 10.703124-20.355469 25.667968-23.796875 2.757813 5.53125 5.820313 10.90625 9.175782 16.097656-.828126 5.324219-1.25 10.703126-1.269532 16.09375.042969 5.550782.496094 11.097657 1.351563 16.582032-19.1875-1.015625-34.925781-11.976563-34.925781-24.976563zm118.222656 139.777344c-2.992188 8.757813-12.511719 13.4375-21.277344 10.464844l-15.90625-5.554688c-4.214844-1.433593-7.683594-4.488281-9.636719-8.488281s-2.226562-8.613281-.761719-12.816406l7.597657-21.992188c13.078125 11.335938 27.894531 20.5 43.878906 27.136719zm-67.859375-131.382813c-.023438-5.550781.472656-11.089843 1.476562-16.546874 6.023438-30.226563 24.003907-56.734376 49.855469-73.515626l2.132812 22.828126v.085937c0 4.636719 3.757813 8.394531 8.394532 8.394531 4.632812 0 8.390625-3.757812 8.390625-8.394531 0-.261719 0-.597656 0-.839844l-11.003907-117.917969c-1.230468-8.179687 1.066407-16.492187 6.316407-22.878906 5.25-6.386718 12.964843-10.246094 21.222656-10.621094h1.597656c8.132813.003907 15.898438 3.402344 21.414063 9.382813 5.519531 5.980469 8.285156 13.992187 7.632812 22.101563l-3.859375 98.875c-.179687 4.628906 3.425781 8.53125 8.058594 8.710937 2.230469.117187 4.414063-.671875 6.054687-2.191406 1.640626-1.515625 2.597657-3.632813 2.65625-5.867188l1.117188-28.535156c7.46875-.496094 14.960938-.496094 22.425781 0l1.066407 27.613281c.019531 2.246094.96875 4.386719 2.617187 5.914063 1.648437 1.527343 3.855469 2.304687 6.097656 2.152343 4.625-.183593 8.230469-4.078124 8.054688-8.703124l-3.792969-98.203126c-.585938-8.074218 2.214844-16.027343 7.726562-21.957031 5.515626-5.925781 13.246094-9.292969 21.339844-9.292969h1.285156c8.402344.292969 16.273438 4.195313 21.597657 10.707032 5.320312 6.511718 7.578125 15 6.191406 23.292968l-10.238281 112.976563c-.199219 2.21875.488281 4.425781 1.914062 6.132813 1.425782 1.710937 3.472656 2.785156 5.691406 2.984374h.761719c4.355469.015626 8.003907-3.300781 8.394531-7.640624l1.679688-18.992188c25.761719 16.820312 43.664062 43.3125 49.652344 73.492188.992187 5.425781 1.476562 10.933593 1.453125 16.453124 0 64.796876-64.007813 117.507813-142.6875 117.507813-78.679688 0-142.6875-52.710937-142.6875-117.507813zm264.324219 129.332032c-1.941407 4.015625-5.40625 7.085937-9.625 8.527344l-15.863282 5.449218c-4.207031 1.457032-8.816406 1.179688-12.816406-.769531s-7.058594-5.414063-8.496094-9.621094l-4.332031-12.640625c15.992187-6.585937 30.828125-15.6875 43.941406-26.960937l7.980469 23.242187c1.460938 4.191406 1.175781 8.792969-.789062 12.773438zm0 0"/><path d="m172.5625 309.71875 16.785156 8.394531c2.683594 1.339844 5.878906 1.144531 8.382813-.507812 2.5-1.65625 3.933593-4.519531 3.75-7.511719-.179688-2.996094-1.945313-5.667969-4.628907-7.007812l-16.785156-8.390626c-4.152344-2.074218-9.195312-.390624-11.265625 3.757813-2.074219 4.148437-.390625 9.191406 3.761719 11.265625zm0 0"/><path d="m226.671875 318.949219c1.296875.015625 2.578125-.273438 3.746094-.835938l16.785156-8.394531c4.148437-2.074219 5.832031-7.117188 3.761719-11.265625-2.074219-4.148437-7.117188-5.832031-11.265625-3.757813l-16.785157 8.390626c-3.441406 1.761718-5.234374 5.648437-4.339843 9.40625.890625 3.761718 4.234375 6.429687 8.097656 6.457031zm0 0"/></svg>