<svg height="512pt" viewBox="-43 0 512 512.00108" width="512pt" xmlns="http://www.w3.org/2000/svg"><path d="m130.800781 490.085938c32.332031 29.21875 81.535157 29.21875 113.867188 0 9.488281 13.054687 29.976562 21.828124 54 21.828124 21.453125 0 45.039062-.066406 54.929687-17.332031 1.613282.148438 3.214844.265625 4.804688.265625 14.667968.542969 28.824218-5.46875 38.621094-16.402344 9.796874-10.933593 14.226562-25.65625 12.082031-40.183593 4.523437-7.707031 9.691406-15.015625 15.445312-21.851563 1.832031-2.097656 2.527344-4.957031 1.863281-7.660156-.667968-2.703125-2.609374-4.914062-5.207031-5.917969-12.230469-5.054687-25.644531-6.535156-38.683593-4.265625-5.378907-2.914062-11.238282-4.84375-17.296876-5.691406 19.660157-53.207031 10.640626-112.78125-23.894531-157.78125 0-.136719 0-.28125 0-.425781-.65625-45.644531-23.980469-87.96875-62.214843-112.90625l10.324218-68.09375c1.992188-13.226563-1.78125-26.671875-10.359375-36.933594-8.582031-10.261719-21.144531-16.351563-34.515625-16.734375h-1.621094c-12.984374.0273438-25.375 5.4375-34.226562 14.933594-8.863281 9.4375-13.34375 22.171875-12.347656 35.082031l3.191406 44.371094c-3.917969-.246094-7.835938-.519531-11.828125-.519531s-7.929687.273437-11.84375.546874l3.207031-44.375c.996094-12.917968-3.484375-25.65625-12.347656-35.105468-8.851562-9.496094-21.242188-14.9062502-34.226562-14.933594h-1.964844c-13.308594.46875-25.789063 6.597656-34.300782 16.84375-8.507812 10.25-12.242187 23.640625-10.257812 36.8125l10.324219 68.097656c-38.226563 24.941406-61.542969 67.269532-62.191407 112.914063v.425781c-22.109374 29.011719-34.0976558 64.472656-34.132812 100.949219.152344 39.320312 14.035156 77.351562 39.253906 107.519531-12.46875 4.980469-21.058594 16.574219-22.1875 29.953125 0 38.398437 31.734375 38.398437 59.734375 38.398437 24.019531 0 44.507813-8.773437 54-21.828124zm56.933594 4.847656c-42.34375 0-76.800781-39.894532-76.800781-88.917969 0-3.6875.230468-7.5.589844-11.382813 1.996093.324219 4.015624.515626 6.039062.5625 4.972656.050782 9.894531-1.015624 14.398438-3.121093 16.457031-8.882813 23.183593-29.027344 15.359374-46.011719-3.722656-6.710938-9.484374-12.058594-16.453124-15.269531 15.796874-30.546875 37.113281-49.191407 56.867187-49.191407s41.070313 18.644532 56.882813 49.191407c-6.96875 3.210937-12.730469 8.558593-16.453126 15.269531-7.824218 16.984375-1.097656 37.128906 15.359376 46.011719 4.503906 2.105469 9.425781 3.171875 14.398437 3.121093 2.023437-.050781 4.039063-.234374 6.039063-.554687.359374 3.875.589843 7.679687.589843 11.375-.015625 49.023437-34.472656 88.917969-76.816406 88.917969zm179.4375-84.25c.085937.882812.3125 1.746094.667969 2.558594 2.046875 4.226562 7.121094 6.003906 11.355468 3.976562 1.328126-.554688 2.699219-.988281 4.105469-1.296875 6.652344-1.574219 13.566407-1.710937 20.273438-.398437-3.921875 5.339843-7.492188 10.929687-10.691407 16.734374-.128906.34375-.234374.699219-.324218 1.054688-.230469.550781-.402344 1.121094-.511719 1.707031-.054687.570313-.054687 1.140625 0 1.707031-.023437.371094-.023437.742188 0 1.109376.335937 1.917968.496094 3.863281.488281 5.8125 0 18.851562-15.285156 34.132812-34.132812 34.132812h-.230469c.09375-1.398438.230469-2.746094.230469-4.265625-1.121094-13.390625-9.710938-24.996094-22.1875-29.980469 8.636718-10.441406 16.019531-21.863281 21.996094-34.027344 3.03125-.066406 6.050781.332032 8.960937 1.175782zm-153.777344-361.898438c-.582031-8.199218 2.269531-16.273437 7.871094-22.289062 5.605469-6.015625 13.457031-9.429688 21.679687-9.429688h1.304688c8.453125.289063 16.378906 4.175782 21.789062 10.679688 5.40625 6.503906 7.78125 15.003906 6.523438 23.367187l-9.257812 61.117188c-14.597657-7.589844-30.273438-12.902344-46.480469-15.753907zm-110.492187 2.328125c-1.246094-8.308593 1.085937-16.761719 6.425781-23.25 5.335937-6.492187 13.179687-10.417969 21.574219-10.796875h1.621094c8.222656 0 16.078124 3.414063 21.679687 9.433594 5.605469 6.015625 8.457031 14.089844 7.871094 22.292969l-3.414063 47.683593c-16.199218 2.855469-31.867187 8.167969-46.464844 15.753907zm-68.769532 422.402344c0-7.066406 8.746094-14.507813 21.683594-18.433594.121094 0 .25 0 .359375-.074219.109375-.078124.316407 0 .460938-.097656 6.566406-1.824218 13.347656-2.742187 20.164062-2.730468 4.710938 0 8.53125-3.820313 8.53125-8.53125 0-4.714844-3.820312-8.535157-8.53125-8.535157-6.804687.058594-13.582031.867188-20.207031 2.40625-25.246094-27.789062-39.324219-63.933593-39.527344-101.476562.011719-26.128907 6.902344-51.792969 19.984375-74.410157.976563 4.773438 2.21875 9.488282 3.722657 14.121094.960937 2.898438 3.390624 5.0625 6.378906 5.675782 2.988281.617187 6.082031-.40625 8.109375-2.6875 2.027343-2.277344 2.683593-5.46875 1.722656-8.363282-3.828125-11.515625-5.78125-23.574218-5.785156-35.710937 0-68.269531 61.253906-123.734375 136.535156-123.734375s136.53125 55.464844 136.53125 123.734375c.003906 12.136719-1.941406 24.191406-5.765625 35.710937-1.484375 4.46875.929688 9.296875 5.398438 10.785156.871093.285157 1.777343.433594 2.691406.4375 3.679687 0 6.945312-2.355468 8.105468-5.847656 1.503907-4.632812 2.742188-9.347656 3.71875-14.121094 13.082032 22.617188 19.976563 48.28125 19.988282 74.410157-.203125 37.539062-14.277344 73.679687-39.519532 101.46875-6.628906-1.535157-13.410156-2.339844-20.214843-2.398438-4.714844 0-8.535157 3.820313-8.535157 8.535157 0 4.710937 3.820313 8.53125 8.535157 8.53125 6.800781-.015626 13.574219.894531 20.128906 2.707031.257813.101562.53125.101562.792969.179687 13.015625 4.027344 21.742187 11.390625 21.742187 18.449219 0 19.675781-10.425781 21.332031-42.664062 21.332031-21.847657 0-38.015625-8.617187-41.6875-17.535156 16.113281-20.253906 24.800781-45.417969 24.621093-71.296875-.050781-5.445313-.410156-10.882813-1.078124-16.289063 5.613281-2.523437 10.796874-5.90625 15.363281-10.027343 3.472656-3.1875 3.710937-8.585938.523437-12.0625-3.1875-3.476563-8.585937-3.710938-12.0625-.523438-4.578125 4.082031-9.960937 7.160157-15.804687 9.035157-5.628907 2.386718-11.953125 2.570312-17.714844.519531-7.703125-4.714844-10.894531-14.292969-7.558594-22.6875 3.363281-5.125 8.550781-8.785157 14.507813-10.242188 5.792968-1.992187 11.9375-2.761719 18.046875-2.25 3.035156.304688 6-1.035156 7.78125-3.511719 1.78125-2.472656 2.109375-5.710937.855469-8.492187-1.253907-2.78125-3.894532-4.683594-6.929688-4.988281-5.511719-.5-11.066406-.214844-16.496094.855468-19.089844-38.1875-46.140625-60.816406-73.300781-60.816406s-54.210937 22.628906-73.285156 60.867188c-5.429688-1.074219-10.984375-1.359375-16.496094-.855469-4.691406.472656-8.113281 4.65625-7.640625 9.351563.472656 4.691406 4.65625 8.109374 9.347656 7.640624 6.113282-.511718 12.261719.261719 18.058594 2.261719 5.957031 1.449219 11.140625 5.109375 14.503906 10.238281 3.335938 8.394532.144532 17.972657-7.558594 22.691407-5.761718 2.050781-12.085937 1.863281-17.714843-.53125-5.84375-1.867188-11.226563-4.945313-15.804688-9.027344-3.46875-3.195313-8.871093-2.976563-12.070312.492187-3.195313 3.46875-2.976563 8.871094.492187 12.070313 4.566406 4.121094 9.746094 7.503906 15.359375 10.027344-.660156 5.390625-1.015625 10.820312-1.058593 16.253906-.179688 25.878906 8.507812 51.042969 24.617187 71.296875-3.667969 8.917969-19.839844 17.535156-41.683594 17.535156-32.238281 0-42.667969-1.621094-42.667969-21.332031zm0 0"/><path d="m153.601562 187.734375c.648438 0 1.269532-.214844 1.917969-.265625 4.738281 9.023438 13.574219 15.171875 23.679688 16.476562v23.21875c-2.667969 1.957032-5.855469 3.082032-9.164063 3.234376-4.015625-.222657-7.757812-2.101563-10.332031-5.1875-2.136719-2.179688-5.269531-3.054688-8.226563-2.296876-2.953124.757813-5.277343 3.035157-6.101562 5.972657-.820312 2.9375-.011719 6.09375 2.125 8.273437 5.761719 6.40625 13.921875 10.136719 22.535156 10.304688 6.308594-.109375 12.453125-2.035156 17.699219-5.535156 5.246094 3.5 11.390625 5.425781 17.699219 5.535156 8.617187-.171875 16.777344-3.910156 22.535156-10.324219 2.132812-2.179687 2.941406-5.332031 2.121094-8.269531-.820313-2.9375-3.144532-5.214844-6.101563-5.972656-2.953125-.757813-6.089843.117187-8.222656 2.296874-2.554687 3.0625-6.257813 4.941407-10.238281 5.1875-3.355469-.058593-6.597656-1.191406-9.261719-3.234374v-23.203126c10.105469-1.300781 18.941406-7.445312 23.679687-16.460937.652344.050781 1.273438.265625 1.921876.265625 13.1875.0625 24.265624-9.902344 25.59375-23.023438 1.324218-13.121093-7.53125-25.101562-20.464844-27.679687-12.933594-2.582031-25.710938 5.085937-29.515625 17.714844-6.410157-1.527344-13.085938-1.527344-19.492188 0-3.820312-12.582031-16.5625-20.207031-29.453125-17.628907-12.894531 2.574219-21.722656 14.515626-20.414062 27.597657s12.332031 23.03125 25.480468 23.003906zm59.730469-25.601563c0-4.710937 3.824219-8.53125 8.535157-8.53125 4.710937 0 8.535156 3.820313 8.535156 8.53125 0 4.714844-3.824219 8.535157-8.535156 8.535157-.726563-.011719-1.449219-.113281-2.148438-.300781-1.535156-3.117188-3.710938-5.878907-6.386719-8.097657zm-13.308593 11.425782c.136718.113281.304687.171875.449218.273437 2.757813 1.707031 4.328125 3.695313 4.328125 5.367188 0 3.480469-6.648437 8.535156-17.066406 8.535156s-17.066406-5.054687-17.066406-8.535156c0-1.707031 1.570312-3.703125 4.324219-5.367188.148437-.101562.316406-.160156.453124-.273437 7.738282-3.855469 16.839844-3.855469 24.578126 0zm-46.421876-19.957032c4.710938 0 8.53125 3.820313 8.53125 8.53125v.136719c-2.667968 2.222657-4.835937 4.980469-6.363281 8.097657-.707031.1875-1.4375.289062-2.167969.300781-4.714843 0-8.535156-3.820313-8.535156-8.535157 0-4.710937 3.820313-8.53125 8.535156-8.53125zm0 0"/><path d="m110.933594 204.800781h8.535156c4.710938 0 8.53125-3.820312 8.53125-8.535156 0-4.710937-3.820312-8.53125-8.53125-8.53125h-8.535156c-4.710938 0-8.53125 3.820313-8.53125 8.53125 0 4.714844 3.820312 8.535156 8.53125 8.535156zm0 0"/><path d="m256 204.800781h8.535156c4.710938 0 8.53125-3.820312 8.53125-8.535156 0-4.710937-3.820312-8.53125-8.53125-8.53125h-8.535156c-4.710938 0-8.53125 3.820313-8.53125 8.53125 0 4.714844 3.820312 8.535156 8.53125 8.535156zm0 0"/></svg>