<svg height="512pt" viewBox="-17 0 512 512.03456" width="512pt" xmlns="http://www.w3.org/2000/svg"><path d="m477.644531 408.847656c-.671875-2.703125-2.617187-4.910156-5.214843-5.910156-12.226563-5.046875-25.632813-6.527344-38.664063-4.269531-5.382813-2.925781-11.246094-4.859375-17.316406-5.699219 19.664062-53.207031 10.640625-112.78125-23.890625-157.78125 0-.171875 0-.339844 0-.511719-.890625-49.886719-28.527344-95.445312-72.363282-119.28125l29.566407-41.582031c10.410156-14.605469 11.535156-33.878906 2.898437-49.597656-8.636718-15.71875-25.511718-25.101563-43.421875-24.1445315-17.910156.9570315-33.6875 12.0859375-40.601562 28.6367185l-27.390625 65.269531c-.769532 0-1.511719-.101562-2.289063-.101562-.777343 0-1.519531.09375-2.285156.101562l-27.402344-65.289062c-6.917969-16.542969-22.699219-27.667969-40.605469-28.6210938-17.910156-.9531252-34.78125 8.4335938-43.417968 24.1523438-8.632813 15.71875-7.503906 34.992188 2.90625 49.59375l29.566406 41.582031c-43.832031 23.835938-71.472656 69.394531-72.363281 119.28125v.511719c-22.109375 29.011719-34.097657 64.472656-34.132813 100.949219.171875 39.289062 14.054688 77.289062 39.253906 107.433593-12.496093 4.992188-21.089843 16.628907-22.1875 30.039063 0 38.398437 31.738282 38.398437 59.734376 38.398437 15.359374.394532 30.496093-3.738281 43.519531-11.886718 43.546875 15.839844 91.28125 15.839844 134.828125 0 13.023437 8.148437 28.160156 12.28125 43.519531 11.886718 21.453125 0 45.039063-.066406 54.929687-17.332031 1.613282.148438 3.214844.265625 4.804688.265625 28.265625-.027344 51.171875-22.933594 51.199219-51.199218-.074219-1.800782-.238281-3.597657-.496094-5.382813 4.519531-7.707031 9.6875-15.011719 15.445313-21.839844 1.839843-2.097656 2.539062-4.960937 1.871093-7.671875zm-193.28125-373.519531c4.640625-11.0625 15.472657-18.257813 27.46875-18.253906 4.996094-.003907 9.910157 1.265625 14.277344 3.695312 7.367187 4.125 12.640625 11.183594 14.503906 19.421875 1.894531 8.234375.152344 16.882813-4.785156 23.742188l-31.085937 43.714844c-14.496094-6.332032-29.839844-10.507813-45.542969-12.398438zm-142.300781 28.605469c-4.9375-6.859375-6.683594-15.507813-4.789062-23.742188 1.867187-8.230468 7.140624-15.277344 14.507812-19.394531 4.371094-2.441406 9.292969-3.722656 14.300781-3.722656 11.992188-.007813 22.816407 7.183593 27.460938 18.238281l25.148437 59.9375c-15.703125 1.890625-31.046875 6.066406-45.542968 12.398438zm207.828125 431.007812c-12.625.515625-25.089844-2.992187-35.59375-10.015625-.265625-.273437-.550781-.523437-.851563-.753906-3.511718-2.449219-5.785156-6.304687-6.222656-10.5625 0-4.714844-3.820312-8.535156-8.53125-8.535156-4.714844 0-8.535156 3.820312-8.535156 8.535156.050781 4.496094 1.222656 8.914063 3.414062 12.84375-35.546874 11.023437-73.597656 11.023437-109.140624 0 2.160156-3.9375 3.304687-8.351563 3.328124-12.84375 0-4.714844-3.820312-8.535156-8.535156-8.535156-4.710937 0-8.53125 3.820312-8.53125 8.535156-.441406 4.269531-2.722656 8.136719-6.246094 10.589844-.304687.21875-.589843.460937-.855468.726562-10.496094 7.015625-22.949219 10.523438-35.566406 10.015625-32.238282 0-42.667969-1.65625-42.667969-21.332031 0-10.09375 17.519531-21.332031 42.667969-21.332031 4.714843 0 8.535156-3.824219 8.535156-8.535156 0-4.714844-3.820313-8.535157-8.535156-8.535157-6.839844-.003906-13.660157.75-20.335938 2.253907-25.164062-27.769532-39.195312-63.847657-39.398438-101.324219.011719-26.136719 6.910157-51.8125 19.996094-74.4375.972656 4.753906 2.210938 9.449219 3.710938 14.0625.960937 2.898437 3.394531 5.0625 6.382812 5.679687 2.988282.613282 6.078125-.410156 8.105469-2.6875 2.027344-2.28125 2.683594-5.46875 1.726563-8.367187-3.832032-11.515625-5.785157-23.574219-5.785157-35.710938 0-68.265625 61.25-123.734375 136.53125-123.734375s136.535157 55.46875 136.535157 123.734375c0 12.136719-1.945313 24.195313-5.769532 35.710938-1.484375 4.46875.933594 9.296875 5.402344 10.785156.867188.285156 1.773438.433594 2.6875.4375 3.679688.003906 6.945312-2.351563 8.105469-5.847656 1.5-4.613281 2.738281-9.308594 3.710937-14.0625 13.085938 22.625 19.984375 48.300781 19.996094 74.4375-.203125 37.476562-14.234375 73.554687-39.398438 101.324219-6.675781-1.503907-13.496093-2.257813-20.335937-2.253907-4.714844 0-8.535156 3.820313-8.535156 8.535157 0 4.710937 3.820312 8.535156 8.535156 8.535156 25.148437 0 42.667969 11.238281 42.667969 21.332031 0 19.675781-10.429688 21.332031-42.667969 21.332031zm59.734375-17.066406h-.230469c.09375-1.390625.230469-2.738281.230469-4.265625-1.097656-13.410156-9.691406-25.046875-22.1875-30.039063 8.628906-10.421874 16.003906-21.820312 21.980469-33.960937 3.035156-.074219 6.0625.320313 8.976562 1.167969.085938.882812.304688 1.746094.660157 2.558594 2.046874 4.230468 7.128906 6.007812 11.363281 3.976562 1.328125-.546875 2.703125-.976562 4.105469-1.277344 6.652343-1.578125 13.566406-1.714844 20.277343-.410156-3.921875 5.339844-7.496093 10.929688-10.695312 16.734375-.136719.34375-.242188.703125-.324219 1.066406-.230469.527344-.402344 1.078125-.511719 1.644531-.058593.597657-.058593 1.199219 0 1.792969-.023437.351563-.023437.707031 0 1.058594.332031 1.921875.496094 3.871094.488281 5.820313 0 18.851562-15.28125 34.132812-34.132812 34.132812zm0 0"/><path d="m285.890625 176.46875c-13.523437-10.933594-33.078125-10.058594-45.578125 2.03125-.535156.53125-.9375 1.160156-1.433594 1.707031-.484375-.546875-.851562-1.160156-1.398437-1.707031-12.410157-12.164062-31.984375-13.0625-45.457031-2.082031-13.539063-10.832031-33.007813-9.953125-45.515626 2.058593-6.363281 6.351563-9.9375 14.972657-9.9375 23.964844 0 8.988282 3.574219 17.613282 9.9375 23.964844l35.746094 35.746094c1.578125 1.585937 3.304688 3.015625 5.160156 4.265625 2.960938 1.980469 6.839844 1.910156 9.730469-.167969 1.667969-1.214844 3.234375-2.558594 4.683594-4.019531l8.816406-8.816407c5.300781 5.484376 12.246094 9.089844 19.78125 10.273438v23.21875c-2.671875 1.957031-5.859375 3.082031-9.167969 3.234375-4.011718-.222656-7.757812-2.101563-10.332031-5.1875-1.179687-1.132813-2.660156-1.898437-4.265625-2.199219-.554687-.175781-1.128906-.292968-1.707031-.34375h-.078125c-.515625.054688-1.023438.15625-1.519531.308594-.578125.050781-1.148438.164062-1.707031.332031-.867188.375-1.667969.894531-2.363282 1.535157-.128906.113281-.289062.144531-.410156.265624-.800781.792969-1.441406 1.734376-1.882812 2.773438-.429688 1.03125-.65625 2.132812-.660157 3.25v24.867188c0 23.5625 19.105469 42.667968 42.667969 42.667968s42.667969-19.105468 42.667969-42.667968v-24.882813c-.003907-1.117187-.230469-2.222656-.660157-3.25-.441406-1.039063-1.082031-1.980469-1.882812-2.773437-.121094-.121094-.28125-.15625-.410156-.273438-.699219-.636719-1.5-1.152344-2.363282-1.527344-1.085937-.222656-2.175781-.441406-3.261718-.660156h-.074219c-2.195313.273438-4.265625 1.160156-5.976563 2.5625-2.554687 3.0625-6.257812 4.941406-10.238281 5.1875h-.09375c-3.324219-.144531-6.53125-1.269531-9.214843-3.234375v-23.203125c7.535156-1.171875 14.484374-4.765625 19.796874-10.238281l8.804688 8.804687c1.578125 1.589844 3.308594 3.019532 5.164062 4.269532 2.988282 1.957031 6.878907 1.847656 9.753907-.273438 1.667969-1.214844 3.238281-2.5625 4.691406-4.027344l35.636719-35.722656c6.402344-6.332031 10.003906-14.960938 10.003906-23.964844s-3.601562-17.636718-10.003906-23.964844c-12.40625-12.167968-31.972656-13.070312-45.449219-2.101562zm-93.867187 71.390625-33.476563-33.46875c-3.160156-3.160156-4.933594-7.449219-4.921875-11.921875.007812-4.472656 1.796875-8.753906 4.972656-11.902344 6.617188-6.410156 17.144532-6.359375 23.699219.121094l3.839844 3.753906c1.671875 1.5 3.820312 2.359375 6.066406 2.429688 2.25-.03125 4.398437-.949219 5.972656-2.558594l3.601563-3.6875c6.550781-6.503906 17.132812-6.480469 23.65625.050781 3.191406 3.109375 4.992187 7.375 4.992187 11.828125-.015625 4.46875-1.816406 8.746094-5.003906 11.878906l-1.707031 1.65625c-8.847656 2.636719-15.761719 9.582032-18.351563 18.449219zm64.632812 59.347656c2.675781-.011719 5.335938-.410156 7.902344-1.175781v9.710938c0 14.136718-11.464844 25.601562-25.601563 25.601562s-25.601562-11.464844-25.601562-25.601562v-9.710938c2.566406.765625 5.226562 1.164062 7.902343 1.175781 6.308594-.109375 12.453126-2.035156 17.699219-5.535156 5.246094 3.5 11.390625 5.425781 17.699219 5.535156zm-17.699219-59.730469c-10.417969 0-17.066406-5.054687-17.066406-8.535156 0-3.488281 6.664063-8.53125 17.066406-8.53125 10.402344 0 17.066407 5.050782 17.066407 8.53125 0 3.480469-6.648438 8.535156-17.066407 8.535156zm80.332031-33.085937-33.398437 33.46875-13.378906-13.371094c-2.625-8.941406-9.625-15.929687-18.570313-18.535156l-1.613281-1.5625c-3.136719-3.15625-4.878906-7.4375-4.835937-11.886719-.070313-4.453125 1.679687-8.746094 4.835937-11.886718 6.621094-6.515626 17.253906-6.484376 23.835937.070312l3.839844 3.753906c1.675782 1.496094 3.820313 2.355469 6.066406 2.429688 2.25-.03125 4.398438-.949219 5.972657-2.558594l3.601562-3.6875c6.550781-6.503906 17.128907-6.480469 23.652344.050781 3.183594 3.085938 4.984375 7.328125 4.992187 11.761719.011719 4.496094-1.789062 8.804688-5 11.953125zm0 0"/><path d="m134.082031 284.082031c-.828125-.75-1.78125-1.359375-2.816406-1.789062-2.058594-.941407-4.425781-.941407-6.484375 0-2.144531.773437-3.832031 2.460937-4.609375 4.605469-1.550781 3.757812-.234375 8.089843 3.144531 10.347656 3.382813 2.261718 7.886719 1.824218 10.765625-1.046875 1.59375-1.613281 2.480469-3.789063 2.476563-6.058594.027344-1.117187-.207032-2.230469-.683594-3.242187-.433594-1.03125-1.039062-1.984376-1.792969-2.816407zm0 0"/><path d="m153.625 298.675781h17.066406c4.710938 0 8.53125-3.820312 8.53125-8.535156 0-4.710937-3.820312-8.53125-8.53125-8.53125h-17.066406c-4.714844 0-8.535156 3.820313-8.535156 8.53125 0 4.714844 3.820312 8.535156 8.535156 8.535156zm0 0"/><path d="m349.890625 298.675781c1.113281-.015625 2.214844-.246093 3.242187-.683593 1.035157-.433594 1.988282-1.039063 2.816407-1.792969 2.441406-2.441407 3.152343-6.125 1.792969-9.300781-.414063-1.042969-1.023438-2-1.792969-2.816407-3.421875-3.15625-8.695313-3.15625-12.117188 0-.773437.816407-1.378906 1.773438-1.792969 2.816407-1.125 2.625-.847656 5.640624.738282 8.015624 1.582031 2.375 4.257812 3.789063 7.113281 3.761719zm0 0"/><path d="m324.289062 281.609375h-17.066406c-4.710937 0-8.53125 3.820313-8.53125 8.53125 0 4.714844 3.820313 8.535156 8.53125 8.535156h17.066406c4.714844 0 8.535157-3.820312 8.535157-8.535156 0-4.710937-3.820313-8.53125-8.535157-8.53125zm0 0"/><path d="m406.089844 86.808594c-7.679688 7.679687-12.652344 31.035156-14.421875 40.695312-.453125 2.492188.21875 5.054688 1.839843 7 1.621094 1.945313 4.019532 3.070313 6.550782 3.070313.515625.003906 1.03125-.046875 1.535156-.144531 9.660156-1.765626 32.980469-6.707032 40.695312-14.421876 6.65625-6.425781 9.324219-15.945312 6.980469-24.894531-2.34375-8.953125-9.332031-15.941406-18.28125-18.285156-8.953125-2.34375-18.46875.328125-24.898437 6.980469zm24.132812 24.132812c-5.921875 3.300782-12.328125 5.640625-18.984375 6.929688 1.285157-6.65625 3.621094-13.070313 6.917969-18.996094 2.144531-2.21875 5.316406-3.105469 8.300781-2.324219 2.980469.777344 5.3125 3.109375 6.09375 6.09375.78125 2.980469-.109375 6.15625-2.328125 8.296875zm0 0"/><path d="m412.421875 157.210938c-.996094 2.617187-.644531 5.558593.941406 7.867187 5.5625 8.105469 19.625 27.375 29.78125 31.265625 2.898438 1.121094 5.984375 1.699219 9.09375 1.707031 12.332031-.007812 22.90625-8.808593 25.15625-20.933593 2.246094-12.128907-4.472656-24.132813-15.980469-28.558594-10.164062-3.894532-33.496093 1.097656-43.050781 3.410156-2.71875.667969-4.941406 2.625-5.941406 5.242188zm42.90625 7.253906c4.40625 1.679687 6.613281 6.609375 4.933594 11.015625-1.679688 4.402343-6.613281 6.613281-11.015625 4.929687-5.429688-4.058594-10.179688-8.957031-14.074219-14.503906 6.601563-1.550781 13.402344-2.039062 20.15625-1.441406zm0 0"/><path d="m76.320312 137.394531c.507813.097657 1.019532.148438 1.535157.144531 2.535156.003907 4.933593-1.121093 6.558593-3.066406 1.621094-1.945312 2.296876-4.511718 1.839844-7-1.777344-9.660156-6.714844-32.984375-14.421875-40.695312-10.132812-9.671875-26.074219-9.671875-36.207031 0-9.992188 9.996094-9.992188 26.199218 0 36.195312 7.714844 7.75 31.027344 12.714844 40.695312 14.421875zm-28.628906-38.519531c3.371094-3.226562 8.683594-3.226562 12.058594 0 3.300781 5.925781 5.640625 12.335938 6.929688 18.996094-6.660157-1.285156-13.070313-3.625-18.988282-6.929688-3.332031-3.332031-3.332031-8.734375 0-12.066406zm0 0"/><path d="m16.492188 148.488281c-13.210938 5.046875-19.828126 19.84375-14.78125 33.054688 5.042968 13.210937 19.84375 19.828125 33.050781 14.785156 10.242187-3.894531 24.226562-23.160156 29.792969-31.269531 1.582031-2.308594 1.933593-5.253906.929687-7.871094-1-2.621094-3.226563-4.578125-5.949219-5.242188-9.546875-2.320312-32.851562-7.3125-43.042968-3.457031zm26.242187 17.375c-3.890625 5.550781-8.640625 10.449219-14.074219 14.507813-3.207031 1.207031-6.832031.378906-9.195312-2.109375-2.363282-2.488281-3.003906-6.148438-1.632813-9.292969.917969-2.070312 2.628907-3.6875 4.746094-4.488281 1.1875-.304688 2.417969-.429688 3.644531-.375 5.539063.175781 11.058594.773437 16.511719 1.78125zm0 0"/><path d="m187.398438 350.4375c-2.847657-1.089844-6.058594-.578125-8.429688 1.339844-2.367188 1.921875-3.535156 4.960937-3.054688 7.972656.480469 3.011719 2.527344 5.539062 5.375 6.628906 5.695313 2.28125 10.855469 5.71875 15.15625 10.09375 10 10.011719 11.015626 19.148438 3.011719 27.164063-8.003906 8.011719-17.144531 6.988281-27.152343-3.023438-4.386719-4.289062-7.828126-9.449219-10.105469-15.144531-1.683594-4.402344-6.617188-6.605469-11.019531-4.921875-4.402344 1.6875-6.605469 6.621094-4.921876 11.023437 3.140626 7.929688 7.902344 15.121094 13.980469 21.109376 7.070313 8.054687 17.105469 12.894531 27.808594 13.414062 8.894531-.203125 17.34375-3.945312 23.476563-10.390625 11.664062-11.667969 16.996093-31.277344-3.023438-51.304687-5.988281-6.066407-13.175781-10.820313-21.101562-13.960938zm0 0"/><path d="m326.730469 380.59375c-4.398438-1.679688-9.328125.519531-11.015625 4.917969-2.277344 5.695312-5.71875 10.855469-10.105469 15.144531-10.015625 10.011719-19.15625 11.027344-27.152344 3.023438-7.996093-8.007813-6.988281-17.152344 3.011719-27.15625 4.296875-4.378907 9.460938-7.820313 15.15625-10.101563 2.847656-1.089844 4.898438-3.621094 5.375-6.632813.480469-3.011718-.6875-6.046874-3.054688-7.96875-2.367187-1.917968-5.582031-2.429687-8.429687-1.339843-7.921875 3.125-15.113281 7.855469-21.113281 13.902343-20.007813 20.019532-14.675782 39.628907-3.011719 51.292969 6.132813 6.449219 14.582031 10.1875 23.476563 10.394531 10.703124-.519531 20.742187-5.359374 27.808593-13.414062 6.078125-5.988281 10.839844-13.179688 13.980469-21.113281 1.636719-4.382813-.558594-9.265625-4.925781-10.949219zm0 0"/></svg>