<svg height="504pt" viewBox="-42 0 504 504.0598" width="504pt" xmlns="http://www.w3.org/2000/svg"><path d="m419.457031 402.046875c-.65625-2.660156-2.570312-4.832031-5.125-5.816406-12.042969-4.910157-25.21875-6.363281-38.039062-4.199219-5.296875-2.867188-11.058594-4.765625-17.023438-5.597656 19.339844-52.332032 10.464844-110.925782-23.5-155.1875 0-.140625 0-.285156 0-.425782-.648437-44.898437-23.589843-86.527343-61.199219-111.054687l10.148438-66.972656c1.964844-13.007813-1.742188-26.234375-10.179688-36.332031-8.441406-10.09375-20.800781-16.085938-33.953124-16.460938h-1.59375c-12.765626.0273438-24.953126 5.34375-33.660157 14.679688-8.71875 9.289062-13.125 21.8125-12.144531 34.515624l3.140625 43.644532c-3.851563-.242188-7.714844-.511719-11.640625-.511719-3.929688 0-7.800781.269531-11.652344.535156l3.148438-43.644531c.988281-12.707031-3.421875-25.246094-12.144532-34.539062-8.707031-9.335938-20.890624-14.6523442-33.660156-14.679688h-1.929687c-13.09375.460938-25.367188 6.488281-33.738281 16.570312-8.367188 10.078126-12.039063 23.253907-10.082032 36.207032l10.164063 66.996094c-37.605469 24.527343-60.542969 66.15625-61.1875 111.046874v.425782c-21.746094 28.535156-33.5390628 63.410156-33.574219 99.289062.140625 38.675782 13.800781 76.085938 38.609375 105.757813-12.265625 4.898437-20.710937 16.300781-21.824219 29.460937 0 37.769532 31.214844 37.769532 58.753906 37.769532 3.265626 0 6.554688.132812 9.863282.257812 3.304687.128906 6.78125.277344 10.308594.277344 16.515624 0 34.292968-3.054688 46.070312-23.878906 8.308594 6.714843 16.601562 12.757812 24.425781 17.902343 11.203125 7.378907 25.726563 7.378907 36.929688 0 7.8125-5.144531 16.105469-11.203125 24.417969-17.902343 11.75 20.824218 29.542968 23.878906 46.070312 23.878906 3.515625 0 6.984375-.140625 10.308594-.277344 3.320312-.132812 6.59375-.257812 9.859375-.257812 21.101562 0 44.300781-.066407 54.03125-17.046876 1.585937.140626 3.164062.257813 4.722656.257813 27.804687-.027344 50.335937-22.558594 50.363281-50.359375-.070312-1.773438-.234375-3.539062-.488281-5.296875 4.441406-7.578125 9.515625-14.761719 15.175781-21.476563 1.808594-2.070312 2.492188-4.890624 1.828125-7.554687zm-209.53125-354.054687c-.570312-8.066407 2.234375-16.003907 7.746094-21.921876 5.511719-5.917968 13.234375-9.28125 21.320313-9.285156h1.285156c8.3125.289063 16.109375 4.109375 21.429687 10.503906 5.316407 6.398438 7.652344 14.761719 6.417969 22.988282l-9.105469 60.121094c-14.359375-7.472657-29.777343-12.699219-45.71875-15.503907zm-108.679687 2.277343c-1.226563-8.175781 1.074218-16.484375 6.324218-22.867187 5.25-6.382813 12.957032-10.242188 21.214844-10.617188h1.59375c8.085938.003906 15.808594 3.367188 21.320313 9.285156 5.511719 5.917969 8.316406 13.855469 7.746093 21.921876l-3.355468 46.902343c-15.941406 2.804688-31.355469 8.035157-45.710938 15.503907zm92.671875 433.78125c-5.601563 3.6875-12.863281 3.6875-18.464844 0-35.839844-23.578125-68.902344-57.078125-82.363281-83.507812-2.394532-4.371094-4.5-8.855469-6.457032-13.378907 8.992188-3.355468 16.171876-10.316406 19.808594-19.199218 3.636719-8.882813 3.398438-18.878906-.652344-27.578125-5.234374-8.953125-13.789062-15.484375-23.804687-18.171875-1.335937-.445313-2.6875-.78125-4.039063-1.132813 2.09375-9.023437 6.773438-17.238281 13.472657-23.636719 11.894531-10.277343 27.777343-14.664062 43.257812-11.941406 18.511719 3.546875 34.296875 15.550782 42.664063 32.441406 1.605468 2.515626 4.386718 4.042969 7.371094 4.042969 2.984374 0 5.765624-1.527343 7.371093-4.042969 8.367188-16.890624 24.152344-28.894531 42.660157-32.441406 15.484374-2.722656 31.367187 1.664063 43.261718 11.941406 6.679688 6.402344 11.347656 14.613282 13.429688 23.628907-1.351563.359375-2.703125.6875-4.039063 1.132812-10.015625 2.695313-18.574219 9.226563-23.808593 18.179688-4.058594 8.695312-4.296876 18.691406-.667969 27.574219 3.632812 8.878906 10.808593 15.839843 19.792969 19.203124-1.972657 4.550782-4.109376 9.089844-6.578126 13.597657-13.3125 26.238281-46.375 59.710937-82.214843 83.289062zm99.882812 2.683594c-3.484375 0-7 .144531-10.527343.277344-19.058594.757812-33.304688 1.285156-42.570313-17.960938 20.179687-17.039062 37.207031-37.496093 50.300781-60.433593 3.609375-6.660157 6.785156-13.546876 9.511719-20.613282 2.769531-.5 5.503906-1.199218 8.175781-2.089844 7.964844-2.59375 15.304688-6.816406 21.542969-12.40625 3.421875-3.132812 3.652344-8.445312.519531-11.863281-3.136718-3.417969-8.445312-3.648437-11.867187-.515625-4.503907 4.015625-9.796875 7.042969-15.542969 8.886719-2.933594 1.027344-5.988281 1.664063-9.089844 1.890625-.09375 0-.191406 0-.285156 0-7.335938.777344-14.109375-4.003906-15.839844-11.171875-1.636718-4.039063-1.507812-8.578125.351563-12.515625 3.3125-5.042969 8.410156-8.640625 14.269531-10.070312 5.703125-1.972657 11.75-2.726563 17.761719-2.21875 4.613281.464843 8.730469-2.902344 9.195312-7.515626.464844-4.613281-2.902343-8.730468-7.515625-9.195312-1.335937-.132812-2.695312-.132812-4.054687-.167969-2.632813-12.980469-9.191407-24.835937-18.785157-33.96875-15.664062-13.820312-36.769531-19.753906-57.34375-16.121093-19.011718 3.292968-35.988281 13.871093-47.320312 29.484374-11.324219-15.609374-28.285156-26.195312-47.28125-29.503906-20.570312-3.621094-41.671875 2.308594-57.34375 16.117188-9.585938 9.136718-16.132812 20.996094-18.761719 33.976562-1.359375 0-2.71875 0-4.054687.167969-4.613282.464844-7.976563 4.578125-7.515625 9.195313.464843 4.613281 4.582031 7.980468 9.195312 7.515624 6.011719-.503906 12.0625.253907 17.761719 2.222657 5.863281 1.425781 10.960938 5.027343 14.269531 10.074219 1.859375 3.9375 1.992188 8.476562.359375 12.515624-1.753906 7.175782-8.570312 11.929688-15.914062 11.101563-.089844 0-.191406 0-.285156 0-3.101563-.226563-6.164063-.863281-9.097657-1.894531-5.742187-1.84375-11.035156-4.867188-15.535156-8.882813-3.441406-3.132812-8.769531-2.882812-11.902344.554688-3.132812 3.441406-2.886719 8.769531.554688 11.902343 6.246093 5.605469 13.597656 9.839844 21.578125 12.429688 2.675781.894531 5.410156 1.597656 8.183594 2.101562 2.675781 6.976563 5.796874 13.78125 9.339843 20.359376 13.128907 23.027343 30.199219 43.566406 50.4375 60.675781-9.230469 19.238281-23.5 18.710937-42.578125 17.972656-3.527344-.136719-7.042968-.277344-10.527344-.277344-31.710937 0-41.964843-1.628906-41.964843-20.984375 0-6.941406 8.601562-14.269531 21.324219-18.128906l.40625-.085938c.125-.039062.265624 0 .394531-.082031 6.457031-1.808593 13.132812-2.722656 19.839843-2.71875 4.636719 0 8.394532-3.757812 8.394532-8.394531s-3.757813-8.394531-8.394532-8.394531c-6.691406.058593-13.355468.851562-19.875 2.367187-24.832031-27.335937-38.679687-62.886718-38.878906-99.8125.011719-25.703125 6.789063-50.949218 19.65625-73.199218.960938 4.695312 2.183594 9.335937 3.660156 13.898437.945313 2.847656 3.339844 4.976563 6.277344 5.582031 2.941406.609375 5.980469-.398437 7.972656-2.644531 1.996094-2.242187 2.644532-5.375 1.699219-8.226563-3.769531-11.328124-5.691406-23.1875-5.691406-35.125 0-67.148437 60.25-121.707031 134.296875-121.707031s134.292969 54.558594 134.292969 121.707031c.003906 11.9375-1.917969 23.796876-5.683594 35.125-1.457031 4.398438.925781 9.148438 5.324219 10.609376.851562.28125 1.746094.425781 2.644531.429687 3.617187.003906 6.832031-2.316406 7.972656-5.75 1.476563-4.5625 2.699219-9.203125 3.660157-13.898437 12.867187 22.25 19.644531 47.496093 19.65625 73.199218-.199219 36.925782-14.042969 72.472656-38.871094 99.804688-6.519532-1.511719-13.1875-2.300782-19.882813-2.359375-4.636719 0-8.394531 3.757812-8.394531 8.394531s3.757812 8.394531 8.394531 8.394531c6.691407-.019531 13.359375.878907 19.808594 2.667969.25.09375.519531.09375.773437.167969 12.789063 3.960937 21.386719 11.214843 21.386719 18.148437 0 19.386719-10.257812 20.980469-41.96875 20.980469zm58.753907-16.785156h-.226563c.09375-1.375.226563-2.703125.226563-4.195313-1.101563-13.171875-9.550782-24.589844-21.824219-29.488281 8.496093-10.273437 15.757812-21.503906 21.640625-33.464844 2.984375-.078125 5.964844.3125 8.828125 1.152344.082031.867187.300781 1.714844.648437 2.515625 2.011719 4.160156 7.011719 5.910156 11.179688 3.910156 1.304687-.546875 2.652344-.972656 4.035156-1.273437 6.542969-1.558594 13.34375-1.691407 19.945312-.394531-3.859374 5.253906-7.371093 10.75-10.519531 16.457031-.132812.34375-.238281.691406-.316406 1.050781-.226563.519531-.394531 1.0625-.503906 1.621094-.058594.585937-.058594 1.175781 0 1.761718-.027344.347657-.027344.699219 0 1.050782.320312 1.890625.472656 3.804687.460937 5.722656 0 18.542969-15.03125 33.574219-33.574218 33.574219zm0 0"/><path d="m218.257812 134.296875c-11.0625.050781-20.792968 7.316406-23.988281 17.910156-6.300781-1.5-12.867187-1.5-19.167969 0-3.765624-12.367187-16.300781-19.859375-28.976562-17.320312-12.679688 2.539062-21.359375 14.28125-20.070312 27.144531 1.289062 12.863281 12.128906 22.652344 25.058593 22.625.636719 0 1.25-.210938 1.886719-.261719 4.660156 8.875 13.351562 14.921875 23.292969 16.207031v22.839844c-2.628907 1.921875-5.761719 3.03125-9.015625 3.179688-3.949219-.21875-7.628906-2.066406-10.164063-5.101563-2.097656-2.144531-5.183593-3.003906-8.089843-2.257812-2.90625.746093-5.191407 2.984375-6 5.875-.808594 2.890625-.011719 5.988281 2.085937 8.132812 5.667969 6.300781 13.695313 9.972657 22.167969 10.140625 6.207031-.109375 12.246094-2 17.410156-5.449218 5.160156 3.449218 11.203125 5.339843 17.40625 5.449218 8.476562-.171875 16.503906-3.847656 22.167969-10.15625 2.097656-2.144531 2.894531-5.246094 2.085937-8.136718-.804687-2.886719-3.09375-5.128907-6-5.875-2.90625-.746094-5.992187.117187-8.089844 2.261718-2.511718 3.011719-6.15625 4.859375-10.070312 5.101563h-.09375c-3.253906-.152344-6.386719-1.257813-9.015625-3.179688v-22.824219c9.9375-1.28125 18.628906-7.320312 23.292969-16.1875.636718.046876 1.25.257813 1.886718.257813 13.910157 0 25.183594-11.273437 25.183594-25.179687s-11.273437-25.179688-25.183594-25.179688zm-75.539062 25.179687c0-4.636718 3.757812-8.394531 8.394531-8.394531 4.632813 0 8.390625 3.757813 8.390625 8.394531v.132813c-2.625 2.183594-4.757812 4.898437-6.261718 7.964844-.695313.1875-1.410157.285156-2.128907.292969-4.636719 0-8.394531-3.757813-8.394531-8.390626zm41.96875 25.179688c-10.25 0-16.789062-4.96875-16.789062-8.394531 0-1.679688 1.570312-3.683594 4.324218-5.328125.109375-.078125.234375-.117188.335938-.203125 7.632812-3.816407 16.621094-3.816407 24.253906 0 .101562.085937.226562.125.335938.203125 2.753906 1.675781 4.324218 3.667968 4.324218 5.328125 0 3.425781-6.539062 8.394531-16.785156 8.394531zm33.570312-16.789062c-.710937-.011719-1.421874-.109376-2.113281-.292969-1.507812-3.066407-3.648437-5.78125-6.277343-7.964844v-.132813c0-4.636718 3.757812-8.394531 8.390624-8.394531 4.636719 0 8.394532 3.757813 8.394532 8.394531 0 4.632813-3.757813 8.390626-8.394532 8.390626zm0 0"/><path d="m117.539062 184.65625h-8.394531c-4.636719 0-8.394531 3.757812-8.394531 8.394531 0 4.632813 3.757812 8.390625 8.394531 8.390625h8.394531c4.632813 0 8.390626-3.757812 8.390626-8.390625 0-4.636719-3.757813-8.394531-8.390626-8.394531zm0 0"/><path d="m260.226562 184.65625h-8.394531c-4.632812 0-8.390625 3.757812-8.390625 8.394531 0 4.632813 3.757813 8.390625 8.390625 8.390625h8.394531c4.636719 0 8.394532-3.757812 8.394532-8.390625 0-4.636719-3.757813-8.394531-8.394532-8.394531zm0 0"/><path d="m134.324219 302.164062h-8.394531c-4.632813 0-8.390626 3.757813-8.390626 8.394532 0 4.632812 3.757813 8.390625 8.390626 8.390625h8.394531c4.636719 0 8.394531-3.757813 8.394531-8.390625 0-4.636719-3.757812-8.394532-8.394531-8.394532zm0 0"/><path d="m251.832031 310.558594c0-4.636719-3.757812-8.394532-8.390625-8.394532h-8.394531c-4.636719 0-8.394531 3.757813-8.394531 8.394532 0 4.632812 3.757812 8.390625 8.394531 8.390625h8.394531c4.632813 0 8.390625-3.757813 8.390625-8.390625zm0 0"/></svg>