<svg height="511pt" viewBox="-17 0 511 511.9419" width="511pt" xmlns="http://www.w3.org/2000/svg"><path d="m171.992188 500.054688c43.5625 15.847656 91.316406 15.847656 134.878906 0 13.011718 8.128906 28.128906 12.253906 43.46875 11.859374 21.453125 0 45.039062-.066406 54.925781-17.332031 1.613281.148438 3.21875.265625 4.804687.265625 28.265626-.027344 51.171876-22.933594 51.203126-51.199218-.074219-1.800782-.238282-3.601563-.496094-5.386719 4.519531-7.703125 9.691406-15.007813 15.453125-21.835938 1.832031-2.097656 2.527343-4.957031 1.859375-7.660156-.667969-2.703125-2.613282-4.914063-5.210938-5.914063-12.246094-4.992187-25.636718-6.46875-38.675781-4.269531-5.378906-2.917969-11.242187-4.84375-17.304687-5.691406 19.667968-53.207031 10.644531-112.789063-23.894532-157.789063 0-.144531 0-.289062 0-.433593-.652344-45.644531-23.976562-87.972657-62.214844-112.90625l10.316407-68.085938c1.996093-13.226562-1.773438-26.675781-10.351563-36.9375-8.578125-10.265625-21.144531-16.359375-34.515625-16.738281h-1.621093c-12.980469.03125-25.367188 5.433594-34.21875 14.925781-8.863282 9.441407-13.347657 22.175781-12.347657 35.089844l3.191407 44.371094c-3.917969-.246094-7.84375-.519531-11.835938-.519531-3.996094 0-7.929688.273437-11.84375.546874l3.199219-44.375c1.003906-12.921874-3.476563-25.667968-12.347657-35.113281-8.851562-9.492187-21.242187-14.894531-34.21875-14.925781h-1.964843c-13.308594.46875-25.789063 6.597656-34.296875 16.847656-8.511719 10.246094-12.242188 23.640625-10.253906 36.808594l10.332031 68.113281c-38.230469 24.9375-61.550781 67.257813-62.207031 112.898438v.433593c-22.105469 29.011719-34.09375 64.46875-34.132813 100.941407.167969 39.292969 14.050781 77.296875 39.253906 107.441406-12.496093 4.988281-21.089843 16.621094-22.1875 30.03125 0 38.398437 31.734375 38.398437 59.734375 38.398437 15.355469.40625 30.492188-3.71875 43.519532-11.859374zm246.878906-89.34375c.082031.882812.304687 1.746093.65625 2.558593 2.046875 4.226563 7.128906 6.007813 11.367187 3.976563 1.324219-.558594 2.699219-.992188 4.101563-1.296875 6.652344-1.582031 13.566406-1.71875 20.277344-.402344-3.921876 5.34375-7.492188 10.933594-10.691407 16.734375-.136719.347656-.246093.703125-.324219 1.066406-.230468.53125-.402343 1.082032-.511718 1.648438-.0625.59375-.0625 1.195312 0 1.792968-.027344.351563-.027344.710938 0 1.066407.320312 1.914062.472656 3.851562.460937 5.792969 0 18.851562-15.285156 34.132812-34.136719 34.132812h-.230468c.09375-1.398438.230468-2.746094.230468-4.265625-1.09375-13.410156-9.6875-25.042969-22.183593-30.03125 8.613281-10.429687 15.976562-21.828125 21.945312-33.96875 3.046875-.082031 6.085938.3125 9.011719 1.167969zm-153.804688-361.917969c-.582031-8.199219 2.269532-16.273438 7.875-22.289063 5.601563-6.015625 13.453125-9.433594 21.675782-9.4375h1.304687c8.453125.289063 16.378906 4.175782 21.785156 10.679688 5.410157 6.503906 7.785157 15.003906 6.527344 23.367187l-9.257813 61.125c-14.597656-7.597656-30.273437-12.914062-46.480468-15.761719zm-110.492187 2.3125c-1.246094-8.308594 1.089843-16.757813 6.429687-23.246094 5.335938-6.488281 13.175782-10.410156 21.570313-10.792969h1.621093c8.21875.003906 16.070313 3.421875 21.675782 9.4375 5.601562 6.015625 8.453125 14.089844 7.875 22.289063l-3.414063 47.683593c-16.203125 2.851563-31.878906 8.167969-46.472656 15.761719zm-68.769531 422.410156c0-10.085937 17.527343-21.335937 42.667968-21.335937 4.710938 0 8.53125-3.820313 8.53125-8.53125 0-4.714844-3.820312-8.535157-8.53125-8.535157-6.84375-.003906-13.667968.75-20.34375 2.253907-25.160156-27.769532-39.1875-63.851563-39.390625-101.324219.011719-26.132813 6.902344-51.800781 19.984375-74.417969.976563 4.773438 2.21875 9.492188 3.722656 14.128906.960938 2.898438 3.390626 5.0625 6.378907 5.675782 2.988281.617187 6.078125-.40625 8.109375-2.6875 2.027344-2.277344 2.683594-5.46875 1.722656-8.363282-3.832031-11.515625-5.785156-23.574218-5.785156-35.710937 0-68.269531 61.253906-123.734375 136.535156-123.734375s136.53125 55.464844 136.53125 123.734375c.003906 12.136719-1.949219 24.195312-5.777344 35.710937-1.484375 4.472656.9375 9.300782 5.410156 10.785156.867188.285157 1.777344.433594 2.6875.4375 3.679688 0 6.949219-2.355468 8.109376-5.847656 1.5-4.636718 2.742187-9.355468 3.71875-14.128906 13.082031 22.617188 19.976562 48.285156 19.984374 74.417969-.199218 37.472656-14.226562 73.554687-39.386718 101.324219-6.679688-1.503907-13.5-2.257813-20.34375-2.253907-4.714844 0-8.535156 3.820313-8.535156 8.535157 0 4.710937 3.820312 8.53125 8.535156 8.53125 25.136718 0 42.664062 11.25 42.664062 21.335937 0 19.675781-10.425781 21.332031-42.664062 21.332031-12.628906.511719-25.089844-2.996094-35.59375-10.019531-.269532-.261719-.554688-.507813-.855469-.730469-3.511719-2.457031-5.785156-6.320312-6.21875-10.582031 0-4.714844-3.820313-8.535156-8.535156-8.535156-4.710938 0-8.53125 3.820312-8.53125 8.535156.054687 4.484375 1.226562 8.882813 3.414062 12.800781-35.546875 11.03125-73.597656 11.03125-109.140625 0 2.152344-3.925781 3.296875-8.324218 3.328125-12.800781 0-4.714844-3.824219-8.535156-8.535156-8.535156-4.714844 0-8.535156 3.820312-8.535156 8.535156-.441407 4.273437-2.722657 8.140625-6.253907 10.589844-.28125.246093-.5625.453125-.851562.722656-10.496094 7.019531-22.945312 10.527344-35.558594 10.019531-32.238281 0-42.667968-1.621094-42.667968-21.332031zm0 0"/><path d="m222.339844 315.734375h34.132812c51.816406-.0625 93.804688-42.050781 93.867188-93.867187 0-14.140626-11.464844-25.601563-25.601563-25.601563h-170.667969c-14.136718 0-25.597656 11.460937-25.597656 25.601563.058594 51.816406 42.050782 93.804687 93.867188 93.867187zm-68.269532-102.402344h170.667969c4.714844 0 8.535157 3.820313 8.535157 8.535157-.046876 42.394531-34.40625 76.753906-76.800782 76.800781h-34.132812c-42.398438-.046875-76.753906-34.40625-76.800782-76.800781 0-4.714844 3.820313-8.535157 8.53125-8.535157zm0 0"/><path d="m205.273438 187.734375c14.136718 0 25.597656-11.460937 25.597656-25.601563 0-14.136718-11.460938-25.597656-25.597656-25.597656-14.140626 0-25.601563 11.460938-25.601563 25.597656 0 14.140626 11.460937 25.601563 25.601563 25.601563zm0-34.132813c4.710937 0 8.53125 3.820313 8.53125 8.53125 0 4.714844-3.820313 8.535157-8.53125 8.535157-4.714844 0-8.535157-3.820313-8.535157-8.535157 0-4.710937 3.820313-8.53125 8.535157-8.53125zm0 0"/><path d="m273.539062 187.734375c14.136719 0 25.597657-11.460937 25.597657-25.601563 0-14.136718-11.460938-25.597656-25.597657-25.597656-14.140624 0-25.601562 11.460938-25.601562 25.597656 0 14.140626 11.460938 25.601563 25.601562 25.601563zm0-34.132813c4.710938 0 8.53125 3.820313 8.53125 8.53125 0 4.714844-3.820312 8.535157-8.53125 8.535157-4.714843 0-8.535156-3.820313-8.535156-8.535157 0-4.710937 3.820313-8.53125 8.535156-8.53125zm0 0"/><path d="m196.738281 256v8.535156c0 4.710938 3.820313 8.53125 8.535157 8.53125 4.710937 0 8.53125-3.820312 8.53125-8.53125v-8.535156h8.535156c0 4.710938 3.820312 8.535156 8.53125 8.535156 4.714844 0 8.535156-3.824218 8.535156-8.535156h42.664062c4.714844 0 8.535157-3.820312 8.535157-8.535156 0-4.710938-3.820313-8.53125-8.535157-8.53125h-42.664062c0-4.714844-3.820312-8.535156-8.535156-8.535156-4.710938 0-8.53125 3.820312-8.53125 8.535156h-8.535156v-8.535156c0-4.710938-3.820313-8.53125-8.53125-8.53125-4.714844 0-8.535157 3.820312-8.535157 8.53125v8.535156c-4.710937 0-8.53125 3.820312-8.53125 8.53125 0 4.714844 3.820313 8.535156 8.53125 8.535156zm0 0"/><path d="m338.953125 304.757812c-1.679687 4.402344.519531 9.332032 4.917969 11.019532 5.695312 2.277344 10.855468 5.714844 15.152344 10.09375 10.003906 10.019531 11.027343 19.15625 3.015624 27.160156-8.015624 8.003906-17.136718 7-27.164062-3.011719-4.375-4.296875-7.8125-9.457031-10.09375-15.15625-1.773438-4.265625-6.617188-6.347656-10.933594-4.695312-4.3125 1.652343-6.53125 6.4375-5 10.796875 3.136719 7.9375 7.890625 15.128906 13.960938 21.121094 7.078125 8.046874 17.117187 12.875 27.820312 13.378906 8.894532-.203125 17.34375-3.945313 23.476563-10.390625 11.664062-11.667969 16.996093-31.265625-3.015625-51.296875-5.992188-6.070313-13.183594-10.824219-21.117188-13.957032-2.117187-.808593-4.46875-.742187-6.535156.1875-2.066406.925782-3.679688 2.636719-4.484375 4.75zm0 0"/><path d="m169.960938 340.964844c1.363281-2.890625.996093-6.304688-.957032-8.839844-1.949218-2.535156-5.15625-3.765625-8.304687-3.191406-3.144531.578125-5.703125 2.867187-6.628907 5.929687-2.277343 5.699219-5.714843 10.859375-10.09375 15.15625-10.027343 10.019531-19.15625 11-27.160156 3.011719-8.003906-7.984375-6.988281-17.140625 3.011719-27.160156 4.296875-4.378906 9.457031-7.816406 15.15625-10.09375 4.265625-1.773438 6.347656-6.621094 4.695313-10.933594-1.652344-4.316406-6.4375-6.53125-10.796876-5-7.9375 3.132812-15.128906 7.890625-21.121093 13.960938-20.011719 20.027343-14.675781 39.628906-3.011719 51.292968 6.125 6.429688 14.554688 10.160156 23.429688 10.367188 10.707031-.511719 20.746093-5.351563 27.820312-13.402344 6.070312-5.988281 10.824219-13.171875 13.960938-21.097656zm0 0"/><path d="m406.539062 86.800781c-7.679687 7.679688-12.65625 31.035157-14.421874 40.695313-.457032 2.488281.21875 5.054687 1.839843 7 1.617188 1.941406 4.019531 3.066406 6.550781 3.070312.511719 0 1.027344-.046875 1.535157-.144531 9.660156-1.765625 32.980469-6.707031 40.695312-14.421875 6.652344-6.429688 9.324219-15.945312 6.980469-24.898438-2.34375-8.949218-9.332031-15.9375-18.285156-18.28125-8.949219-2.34375-18.46875.324219-24.894532 6.980469zm24.132813 24.132813c-5.921875 3.300781-12.332031 5.640625-18.988281 6.929687 1.289062-6.660156 3.625-13.070312 6.921875-18.996093 2.140625-2.21875 5.316406-3.109376 8.296875-2.328126 2.984375.78125 5.316406 3.113282 6.097656 6.09375.777344 2.984376-.109375 6.15625-2.328125 8.300782zm0 0"/><path d="m412.871094 157.199219c-.996094 2.621093-.648438 5.558593.9375 7.871093 5.566406 8.105469 19.628906 27.375 29.78125 31.265626 2.902344 1.121093 5.984375 1.699218 9.097656 1.707031 12.332031-.007813 22.90625-8.808594 25.152344-20.9375 2.25-12.125-4.46875-24.128907-15.980469-28.558594-10.160156-3.890625-33.484375 1.101563-43.050781 3.414063-2.71875.667968-4.9375 2.625-5.9375 5.238281zm42.90625 7.253906c4.402344 1.679687 6.613281 6.613281 4.929687 11.019531-1.679687 4.402344-6.609375 6.609375-11.015625 4.929688-5.425781-4.0625-10.175781-8.957032-14.070312-14.503906 6.597656-1.554688 13.402344-2.039063 20.15625-1.445313zm0 0"/><path d="m78.304688 137.566406c2.53125-.003906 4.929687-1.128906 6.550781-3.070312 1.621093-1.945313 2.292969-4.511719 1.835937-7-1.765625-9.660156-6.707031-32.980469-14.421875-40.695313-10.042969-9.703125-26.011719-9.5625-35.886719.3125-9.871093 9.875-10.011718 25.839844-.308593 35.886719 7.679687 7.679688 31.035156 12.65625 40.695312 14.421875.503907.097656 1.019531.144531 1.535157.144531zm-30.164063-26.632812c-3.328125-3.332032-3.328125-8.726563 0-12.058594 3.378906-3.207031 8.675781-3.207031 12.054687 0 3.304688 5.925781 5.644532 12.335938 6.929688 18.996094-6.65625-1.292969-13.066406-3.632813-18.984375-6.9375zm0 0"/><path d="m16.949219 148.480469c-13.210938 5.042969-19.832031 19.839843-14.789063 33.050781 5.042969 13.207031 19.839844 19.828125 33.050782 14.785156 10.1875-3.890625 24.21875-23.15625 29.78125-31.265625 1.585937-2.308593 1.933593-5.253906.933593-7.871093-1-2.617188-3.21875-4.578126-5.941406-5.242188-9.542969-2.324219-32.835937-7.304688-43.035156-3.457031zm26.242187 17.375c-3.894531 5.546875-8.644531 10.445312-14.074218 14.503906-4.402344 1.679687-9.335938-.527344-11.015626-4.929687-1.679687-4.40625.527344-9.335938 4.933594-11.019532 1.183594-.300781 2.410156-.429687 3.632813-.375 5.546875.199219 11.070312.8125 16.523437 1.84375zm0 0"/></svg>