<svg height="511pt" viewBox="-37 0 511 511.94087" width="511pt" xmlns="http://www.w3.org/2000/svg"><path d="m242.75 333.457031c-4.300781 1.917969-6.234375 6.960938-4.316406 11.265625 2.410156 5.640625 3.625 11.722656 3.566406 17.859375 0 14.15625-5.742188 21.332031-17.066406 21.332031-11.324219 0-17.066406-7.175781-17.066406-21.332031-.0625-6.136719 1.152343-12.21875 3.566406-17.859375 1.914062-4.304687-.015625-9.347656-4.316406-11.265625-2.535157-1.097656-5.449219-.875-7.785157.597657-2.335937-1.472657-5.25-1.695313-7.78125-.597657-4.300781 1.917969-6.234375 6.960938-4.316406 11.265625 2.410156 5.640625 3.625 11.722656 3.566406 17.859375 0 14.15625-5.746093 21.332031-17.066406 21.332031-11.324219 0-17.066406-7.175781-17.066406-21.332031-.0625-6.136719 1.152343-12.21875 3.566406-17.859375 1.761719-4.273437-.195313-9.167968-4.414063-11.050781s-9.171874-.0625-11.167968 4.101563c-3.394532 7.828124-5.113282 16.277343-5.054688 24.808593 0 28.304688 17.632813 38.398438 34.136719 38.398438 9.796875.226562 19.183594-3.9375 25.597656-11.347657 6.414063 7.410157 15.800781 11.574219 25.601563 11.347657 16.503906 0 34.132812-10.09375 34.132812-38.398438.0625-8.53125-1.660156-16.980469-5.050781-24.808593-1.921875-4.300782-6.960937-6.234376-11.265625-4.316407zm0 0"/><path d="m438.019531 408.753906c-.667969-2.703125-2.617187-4.910156-5.214843-5.914062-12.226563-5.042969-25.632813-6.523438-38.664063-4.265625-5.382813-2.925781-11.246094-4.859375-17.3125-5.699219 6.710937-18.199219 10.175781-37.433594 10.238281-56.832031-.019531-5.894531-.351562-11.785157-.988281-17.648438 18.265625-24.453125 15.625-58.648437-6.179687-80.007812-8.015626-6.890625-17.4375-11.949219-27.605469-14.832031-3.90625-41.636719-26.546875-79.238282-61.515625-102.175782l10.238281-67.695312c2-13.226563-1.765625-26.671875-10.339844-36.9375-8.578125-10.265625-21.140625-16.359375-34.511719-16.746094h-1.621093c-12.980469.0195312-25.371094 5.425781-34.21875 14.925781-8.863281 9.441407-13.34375 22.175781-12.347657 35.089844l3.183594 44.292969c-3.917968-.269532-7.832031-.527344-11.828125-.527344-3.992187 0-7.917969.257812-11.835937.527344l3.191406-44.285156c1-12.914063-3.480469-25.65625-12.347656-35.097657-8.84375-9.5-21.238282-14.9062498-34.21875-14.925781h-1.960938c-13.3125.476562-25.785156 6.609375-34.289062 16.859375-8.503906 10.253906-12.230469 23.644531-10.238282 36.816406l10.238282 67.703125c-34.972656 22.933594-57.613282 60.535156-61.515625 102.175782-10.164063 2.882812-19.578125 7.945312-27.589844 14.832031-21.800781 21.359375-24.441406 55.554687-6.175781 80.007812-4.957032 45.179688 8.878906 90.410157 38.261718 125.082031-12.496093 4.992188-21.089843 16.625-22.183593 30.039063 0 38.398437 31.734375 38.398437 59.730469 38.398437 15.359374.398438 30.496093-3.734374 43.519531-11.886718 43.5625 15.847656 91.316406 15.847656 134.878906 0 13.011719 8.140625 28.128906 12.273437 43.46875 11.886718 21.453125 0 45.039063-.066406 54.929687-17.332031 1.613282.148438 3.21875.265625 4.804688.265625 28.265625-.027344 51.171875-22.933594 51.199219-51.199218-.070313-1.800782-.238281-3.601563-.496094-5.386719 4.519531-7.703125 9.6875-15.007813 15.445313-21.835938 1.839843-2.097656 2.539062-4.960937 1.871093-7.671875zm-68.941406-96.714844c-8.03125 8.054688-19.027344 12.445313-30.394531 12.140626-11.746094-.210938-22.941406-5.011719-31.191406-13.371094-9.703126-9.703125-18.441407-41.617188-22.972657-83.15625 41.695313 4.378906 73.609375 13.125 83.3125 22.808594 17.304688 16.679687 17.859375 44.210937 1.246094 61.578124zm-144.085937-263.246093c-.578126-8.199219 2.273437-16.273438 7.875-22.289063 5.605468-6.015625 13.457031-9.433594 21.675781-9.4375h1.304687c8.453125.296875 16.375 4.183594 21.78125 10.683594 5.40625 6.503906 7.785156 15 6.535156 23.363281l-9.21875 60.84375c-14.625-7.550781-30.320312-12.816406-46.539062-15.617187zm-110.488282 2.320312c-1.246094-8.308593 1.089844-16.757812 6.425782-23.25 5.335937-6.488281 13.175781-10.414062 21.570312-10.796875h1.621094c8.222656.003906 16.074218 3.421875 21.675781 9.4375 5.605469 6.015625 8.457031 14.089844 7.875 22.289063l-3.410156 47.53125c-16.214844 2.816406-31.902344 8.089843-46.527344 15.640625zm-83.671875 199.339844c9.703125-9.683594 41.617188-18.433594 83.167969-22.953125-4.386719 41.683594-13.125 73.597656-22.828125 83.300781-8.25 8.363281-19.441406 13.167969-31.1875 13.378907-11.375.332031-22.378906-4.0625-30.398437-12.132813-16.625-17.367187-16.066407-44.914063 1.246093-61.59375zm279.433594 244.394531c-12.628906.515625-25.09375-2.992187-35.601563-10.019531-.261718-.261719-.546874-.507813-.851562-.722656-3.511719-2.460938-5.777344-6.324219-6.214844-10.589844 0-4.714844-3.820312-8.535156-8.53125-8.535156-4.714844 0-8.535156 3.820312-8.535156 8.535156.050781 4.496094 1.222656 8.914063 3.414062 12.839844-35.542968 11.027343-73.59375 11.027343-109.140624 0 2.160156-3.933594 3.304687-8.351563 3.328124-12.839844 0-4.714844-3.820312-8.535156-8.535156-8.535156-4.710937 0-8.53125 3.820312-8.53125 8.535156-.441406 4.261719-2.714844 8.121094-6.230468 10.570313-.300782.234374-.585938.484374-.851563.753906-10.503906 7.015625-22.964844 10.523437-35.585937 10.007812-32.238282 0-42.664063-1.65625-42.664063-21.332031 0-10.097656 17.527344-21.335937 42.664063-21.335937 4.714843 0 8.535156-3.820313 8.535156-8.53125 0-4.714844-3.820313-8.535157-8.535156-8.535157-6.84375-.003906-13.664063.75-20.34375 2.253907-25.160157-27.769532-39.183594-63.851563-39.386719-101.324219 0-1.09375.074219-2.140625.101562-3.21875 9.191407 5.539062 19.722657 8.449219 30.453125 8.421875h1.015625c16.171875-.289063 31.585938-6.878906 42.964844-18.371094 17.402344-17.398438 24.84375-66.097656 27.726563-93.585938 0-.355468 0-.699218 0-1.046874 3.976562-.398438 7.875-1.375 11.570312-2.902344 11.195312-5.003906 19.484375-14.859375 22.503906-26.742188 1.039063-2.949218.386719-6.226562-1.703125-8.550781-2.089843-2.320313-5.28125-3.316406-8.320312-2.59375-3.039063.722656-5.441407 3.050781-6.257813 6.066406-1.585937 7.035157-6.300781 12.960938-12.800781 16.085938-11.75 4.972656-28.6875-1.09375-34.246094-3.859375-4.203125-2.113282-9.328125-.421875-11.449219 3.78125-.617187 1.285156-.890624 2.707031-.792968 4.128906-8.253906 1.28125-16.972656 2.910156-25.492188 4.933594 5.457032-35.265625 26.113282-66.363282 56.507813-85.058594.164062-.078125.28125-.214844.4375-.292969 23.492187-14.757812 50.703125-22.523437 78.445312-22.390625 69.589844 0 126.746094 46.464844 135.382813 107.734375-8.535156-2.023437-17.238282-3.652343-25.5-4.933593.097656-1.414063-.175782-2.832032-.785156-4.113282-2.113282-4.210937-7.238282-5.910156-11.449219-3.796875-5.53125 2.765625-22.484375 8.839844-34.246094 3.859375-6.5-3.128906-11.210937-9.050781-12.796875-16.085937-.820312-3.015625-3.222656-5.34375-6.261719-6.066407-3.039062-.722656-6.230469.273438-8.320312 2.59375-2.089844 2.324219-2.742188 5.601563-1.703125 8.546876 3.019531 11.886718 11.308594 21.738281 22.503906 26.746093 3.695312 1.527344 7.59375 2.503907 11.570312 2.902344 0 .347656-.042968.6875 0 1.046875 2.886719 27.488281 10.328126 76.1875 27.726563 93.585938 11.378906 11.496093 26.800781 18.089843 42.972656 18.378906h1.050781c10.730469.023437 21.261719-2.890625 30.453126-8.429688 0 1.085938.105468 2.132813.105468 3.226563-.207031 37.472656-14.230468 73.554687-39.390625 101.324219-6.6875-1.507813-13.523437-2.261719-20.378906-2.253907-4.710937 0-8.53125 3.820313-8.53125 8.535157 0 4.710937 3.820313 8.53125 8.53125 8.53125 25.140625 0 42.667969 11.238281 42.667969 21.335937 0 19.675781-10.429688 21.332031-42.667969 21.332031zm59.734375-17.066406h-.230469c.09375-1.390625.230469-2.738281.230469-4.265625-1.097656-13.414063-9.691406-25.046875-22.1875-30.039063 8.628906-10.421874 16.003906-21.820312 21.980469-33.960937 3.035156-.078125 6.066406.316406 8.980469 1.167969.082031.882812.304687 1.746094.65625 2.558594 2.046874 4.230468 7.128906 6.007812 11.367187 3.976562 1.324219-.546875 2.699219-.976562 4.101563-1.277344 6.652343-1.578125 13.566406-1.71875 20.277343-.410156-3.921875 5.339844-7.492187 10.929688-10.691406 16.734375-.136719.34375-.246094.703125-.324219 1.066406-.234375.527344-.40625 1.078125-.511718 1.644531-.0625.597657-.0625 1.199219 0 1.792969-.027344.351563-.027344.707031 0 1.058594.328124 1.921875.492187 3.871094.484374 5.820313 0 18.851562-15.28125 34.132812-34.132812 34.132812zm0 0"/><path d="m173.734375 298.582031c9.777344.390625 19.199219-3.691406 25.597656-11.09375 6.402344 7.402344 15.824219 11.484375 25.601563 11.09375 4.710937 0 8.53125-3.820312 8.53125-8.535156 0-4.710937-3.820313-8.53125-8.53125-8.53125-4.613282.296875-9.128906-1.40625-12.394532-4.675781-3.265624-3.265625-4.96875-7.78125-4.671874-12.390625v-1.265625c9.570312-2.0625 16.566406-10.292969 17.066406-20.070313-.550782-6.230469-3.5625-11.984375-8.367188-15.988281-4.804687-4.003906-11.007812-5.925781-17.234375-5.34375-6.226562-.582031-12.429687 1.339844-17.234375 5.34375-4.804687 4.003906-7.816406 9.757812-8.363281 15.988281.5 9.777344 7.496094 18.007813 17.066406 20.070313v1.265625c.296875 4.609375-1.40625 9.125-4.675781 12.390625-3.265625 3.269531-7.78125 4.972656-12.390625 4.675781-4.714844 0-8.535156 3.820313-8.535156 8.53125 0 4.714844 3.820312 8.535156 8.535156 8.535156zm25.597656-59.734375c5.292969 0 8.535157 2.757813 8.535157 4.265625 0 1.511719-3.242188 4.269531-8.535157 4.269531-5.289062 0-8.53125-2.757812-8.53125-4.269531 0-1.507812 3.242188-4.265625 8.53125-4.265625zm0 0"/><path d="m133.566406 147.480469-17.066406 17.066406c-2.21875 2.144531-3.109375 5.316406-2.328125 8.300781s3.113281 5.3125 6.09375 6.09375c2.984375.78125 6.15625-.109375 8.300781-2.328125l17.066406-17.066406c3.234376-3.347656 3.1875-8.667969-.105468-11.960937-3.289063-3.292969-8.613282-3.339844-11.960938-.105469zm0 0"/><path d="m270.101562 176.613281c3.347657 3.234375 8.667969 3.1875 11.960938-.101562 3.292969-3.292969 3.335938-8.613281.101562-11.964844l-17.066406-17.066406c-3.347656-3.234375-8.667968-3.1875-11.960937.105469-3.292969 3.292968-3.335938 8.613281-.105469 11.960937zm0 0"/></svg>