<svg height="512pt" viewBox="-57 0 512 512.02195" width="512pt" xmlns="http://www.w3.org/2000/svg"><path d="m93.878906 512.023438c28.722656 0 52.050782-12.425782 58.136719-29.542969 14.59375 2.714843 29.417969 4.035156 44.261719 3.941406 14.847656.09375 29.667968-1.226563 44.261718-3.941406 6.085938 17.117187 29.414063 29.542969 58.136719 29.542969 23.433594 0 49.417969-.09375 57.285157-22.605469 1.851562-.53125 3.671874-1.164063 5.453124-1.894531 13.910157-5.570313 25.03125-16.445313 30.917969-30.222657 5.886719-13.777343 6.050781-29.332031.460938-43.234375-.828125-2.03125-1.785157-4.011718-2.867188-5.921875 1.488281-10.027343 3.832031-19.914062 7.011719-29.542969.914062-2.609374.503906-5.5-1.097656-7.757812-1.601563-2.253906-4.199219-3.59375-6.964844-3.589844h-.109375c-14.78125-.132812-29.289063 3.964844-41.816406 11.808594-4.761719-.539062-9.578125-.472656-14.324219.199219-1.136719-19.953125-5-39.660157-11.480469-58.566407 7.109375 3.230469 14.800781 4.972657 22.605469 5.121094 11.460938 0 48.84375-5.0625 48.84375-69.761718 0-75.679688-35.617188-141.652344-56.847656-174.214844-.136719-.214844-.359375-.324219-.511719-.511719-27.519531-50.90625-81.097656-82.253906-138.957031-81.3046875-57.941406-.9726565-111.589844 30.4414065-139.09375 81.4492185-.09375.128906-.238282.195313-.324219.332032-21.230469 32.5625-56.8476562 98.535156-56.8476562 174.21875 0 64.699218 37.3828122 69.75 48.8437502 69.757812 7.757812-.136719 15.410156-1.851562 22.484375-5.035156-7.066406 20.378906-10.976563 41.714844-11.59375 63.277344-.390625 18.835937 4.894531 37.351562 15.171875 53.144531-24.074219 4.949219-40.773438 19.164062-40.773438 36.453125 0 38.402344 31.734375 38.402344 59.734375 38.402344zm204.796875-17.066407c-20.683593 0-36.8125-8.101562-41.300781-16.691406 17.457031-4.796875 33.574219-13.558594 47.089844-25.601563 21.859375 1.578126 36.878906 11.914063 36.878906 20.957032.023438 2.203125-.144531 4.402344-.511719 6.570312-.0625.207032-.113281.417969-.152343.632813-2.707032 12.867187-14.269532 14.132812-42.003907 14.132812zm73.917969-86.09375c0 .441407.039062.882813.109375 1.320313.003906.4375.039063.875.113281 1.308594.140625.675781.371094 1.328124.679688 1.945312.078125.273438.171875.539062.285156.800781 1.203125 1.976563 2.261719 4.039063 3.164062 6.167969 7.707032 18.917969-.480468 40.578125-18.773437 49.664062-2.117187-15.664062-18.117187-28.292968-40.515625-32.902343 8.023438-12.167969 12.980469-26.101563 14.445312-40.601563 1.347657-.300781 2.699219-.496094 4.046876-.65625 1.203124 2.585938 3.617187 4.398438 6.433593 4.835938 2.816407.433594 5.667969-.566406 7.59375-2.667969 1.195313-1.1875 2.5-2.261719 3.890625-3.210937 6.871094-4.835938 14.75-8.0625 23.042969-9.429688-2.039063 7.695312-3.546875 15.523438-4.515625 23.425781zm-28.816406-100.148437c-23.230469 0-51.03125-24.941406-53.378906-56.6875 3.613281-2.558594 7.066406-5.316406 10.402343-8.164063 2.5625 14.230469 7.871094 28.160157 18.476563 34.558594 3.449218 2.097656 7.414062 3.203125 11.453125 3.199219 2.453125-.003906 4.894531-.390625 7.234375-1.144532 8.003906-2.746093 14.46875-8.757812 17.785156-16.542968 3.800781-10.882813 4.683594-22.574219 2.558594-33.902344-2.667969-17.5625-7.492188-34.726562-14.363282-51.109375 3.59375-11.535156 5.550782-23.519531 5.804688-35.601563 16.304688 35.378907 25.09375 73.753907 25.8125 112.703126 0 33.476562-11.585938 52.675781-31.785156 52.691406zm-9.472656-106.402344c3.226562 9.78125 5.609374 19.824219 7.117187 30.011719 1.707031 8.246093 1.25 16.789062-1.324219 24.808593-1.347656 3.265626-3.984375 5.828126-7.285156 7.082032-1.558594.578125-3.292969.429687-4.730469-.402344-6.109375-3.6875-10.605469-16.988281-12.066406-34.984375 7.085937-8.117187 13.21875-17.011719 18.289063-26.515625zm-283.425782 30.039062c1.519532-10.308593 3.933594-20.464843 7.21875-30.355468 5.039063 9.5 11.148438 18.394531 18.210938 26.503906-1.425782 18.1875-5.972656 31.574219-12.117188 35.320312-1.425781.832032-3.152344.976563-4.695312.394532-3.296875-1.238282-5.933594-3.792969-7.277344-7.050782-2.582031-8.015624-3.042969-16.566406-1.339844-24.8125zm-2.015625 76.363282c-20.207031-.015625-31.785156-19.214844-31.785156-52.691406.707031-38.882813 9.460937-77.199219 25.710937-112.53125.265626 11.890624 2.175782 23.6875 5.675782 35.054687-6.945313 16.507813-11.820313 33.8125-14.507813 51.515625-2.105469 11.339844-1.210937 23.03125 2.601563 33.914062 3.324218 7.769532 9.78125 13.769532 17.777344 16.511719 2.339843.746094 4.777343 1.128907 7.234374 1.132813 4.035157.007812 7.996094-1.09375 11.441407-3.191406 10.675781-6.433594 15.960937-20.480469 18.542969-34.765626 3.414062 2.941407 6.980468 5.75 10.695312 8.425782-2.375 31.726562-30.15625 56.625-53.367188 56.625zm69.273438-46.761719c7.742187 4.246094 15.824219 7.835937 24.167969 10.726563 4.394531 1.332031 9.054687-1.050782 10.546874-5.390626 1.492188-4.34375-.71875-9.085937-5-10.738281-52.703124-18.132812-88.105468-64.640625-88.105468-115.730469 0-68.222656 61.25-123.730468 136.53125-123.730468s136.535156 55.507812 136.535156 123.730468c-.296875 29.417969-11.644531 57.648438-31.789062 79.089844-.085938.09375-.167969.167969-.253907.273438-15.386719 16.578125-34.652343 29.074218-56.066406 36.367187-2.988281.90625-5.242187 3.375-5.878906 6.433594-.632813 3.058594.453125 6.21875 2.835937 8.238281 2.382813 2.023438 5.675782 2.578125 8.589844 1.457032 8.367188-2.902344 16.472656-6.5 24.234375-10.761719 3.089844 15.753906 10.757813 30.25 22.042969 41.667969 11.429687 25.359374 17.949218 52.652343 19.21875 80.4375.785156 19.78125-6.433594 39.042968-20.03125 53.433593-.238282.21875-.464844.453125-.671875.699219-27.085938 27.28125-74.136719 31.199219-98.765625 31.199219-24.625 0-71.789063-3.925781-98.890625-31.324219-.171875-.171875-.308594-.351562-.480469-.503906-13.640625-14.394532-20.890625-33.691406-20.09375-53.503906 1.25-27.738282 7.746094-54.984376 19.148438-80.300782 11.339843-11.421875 19.054687-25.9375 22.175781-41.726562zm-30.042969 190.703125c13.515625 12.042969 29.628906 20.804688 47.085938 25.597656-4.488282 8.601563-20.617188 16.703125-41.300782 16.703125-32.238281 0-42.667968-1.65625-42.667968-21.335937 0-9.042969 15.019531-19.378906 36.882812-20.964844zm0 0"/><path d="m133.984375 90.476562c2.789063-3.1875 6.8125-5.023437 11.046875-5.03125 4.234375-.011718 8.269531 1.804688 11.070312 4.980469 3.347657 3.230469 8.671876 3.1875 11.964844-.105469 3.289063-3.292968 3.335938-8.613281.101563-11.960937-6-6.359375-14.355469-9.964844-23.097657-9.964844-8.746093 0-17.101562 3.605469-23.101562 9.964844-3.25 3.332031-3.226562 8.65625.050781 11.964844 3.277344 3.304687 8.601563 3.375 11.964844.152343zm0 0"/><path d="m236.382812 90.476562c2.789063-3.1875 6.8125-5.023437 11.050782-5.03125 4.234375-.011718 8.265625 1.804688 11.070312 4.980469 3.347656 3.230469 8.667969 3.1875 11.960938-.105469 3.292968-3.292968 3.339844-8.613281.105468-11.960937-6.003906-6.359375-14.359374-9.964844-23.101562-9.964844s-17.097656 3.605469-23.097656 9.964844c-3.253906 3.332031-3.230469 8.65625.046875 11.964844 3.28125 3.304687 8.605469 3.375 11.964843.152343zm0 0"/><path d="m187.746094 134.335938v1.511718c.28125 4.671875-1.398438 9.25-4.640625 12.625-3.242188 3.375-7.75 5.242188-12.429688 5.148438-4.710937 0-8.53125 3.820312-8.53125 8.535156v25.597656c0 18.851563 15.28125 34.132813 34.132813 34.132813 18.851562 0 34.132812-15.28125 34.132812-34.132813v-25.597656c0-4.714844-3.820312-8.535156-8.53125-8.535156-4.707031.183594-9.265625-1.65625-12.527344-5.050782-3.261718-3.398437-4.914062-8.027343-4.539062-12.722656v-1.511718c9.566406-2.0625 16.5625-10.285157 17.066406-20.0625-.546875-6.230469-3.558594-11.984376-8.363281-15.988282-4.804687-4.007812-11.011719-5.929687-17.238281-5.34375-6.226563-.585937-12.429688 1.335938-17.238282 5.34375-4.804687 4.003906-7.8125 9.757813-8.363281 15.988282.503907 9.777343 7.5 18 17.070313 20.0625zm25.597656 35.449218v17.96875c0 9.425782-7.640625 17.066406-17.066406 17.066406-9.425782 0-17.066406-7.640624-17.066406-17.066406v-17.96875c6.675781-1.410156 12.683593-5.015625 17.066406-10.242187 4.382812 5.226562 10.394531 8.832031 17.066406 10.242187zm-17.066406-59.734375c5.289062 0 8.535156 2.757813 8.535156 4.265625 0 1.511719-3.246094 4.269532-8.535156 4.269532-5.289063 0-8.53125-2.765626-8.53125-4.269532 0-1.5 3.242187-4.308594 8.53125-4.308594zm0 0"/><path d="m99.9375 130.496094c-2.019531-1.996094-4.898438-2.859375-7.679688-2.304688-.566406.082032-1.113281.253906-1.621093.511719-.546875.191406-1.066407.449219-1.546875.769531l-1.269532 1.023438c-.753906.832031-1.359374 1.78125-1.792968 2.816406-.480469 1.011719-.710938 2.125-.683594 3.242188-.015625 1.109374.183594 2.210937.589844 3.242187.472656 1.035156 1.109375 1.988281 1.886718 2.816406 2.441407 2.445313 6.125 3.152344 9.300782 1.792969 1.03125-.433594 1.984375-1.042969 2.816406-1.792969 1.574219-1.625 2.460938-3.796875 2.472656-6.058593-.011718-1.113282-.246094-2.214844-.683594-3.242188-.410156-1.042969-1.019531-2-1.789062-2.816406zm0 0"/><path d="m145.078125 128.023438h-25.601563c-4.710937 0-8.53125 3.820312-8.53125 8.53125 0 4.714843 3.820313 8.535156 8.53125 8.535156h25.601563c4.710937 0 8.53125-3.820313 8.53125-8.535156 0-4.710938-3.820313-8.53125-8.53125-8.53125zm0 0"/><path d="m295.433594 144.40625c3.175781 1.359375 6.859375.652344 9.300781-1.792969.753906-.832031 1.359375-1.78125 1.792969-2.816406.910156-2.066406.910156-4.417969 0-6.484375-.410156-1.042969-1.019532-2-1.792969-2.816406-.417969-.386719-.875-.730469-1.363281-1.023438-.4375-.335937-.925782-.597656-1.449219-.769531-.511719-.257813-1.0625-.429687-1.632813-.511719-1.628906-.347656-3.332031-.167968-4.855468.511719-1.054688.394531-2.011719 1.003906-2.816406 1.792969-1.5625 1.632812-2.445313 3.800781-2.472657 6.058594-.023437 2.269531.867188 4.453124 2.472657 6.058593.816406.773438 1.773437 1.378907 2.816406 1.792969zm0 0"/><path d="m247.476562 128.023438c-4.710937 0-8.53125 3.820312-8.53125 8.53125 0 4.714843 3.820313 8.535156 8.53125 8.535156h25.601563c4.710937 0 8.53125-3.820313 8.53125-8.535156 0-4.710938-3.820313-8.53125-8.53125-8.53125zm0 0"/><path d="m116.917969 395.628906c7.070312 8.054688 17.109375 12.894532 27.816406 13.414063 8.898437-.207031 17.34375-3.945313 23.476563-10.394531 11.664062-11.664063 17-31.265626-3.019532-51.304688-5.996094-6.0625-13.183594-10.816406-21.113281-13.957031-4.402344-1.6875-9.335937.515625-11.019531 4.917969-1.683594 4.402343.515625 9.335937 4.917968 11.019531 5.695313 2.28125 10.851563 5.71875 15.148438 10.097656 10.007812 10.015625 11.023438 19.148437 3.019531 27.160156-8.003906 8.011719-17.152343 6.996094-27.152343-3.019531-4.382813-4.292969-7.824219-9.453125-10.101563-15.148438-1.6875-4.402343-6.621094-6.605468-11.023437-4.917968-4.402344 1.683594-6.601563 6.617187-4.917969 11.019531 3.140625 7.929687 7.898437 15.117187 13.96875 21.113281zm0 0"/><path d="m224.316406 398.648438c6.132813 6.449218 14.582032 10.1875 23.476563 10.394531 10.714843-.519531 20.761719-5.359375 27.84375-13.414063 6.066406-5.996094 10.820312-13.1875 13.960937-21.113281 1.683594-4.402344-.515625-9.335937-4.917968-11.019531-4.402344-1.6875-9.335938.515625-11.023438 4.917968-2.277344 5.695313-5.714844 10.851563-10.09375 15.148438-10.027344 10.023438-19.148438 11.007812-27.160156 3.019531-8.015625-7.988281-6.988282-17.144531 3.019531-27.152343 4.292969-4.382813 9.453125-7.824219 15.148437-10.105469 4.398438-1.683594 6.601563-6.617188 4.917969-11.019531-1.683593-4.402344-6.617187-6.605469-11.019531-4.917969-7.933594 3.132812-15.128906 7.878906-21.128906 13.941406-20.019532 20.054687-14.6875 39.65625-3.023438 51.320313zm0 0"/></svg>