<svg height="512pt" viewBox="-57 0 512 512.02195" width="512pt" xmlns="http://www.w3.org/2000/svg"><path d="m93.878906 512.023438c28.808594 0 52.207032-12.496094 58.195313-29.6875 29.21875 5.449218 59.191406 5.449218 88.40625 0 5.992187 17.191406 29.386719 29.6875 58.195312 29.6875 23.433594 0 49.417969-.09375 57.285157-22.605469 1.851562-.53125 3.671874-1.164063 5.453124-1.894531 13.910157-5.570313 25.03125-16.445313 30.917969-30.222657 5.886719-13.777343 6.050781-29.332031.460938-43.234375-.828125-2.03125-1.785157-4.011718-2.867188-5.921875 1.488281-10.027343 3.832031-19.914062 7.011719-29.542969.917969-2.628906.496094-5.539062-1.132812-7.796874-1.710938-2.160157-4.285157-3.457032-7.039063-3.550782-14.777344-.140625-29.285156 3.949219-41.816406 11.785156-2.085938-.253906-4.183594-.378906-6.289063-.382812.441406-2.335938.671875-4.703125.683594-7.074219-.769531-12.574219-6.144531-24.425781-15.101562-33.28125-1.464844-5.785156-3.171876-11.652343-5.121094-17.605469 7.113281 3.234376 14.816406 4.976563 22.628906 5.121094 11.460938 0 48.84375-5.0625 48.84375-69.761718 0-75.679688-35.617188-141.652344-56.847656-174.214844-.136719-.214844-.359375-.316406-.503906-.511719-27.527344-50.90625-81.101563-82.25-138.964844-81.3046875-57.941406-.9726565-111.589844 30.4414065-139.09375 81.4492185-.09375.128906-.238282.195313-.324219.332032-21.230469 32.5625-56.8476562 98.535156-56.8476562 174.21875 0 64.699218 37.3828122 69.75 48.8437502 69.757812 7.75-.136719 15.390625-1.847656 22.460937-5.027344-1.921875 5.882813-3.628906 11.761719-5.121094 17.632813-8.902343 8.847656-14.234374 20.664062-14.984374 33.195312-.015626 9.664063 3.371093 19.03125 9.566406 26.453125 1.632812 13.980469 6.570312 27.371094 14.402344 39.0625-24.207032 4.949219-41.035157 19.175782-41.035157 36.523438 0 38.402344 31.734375 38.402344 59.734375 38.402344zm204.796875-17.066407c-20.792969 0-36.988281-8.175781-41.386719-16.820312 17.300782-4.859375 33.273438-13.589844 46.703126-25.523438 22.121093 1.46875 37.351562 11.894531 37.351562 21.007813.023438 2.203125-.144531 4.402344-.511719 6.570312-.0625.207032-.113281.417969-.152343.632813-2.707032 12.867187-14.269532 14.132812-42.003907 14.132812zm73.917969-86.09375c0 .441407.039062.882813.109375 1.320313.003906.4375.039063.875.113281 1.308594.140625.675781.371094 1.328124.679688 1.945312.078125.273438.171875.539062.285156.800781 1.203125 1.976563 2.261719 4.039063 3.164062 6.167969 7.707032 18.917969-.480468 40.578125-18.773437 49.664062-2.125-15.726562-18.242187-28.386718-40.789063-32.953124 7.835938-11.695313 12.773438-25.085938 14.402344-39.066407.402344-.496093.855469-.972656 1.246094-1.476562 1.078125-.214844 2.136719-.410157 3.191406-.539063 1.238282 2.539063 3.648438 4.300782 6.4375 4.707032 2.792969.410156 5.605469-.589844 7.515625-2.664063 1.195313-1.1875 2.5-2.261719 3.890625-3.210937 6.871094-4.835938 14.75-8.0625 23.042969-9.429688-2.039063 7.695312-3.546875 15.523438-4.515625 23.425781zm-28.816406-100.148437c-23.230469 0-51.03125-24.941406-53.378906-56.6875 3.613281-2.558594 7.066406-5.316406 10.402343-8.164063 2.5625 14.230469 7.871094 28.160157 18.476563 34.558594 3.449218 2.097656 7.414062 3.203125 11.453125 3.199219 2.453125-.003906 4.894531-.390625 7.234375-1.144532 8.003906-2.746093 14.46875-8.757812 17.785156-16.542968 3.800781-10.882813 4.683594-22.574219 2.558594-33.902344-2.667969-17.5625-7.492188-34.726562-14.363282-51.109375 3.59375-11.535156 5.550782-23.519531 5.804688-35.601563 16.304688 35.378907 25.09375 73.753907 25.8125 112.703126 0 33.476562-11.585938 52.675781-31.785156 52.691406zm-9.472656-106.402344c3.226562 9.78125 5.609374 19.824219 7.117187 30.011719 1.707031 8.246093 1.25 16.789062-1.324219 24.808593-1.347656 3.265626-3.984375 5.828126-7.285156 7.082032-1.558594.578125-3.292969.429687-4.730469-.402344-6.109375-3.6875-10.605469-16.988281-12.066406-34.984375 7.085937-8.117187 13.21875-17.011719 18.289063-26.515625zm-283.425782 30.039062c1.519532-10.308593 3.933594-20.464843 7.21875-30.355468 5.039063 9.5 11.148438 18.394531 18.210938 26.503906-1.425782 18.1875-5.972656 31.574219-12.117188 35.320312-1.425781.832032-3.152344.976563-4.695312.394532-3.296875-1.238282-5.933594-3.792969-7.277344-7.050782-2.582031-8.015624-3.042969-16.566406-1.339844-24.8125zm-2.015625 76.363282c-20.207031-.015625-31.785156-19.214844-31.785156-52.691406.707031-38.882813 9.460937-77.199219 25.710937-112.53125.265626 11.890624 2.175782 23.6875 5.675782 35.054687-6.945313 16.507813-11.820313 33.8125-14.507813 51.515625-2.105469 11.339844-1.210937 23.03125 2.601563 33.914062 3.324218 7.769532 9.78125 13.769532 17.777344 16.511719 2.339843.746094 4.777343 1.128907 7.234374 1.132813 4.035157.007812 7.996094-1.09375 11.441407-3.191406 10.675781-6.433594 15.960937-20.480469 18.542969-34.765626 3.414062 2.941407 6.980468 5.75 10.695312 8.425782-2.375 31.726562-30.15625 56.625-53.367188 56.625zm69.273438-46.761719c7.742187 4.246094 15.824219 7.835937 24.167969 10.726563 4.394531 1.332031 9.054687-1.050782 10.546874-5.390626 1.492188-4.34375-.71875-9.085937-5-10.738281-52.703124-18.132812-88.105468-64.640625-88.105468-115.730469 0-68.222656 61.25-123.730468 136.53125-123.730468s136.535156 55.507812 136.535156 123.730468c-.296875 29.417969-11.644531 57.648438-31.789062 79.089844-.085938.09375-.167969.167969-.253907.273438-15.386719 16.578125-34.652343 29.074218-56.066406 36.367187-2.988281.90625-5.242187 3.375-5.878906 6.433594-.632813 3.058594.453125 6.21875 2.835937 8.238281 2.382813 2.023438 5.675782 2.578125 8.589844 1.457032 8.367188-2.902344 16.472656-6.5 24.234375-10.761719 3.089844 15.753906 10.757813 30.25 22.042969 41.667969 2.328125 5.53125 4.429687 11.007812 6.339844 16.453124-2.621094-1.398437-5.320313-2.640624-8.089844-3.71875-2.847656-1.089843-6.058594-.578124-8.425782 1.339844-2.367187 1.921875-3.53125 4.960938-3.050781 7.972656.480469 3.011719 2.527344 5.535157 5.375 6.625 8.53125 3.402344 16.261719 8.546876 22.691407 15.105469 7.308593 6.210938 11.9375 15.007813 12.910156 24.550781-.097656 7.242188-3.234375 14.113282-8.644532 18.933594-4.789062 5.4375-11.664062 8.582032-18.910156 8.644532-9.523437-.992188-18.296875-5.617188-24.5-12.910157-6.558594-6.429687-11.703125-14.160156-15.109375-22.691406-1.773437-4.265625-6.621093-6.347656-10.933593-4.695313-4.316407 1.652344-6.53125 6.4375-5 10.796876 4.257812 10.769531 10.71875 20.53125 18.96875 28.65625 9.269531 10.511718 22.308593 16.953124 36.292968 17.917968h.75c4.527344-.078125 9-.945312 13.226563-2.558594-18.875 49.375-84.324219 55.347657-114.140625 55.347657s-95.257813-5.972657-114.097656-55.355469c4.226562 1.617188 8.703124 2.480469 13.226562 2.558594h.75c13.984375-.96875 27.023438-7.40625 36.292969-17.917969 8.25-8.125 14.710937-17.886719 18.96875-28.65625 1.191406-2.867187.730469-6.15625-1.203125-8.585937-1.933594-2.429688-5.035156-3.617188-8.097656-3.101563-3.0625.519531-5.601563 2.65625-6.632813 5.585937-3.402344 8.535157-8.550781 16.265626-15.109375 22.699219-6.214844 7.304688-15.003906 11.929688-24.542969 12.910157-7.234375-.113282-14.089843-3.246094-18.910156-8.644532-5.410156-4.820312-8.546875-11.691406-8.644531-18.933594.964844-9.554687 5.59375-18.367187 12.910156-24.585937 6.433594-6.558594 14.160156-11.703125 22.691406-15.101563 2.847656-1.09375 4.898438-3.617187 5.375-6.628906.480469-3.011718-.679687-6.050781-3.050781-7.96875-2.367187-1.921875-5.578125-2.433594-8.425781-1.34375-2.796875 1.089844-5.523438 2.34375-8.167969 3.761719 1.945313-5.511719 4.046875-10.992187 6.34375-16.359375 11.335937-11.410156 19.054687-25.914062 22.183594-41.691406zm-29.574219 190.660156c13.433594 11.933594 29.402344 20.660157 46.703125 25.523438-4.394531 8.644531-20.59375 16.820312-41.386719 16.820312-32.238281 0-42.667968-1.65625-42.667968-21.335937 0-9.113282 15.230468-19.539063 37.351562-21.007813zm0 0"/><path d="m213.34375 221.886719c51.816406-.058594 93.804688-42.050781 93.867188-93.863281 0-14.140626-11.460938-25.601563-25.601563-25.601563h-170.664063c-14.140624 0-25.601562 11.460937-25.601562 25.601563.0625 51.8125 42.050781 93.804687 93.867188 93.863281zm-110.933594-93.863281c0-4.714844 3.820313-8.535157 8.535156-8.535157h170.664063c4.714844 0 8.535156 3.820313 8.535156 8.535157-.046875 42.394531-34.402343 76.75-76.800781 76.796874h-34.132812c-42.394532-.046874-76.753907-34.402343-76.800782-76.796874zm0 0"/><path d="m162.144531 93.886719c14.136719 0 25.601563-11.460938 25.601563-25.597657 0-14.140624-11.464844-25.601562-25.601563-25.601562-14.140625 0-25.601562 11.460938-25.601562 25.601562 0 14.136719 11.460937 25.597657 25.601562 25.597657zm0-34.132813c4.710938 0 8.53125 3.820313 8.53125 8.535156 0 4.710938-3.820312 8.53125-8.53125 8.53125-4.714843 0-8.535156-3.820312-8.535156-8.53125 0-4.714843 3.820313-8.535156 8.535156-8.535156zm0 0"/><path d="m230.410156 93.886719c14.140625 0 25.601563-11.460938 25.601563-25.597657 0-14.140624-11.460938-25.601562-25.601563-25.601562-14.136718 0-25.597656 11.460938-25.597656 25.601562 0 14.136719 11.460938 25.597657 25.597656 25.597657zm0-34.132813c4.714844 0 8.535156 3.820313 8.535156 8.535156 0 4.710938-3.820312 8.53125-8.535156 8.53125-4.710937 0-8.53125-3.820312-8.53125-8.53125 0-4.714843 3.820313-8.535156 8.53125-8.535156zm0 0"/><path d="m179.210938 162.15625c0 4.710938 3.820312 8.53125 8.535156 8.53125 4.710937 0 8.53125-3.820312 8.53125-8.53125h42.667968c4.710938 0 8.53125-3.820312 8.53125-8.535156 0-4.710938-3.820312-8.53125-8.53125-8.53125h-42.667968c0-4.714844-3.820313-8.535156-8.53125-8.535156-4.714844 0-8.535156 3.820312-8.535156 8.535156h-8.535157v-8.535156c0-4.710938-3.820312-8.53125-8.53125-8.53125-4.714843 0-8.535156 3.820312-8.535156 8.53125v8.535156c-4.710937 0-8.53125 3.820312-8.53125 8.53125 0 4.714844 3.820313 8.535156 8.53125 8.535156v8.53125c0 4.714844 3.820313 8.535156 8.535156 8.535156 4.710938 0 8.53125-3.820312 8.53125-8.535156v-8.53125zm0 0"/></svg>