<svg height="512pt" viewBox="0 -1 512 512" width="512pt" xmlns="http://www.w3.org/2000/svg"><path d="m230.398438 340.09375c0-14.140625-11.460938-25.601562-25.597657-25.601562-14.140625 0-25.601562 11.460937-25.601562 25.601562 0 14.136719 11.460937 25.597656 25.601562 25.597656 14.136719 0 25.597657-11.460937 25.597657-25.597656zm-34.132813 0c0-4.714844 3.820313-8.535156 8.535156-8.535156 4.710938 0 8.53125 3.820312 8.53125 8.535156 0 4.710938-3.820312 8.53125-8.53125 8.53125-4.714843 0-8.535156-3.820312-8.535156-8.53125zm0 0"/><path d="m307.199219 314.492188c-14.136719 0-25.597657 11.460937-25.597657 25.601562 0 14.136719 11.460938 25.597656 25.597657 25.597656 14.140625 0 25.601562-11.460937 25.601562-25.597656 0-14.140625-11.460937-25.601562-25.601562-25.601562zm0 34.132812c-4.710938 0-8.53125-3.820312-8.53125-8.53125 0-4.714844 3.820312-8.535156 8.53125-8.535156 4.714843 0 8.535156 3.820312 8.535156 8.535156 0 4.710938-3.820313 8.53125-8.535156 8.53125zm0 0"/><path d="m298.667969 382.757812h-34.132813v-8.53125c4.710938 0 8.53125-3.820312 8.53125-8.535156 0-4.710937-3.820312-8.53125-8.53125-8.53125h-17.070312c-4.710938 0-8.53125 3.820313-8.53125 8.53125 0 4.714844 3.820312 8.535156 8.53125 8.535156v8.53125h-34.132813c-4.710937 0-8.53125 3.820313-8.53125 8.535157 0 28.277343 22.921875 51.199219 51.199219 51.199219s51.199219-22.921876 51.199219-51.199219c0-4.714844-3.820313-8.535157-8.53125-8.535157zm-42.667969 42.667969c-15.558594-.019531-29.144531-10.539062-33.058594-25.601562h66.117188c-3.914063 15.0625-17.5 25.582031-33.058594 25.601562zm0 0"/><path d="m170.667969 382.757812h-8.535157c-4.710937 0-8.53125 3.820313-8.53125 8.535157 0 4.710937 3.820313 8.53125 8.53125 8.53125h8.535157c4.710937 0 8.53125-3.820313 8.53125-8.53125 0-4.714844-3.820313-8.535157-8.53125-8.535157zm0 0"/><path d="m349.867188 382.757812h-8.535157c-4.710937 0-8.53125 3.820313-8.53125 8.535157 0 4.710937 3.820313 8.53125 8.53125 8.53125h8.535157c4.710937 0 8.53125-3.820313 8.53125-8.53125 0-4.714844-3.820313-8.535157-8.53125-8.535157zm0 0"/><path d="m443.734375 423.078125v-53.121094c.234375-68.832031-36.238281-132.574219-95.703125-167.25l33.65625-132.550781c3.90625-15.082031 1.320312-31.113281-7.132812-44.203125-12.863282-20.085937-36.980469-29.890625-60.210938-24.480469-23.226562 5.414063-40.527344 24.871094-43.1875 48.570313l-14.25 127.914062c-.300781 0-.597656 0-.90625 0s-.5625 0-.851562 0l-14.304688-127.921875c-2.660156-23.699218-19.964844-43.152344-43.191406-48.5625-23.230469-5.410156-47.34375 4.394532-60.207032 24.480469-8.453124 13.089844-11.039062 29.121094-7.132812 44.203125l33.714844 132.550781c-59.484375 34.660157-95.984375 98.402344-95.761719 167.25v53.121094c-60.859375 12.007813-68.265625 26.488281-68.265625 36.480469 0 50.621094 245.546875 51.199218 256 51.199218s256-.578124 256-51.199218c0-9.992188-7.40625-24.472656-68.265625-36.480469zm-155.613281-371.148437c1.566406-14.628907 11.179687-27.152344 24.90625-32.441407 13.726562-5.292969 29.261718-2.464843 40.242187 7.324219s15.566407 24.894531 11.878907 39.136719l-32.679688 128.726562c-18.480469-8.488281-38.25-13.835937-58.488281-15.8125zm-141.269532 14.011718c-3.691406-14.242187.894532-29.355468 11.878907-39.144531 10.980469-9.792969 26.519531-12.617187 40.246093-7.320313 13.726563 5.292969 23.339844 17.824219 24.902344 32.453126l14.199219 126.925781c-20.234375 1.972656-39.996094 7.308593-58.476563 15.785156zm109.148438 427.75c-151.894531 0-235.058594-22.015625-238.933594-33.9375 0-.09375 4.328125-9.675781 51.199219-19.292968v10.5625c0 4.714843 3.820313 8.535156 8.535156 8.535156 4.710938 0 8.53125-3.820313 8.53125-8.535156v-81.066407c-1.054687-95.386719 75.285157-173.632812 170.667969-174.933593 95.382812 1.300781 171.722656 79.546874 170.667969 174.933593v81.066407c0 4.714843 3.820312 8.535156 8.53125 8.535156 4.714843 0 8.535156-3.820313 8.535156-8.535156v-10.5625c46.199219 9.472656 51.054687 18.894531 51.199219 18.894531-3.890625 12.320312-87.039063 34.335937-238.933594 34.335937zm0 0"/></svg>