<svg height="512pt" viewBox="0 0 512 512" width="512pt" xmlns="http://www.w3.org/2000/svg"><path d="m230.398438 340.53125c-.023438-2.105469-.3125-4.199219-.851563-6.230469l5.597656-3.746093c3.824219-2.65625 4.8125-7.886719 2.222657-11.753907-2.585938-3.871093-7.796876-4.949219-11.710938-2.429687l-5.582031 3.738281c-2.050781-1.539063-4.324219-2.753906-6.742188-3.609375v-10.105469c0-4.710937-3.820312-8.53125-8.53125-8.53125-4.714843 0-8.535156 3.820313-8.535156 8.53125v10.105469c-2.414063.855469-4.6875 2.074219-6.742187 3.609375l-5.578126-3.738281c-2.535156-1.757813-5.820312-2.015625-8.59375-.667969-2.773437 1.347656-4.605468 4.085937-4.792968 7.164063-.1875 3.078124 1.304687 6.015624 3.898437 7.6875l5.597657 3.746093c-2.554688 9.644531.730468 19.894531 8.414062 26.261719 7.683594 6.363281 18.367188 7.683594 27.367188 3.382812 9.003906-4.300781 14.6875-13.4375 14.5625-23.414062zm-34.132813 0c0-4.714844 3.820313-8.535156 8.535156-8.535156 4.710938 0 8.53125 3.820312 8.53125 8.535156 0 4.710938-3.820312 8.53125-8.53125 8.53125-4.714843 0-8.535156-3.820312-8.535156-8.53125zm0 0"/><path d="m298.667969 383.195312h-34.132813v-8.53125c4.710938 0 8.53125-3.820312 8.53125-8.535156 0-4.710937-3.820312-8.53125-8.53125-8.53125h-17.070312c-4.710938 0-8.53125 3.820313-8.53125 8.53125 0 4.714844 3.820312 8.535156 8.53125 8.535156v8.53125h-34.132813c-4.710937 0-8.53125 3.820313-8.53125 8.535157 0 28.277343 22.921875 51.199219 51.199219 51.199219s51.199219-22.921876 51.199219-51.199219c0-4.714844-3.820313-8.535157-8.53125-8.535157zm-42.667969 42.667969c-15.558594-.019531-29.144531-10.539062-33.058594-25.601562h66.117188c-3.914063 15.0625-17.5 25.582031-33.058594 25.601562zm0 0"/><path d="m170.667969 383.195312h-8.535157c-4.710937 0-8.53125 3.820313-8.53125 8.535157 0 4.710937 3.820313 8.53125 8.53125 8.53125h8.535157c4.710937 0 8.53125-3.820313 8.53125-8.53125 0-4.714844-3.820313-8.535157-8.53125-8.535157zm0 0"/><path d="m349.867188 383.195312h-8.535157c-4.710937 0-8.53125 3.820313-8.53125 8.535157 0 4.710937 3.820313 8.53125 8.53125 8.53125h8.535157c4.710937 0 8.53125-3.820313 8.53125-8.53125 0-4.714844-3.820313-8.535157-8.53125-8.535157zm0 0"/><path d="m443.734375 423.515625v-53.121094c-.054687-53.992187-22.496094-105.546875-61.980469-142.378906l14.191406-21.902344c6.65625 4.160157 14.339844 6.378907 22.1875 6.417969 23.554688-.03125 42.640626-19.117188 42.667969-42.667969v-128c-.035156-1.511719-.480469-2.988281-1.289062-4.265625-2.398438-12.8125-10.113281-24.011718-21.234375-30.816406-11.117188-6.8085938-24.597656-8.585938-37.101563-4.898438-14.96875 4.3125-27.5625 14.488282-34.917969 28.222657l-65.644531 120.753906-9.59375 4.796875c-2.785156-1.867188-6.066406-2.859375-9.417969-2.859375h-51.203124c-3.339844.003906-6.605469 1-9.386719 2.859375l-9.648438-4.832031-65.632812-120.738281c-7.363281-13.707032-19.953125-23.863282-34.90625-28.160157-12.503907-3.691406-25.988281-1.9140622-37.109375 4.894531-11.117188 6.804688-18.835938 18.003907-21.234375 30.820313-.800781 1.265625-1.246094 2.722656-1.28125 4.222656v128c.027343 23.550781 19.113281 42.636719 42.667969 42.667969 7.847656-.039062 15.53125-2.257812 22.1875-6.417969l14.179687 21.945313c-2.378906 2.203125-4.8125 4.335937-7.089844 6.675781-35.402343 36.257813-55.113281 84.988281-54.878906 135.660156v53.121094c-60.859375 12.007813-68.265625 26.488281-68.265625 36.480469 0 50.621094 245.546875 51.199218 256 51.199218s256-.578124 256-51.199218c0-9.992188-7.40625-24.472656-68.265625-36.480469zm-62.492187-385.246094c5.128906-9.660156 13.941406-16.84375 24.441406-19.914062 8.371094-2.566407 17.453125-1.234375 24.738281 3.621093 7.28125 4.855469 12.003906 12.726563 12.859375 21.4375.3125 1.800782.464844 3.621094.453125 5.445313v121.003906c0 14.136719-11.460937 25.597657-25.601563 25.597657-14.136718 0-25.597656-11.460938-25.597656-25.597657v-68.265625c0-4.714844-3.824218-8.535156-8.535156-8.535156s-8.535156 3.820312-8.535156 8.535156v68.265625c.011718 8.742188 2.722656 17.269531 7.765625 24.414063l-14.589844 22.628906c-8.578125-6.589844-17.714844-12.421875-27.308594-17.425781v-34.480469c.175781-10.394531-7.367187-19.308594-17.644531-20.855469zm-191.511719 123.058594c1.261719-.796875 2.851562-.863281 4.171875-.167969l6.828125 3.410156c.117187.078126.253906.128907.382812.199219l12.21875 6.144531v32.03125l-19.429687 9.722657c-1.320313.65625-2.886719.585937-4.140625-.1875-1.257813-.777344-2.023438-2.144531-2.027344-3.621094v-43.859375c-.046875-1.496094.71875-2.894531 1.996094-3.671875zm40.722656 42.667969v-34.089844h51.09375v34.089844zm68.214844-33.082032 19.429687-9.722656c1.320313-.65625 2.886719-.585937 4.140625.1875 1.257813.777344 2.023438 2.144532 2.027344 3.621094v43.859375c.03125 1.480469-.730469 2.867187-1.996094 3.636719-1.261719.792968-2.851562.859375-4.171875.171875l-19.429687-9.722657zm-169.898438 23.363282c5.042969-7.144532 7.753907-15.671875 7.765625-24.414063v-68.265625c0-4.714844-3.824218-8.535156-8.535156-8.535156s-8.535156 3.820312-8.535156 8.535156v68.265625c0 14.136719-11.460938 25.597657-25.597656 25.597657-14.140626 0-25.601563-11.460938-25.601563-25.597657v-121.003906c-.007813-1.929687.160156-3.859375.503906-5.757813.941407-8.648437 5.6875-16.425781 12.949219-21.210937s16.28125-6.082031 24.597656-3.535156c10.492188 3.066406 19.300782 10.242187 24.421875 19.898437l57.53125 105.890625c-10.253906 1.570313-17.773437 10.480469-17.601562 20.855469v34.515625c-9.574219 5.011719-18.695313 10.84375-27.257813 17.433594zm127.230469 299.851562c-151.894531 0-235.058594-22.015625-238.933594-33.9375 0-.09375 4.328125-9.675781 51.199219-19.292968v10.5625c0 4.714843 3.820313 8.535156 8.535156 8.535156 4.710938 0 8.53125-3.820313 8.53125-8.535156v-81.066407c-.210937-46.214843 17.765625-90.660156 50.050781-123.730469 11.058594-11.308593 23.632813-21.027343 37.367188-28.878906 3.371094 7.578125 10.894531 12.453125 19.191406 12.433594 3.328125-.003906 6.613282-.785156 9.589844-2.277344l19.449219-9.730468c2.789062 1.863281 6.066406 2.855468 9.417969 2.851562h51.203124c3.339844-.003906 6.605469-1 9.386719-2.859375l19.445313 9.730469c2.976562 1.492187 6.261718 2.269531 9.59375 2.277344 3.949218-.003907 7.820312-1.113282 11.175781-3.199219 3.546875-2.230469 6.347656-5.46875 8.039063-9.300781 54.21875 31.726562 87.507812 89.863281 87.425781 152.683593v81.066407c0 4.714843 3.820312 8.535156 8.53125 8.535156 4.714843 0 8.535156-3.820313 8.535156-8.535156v-10.5625c46.199219 9.472656 51.054687 18.894531 51.199219 18.894531-3.890625 12.320312-87.039063 34.335937-238.933594 34.335937zm0 0"/><path d="m166.167969 139.738281-5.332031-8.53125c-2.496094-4.007812-7.769532-5.230469-11.777344-2.730469-4.003906 2.496094-5.226563 7.769532-2.730469 11.777344l5.335937 8.53125c1.613282 2.589844 4.488282 4.125 7.542969 4.019532 3.050781-.101563 5.816407-1.828126 7.253907-4.523438 1.433593-2.691406 1.324218-5.949219-.292969-8.542969zm0 0"/><path d="m348.542969 151.5c1.921875 1.199219 4.238281 1.585938 6.441406 1.078125 2.207031-.507813 4.117187-1.875 5.320313-3.792969l5.332031-8.53125c2.496093-4.007812 1.273437-9.28125-2.730469-11.777344-4.007812-2.5-9.277344-1.277343-11.777344 2.730469l-5.332031 8.53125c-1.195313 1.925781-1.578125 4.246094-1.0625 6.449219.511719 2.207031 1.886719 4.117188 3.808594 5.3125zm0 0"/><path d="m331.945312 334.300781 5.597657-3.746093c3.824219-2.65625 4.8125-7.886719 2.226562-11.753907-2.589843-3.871093-7.800781-4.949219-11.714843-2.429687l-5.578126 3.738281c-2.054687-1.539063-4.324218-2.753906-6.742187-3.609375v-10.105469c0-4.710937-3.820313-8.53125-8.535156-8.53125-4.710938 0-8.53125 3.820313-8.53125 8.53125v10.105469c-2.417969.855469-4.691407 2.074219-6.742188 3.609375l-5.582031-3.738281c-2.53125-1.757813-5.816406-2.015625-8.59375-.667969-2.773438 1.347656-4.605469 4.085937-4.792969 7.164063-.183593 3.078124 1.304688 6.015624 3.898438 7.6875l5.597656 3.746093c-2.75 10.386719 1.277344 21.382813 10.082031 27.539063 8.808594 6.152344 20.519532 6.152344 29.328125 0 8.808594-6.15625 12.835938-17.152344 10.082031-27.539063zm-24.746093 14.761719c-4.710938 0-8.53125-3.820312-8.53125-8.53125 0-4.714844 3.820312-8.535156 8.53125-8.535156 4.714843 0 8.535156 3.820312 8.535156 8.535156 0 4.710938-3.820313 8.53125-8.535156 8.53125zm0 0"/></svg>