<svg height="512pt" viewBox="0 -1 512 512" width="512pt" xmlns="http://www.w3.org/2000/svg"><path d="m145.066406 340.09375c-.035156 12.507812 8.996094 23.199219 21.332032 25.257812 12.339843 2.054688 24.351562-5.128906 28.375-16.972656.488281.125.988281.207032 1.492187.246094 3.625.003906 6.855469-2.285156 8.058594-5.707031 1.199219-3.421875.105469-7.226563-2.722657-9.492188l-42.667968-34.132812c-3.679688-2.945313-9.050782-2.347657-12 1.332031-2.945313 3.679688-2.347656 9.050781 1.332031 12l7.953125 6.363281c-6.96875 4.765625-11.140625 12.660157-11.152344 21.105469zm33.375-3.328125c.492188 1.039063.753906 2.175781.757813 3.328125 0 4.710938-3.820313 8.53125-8.53125 8.53125-4.714844 0-8.535157-3.820312-8.535157-8.53125 0-4.714844 3.820313-8.535156 8.535157-8.535156.554687.039062 1.105469.136718 1.636719.296875zm0 0"/><path d="m145.066406 382.757812h-8.53125c-4.714844 0-8.535156 3.820313-8.535156 8.535157 0 4.710937 3.820312 8.53125 8.535156 8.53125h8.53125c4.714844 0 8.535156-3.820313 8.535156-8.53125 0-4.714844-3.820312-8.535157-8.535156-8.535157zm0 0"/><path d="m307.199219 382.757812h-8.53125c-4.714844 0-8.535157 3.820313-8.535157 8.535157 0 4.710937 3.820313 8.53125 8.535157 8.53125h8.53125c4.714843 0 8.535156-3.820313 8.535156-8.53125 0-4.714844-3.820313-8.535157-8.535156-8.535157zm0 0"/><path d="m247.464844 348.625c.503906-.039062 1.003906-.121094 1.496094-.246094 3.605468 10.503906 13.585937 17.472656 24.6875 17.242188 11.101562-.234375 20.785156-7.613282 23.949218-18.257813 3.164063-10.644531-.910156-22.113281-10.085937-28.375l7.953125-6.363281c3.683594-2.949219 4.277344-8.320312 1.332031-12s-8.316406-4.277344-11.996094-1.332031l-42.667969 34.132812c-2.832031 2.265625-3.921874 6.070313-2.722656 9.492188 1.199219 3.421875 4.429688 5.710937 8.054688 5.707031zm34.136718-8.53125c0 4.710938-3.820312 8.53125-8.535156 8.53125-4.710937 0-8.53125-3.820312-8.53125-8.53125.003906-1.152344.261719-2.289062.757813-3.328125l6.195312-4.960937c2.488281-.542969 5.09375.078124 7.0625 1.695312 1.972657 1.613281 3.09375 4.042969 3.050781 6.59375zm0 0"/><path d="m256 416.890625h-34.132812v-25.597656h8.53125c4.714843 0 8.535156-3.820313 8.535156-8.535157 0-4.710937-3.820313-8.53125-8.535156-8.53125h-34.132813c-4.710937 0-8.53125 3.820313-8.53125 8.53125 0 4.714844 3.820313 8.535157 8.53125 8.535157h8.535156v25.597656h-17.066406c-14.140625 0-25.601563 11.464844-25.601563 25.601563v8.53125c0 4.714843 3.820313 8.535156 8.535157 8.535156 4.710937 0 8.53125-3.820313 8.53125-8.535156v-8.53125c0-4.714844 3.820312-8.535157 8.535156-8.535157h68.265625c4.710938 0 8.535156 3.820313 8.535156 8.535157v8.53125c0 4.714843 3.820313 8.535156 8.53125 8.535156 4.714844 0 8.535156-3.820313 8.535156-8.535156v-8.53125c0-14.136719-11.464843-25.601563-25.601562-25.601563zm0 0"/><path d="m511.308594 285.53125c-1.855469-4.332031-6.871094-6.335938-11.203125-4.480469l-34.699219 14.871094 28.230469-45.175781c1.617187-2.589844 1.726562-5.847656.289062-8.539063-1.4375-2.695312-4.199219-4.421875-7.253906-4.523437-3.050781-.105469-5.925781 1.429687-7.542969 4.019531l-26.863281 43.042969v-38.519532c0-4.714843-3.820313-8.535156-8.53125-8.535156-4.714844 0-8.535156 3.820313-8.535156 8.535156v61.148438c-.65625-.144531-1.304688-.230469-1.953125-.351562-14.671875-44.054688-44.972656-81.210938-85.179688-104.445313l33.621094-132.421875c3.90625-15.082031 1.320312-31.113281-7.132812-44.203125-12.863282-20.085937-36.980469-29.890625-60.210938-24.480469-23.226562 5.414063-40.527344 24.871094-43.1875 48.570313l-14.25 127.914062c-.308594 0-.597656 0-.90625 0s-.5625 0-.851562 0l-14.3125-128c-2.691407-23.679687-20.003907-43.105469-43.222657-48.496093-23.21875-5.390626-47.3125 4.421874-60.167969 24.492187-8.453124 13.089844-11.039062 29.121094-7.132812 44.203125l33.714844 132.550781c-14.996094 8.601563-28.742188 19.226563-40.847656 31.570313-35.417969 36.257812-55.144532 84.996094-54.914063 135.679687v53.121094c-60.859375 12.007813-68.265625 26.488281-68.265625 36.480469 0 50.621094 245.546875 51.199218 256 51.199218s256-.578124 256-51.199218c0-14.207032-17.664062-25.011719-55.304688-33.722656l17.332032-47.242188c7.96875-21.726562 1.167968-46.117188-16.898438-60.585938l49.699219-21.332031c4.296875-1.859375 6.296875-6.832031 4.480469-11.144531zm-223.1875-233.601562c1.566406-14.628907 11.179687-27.152344 24.90625-32.441407 13.726562-5.292969 29.261718-2.464843 40.242187 7.324219s15.566407 24.894531 11.878907 39.136719l-32.65625 128.605469c-18.507813-8.410157-38.285157-13.695313-58.519532-15.640626zm-141.269532 14.011718c-3.691406-14.242187.894532-29.355468 11.878907-39.144531 10.980469-9.792969 26.519531-12.617187 40.246093-7.320313 13.726563 5.292969 23.339844 17.824219 24.902344 32.453126l14.199219 126.925781c-20.234375 1.984375-39.996094 7.328125-58.46875 15.820312zm312.855469 299.84375-10.929687-2.558594c-4.539063-.984374-9.03125 1.839844-10.109375 6.359376-1.078125 4.515624 1.652343 9.066406 6.148437 10.238281l9.738282 2.320312-8.882813 24.167969-15.089844-3.59375c-3.011719-.839844-6.246093.039062-8.421875 2.289062-2.175781 2.25-2.945312 5.507813-2.003906 8.496094.941406 2.984375 3.4375 5.214844 6.511719 5.8125l13.121093 3.128906-9.386718 25.601563c-.773438 2.132813-.671875 4.484375.289062 6.539063.960938 2.050781 2.699219 3.640624 4.832032 4.410156.90625.347656 1.863281.539062 2.832031.5625 3.582031 0 6.78125-2.230469 8.015625-5.589844l4.394531-11.988281c39.652344 8.941406 44.023437 17.375 44.183594 17.375-3.914063 12.320312-87.054688 34.335937-238.949219 34.335937s-235.058594-22.015625-238.933594-33.9375c0-.09375 4.328125-9.675781 51.199219-19.292968v10.5625c0 4.714843 3.820313 8.535156 8.535156 8.535156 4.710938 0 8.53125-3.820313 8.53125-8.535156v-81.066407c-.210937-46.214843 17.765625-90.660156 50.050781-123.730469 31.585938-32.734374 75.128907-51.214843 120.617188-51.203124 71.152344.261718 134.613281 44.808593 159.042969 111.636718-24 3.730469-42.589844 22.96875-45.488281 47.085938l-11.09375 94.207031c-.410157 3.054687.855468 6.09375 3.316406 7.949219 2.460937 1.855468 5.730468 2.238281 8.554687 1.007812 2.824219-1.234375 4.765625-3.894531 5.074219-6.960937l4.90625-41.691407 13.109375 3.113282c2.988281.777344 6.167969-.121094 8.308594-2.351563 2.136719-2.230469 2.902343-5.441406 2-8.398437-.902344-2.957032-3.332031-5.191406-6.351563-5.847656l-15.050781-3.582032 3.011719-25.601562 26.273437 6.273437c.652344.148438 1.320313.226563 1.988281.230469 4.332032 0 7.972657-3.242188 8.476563-7.542969s-2.292969-8.296875-6.503906-9.296875l-27.53125-6.558594c5.085937-16.316406 20.808593-26.921874 37.839843-25.523437h.433594c1.839844.152344 3.664063.4375 5.460938.851563 18.8125 4.425781 31.003906 22.632812 27.929687 41.710937zm0 0"/></svg>