<svg height="512pt" viewBox="0 -1 512 512" width="512pt" xmlns="http://www.w3.org/2000/svg"><path d="m455.824219 425.636719c9.6875-24.613281 4.679687-52.585938-12.945313-72.3125-5.132812-62.632813-40.578125-118.792969-94.90625-150.382813l33.714844-132.785156c3.90625-15.085938 1.320312-31.113281-7.132812-44.203125-12.863282-20.085937-36.980469-29.890625-60.210938-24.480469-23.226562 5.410156-40.527344 24.867188-43.1875 48.570313l-14.25 128c-.308594 0-.597656 0-.90625 0s-.5625 0-.851562 0l-14.3125-128c-2.664063-23.695313-19.964844-43.148438-43.1875-48.558594-23.222657-5.410156-47.339844 4.390625-60.203126 24.46875-8.453124 13.089844-11.039062 29.117187-7.132812 44.203125l33.714844 132.546875c-15 8.609375-28.746094 19.230469-40.855469 31.574219-31.308594 32.199218-50.421875 74.300781-54.050781 119.066406-17.628906 19.714844-22.644532 47.679688-12.964844 72.292969-50.046875 11.511719-56.15625 24.738281-56.15625 33.921875 0 50.617187 245.546875 51.199218 256 51.199218s256-.582031 256-51.199218c0-9.183594-6.109375-22.410156-56.175781-33.921875zm-26.597657 9.949219c-20.710937 19.863281-53.589843 19.21875-73.507812-1.441407-11.644531-11.648437-21.707031-48.136719-26.902344-97.613281-.070312-.375.046875-.761719.304688-1.039062.230468-.21875.539062-.335938.855468-.324219h.195313c49.492187 5.203125 85.972656 15.265625 97.613281 26.90625 20.664063 19.914062 21.308594 52.800781 1.441406 73.511719zm-173.125-18.695313h-.203124c-3.019532.070313-6.035157.300781-9.027344.691406-7.097656.867188-14.121094 2.261719-21.011719 4.171875-11.046875 3.503906-21.679687 8.199219-31.71875 13.996094-8.859375 5.121094-18.238281 9.292969-27.980469 12.441406.726563-.667968 1.484375-1.273437 2.183594-1.972656 13.722656-13.730469 22.058594-44.722656 27.011719-73.054688 9.679687 5.535157 19.921875 10.019532 30.554687 13.382813 6.871094 1.875 13.863282 3.269531 20.925782 4.171875 3.039062.410156 6.097656.628906 9.164062.65625 3.078125-.027344 6.148438-.25 9.199219-.65625 7.074219-.910156 14.078125-2.308594 20.957031-4.191406 10.609375-3.359375 20.828125-7.839844 30.488281-13.363282 4.953125 28.332032 13.289063 59.324219 27.011719 73.054688.699219.699219 1.457031 1.304688 2.183594 1.972656-9.742188-3.148437-19.121094-7.320312-27.980469-12.441406-10.039063-5.800781-20.675781-10.492188-31.726563-13.996094-6.894531-1.910156-13.917968-3.308594-21.019531-4.179687-2.988281-.386719-5.996093-.613281-9.011719-.683594zm8.433594-80.324219c-2.257812 2.269532-5.332031 3.539063-8.535156 3.523438-3.203125.015625-6.277344-1.253906-8.535156-3.523438l-13.53125-13.542968h44.132812zm23.585938-284.636718c1.566406-14.628907 11.179687-27.152344 24.90625-32.445313 13.726562-5.292969 29.261718-2.464844 40.242187 7.324219 10.980469 9.789062 15.566407 24.898437 11.878907 39.140625l-32.742188 128.9375c-18.445312-8.5625-38.195312-13.980469-58.425781-16.035157zm-141.269532 14.011718c-3.691406-14.246094.894532-29.355468 11.878907-39.148437 10.980469-9.789063 26.519531-12.617188 40.246093-7.320313 13.726563 5.296875 23.339844 17.824219 24.902344 32.457032l14.199219 126.921874c-20.234375 1.988282-39.992187 7.332032-58.46875 15.824219zm-11.46875 180.28125c31.585938-32.730468 75.128907-51.214844 120.617188-51.199218 83.59375 1.003906 154.40625 61.871093 167.953125 144.367187-25.601563-12.476563-66.609375-18.507813-92.007813-21.179687-5.496093-.613282-10.976562 1.304687-14.890624 5.214843-3.914063 3.914063-5.832032 9.390625-5.222657 14.890625.539063 5.121094 1.230469 10.90625 2.066407 17.066406-1.339844.707032-2.695313 1.390626-4.035157 2.105469-8.972656 5.199219-18.464843 9.4375-28.324219 12.648438-5.585937 1.503906-11.269531 2.644531-17.003906 3.414062v-17.800781c4.542969-1.347656 8.683594-3.796875 12.054688-7.125l13.542968-13.535156c4.878907-4.878906 6.339844-12.21875 3.699219-18.597656-2.640625-6.375-8.863281-10.535157-15.765625-10.535157h-44.132812c-6.902344 0-13.125 4.160157-15.765625 10.535157-2.640625 6.378906-1.179688 13.71875 3.699219 18.597656l13.542968 13.535156c3.371094 3.328125 7.511719 5.777344 12.054688 7.125v17.78125c-5.710938-.765625-11.371094-1.90625-16.9375-3.410156-9.882813-3.214844-19.398438-7.457032-28.390625-12.664063-1.339844-.71875-2.695313-1.402343-4.035157-2.109375.851563-6.125 1.527344-11.945312 2.066407-17.066406.601562-5.492188-1.328125-10.960938-5.238281-14.863281-3.910157-3.90625-9.382813-5.820313-14.875-5.207031-25.386719 2.671874-66.375 8.703124-91.980469 21.171874 5.976562-35.125 22.472656-67.609374 47.308593-93.160156zm-51.203124 115.867188c11.640624-11.640625 48.136718-21.699219 97.613281-26.90625.375-.035156.75.078125 1.042969.316406.261718.277344.375.664062.304687 1.039062-5.195313 49.496094-15.253906 85.964844-26.902344 97.613282-19.917969 20.660156-52.796875 21.304687-73.507812 1.441406-19.855469-20.722656-19.1875-53.609375 1.492187-73.511719zm171.820312 131.601562c-151.894531 0-235.058594-22.015625-238.933594-33.921875 0-.09375 4.214844-9.199219 48.042969-18.609375 1 1.296875 2.074219 2.558594 3.183594 3.789063v6.074219c0 3.4375 2.0625 6.535156 5.226562 7.867187 3.167969 1.328125 6.824219.632813 9.28125-1.773437 10.652344 6.566406 22.929688 10.035156 35.445313 10.019531 2.582031-.019531 5.164062-.175781 7.730468-.472657.25.0625.4375.214844.691407.257813 5.363281.855469 10.785156 1.273437 16.214843 1.253906 5.773438-.015625 11.542969-.425781 17.261719-1.230469 14.894531-2.789062 29.15625-8.253906 42.105469-16.125 8.933594-5.199218 18.398438-9.421874 28.234375-12.597656 6.054687-1.679687 12.222656-2.90625 18.457031-3.667968 2.339844-.324219 4.699219-.523438 7.058594-.597657 2.351562.0625 4.699219.242188 7.03125.546875 6.242188.765625 12.421875 1.996094 18.484375 3.675782 9.867187 3.179687 19.363281 7.414062 28.320313 12.632812 12.949218 7.871094 27.210937 13.332031 42.105468 16.125 5.71875.804688 11.484375 1.214844 17.261719 1.230469 5.429687.019531 10.851563-.402344 16.214844-1.253907.253906-.042968.441406-.199218.691406-.257812 2.566406.296875 5.144531.453125 7.730469.46875 12.496094.007812 24.746094-3.460938 35.386718-10.015625 2.453126 2.402344 6.105469 3.101563 9.273438 1.773437 3.167969-1.328124 5.230469-4.425781 5.234375-7.859374v-6.074219c1.109375-1.238281 2.183594-2.492188 3.183594-3.789063 43.082031 9.242188 47.863281 18.191406 48.03125 18.191406-3.914063 12.332032-87.054688 34.339844-238.949219 34.339844zm0 0"/><path d="m153.140625 290.914062c1.203125-.410156 29.8125-9.78125 44.371094 14.15625 2.46875 3.96875 7.671875 5.210938 11.671875 2.789063 3.996094-2.425781 5.296875-7.613281 2.921875-11.636719-17.253907-28.425781-49.699219-26.457031-64.4375-21.472656-2.921875.953125-5.105469 3.402344-5.71875 6.414062-.613281 3.011719.4375 6.121094 2.757812 8.136719 2.316407 2.019531 5.542969 2.632813 8.441407 1.613281zm0 0"/><path d="m302.769531 307.9375c1.9375 1.175781 4.257813 1.53125 6.457031.996094 2.199219-.539063 4.09375-1.929688 5.269532-3.863282 14.371094-23.664062 43.023437-14.601562 44.375-14.148437 4.464844 1.507813 9.304687-.890625 10.8125-5.355469 1.511718-4.464844-.886719-9.308594-5.351563-10.816406-14.746093-4.992188-47.183593-6.953125-64.4375 21.472656-2.4375 4.027344-1.152343 9.273438 2.875 11.714844zm0 0"/><path d="m86.367188 236.964844c2.53125 0 4.933593-1.121094 6.554687-3.066406 1.621094-1.945313 2.296875-4.511719 1.839844-7.003907-1.773438-9.667969-6.714844-32.988281-14.421875-40.695312-10.132813-9.660157-26.070313-9.660157-36.207032 0-4.800781 4.800781-7.496093 11.3125-7.496093 18.105469 0 6.789062 2.695312 13.300781 7.496093 18.101562 7.679688 7.679688 31.027344 12.65625 40.695313 14.421875.507813.097656 1.023437.140625 1.539063.136719zm-30.167969-26.632813c-3.328125-3.332031-3.328125-8.734375 0-12.066406 3.371093-3.234375 8.695312-3.234375 12.066406 0 3.296875 5.910156 5.632813 12.304687 6.921875 18.945313-6.65625-1.265626-13.066406-3.589844-18.988281-6.878907zm0 0"/><path d="m68.042969 251.34375c-9.546875-2.339844-32.84375-7.355469-43.039063-3.414062-12.636718 5.414062-18.742187 19.835937-13.835937 32.675781 4.910156 12.839843 19.082031 19.507812 32.105469 15.113281 10.238281-3.894531 24.226562-23.167969 29.789062-31.277344 1.578125-2.308594 1.921875-5.25.921875-7.863281-1.003906-2.613281-3.222656-4.566406-5.941406-5.234375zm-30.871094 28.457031c-4.40625 1.683594-9.34375-.523437-11.027344-4.929687-1.679687-4.40625.527344-9.34375 4.933594-11.027344 1.191406-.300781 2.417969-.429688 3.644531-.375 5.546875.1875 11.074219.789062 16.527344 1.808594-3.890625 5.558594-8.644531 10.460937-14.078125 14.523437zm0 0"/><path d="m426.667969 236.964844c.515625.003906 1.027343-.046875 1.535156-.144532 9.667969-1.765624 32.980469-6.707031 40.703125-14.421874 6.554688-6.449219 9.144531-15.917969 6.789062-24.808594-2.355468-8.886719-9.300781-15.828125-18.1875-18.183594-8.890624-2.355469-18.359374.238281-24.808593 6.792969-7.679688 7.679687-12.65625 31.027343-14.429688 40.695312-.457031 2.492188.21875 5.058594 1.839844 7.003907 1.621094 1.945312 4.023437 3.066406 6.558594 3.066406zm18.097656-38.699219c2.140625-2.21875 5.3125-3.109375 8.296875-2.332031s5.316406 3.105468 6.097656 6.089844c.785156 2.984374-.101562 6.15625-2.320312 8.300781-5.917969 3.304687-12.328125 5.640625-18.984375 6.921875 1.285156-6.652344 3.617187-13.058594 6.910156-18.980469zm0 0"/><path d="m469.761719 295.71875c13.019531 4.394531 27.191406-2.273438 32.101562-15.113281 4.90625-12.839844-1.199219-27.261719-13.832031-32.675781-10.242188-3.882813-33.503906 1.109374-43.042969 3.414062-2.722656.667969-4.945312 2.625-5.945312 5.246094-1 2.617187-.648438 5.558594.9375 7.871094 5.554687 8.105468 19.582031 27.382812 29.78125 31.257812zm12.183593-31.890625c2.851563 1.085937 4.90625 3.613281 5.390626 6.625.480468 3.011719-.675782 6.050781-3.042969 7.976563-2.367188 1.925781-5.582031 2.441406-8.429688 1.355468-5.433593-4.058594-10.183593-8.957031-14.074219-14.507812 6.601563-1.546875 13.40625-2.03125 20.15625-1.433594zm0 0"/></svg>