<svg height="512pt" viewBox="0 -1 512 512" width="512pt" xmlns="http://www.w3.org/2000/svg"><path d="m170.667969 374.226562h-8.535157c-4.710937 0-8.53125 3.820313-8.53125 8.53125 0 4.714844 3.820313 8.535157 8.53125 8.535157h8.535157c4.710937 0 8.53125-3.820313 8.53125-8.535157 0-4.710937-3.820313-8.53125-8.53125-8.53125zm0 0"/><path d="m349.867188 374.226562h-8.535157c-4.710937 0-8.53125 3.820313-8.53125 8.53125 0 4.714844 3.820313 8.535157 8.53125 8.535157h8.535157c4.710937 0 8.53125-3.820313 8.53125-8.535157 0-4.710937-3.820313-8.53125-8.53125-8.53125zm0 0"/><path d="m443.734375 423.078125v-53.121094c.234375-68.832031-36.238281-132.574219-95.703125-167.25l33.65625-132.550781c3.90625-15.082031 1.320312-31.113281-7.132812-44.203125-12.863282-20.085937-36.980469-29.890625-60.210938-24.480469-23.226562 5.414063-40.527344 24.871094-43.1875 48.570313l-14.25 127.914062c-.300781 0-.597656 0-.90625 0s-.5625 0-.851562 0l-14.304688-127.921875c-2.660156-23.699218-19.964844-43.152344-43.191406-48.5625-23.230469-5.410156-47.34375 4.394532-60.207032 24.480469-8.453124 13.089844-11.039062 29.121094-7.132812 44.203125l33.714844 132.550781c-59.484375 34.660157-95.984375 98.402344-95.761719 167.25v53.121094c-60.859375 12.007813-68.265625 26.488281-68.265625 36.480469 0 50.621094 245.546875 51.199218 256 51.199218s256-.578124 256-51.199218c0-9.992188-7.40625-24.472656-68.265625-36.480469zm-155.613281-371.148437c1.566406-14.628907 11.179687-27.152344 24.90625-32.441407 13.726562-5.292969 29.261718-2.464843 40.242187 7.324219s15.566407 24.894531 11.878907 39.136719l-32.679688 128.726562c-18.480469-8.488281-38.25-13.835937-58.488281-15.8125zm-141.269532 14.011718c-3.691406-14.242187.894532-29.355468 11.878907-39.144531 10.980469-9.792969 26.519531-12.617187 40.246093-7.320313 13.726563 5.292969 23.339844 17.824219 24.902344 32.453126l14.199219 126.925781c-20.234375 1.972656-39.996094 7.308593-58.476563 15.785156zm109.148438 427.75c-151.894531 0-235.058594-22.015625-238.933594-33.9375 0-.09375 4.328125-9.675781 51.199219-19.292968v10.5625c0 4.714843 3.820313 8.535156 8.535156 8.535156 4.710938 0 8.53125-3.820313 8.53125-8.535156v-81.066407c-1.054687-95.386719 75.285157-173.632812 170.667969-174.933593 95.382812 1.300781 171.722656 79.546874 170.667969 174.933593v81.066407c0 4.714843 3.820312 8.535156 8.53125 8.535156 4.714843 0 8.535156-3.820313 8.535156-8.535156v-10.5625c46.199219 9.472656 51.054687 18.894531 51.199219 18.894531-3.890625 12.320312-87.039063 34.335937-238.933594 34.335937zm0 0"/><path d="m230.398438 348.625c-.035157-4.082031-2.996094-7.550781-7.019532-8.226562l5.972656-5.914063c.152344-.152344.441407-.476563.671876-.757813 5.757812-5.828124 8.949218-13.710937 8.875-21.902343-.074219-8.191407-3.414063-16.015625-9.273438-21.738281-9.988281-9.375-24.800781-11.445313-36.976562-5.160157-12.351563-7.144531-27.929688-5.308593-38.289063 4.503907-5.929687 5.738281-9.285156 13.632812-9.300781 21.886718s3.308594 16.160156 9.214844 21.921875l7.132812 6.988281c-4.625.261719-8.1875 4.195313-7.988281 8.824219.199219 4.632813 4.082031 8.242188 8.714843 8.109375h59.734376c4.710937 0 8.53125-3.820312 8.53125-8.535156zm-64-47.113281c5.597656-5.222657 14.28125-5.222657 19.875 0 3.160156 3.160156 8.222656 3.34375 11.605468.425781 5.761719-4.886719 14.261719-4.726562 19.832032.378906 2.640624 2.582032 4.132812 6.117188 4.132812 9.8125 0 3.691406-1.492188 7.230469-4.132812 9.8125-.136719.136719-.390626.425782-.621094.699219l-17.742188 17.453125h-13.652344l-19.378906-19.003906c-2.664062-2.53125-4.175781-6.039063-4.183594-9.710938.015626-3.734375 1.554688-7.300781 4.265626-9.867187zm0 0"/><path d="m358.058594 333.726562c5.753906-5.828124 8.949218-13.710937 8.875-21.902343-.074219-8.191407-3.414063-16.015625-9.277344-21.738281-9.988281-9.375-24.796875-11.445313-36.972656-5.160157-12.355469-7.144531-27.933594-5.308593-38.289063 4.503907-5.929687 5.738281-9.285156 13.632812-9.304687 21.886718-.015625 8.253906 3.308594 16.160156 9.21875 21.921875l7.132812 6.988281c-4.609375.277344-8.148437 4.191407-7.960937 8.804688.1875 4.617188 4.035156 8.230469 8.652343 8.128906h59.734376c4.710937 0 8.53125-3.820312 8.53125-8.535156-.035157-4.082031-2.996094-7.550781-7.019532-8.226562l5.972656-5.914063c.195313-.152344.476563-.476563.707032-.757813zm-63.660156-32.214843c5.597656-5.222657 14.28125-5.222657 19.875 0 3.160156 3.160156 8.222656 3.34375 11.605468.425781 5.761719-4.886719 14.261719-4.726562 19.832032.378906 2.640624 2.582032 4.132812 6.117188 4.132812 9.8125 0 3.691406-1.492188 7.230469-4.132812 9.8125-.136719.136719-.390626.425782-.621094.699219l-17.742188 17.453125h-13.652344l-19.378906-19.003906c-2.664062-2.53125-4.175781-6.039063-4.183594-9.710938.015626-3.734375 1.554688-7.300781 4.265626-9.867187zm0 0"/><path d="m298.667969 378.492188c-4.714844 0-8.535157 3.820312-8.535157 8.53125 0 7.070312-5.730468 12.800781-12.800781 12.800781-7.066406 0-12.796875-5.730469-12.796875-12.800781v-21.332032c4.710938 0 8.53125-3.820312 8.53125-8.53125 0-4.714844-3.820312-8.535156-8.53125-8.535156h-17.070312c-4.710938 0-8.53125 3.820312-8.53125 8.535156 0 4.710938 3.820312 8.53125 8.53125 8.53125v21.332032c0 7.070312-5.730469 12.800781-12.796875 12.800781-7.070313 0-12.800781-5.730469-12.800781-12.800781 0-4.710938-3.820313-8.53125-8.535157-8.53125-4.710937 0-8.53125 3.820312-8.53125 8.53125.046875.953124.144531 1.902343.289063 2.84375-.140625.464843-.234375.941406-.289063 1.425781v17.066406c0 28.277344 22.921875 51.199219 51.199219 51.199219s51.199219-22.921875 51.199219-51.199219v-17.066406c-.054688-.484375-.148438-.960938-.289063-1.425781.144532-.941407.242188-1.890626.289063-2.84375 0-4.710938-3.820313-8.53125-8.53125-8.53125zm-42.667969 64c-16.558594-.039063-30.699219-11.957032-33.542969-28.269532 11.398438 5.203125 24.839844 2.65625 33.542969-6.359375 8.703125 9.015625 22.144531 11.5625 33.542969 6.359375-2.84375 16.3125-16.984375 28.230469-33.542969 28.269532zm0 0"/></svg>