<svg height="512pt" viewBox="0 0 512 511" width="512pt" xmlns="http://www.w3.org/2000/svg"><path d="m170.667969 375.167969h-8.535157c-4.710937 0-8.53125 3.820312-8.53125 8.535156 0 4.710937 3.820313 8.53125 8.53125 8.53125h8.535157c4.710937 0 8.53125-3.820313 8.53125-8.53125 0-4.714844-3.820313-8.535156-8.53125-8.535156zm0 0"/><path d="m349.867188 375.167969h-8.535157c-4.710937 0-8.53125 3.820312-8.53125 8.535156 0 4.710937 3.820313 8.53125 8.53125 8.53125h8.535157c4.710937 0 8.53125-3.820313 8.53125-8.53125 0-4.714844-3.820313-8.535156-8.53125-8.535156zm0 0"/><path d="m443.734375 424.023438v-53.121094c-.054687-53.996094-22.496094-105.554688-61.980469-142.386719l14.191406-21.90625c6.65625 4.164063 14.339844 6.386719 22.1875 6.425781 23.554688-.027344 42.640626-19.113281 42.667969-42.667968v-128c-.035156-1.511719-.484375-2.988282-1.296875-4.265626-2.386718-12.820312-10.101562-24.023437-21.222656-30.832031-11.121094-6.808593-24.609375-8.578125-37.113281-4.871093-14.964844 4.308593-27.554688 14.480468-34.910157 28.210937l-65.570312 120.753906-9.699219 4.839844c-2.773437-1.875-6.039062-2.886719-9.386719-2.902344h-51.203124c-3.34375.023438-6.605469 1.023438-9.386719 2.886719l-9.710938-4.855469-65.570312-120.738281c-7.359375-13.710938-19.945313-23.863281-34.898438-28.160156-12.5-3.695313-25.980469-1.925782-37.101562 4.871094-11.117188 6.800781-18.839844 17.988281-21.25 30.796874-.804688 1.28125-1.25 2.753907-1.28125 4.265626v128c.027343 23.554687 19.113281 42.640624 42.667969 42.667968 7.863281-.03125 15.5625-2.253906 22.230468-6.425781l14.171875 21.957031c-2.378906 2.203125-4.8125 4.324219-7.082031 6.664063-35.425781 36.25-55.152344 84.988281-54.921875 135.671875v53.121094c-60.859375 12.003906-68.265625 26.484374-68.265625 36.480468 0 50.617188 245.546875 51.199219 256 51.199219s256-.582031 256-51.199219c0-9.996094-7.40625-24.476562-68.265625-36.480468zm-62.480469-385.246094c5.125-9.664063 13.933594-16.84375 24.429688-19.917969 8.375-2.5625 17.460937-1.230469 24.75 3.632813 7.285156 4.867187 12 12.746093 12.847656 21.464843.316406 1.785157.46875 3.59375.453125 5.410157v121c0 14.140624-11.460937 25.601562-25.601563 25.601562-14.136718 0-25.597656-11.460938-25.597656-25.601562v-68.265626c0-4.710937-3.824218-8.53125-8.535156-8.53125s-8.535156 3.820313-8.535156 8.53125v68.265626c.011718 8.746093 2.726562 17.273437 7.777344 24.414062l-14.601563 22.648438c-8.578125-6.601563-17.714844-12.4375-27.308594-17.441407v-34.484375c.167969-10.359375-7.328125-19.257812-17.570312-20.855468zm-191.523437 123.058594c1.261719-.792969 2.851562-.859376 4.171875-.171876l6.828125 3.414063c.128906.078125.253906.128906.382812.195313l12.21875 6.144531v32.035156l-19.429687 9.71875c-1.320313.65625-2.886719.585937-4.140625-.1875-1.257813-.773437-2.023438-2.144531-2.027344-3.617187v-43.863282c-.046875-1.492187.714844-2.898437 1.996094-3.667968zm40.730469 42.667968v-34.136718l51.140624.28125v33.742187l-.042968.050781v.0625zm68.207031-33.078125 11.988281-5.972656c.339844-.175781.671875-.367187.988281-.578125l6.453125-3.191406c1.320313-.691406 2.910156-.625 4.171875.167968 1.277344.769532 2.039063 2.164063 1.996094 3.652344v43.863282c.035156 1.480468-.726563 2.867187-1.996094 3.632812-1.261719.800781-2.851562.867188-4.171875.171875l-19.429687-9.71875zm-169.910157 23.355469c5.050782-7.140625 7.765626-15.667969 7.777344-24.414062v-68.265626c0-4.710937-3.824218-8.53125-8.535156-8.53125s-8.535156 3.820313-8.535156 8.53125v68.265626c0 14.140624-11.460938 25.601562-25.597656 25.601562-14.140626 0-25.601563-11.460938-25.601563-25.601562v-121c-.007813-1.9375.164063-3.867188.511719-5.769532.933594-8.648437 5.679687-16.429687 12.945312-21.21875 7.265625-4.785156 16.285156-6.082031 24.601563-3.527344 10.492187 3.070313 19.296875 10.246094 24.421875 19.898438l57.535156 105.890625c-2.65625.410156-5.203125 1.332031-7.511719 2.707031-6.308593 3.871094-10.140625 10.753906-10.101562 18.15625v34.519532c-9.578125 5.007812-18.699219 10.84375-27.265625 17.433593zm127.242188 299.855469c-151.894531 0-235.058594-22.015625-238.933594-33.9375 0-.09375 4.328125-9.675781 51.199219-19.292969v10.5625c0 4.710938 3.820313 8.535156 8.535156 8.535156 4.710938 0 8.53125-3.824218 8.53125-8.535156v-81.066406c-.214843-46.21875 17.765625-90.664063 50.058594-123.734375 11.058594-11.304688 23.632813-21.019531 37.359375-28.875 1.691406 3.804687 4.480469 7.019531 8.011719 9.230469 3.355469 2.089843 7.226562 3.195312 11.179687 3.203124 3.328125-.007812 6.613282-.789062 9.589844-2.28125l19.535156-9.761718c2.757813 1.863281 6.003906 2.867187 9.332032 2.886718h51.203124c3.34375-.023437 6.605469-1.027343 9.386719-2.886718l19.503907 9.753906c2.980468 1.492188 6.261718 2.273438 9.59375 2.277344 3.949218-.003906 7.824218-1.113282 11.179687-3.199219 3.546875-2.226563 6.34375-5.46875 8.035156-9.300781 54.191407 31.75 87.449219 89.882812 87.367188 152.6875v81.066406c0 4.710938 3.820312 8.535156 8.53125 8.535156 4.714843 0 8.535156-3.824218 8.535156-8.535156v-10.5625c46.199219 9.46875 51.054687 18.890625 51.199219 18.890625-3.890625 12.324219-87.039063 34.339844-238.933594 34.339844zm0 0"/><path d="m230.398438 349.570312c-.027344-4.089843-2.996094-7.5625-7.03125-8.226562l6.015624-5.914062c.148438-.152344.4375-.480469.675782-.761719 5.695312-5.757813 8.882812-13.53125 8.875-21.628907-.03125-5.53125-1.566406-10.949218-4.445313-15.667968l.664063-.445313c3.917968-2.625 4.964844-7.925781 2.339844-11.84375s-7.929688-4.960937-11.84375-2.335937l-4.0625 2.71875c-9.160157-4.417969-19.867188-4.269532-28.902344.402344-10.035156-5.726563-22.355469-5.699219-32.367188.070312l-4.796875-3.203125c-2.535156-1.691406-5.78125-1.902344-8.515625-.550781-2.734375 1.351562-4.539062 4.058594-4.738281 7.101562-.195313 3.042969 1.246094 5.957032 3.78125 7.648438l2.457031 1.640625c-6.175781 11.84375-3.8125 26.339843 5.804688 35.609375l7.125 6.988281c-4.613282.273437-8.160156 4.191406-7.96875 8.808594.191406 4.617187 4.046875 8.230469 8.667968 8.121093h59.734376c4.710937 0 8.53125-3.820312 8.53125-8.53125zm-44.082032-47.121093c3.160156 3.148437 8.21875 3.332031 11.597656.417969 5.757813-4.894532 14.261719-4.734376 19.832032.375 2.640625 2.582031 4.128906 6.117187 4.128906 9.8125 0 3.695312-1.488281 7.230468-4.128906 9.8125-.136719.136718-.394532.425781-.625.699218l-17.78125 17.46875h-13.65625l-19.378906-19.003906c-2.65625-2.53125-4.164063-6.039062-4.171876-9.710938.007813-3.734374 1.550782-7.300781 4.265626-9.863281 5.597656-5.253906 14.316406-5.257812 19.917968-.007812zm0 0"/><path d="m298.667969 379.433594c-4.714844 0-8.535157 3.824218-8.535157 8.535156 0 7.070312-5.730468 12.800781-12.800781 12.800781-7.066406 0-12.796875-5.730469-12.796875-12.800781v-21.332031c4.710938 0 8.53125-3.820313 8.53125-8.535157 0-4.710937-3.820312-8.53125-8.53125-8.53125h-17.070312c-4.710938 0-8.53125 3.820313-8.53125 8.53125 0 4.714844 3.820312 8.535157 8.53125 8.535157v21.332031c0 7.070312-5.730469 12.800781-12.796875 12.800781-7.070313 0-12.800781-5.730469-12.800781-12.800781 0-4.710938-3.820313-8.535156-8.535157-8.535156-4.710937 0-8.53125 3.824218-8.53125 8.535156-.015625 12.144531 7.332031 23.085938 18.582031 27.664062 11.246094 4.578126 24.148438 1.878907 32.617188-6.824218 8.46875 8.703125 21.371094 11.402344 32.617188 6.824218 11.25-4.578124 18.597656-15.519531 18.582031-27.664062 0-4.710938-3.820313-8.535156-8.53125-8.535156zm0 0"/><path d="m166.167969 140.246094-5.332031-8.535156c-2.496094-4.003907-7.769532-5.226563-11.777344-2.730469-4.003906 2.5-5.226563 7.773437-2.730469 11.777343l5.335937 8.535157c1.613282 2.589843 4.488282 4.121093 7.542969 4.019531 3.050781-.105469 5.816407-1.828125 7.253907-4.523438 1.433593-2.695312 1.324218-5.953124-.292969-8.542968zm0 0"/><path d="m348.542969 152.003906c1.921875 1.199219 4.238281 1.589844 6.441406 1.078125 2.207031-.507812 4.117187-1.871093 5.320313-3.789062l5.332031-8.535157c2.496093-4.003906 1.273437-9.277343-2.730469-11.777343-4.007812-2.496094-9.277344-1.273438-11.777344 2.730469l-5.332031 8.535156c-1.195313 1.921875-1.578125 4.242187-1.0625 6.449218.511719 2.207032 1.886719 4.117188 3.808594 5.308594zm0 0"/><path d="m368.316406 285.097656c-1.257812-1.882812-3.210937-3.1875-5.429687-3.632812-2.21875-.441406-4.523438.015625-6.40625 1.269531l-4.8125 3.210937c-9.992188-5.820312-22.332031-5.847656-32.351563-.078124-9.027344-4.6875-19.738281-4.835938-28.894531-.402344l-4.070313-2.71875c-2.53125-1.699219-5.777343-1.917969-8.515624-.574219-2.738282 1.347656-4.550782 4.050781-4.753907 7.09375s1.230469 5.964844 3.765625 7.660156l.65625.4375c-7.289062 11.984375-5.453125 27.394531 4.445313 37.332031.207031.253907.4375.496094.667969.734376l5.972656 5.914062c-4.019532.683594-6.964844 4.152344-6.988282 8.226562 0 4.710938 3.820313 8.53125 8.53125 8.53125h59.734376c4.621093.109376 8.476562-3.503906 8.667968-8.121093.191406-4.617188-3.355468-8.535157-7.96875-8.808594l7.039063-6.902344c9.675781-9.273437 12.082031-23.8125 5.90625-35.703125l2.441406-1.632812c1.882813-1.253906 3.1875-3.207032 3.632813-5.425782.441406-2.21875-.015626-4.527343-1.269532-6.410156zm-54.230468 17.769532c3.378906 2.914062 8.4375 2.730468 11.597656-.417969 5.640625-5.335938 14.488281-5.261719 20.035156.167969 2.652344 2.558593 4.140625 6.085937 4.125 9.769531-.019531 3.683593-1.542969 7.199219-4.21875 9.730469l-19.292969 18.917968h-13.652343l-17.75-17.46875c-.203126-.246094-.417969-.484375-.648438-.707031-2.625-2.566406-4.113281-6.078125-4.128906-9.75-.015625-3.667969 1.4375-7.195313 4.042968-9.78125 5.546876-5.191406 14.109376-5.390625 19.890626-.460937zm0 0"/></svg>