<svg height="512pt" viewBox="0 -1 512 512" width="512pt" xmlns="http://www.w3.org/2000/svg"><path d="m204.800781 314.503906c14.136719 0 25.597657-11.460937 25.597657-25.601562 0-14.136719-11.460938-25.597656-25.597657-25.597656-14.140625 0-25.601562 11.460937-25.601562 25.597656 0 14.140625 11.460937 25.601562 25.601562 25.601562zm0-34.132812c4.710938 0 8.53125 3.820312 8.53125 8.53125 0 4.714844-3.820312 8.535156-8.53125 8.535156-4.714843 0-8.535156-3.820312-8.535156-8.535156 0-4.710938 3.820313-8.53125 8.535156-8.53125zm0 0"/><path d="m307.199219 314.503906c14.140625 0 25.601562-11.460937 25.601562-25.601562 0-14.136719-11.460937-25.597656-25.601562-25.597656-14.136719 0-25.597657 11.460937-25.597657 25.597656 0 14.140625 11.460938 25.601562 25.597657 25.601562zm0-34.132812c4.714843 0 8.535156 3.820312 8.535156 8.53125 0 4.714844-3.820313 8.535156-8.535156 8.535156-4.710938 0-8.53125-3.820312-8.53125-8.535156 0-4.710938 3.820312-8.53125 8.53125-8.53125zm0 0"/><path d="m247.464844 323.035156c0 4.714844 3.824218 8.535156 8.535156 8.535156s8.535156-3.820312 8.535156-8.535156c4.710938 0 8.53125-3.820312 8.53125-8.53125 0-4.714844-3.820312-8.535156-8.53125-8.535156h-17.070312c-4.710938 0-8.53125 3.820312-8.53125 8.535156 0 4.710938 3.820312 8.53125 8.53125 8.53125zm0 0"/><path d="m443.734375 423.089844v-53.121094c.234375-68.835938-36.238281-132.574219-95.703125-167.253906l33.65625-132.546875c3.910156-15.082031 1.320312-31.113281-7.132812-44.203125-12.859376-20.09375-36.984376-29.902344-60.214844-24.492188-23.234375 5.414063-40.539063 24.875-43.191406 48.582032l-14.242188 127.914062c-.308594 0-.609375 0-.90625 0s-.5625 0-.851562 0l-14.296876-127.921875c-2.65625-23.707031-19.960937-43.164063-43.195312-48.574219-23.230469-5.410156-47.351562 4.402344-60.210938 24.492188-8.453124 13.089844-11.042968 29.121094-7.132812 44.203125l33.722656 132.546875c-59.488281 34.660156-95.988281 98.40625-95.769531 167.253906v53.121094c-60.859375 12.007812-68.265625 26.488281-68.265625 36.480468 0 50.621094 245.546875 51.199219 256 51.199219s256-.578125 256-51.199219c0-9.992187-7.40625-24.472656-68.265625-36.480468zm-155.613281-371.148438c1.546875-14.644531 11.160156-27.1875 24.894531-32.492187 13.738281-5.304688 29.289063-2.472657 40.273437 7.332031 10.988282 9.800781 15.5625 24.929688 11.851563 39.179688l-32.683594 128.71875c-18.476562-8.484376-38.242187-13.824219-58.476562-15.804688zm-141.269532 14.011719c-3.691406-14.242187.894532-29.355469 11.878907-39.144531 10.980469-9.792969 26.519531-12.617188 40.246093-7.324219 13.726563 5.296875 23.339844 17.824219 24.902344 32.457031l14.199219 126.925782c-20.234375 1.976562-39.996094 7.3125-58.476563 15.785156zm109.148438 427.75c-151.894531 0-235.058594-22.015625-238.933594-33.9375 0-.09375 4.328125-9.675781 51.199219-19.292969v10.5625c0 4.714844 3.820313 8.535156 8.535156 8.535156 4.710938 0 8.53125-3.820312 8.53125-8.535156v-81.066406c-1.054687-95.386719 75.285157-173.636719 170.667969-174.933594 95.382812 1.296875 171.722656 79.546875 170.667969 174.933594v81.066406c0 4.714844 3.820312 8.535156 8.53125 8.535156 4.714843 0 8.535156-3.820312 8.535156-8.535156v-10.5625c46.199219 9.472656 51.054687 18.890625 51.199219 18.890625-3.890625 12.324219-87.039063 34.339844-238.933594 34.339844zm0 0"/><path d="m341.332031 340.101562h-170.664062c-14.140625 0-25.601563 11.464844-25.601563 25.601563.0625 51.816406 42.050782 93.804687 93.867188 93.867187h34.132812c51.816406-.0625 93.804688-42.050781 93.867188-93.867187 0-14.136719-11.460938-25.601563-25.601563-25.601563zm-68.265625 102.402344h-34.132812c-42.394532-.046875-76.753906-34.40625-76.800782-76.800781 0-4.710937 3.820313-8.535156 8.535157-8.535156h170.664062c4.714844 0 8.535157 3.824219 8.535157 8.535156-.046876 42.394531-34.40625 76.753906-76.800782 76.800781zm0 0"/><path d="m298.667969 382.769531h-42.667969c0-4.710937-3.820312-8.53125-8.535156-8.53125-4.710938 0-8.53125 3.820313-8.53125 8.53125h-8.535156v-8.53125c0-4.714843-3.820313-8.535156-8.53125-8.535156-4.714844 0-8.535157 3.820313-8.535157 8.535156v8.53125c-4.710937 0-8.53125 3.820313-8.53125 8.535157 0 4.710937 3.820313 8.53125 8.53125 8.53125v8.535156c0 4.710937 3.820313 8.53125 8.535157 8.53125 4.710937 0 8.53125-3.820313 8.53125-8.53125v-8.535156h8.535156c0 4.714843 3.820312 8.535156 8.53125 8.535156 4.714844 0 8.535156-3.820313 8.535156-8.535156h42.667969c4.710937 0 8.53125-3.820313 8.53125-8.53125 0-4.714844-3.820313-8.535157-8.53125-8.535157zm0 0"/><path d="m86.367188 236.976562c2.53125 0 4.929687-1.125 6.550781-3.070312 1.617187-1.945312 2.292969-4.507812 1.835937-6.996094-1.765625-9.667968-6.707031-32.992187-14.421875-40.695312-6.425781-6.65625-15.945312-9.324219-24.894531-6.984375-8.953125 2.34375-15.941406 9.335937-18.285156 18.285156-2.339844 8.949219.328125 18.46875 6.980468 24.894531 7.679688 7.679688 31.039063 12.65625 40.695313 14.421875.507813.097657 1.023437.148438 1.539063.144531zm-30.167969-26.640624c-3.324219-3.332032-3.324219-8.726563 0-12.058594 3.378906-3.214844 8.6875-3.214844 12.066406 0 3.292969 5.914062 5.628906 12.304687 6.921875 18.945312-6.65625-1.273437-13.0625-3.597656-18.988281-6.886718zm0 0"/><path d="m10.238281 280.96875c3.808594 9.910156 13.320313 16.453125 23.9375 16.46875 3.109375-.007812 6.195313-.585938 9.097657-1.707031 10.1875-3.890625 24.214843-23.167969 29.78125-31.273438 1.578124-2.3125 1.921874-5.246093.925781-7.859375-.996094-2.613281-3.210938-4.570312-5.925781-5.242187-9.566407-2.335938-32.863282-7.328125-43.050782-3.414063-13.167968 5.074219-19.761718 19.832032-14.765625 33.027344zm20.875-17.066406c1.1875-.304688 2.410157-.433594 3.632813-.378906 5.550781.183593 11.074218.789062 16.53125 1.8125-3.898438 5.542968-8.648438 10.441406-14.070313 14.503906-4.40625 1.683594-9.34375-.523438-11.027343-4.929688-1.683594-4.40625.527343-9.34375 4.933593-11.027344zm0 0"/><path d="m426.667969 236.976562c.515625.003907 1.027343-.042968 1.535156-.144531 9.667969-1.765625 32.988281-6.707031 40.703125-14.421875 9.996094-9.996094 9.996094-26.199218 0-36.195312-10.136719-9.660156-26.070312-9.660156-36.207031 0-7.679688 7.679687-12.65625 31.035156-14.421875 40.703125-.453125 2.488281.222656 5.046875 1.84375 6.992187 1.617187 1.941406 4.015625 3.066406 6.546875 3.066406zm18.097656-38.699218c1.601563-1.597656 3.769531-2.496094 6.035156-2.5 3.449219.003906 6.558594 2.082031 7.878907 5.269531 1.320312 3.1875.59375 6.859375-1.847657 9.296875-5.917969 3.300781-12.324219 5.632812-18.976562 6.914062 1.277343-6.652343 3.613281-13.058593 6.910156-18.980468zm0 0"/><path d="m469.761719 295.730469c13.210937 5.042969 28.007812-1.582031 33.050781-14.792969s-1.578125-28.011719-14.792969-33.054688c-10.179687-3.875-33.492187 1.109376-43.039062 3.414063-2.722657.664063-4.945313 2.625-5.945313 5.246094-1 2.617187-.648437 5.558593.933594 7.871093 5.574219 8.164063 19.59375 27.441407 29.792969 31.316407zm12.183593-31.90625c4.410157 1.679687 6.621094 6.617187 4.941407 11.023437-1.679688 4.410156-6.617188 6.621094-11.023438 4.941406-5.433593-4.058593-10.183593-8.953124-14.074219-14.507812 6.605469-1.523438 13.40625-2.007812 20.15625-1.433594zm0 0"/><path d="m153.601562 280.371094c4.710938 0 8.53125-3.820313 8.53125-8.535156.878907-7.683594 5.523438-14.429688 12.390626-17.988282 4.210937-2.121094 5.90625-7.253906 3.785156-11.464844-2.121094-4.210937-7.253906-5.90625-11.464844-3.785156-12.632812 6.445313-20.914062 19.085938-21.777344 33.238282 0 4.714843 3.820313 8.535156 8.535156 8.535156zm0 0"/><path d="m345.148438 238.597656c-4.210938-2.121094-9.34375-.425781-11.464844 3.785156-2.121094 4.210938-.425782 9.34375 3.785156 11.464844 6.867188 3.558594 11.515625 10.300782 12.398438 17.988282 0 4.714843 3.820312 8.535156 8.53125 8.535156 4.714843 0 8.535156-3.820313 8.535156-8.535156-.863282-14.15625-9.152344-26.796876-21.785156-33.238282zm0 0"/></svg>