<svg height="512pt" viewBox="0 0 512 511" width="512pt" xmlns="http://www.w3.org/2000/svg"><path d="m187.734375 358.890625c14.136719 0 25.597656-11.460937 25.597656-25.597656 0-14.140625-11.460937-25.601563-25.597656-25.601563-14.140625 0-25.601563 11.460938-25.601563 25.601563 0 14.136719 11.460938 25.597656 25.601563 25.597656zm0-34.132813c4.710937 0 8.53125 3.820313 8.53125 8.535157 0 4.710937-3.820313 8.53125-8.53125 8.53125-4.714844 0-8.535156-3.820313-8.535156-8.53125 0-4.714844 3.820312-8.535157 8.535156-8.535157zm0 0"/><path d="m324.265625 307.691406c-14.136719 0-25.597656 11.460938-25.597656 25.601563 0 14.136719 11.460937 25.597656 25.597656 25.597656 14.140625 0 25.601563-11.460937 25.601563-25.597656 0-14.140625-11.460938-25.601563-25.601563-25.601563zm0 34.132813c-4.710937 0-8.53125-3.820313-8.53125-8.53125 0-4.714844 3.820313-8.535157 8.53125-8.535157 4.714844 0 8.535156 3.820313 8.535156 8.535157 0 4.710937-3.820312 8.53125-8.535156 8.53125zm0 0"/><path d="m256 512.492188c10.453125 0 256-.582032 256-51.199219 0-10.164063-8.847656-16.972657-18.339844-21.660157 6.3125-11.070312 9.742188-23.550781 9.976563-36.292968.007812-30.582032-12.433594-59.847656-34.457031-81.066406-10.289063-11.523438-24.039063-19.402344-39.183594-22.449219-15.8125-40.085938-44.714844-73.640625-82.015625-95.214844l33.707031-133.5625c3.828125-15.207031 1.21875-31.316406-7.210938-44.539063-8.359374-13.167968-21.828124-22.257812-37.171874-25.082031-15.339844-2.824219-31.164063.875-43.664063 10.203125-12.601563 9.410156-20.742187 23.621094-22.492187 39.25l-14.296876 128.8125c-.289062 0-.578124 0-.851562 0s-.546875 0-.851562 0l-14.296876-128.851562c-1.699218-15.558594-9.785156-29.714844-22.320312-39.085938s-28.398438-13.121094-43.800781-10.347656c-15.363281 2.90625-28.835938 12.03125-37.238281 25.210938-8.402344 13.183593-10.984376 29.25-7.136719 44.402343l33.679687 133.417969c-14.996094 8.609375-28.738281 19.230469-40.847656 31.574219-17.855469 18.375-31.878906 40.109375-41.265625 63.949219-14.855469 3.191406-28.316406 10.996093-38.460937 22.304687-22.011719 21.25-34.460938 50.515625-34.5 81.109375.226562 12.628906 3.582031 25 9.769531 36.011719-8.617188 4.230469-18.730469 11.304687-18.730469 21.90625 0 50.617187 245.546875 51.199219 256 51.199219zm32.121094-459.769532c1.15625-10.925781 6.835937-20.867187 15.664062-27.40625 8.707032-6.515625 19.742188-9.097656 30.433594-7.125 10.695312 1.972656 20.078125 8.324219 25.886719 17.515625 5.957031 9.222657 7.785156 20.515625 5.042969 31.148438l-32.742188 129.707031c-18.480469-8.496094-38.246094-13.863281-58.484375-15.882812zm-141.261719 14.105469c-2.6875-10.578125-.886719-21.800781 4.976563-31.007813 5.863281-9.207031 15.265624-15.589843 25.988281-17.628906 10.746093-1.917968 21.808593.710938 30.542969 7.257813 8.734374 6.546875 14.359374 16.421875 15.539062 27.273437l14.171875 127.863282c-20.234375 1.980468-40 7.328124-58.476563 15.8125zm-11.476563 181.128906c31.585938-32.734375 75.128907-51.214843 120.617188-51.199219 67.871094.628907 128.96875 41.261719 155.800781 103.601563-10.609375 2.632813-20.238281 8.261719-27.734375 16.214844-.699218.707031-1.277344 1.46875-1.933594 2.195312-6.277343-25.144531-28.070312-43.359375-53.925781-45.074219-25.859375-1.71875-49.867187 13.460938-59.40625 37.554688-7.875-4.746094-17.726562-4.746094-25.601562 0-9.5-24.007812-33.363281-39.175781-59.132813-37.585938-25.769531 1.585938-47.589844 19.574219-54.070312 44.566407-.511719-.554688-.929688-1.136719-1.46875-1.707031-7.628906-8.097657-17.472656-13.769532-28.304688-16.316407 8.492188-19.382812 20.402344-37.082031 35.160156-52.25zm231.550782 85.335938c0 17.253906-10.394532 32.8125-26.339844 39.417969-15.941406 6.601562-34.292969 2.953124-46.496094-9.25-12.203125-12.203126-15.855468-30.554688-9.25-46.496094 6.605469-15.945313 22.160156-26.339844 39.417969-26.339844 23.554687.027344 42.640625 19.113281 42.667969 42.667969zm-221.867188 0c0-23.566407 19.101563-42.667969 42.667969-42.667969 23.5625 0 42.664063 19.101562 42.664063 42.667969 0 23.5625-19.101563 42.664062-42.664063 42.664062-23.554687-.027343-42.640625-19.113281-42.667969-42.664062zm-116.054687 120.207031c1.816406 2.007812 3.746093 3.910156 5.777343 5.699219 2.304688 2.003906 5.496094 2.625 8.382813 1.632812 2.882813-.992187 5.019531-3.449219 5.601563-6.445312.582031-2.992188-.476563-6.070313-2.777344-8.070313-2.859375-2.503906-5.460938-5.285156-7.765625-8.304687-7.765625-10.023438-12.039063-22.308594-12.179688-34.984375.136719-25.984375 10.800781-50.804688 29.550781-68.789063 8.660157-10.402343 21.132813-16.894531 34.621094-18.011719 10.011719.453126 19.425782 4.886719 26.15625 12.3125 5.585938 5.328126 9.542969 12.136719 11.417969 19.625 3.085937 13.296876-2.785156 27.9375-16.957031 42.328126-8.734375 8.972656-19.230469 16.042968-30.832032 20.761718-2.894531 1.0625-4.992187 3.609375-5.480468 6.65625-.488282 3.046875.703125 6.117188 3.121094 8.035156 2.417968 1.917969 5.683593 2.382813 8.539062 1.210938 13.828125-5.585938 26.34375-13.984375 36.761719-24.660156 8.757812-8.414063 15.503906-18.695313 19.738281-30.078125 16.308594 18.859375 42.628906 25.585937 65.992188 16.863281 23.359374-8.722656 38.832031-31.054688 38.785156-55.988281 0-4.714844 3.824218-8.535157 8.535156-8.535157s8.535156 3.820313 8.535156 8.535157c-.027344 25.039062 15.578125 47.433593 39.082032 56.074219 23.503906 8.636718 49.902343 1.683593 66.097656-17.410157 4.191406 11.589844 11.007812 22.054688 19.917968 30.574219 10.414063 10.664062 22.929688 19.050781 36.753907 24.625 2.855469 1.191406 6.132812.742188 8.566406-1.175781 2.429687-1.917969 3.632813-5 3.140625-8.054688-.496094-3.058593-2.605469-5.609375-5.511719-6.664062-11.597656-4.710938-22.089843-11.773438-30.816406-20.746094-14.90625-15.113281-20.480469-29.867187-16.535156-43.945313 2.050781-6.863281 5.835937-13.082031 10.988281-18.058593 6.742188-7.421875 16.164062-11.84375 26.179688-12.285157 13.507812 1.121094 26 7.621094 34.671874 18.039063 18.761719 17.953125 29.421876 42.765625 29.527344 68.734375-.171875 12.785156-4.523437 25.164062-12.390625 35.242188-2.265625 2.941406-4.824219 5.644531-7.628906 8.074218-3.558594 3.089844-3.9375 8.480469-.847656 12.039063 3.09375 3.558593 8.484375 3.9375 12.042969.84375 1.980468-1.734375 3.867187-3.570313 5.65625-5.503907 4.386718 1.488282 8.335937 4.03125 11.503906 7.410157-3.960938 12.320312-87.144532 34.320312-238.933594 34.320312s-235.058594-22.015625-238.933594-33.929687c0-.035156 1.339844-3.335938 11.945313-7.996094zm0 0"/><path d="m238.933594 418.625h34.132812c4.714844 0 8.535156-3.820312 8.535156-8.535156 0-4.710938-3.820312-8.53125-8.535156-8.53125h-8.53125v-8.535156c4.710938 0 8.53125-3.820313 8.53125-8.53125 0-4.714844-3.820312-8.535157-8.53125-8.535157h-17.070312c-4.710938 0-8.53125 3.820313-8.53125 8.535157 0 4.710937 3.820312 8.53125 8.53125 8.53125v8.535156h-8.53125c-4.714844 0-8.535156 3.820312-8.535156 8.53125 0 4.714844 3.820312 8.535156 8.535156 8.535156zm0 0"/><path d="m161.648438 263.421875c2.167968-.003906 4.253906-.828125 5.835937-2.3125 6.207031-4.617187 14.300781-5.839844 21.597656-3.269531 4.386719 1.496094 9.167969-.785156 10.765625-5.136719s-.574218-9.183594-4.886718-10.878906c-13.335938-4.824219-28.226563-2.226563-39.140626 6.824219-2.558593 2.394531-3.394531 6.105468-2.105468 9.363281 1.285156 3.257812 4.429687 5.398437 7.933594 5.398437zm0 0"/><path d="m322.960938 257.824219c7.28125-2.578125 15.371093-1.34375 21.554687 3.285156 2.207031 2.175781 5.421875 2.984375 8.398437 2.109375 2.976563-.875 5.242188-3.292969 5.921876-6.316406.675781-3.027344-.339844-6.183594-2.65625-8.246094-10.914063-9.050781-25.804688-11.648438-39.140626-6.824219-4.292968 1.71875-6.4375 6.546875-4.832031 10.882813 1.605469 4.339844 6.375 6.609375 10.753907 5.117187zm0 0"/></svg>