<svg height="512pt" viewBox="0 -1 512 512" width="512pt" xmlns="http://www.w3.org/2000/svg"><path d="m443.734375 423.089844v-14.507813c4.6875-3.144531 9.101563-6.679687 13.191406-10.574219 11.992188-10.128906 19.515625-24.574218 20.941407-40.207031.253906-13.226562-5-25.964843-14.507813-35.167969-7.875-8.496093-18.480469-13.964843-29.96875-15.453124-14.6875-44.128907-45.039063-81.347657-85.316406-104.609376l33.613281-132.402343c3.910156-15.085938 1.320312-31.117188-7.132812-44.203125-12.859376-20.09375-36.984376-29.90625-60.214844-24.492188-23.234375 5.410156-40.539063 24.875-43.191406 48.582032l-14.253907 127.914062c-.296875 0-.597656 0-.894531 0s-.554688 0-.851562 0l-14.3125-128c-2.691407-23.683594-20.003907-43.105469-43.222657-48.496094s-47.3125 4.417969-60.167969 24.492188c-8.453124 13.085937-11.042968 29.117187-7.132812 44.203125l33.722656 132.546875c-15 8.601562-28.75 19.226562-40.855468 31.574218-20.09375 20.675782-35.328126 45.570313-44.585938 72.875-11.488281 1.496094-22.085938 6.96875-29.953125 15.46875-9.507813 9.203126-14.761719 21.941407-14.507813 35.167969 1.414063 15.621094 8.921876 30.054688 20.898438 40.183594 4.101562 3.894531 8.53125 7.4375 13.234375 10.582031v14.503906c-60.859375 12.023438-68.265625 26.503907-68.265625 36.5 0 50.617188 245.546875 51.199219 256 51.199219s256-.582031 256-51.199219c0-9.996093-7.40625-24.476562-68.265625-36.480468zm-155.613281-371.148438c1.546875-14.644531 11.160156-27.191406 24.894531-32.492187 13.738281-5.304688 29.289063-2.476563 40.273437 7.328125 10.988282 9.804687 15.5625 24.933594 11.851563 39.183594l-32.648437 128.589843c-18.511719-8.402343-38.285157-13.683593-58.519532-15.636719zm-141.269532 14.011719c-3.691406-14.246094.894532-29.355469 11.878907-39.148437 10.980469-9.789063 26.519531-12.617188 40.246093-7.320313 13.726563 5.296875 23.339844 17.824219 24.902344 32.457031l14.199219 126.921875c-20.234375 1.984375-40 7.332031-58.476563 15.820313zm109.148438 427.75c-151.894531 0-235.058594-22.015625-238.933594-33.9375 0-.09375 4.328125-9.675781 51.199219-19.292969v10.5625c0 4.714844 3.820313 8.535156 8.535156 8.535156 4.710938 0 8.53125-3.820312 8.53125-8.535156v-33.347656c.855469.324219 1.632813.75 2.457031 1.050781 4.4375 1.597657 9.332032-.707031 10.929688-5.144531s-.707031-9.328125-5.140625-10.925781c-9.984375-3.742188-19.070313-9.527344-26.683594-16.988281-8.722656-7.117188-14.347656-17.335938-15.695312-28.511719.042969-8.570313 3.566406-16.753907 9.761719-22.671875 5.667968-6.429688 13.703124-10.28125 22.265624-10.667969 11.222657.890625 21.664063 6.089844 29.140626 14.507813 7.757812 7.304687 13.902343 16.148437 18.046874 25.964843 1.773438 4.371094 6.75 6.476563 11.121094 4.703125 4.367188-1.773437 6.472656-6.75 4.699219-11.117187-5.050781-12.039063-12.558594-22.890625-22.046875-31.855469-7.832031-7.984375-17.5-13.925781-28.160156-17.296875 8.578125-23.367187 21.988281-44.664063 39.355468-62.5 31.585938-32.734375 75.128907-51.214844 120.617188-51.199219 71.957031.285156 135.957031 45.800782 159.835938 113.679688-10.625 3.378906-20.257813 9.308594-28.0625 17.273437-9.488282 8.972657-16.996094 19.824219-22.050782 31.863281-1.773437 4.367188.332032 9.347657 4.699219 11.117188 4.371094 1.773438 9.347656-.332031 11.121094-4.699219 4.144531-9.820312 10.292969-18.664062 18.046875-25.976562 7.476562-8.414063 17.921875-13.613281 29.140625-14.507813 17.542969 1.527344 31.246093 15.796875 32.070312 33.382813-1.332031 11.191406-6.957031 21.429687-15.683593 28.5625-7.613282 7.457031-16.699219 13.238281-26.675782 16.980469-4.4375 1.597656-6.738281 6.488281-5.140625 10.925781 1.597657 4.4375 6.488281 6.738281 10.925781 5.140625.851563-.296875 1.636719-.722656 2.457032-1.046875v33.304687c0 4.714844 3.820312 8.535156 8.535156 8.535156 4.710938 0 8.53125-3.820312 8.53125-8.535156v-10.5625c46.199219 9.46875 51.054688 18.890625 51.199219 18.890625-3.90625 12.324219-87.054688 34.339844-238.949219 34.339844zm0 0"/><path d="m227.898438 259.886719c3.332031-3.332031 3.332031-8.730469 0-12.0625-6-6.359375-14.355469-9.964844-23.097657-9.964844-8.742187 0-17.101562 3.605469-23.101562 9.964844-2.933594 3.375-2.761719 8.445312.394531 11.613281 3.152344 3.171875 8.222656 3.367188 11.613281.449219 2.785157-3.1875 6.8125-5.019531 11.046875-5.027344 4.234375-.011719 8.269532 1.804687 11.070313 4.976563 3.332031 3.332031 8.734375 3.332031 12.066406 0zm0 0"/><path d="m318.234375 259.886719c3.347656 3.234375 8.667969 3.191406 11.960937-.101563 3.292969-3.292968 3.339844-8.613281.105469-11.960937-6-6.359375-14.359375-9.964844-23.101562-9.964844-8.742188 0-17.097657 3.605469-23.097657 9.964844-2.933593 3.375-2.765624 8.445312.390626 11.613281 3.15625 3.171875 8.222656 3.367188 11.613281.449219 2.796875-3.183594 6.828125-5.007813 11.066406-5.007813 4.234375 0 8.265625 1.824219 11.0625 5.007813zm0 0"/><path d="m281.601562 323.035156c-4.707031.183594-9.265624-1.65625-12.527343-5.054687-3.261719-3.394531-4.914063-8.027344-4.539063-12.71875v-1.511719c9.566406-2.0625 16.5625-10.285156 17.066406-20.0625-.550781-6.230469-3.558593-11.984375-8.363281-15.992188-4.804687-4.003906-11.011719-5.925781-17.238281-5.339843-6.226562-.585938-12.433594 1.335937-17.238281 5.339843-4.804688 4.007813-7.8125 9.761719-8.363281 15.992188.503906 9.777344 7.5 18 17.066406 20.0625v1.511719c.285156 4.671875-1.394532 9.25-4.636719 12.625s-7.75 5.242187-12.429687 5.148437c-4.710938 0-8.53125 3.820313-8.53125 8.535156v25.597657c0 18.851562 15.28125 34.132812 34.132812 34.132812s34.132812-15.28125 34.132812-34.132812v-25.597657c0-4.714843-3.820312-8.535156-8.53125-8.535156zm-25.601562-43.613281c5.289062 0 8.535156 2.753906 8.535156 4.265625s-3.246094 4.265625-8.535156 4.265625-8.535156-2.761719-8.535156-4.265625c0-1.5 3.246094-4.265625 8.535156-4.265625zm0 94.8125c-9.425781 0-17.066406-7.640625-17.066406-17.066406v-17.96875c6.671875-1.410157 12.683594-5.015625 17.066406-10.242188 4.382812 5.226563 10.394531 8.832031 17.066406 10.242188v17.96875c0 9.425781-7.640625 17.066406-17.066406 17.066406zm0 0"/><path d="m151.980469 297.605469c-.566407.078125-1.113281.253906-1.625.511719-.542969.1875-1.0625.445312-1.542969.769531-.441406.316406-.867188.660156-1.269531 1.023437-1.566407 1.632813-2.449219 3.796875-2.476563 6.058594 0 4.710938 3.820313 8.53125 8.535156 8.53125 4.710938 0 8.53125-3.820312 8.53125-8.53125-.03125-2.257812-.914062-4.421875-2.472656-6.058594-2.019531-1.996094-4.898437-2.863281-7.679687-2.304687zm0 0"/><path d="m204.800781 297.433594h-25.601562c-4.710938 0-8.53125 3.820312-8.53125 8.535156 0 4.710938 3.820312 8.53125 8.53125 8.53125h25.601562c4.710938 0 8.53125-3.820312 8.53125-8.53125 0-4.714844-3.820312-8.535156-8.53125-8.535156zm0 0"/><path d="m366.933594 305.96875c-.015625-1.117188-.246094-2.21875-.683594-3.242188-.433594-1.035156-1.039062-1.988281-1.792969-2.816406-2.453125-2.421875-6.121093-3.128906-9.300781-1.792968-1.054688.390624-2.011719 1.003906-2.816406 1.792968-1.5625 1.632813-2.445313 3.796875-2.472656 6.058594.042968 2.230469.925781 4.363281 2.472656 5.972656.789062.824219 1.753906 1.464844 2.816406 1.878906 1.023438.445313 2.128906.679688 3.242188.679688 1.117187-.011719 2.21875-.242188 3.246093-.679688 1.050781-.4375 2.007813-1.074218 2.8125-1.878906 1.550781-1.609375 2.433594-3.742187 2.476563-5.972656zm0 0"/><path d="m332.800781 297.433594h-25.601562c-4.710938 0-8.53125 3.820312-8.53125 8.535156 0 4.710938 3.820312 8.53125 8.53125 8.53125h25.601562c4.710938 0 8.53125-3.820312 8.53125-8.53125 0-4.714844-3.820312-8.535156-8.53125-8.535156zm0 0"/><path d="m86.367188 236.976562c2.53125 0 4.929687-1.125 6.550781-3.070312 1.617187-1.945312 2.292969-4.507812 1.835937-7-1.765625-9.667969-6.707031-32.988281-14.421875-40.695312-6.425781-6.652344-15.945312-9.324219-24.894531-6.980469-8.953125 2.34375-15.941406 9.332031-18.285156 18.285156-2.339844 8.949219.328125 18.46875 6.980468 24.894531 7.679688 7.679688 31.039063 12.65625 40.695313 14.421875.507813.097657 1.023437.148438 1.539063.144531zm-30.167969-26.640624c-3.324219-3.332032-3.324219-8.726563 0-12.058594 3.378906-3.21875 8.6875-3.21875 12.066406 0 3.292969 5.910156 5.628906 12.304687 6.921875 18.945312-6.65625-1.273437-13.0625-3.597656-18.988281-6.886718zm0 0"/><path d="m68.054688 251.355469c-9.566407-2.339844-32.863282-7.332031-43.050782-3.414063-12.636718 5.414063-18.742187 19.835938-13.835937 32.675782 4.910156 12.839843 19.082031 19.507812 32.105469 15.113281 10.1875-3.894531 24.214843-23.167969 29.78125-31.277344 1.578124-2.308594 1.921874-5.242187.925781-7.855469-.996094-2.613281-3.210938-4.570312-5.925781-5.242187zm-30.875 28.457031c-4.40625 1.683594-9.34375-.523438-11.023438-4.929688-1.683594-4.40625.523438-9.34375 4.929688-11.027343 1.1875-.300781 2.414062-.429688 3.636718-.375 5.546875.179687 11.074219.785156 16.527344 1.808593-3.894531 5.554688-8.644531 10.453126-14.070312 14.523438zm0 0"/><path d="m426.667969 236.976562c.515625.003907 1.027343-.046874 1.535156-.144531 9.667969-1.765625 32.988281-6.707031 40.703125-14.421875 9.996094-9.996094 9.996094-26.203125 0-36.199218-10.136719-9.660157-26.070312-9.660157-36.207031 0-7.679688 7.679687-12.65625 31.035156-14.421875 40.703124-.453125 2.488282.222656 5.050782 1.84375 6.992188 1.617187 1.945312 4.015625 3.066406 6.546875 3.070312zm18.097656-38.699218c1.601563-1.601563 3.769531-2.5 6.035156-2.5 3.449219 0 6.558594 2.082031 7.878907 5.269531 1.320312 3.1875.59375 6.855469-1.847657 9.296875-5.917969 3.296875-12.324219 5.632812-18.976562 6.914062 1.277343-6.65625 3.613281-13.0625 6.910156-18.980468zm0 0"/><path d="m469.761719 295.730469c13.210937 5.039062 28.007812-1.582031 33.050781-14.792969 5.042969-13.214844-1.578125-28.011719-14.792969-33.054688-10.179687-3.875-33.492187 1.109376-43.039062 3.414063-2.722657.664063-4.945313 2.625-5.945313 5.242187-1 2.617188-.648437 5.5625.933594 7.871094 5.574219 8.167969 19.59375 27.445313 29.792969 31.320313zm12.183593-31.90625c4.410157 1.679687 6.621094 6.613281 4.941407 11.023437-1.679688 4.410156-6.617188 6.621094-11.023438 4.941406-5.433593-4.058593-10.183593-8.953124-14.074219-14.507812 6.605469-1.527344 13.40625-2.007812 20.15625-1.433594zm0 0"/></svg>