<svg height="512pt" viewBox="0 0 512 511" width="512pt" xmlns="http://www.w3.org/2000/svg"><path d="m86.367188 238.699219c2.53125 0 4.929687-1.125 6.550781-3.070313 1.617187-1.945312 2.292969-4.507812 1.835937-7-1.765625-9.667968-6.707031-32.988281-14.421875-40.695312-6.425781-6.652344-15.945312-9.324219-24.894531-6.980469-8.953125 2.34375-15.941406 9.332031-18.285156 18.285156-2.339844 8.949219.328125 18.46875 6.980468 24.894531 7.679688 7.679688 31.039063 12.65625 40.695313 14.421876.507813.097656 1.023437.148437 1.539063.144531zm-30.167969-26.640625c-3.324219-3.332032-3.324219-8.726563 0-12.058594 3.378906-3.21875 8.6875-3.21875 12.066406 0 3.292969 5.910156 5.628906 12.304688 6.921875 18.945312-6.65625-1.273437-13.0625-3.597656-18.988281-6.886718zm0 0"/><path d="m68.054688 253.078125c-9.566407-2.339844-32.863282-7.332031-43.050782-3.414063-12.636718 5.414063-18.742187 19.835938-13.835937 32.675782 4.910156 12.839844 19.082031 19.507812 32.105469 15.113281 10.1875-3.894531 24.214843-23.167969 29.78125-31.277344 1.578124-2.308593 1.921874-5.242187.925781-7.855469-.996094-2.613281-3.210938-4.570312-5.925781-5.242187zm-30.875 28.457031c-4.40625 1.683594-9.34375-.523437-11.023438-4.929687-1.683594-4.40625.523438-9.34375 4.929688-11.027344 1.1875-.300781 2.414062-.429687 3.636718-.375 5.546875.183594 11.074219.785156 16.527344 1.808594-3.894531 5.554687-8.644531 10.457031-14.070312 14.523437zm0 0"/><path d="m426.667969 238.699219c.515625.003906 1.027343-.046875 1.535156-.144531 9.667969-1.765626 32.988281-6.707032 40.703125-14.421876 9.996094-9.996093 9.996094-26.203124 0-36.199218-10.136719-9.660156-26.070312-9.660156-36.207031 0-7.679688 7.679687-12.65625 31.035156-14.421875 40.703125-.453125 2.492187.222656 5.050781 1.84375 6.992187 1.617187 1.945313 4.015625 3.070313 6.546875 3.070313zm18.097656-38.699219c1.601563-1.601562 3.769531-2.5 6.035156-2.5 3.449219 0 6.558594 2.082031 7.878907 5.269531 1.320312 3.1875.59375 6.855469-1.847657 9.296875-5.917969 3.296875-12.324219 5.632813-18.976562 6.914063 1.277343-6.65625 3.613281-13.0625 6.910156-18.980469zm0 0"/><path d="m469.761719 297.453125c13.210937 5.042969 28.007812-1.582031 33.050781-14.792969 5.042969-13.214844-1.578125-28.011718-14.792969-33.054687-10.179687-3.875-33.492187 1.109375-43.039062 3.414062-2.722657.664063-4.945313 2.625-5.945313 5.242188-1 2.617187-.648437 5.5625.933594 7.871093 5.574219 8.167969 19.59375 27.445313 29.792969 31.320313zm12.183593-31.90625c4.410157 1.679687 6.621094 6.613281 4.941407 11.023437-1.679688 4.410157-6.617188 6.621094-11.023438 4.941407-5.433593-4.058594-10.183593-8.953125-14.074219-14.507813 6.605469-1.523437 13.40625-2.007812 20.15625-1.433594zm0 0"/><path d="m170.667969 307.691406c0 14.136719 11.460937 25.601563 25.597656 25.601563 14.140625 0 25.601563-11.464844 25.601563-25.601563 0-14.136718-11.460938-25.601562-25.601563-25.601562-14.136719 0-25.597656 11.464844-25.597656 25.601562zm25.597656-8.535156c4.714844 0 8.535156 3.824219 8.535156 8.535156 0 4.710938-3.820312 8.535156-8.535156 8.535156-4.710937 0-8.53125-3.824218-8.53125-8.535156 0-4.710937 3.820313-8.535156 8.53125-8.535156zm0 0"/><path d="m307.199219 333.292969c14.140625 0 25.601562-11.464844 25.601562-25.601563 0-14.136718-11.460937-25.601562-25.601562-25.601562-14.136719 0-25.597657 11.464844-25.597657 25.601562 0 14.136719 11.460938 25.601563 25.597657 25.601563zm0-34.136719c4.714843 0 8.535156 3.824219 8.535156 8.535156 0 4.710938-3.820313 8.535156-8.535156 8.535156-4.710938 0-8.53125-3.824218-8.53125-8.535156 0-4.710937 3.820312-8.535156 8.53125-8.535156zm0 0"/><path d="m298.929688 354.746094-2.480469 1.175781c-12.6875 4.617187-26.160157 6.671875-39.648438 6.050781h-1.585937c-13.34375.636719-26.679688-1.359375-39.253906-5.871094l-3.105469-1.425781c-5.777344-2.855469-12.140625-4.332031-18.585938-4.316406-13.34375.085937-26.007812 5.894531-34.78125 15.949219-10.871093 12.40625-15.988281 28.835937-14.089843 45.226562 1.746093 23.117188 18.355468 42.398438 40.960937 47.546875 13.542969 2.40625 27.445313-1.488281 37.769531-10.582031 7.089844-6.675781 16.203125-10.800781 25.898438-11.714844 1.757812-.078125 3.523437-.164062 5.214844-.164062h1.585937c1.527344 0 3.191406.078125 5.625.1875 9.53125.972656 18.480469 5.054687 25.460937 11.625 8.226563 7.234375 18.792969 11.253906 29.746094 11.320312 2.652344 0 5.296875-.234375 7.902344-.707031 22.644531-5.121094 39.304688-24.40625 41.082031-47.554687 1.835938-16.40625-3.328125-32.828126-14.226562-45.226563-13.222657-15.414063-35.09375-20.125-53.488281-11.519531zm50.707031 55.011718c-1.085938 15.515626-11.972657 28.601563-27.035157 32.488282-8.507812 1.449218-17.210937-1.066406-23.636718-6.828125-9.8125-9.039063-22.351563-14.554688-35.644532-15.683594h-.851562c-2.003906-.085937-3.910156-.171875-5.675781-.171875h-1.585938c-1.9375 0-3.96875.09375-6.519531.207031-13.304688 1.128907-25.855469 6.65625-35.667969 15.707031-6.484375 5.753907-15.230469 8.242188-23.765625 6.769532-15.09375-3.800782-25.972656-16.953125-26.882812-32.488282-1.398438-11.570312 2.15625-23.195312 9.789062-32.007812 8.113282-9.738281 21.71875-12.878906 33.28125-7.679688l3.410156 1.5625c14.808594 5.570313 30.585938 8.097657 46.390626 7.429688h1.585937c15.925781.589844 31.808594-1.988281 46.726563-7.585938l1.382812-.65625 1.707031-.851562c11.515625-5.082031 25-1.953125 33.101563 7.679688 7.664062 8.835937 11.257812 20.492187 9.890625 32.109374zm0 0"/><path d="m153.601562 299.15625c.695313-11.898438 8.523438-22.195312 19.804688-26.050781 4.335938-1.59375 6.613281-6.347657 5.140625-10.726563s-6.160156-6.789062-10.578125-5.445312c-1.289062.410156-31.433594 10.832031-31.433594 42.222656 0 4.714844 3.820313 8.535156 8.53125 8.535156 4.714844 0 8.535156-3.820312 8.535156-8.535156zm0 0"/><path d="m344.03125 256.933594c-4.417969-1.34375-9.105469 1.066406-10.578125 5.445312s.804687 9.132813 5.140625 10.726563c11.28125 3.855469 19.109375 14.152343 19.804688 26.050781 0 4.714844 3.820312 8.535156 8.535156 8.535156 4.710937 0 8.53125-3.820312 8.53125-8.535156 0-31.390625-30.144532-41.8125-31.433594-42.222656zm0 0"/><path d="m512 446c-.039062-30.574219-12.46875-59.824219-34.457031-81.066406-9.660157-10.617188-22.195313-18.207032-36.078125-21.847656-8.242188-58.097657-42.6875-109.207032-93.449219-138.648438l33.671875-133.390625c3.828125-15.207031 1.21875-31.316406-7.210938-44.539063-8.359374-13.167968-21.828124-22.257812-37.171874-25.082031-15.339844-2.824219-31.164063.875-43.664063 10.203125-12.601563 9.410156-20.742187 23.621094-22.492187 39.25l-14.296876 128.855469c-.289062 0-.578124 0-.851562 0s-.546875 0-.851562 0l-14.296876-128.894531c-1.699218-15.558594-9.785156-29.714844-22.320312-39.085938s-28.398438-13.121094-43.800781-10.347656c-15.363281 2.90625-28.835938 12.03125-37.238281 25.210938-8.402344 13.183593-10.984376 29.25-7.136719 44.402343l33.679687 133.417969c-14.996094 8.609375-28.742187 19.230469-40.855468 31.574219-28.382813 29.265625-46.8125 66.738281-52.667969 107.085937-13.878907 3.636719-26.402344 11.222656-36.054688 21.835938-21.992187 21.25-34.425781 50.515625-34.457031 81.101562.105469 3.390625.40625 6.777344.90625 10.136719-.570312 1.648437-.875 3.375-.90625 5.121094 0 50.617187 245.546875 51.199219 256 51.199219s256-.582032 256-51.199219c-.03125-1.746094-.335938-3.472657-.90625-5.121094.5-3.371094.800781-6.765625.90625-10.171875zm-223.878906-393.277344c1.15625-10.925781 6.835937-20.867187 15.664062-27.40625 8.707032-6.515625 19.742188-9.097656 30.433594-7.125 10.695312 1.972656 20.078125 8.324219 25.886719 17.515625 5.957031 9.222657 7.785156 20.515625 5.042969 31.148438l-32.714844 129.613281c-18.488282-8.515625-38.261719-13.898438-58.511719-15.925781zm-141.261719 14.105469c-2.6875-10.578125-.886719-21.800781 4.976563-31.007813 5.863281-9.207031 15.265624-15.589843 25.988281-17.628906 10.746093-1.917968 21.808593.710938 30.542969 7.257813 8.734374 6.546875 14.359374 16.421875 15.539062 27.273437l14.226562 127.820313c-20.25 1.980469-40.023437 7.328125-58.507812 15.824219zm109.140625 428.597656c-151.894531 0-235.058594-22.015625-238.933594-34.058593.136719-.335938.246094-.679688.332032-1.03125.242187-.550782.421874-1.121094.546874-1.707032.082032-.566406.101563-1.136718.058594-1.707031.03125-.371094.03125-.746094 0-1.117187-.542968-3.34375-.859375-6.71875-.9375-10.105469.136719-25.980469 10.792969-50.796875 29.542969-68.785157 8.210937-9.605468 19.597656-15.949218 32.085937-17.878906 10.941407-.597656 21.546876 3.894532 28.730469 12.167969 5.578125 5.335937 9.539063 12.140625 11.417969 19.628906 3.082031 13.304688-2.78125 27.945313-16.957031 42.324219-7.78125 7.945312-16.9375 14.417969-27.023438 19.105469-1.316406.632812-2.644531 1.171875-3.96875 1.707031-4.355469 1.804688-6.421875 6.796875-4.621093 11.148438 1.804687 4.355468 6.792968 6.425781 11.148437 4.621093 1.578125-.648437 3.140625-1.304687 4.609375-1.996093 11.933594-5.550782 22.769531-13.203126 31.992188-22.597657 23.390624-23.730469 24.558593-44.738281 21.453124-58.117187-2.550781-10.601563-8.066406-20.253906-15.898437-27.835938-8.375-9.007812-19.535156-14.9375-31.683594-16.835937 5.835938-35.570313 22.40625-68.507813 47.488281-94.398438 31.585938-32.734375 75.128907-51.214843 120.617188-51.199219 84.152344.769532 155.339844 62.429688 168.105469 145.613282-12.128907 1.929687-23.265625 7.855468-31.640625 16.835937-7.828125 7.566407-13.339844 17.203125-15.898438 27.785157-3.121094 13.449218-1.953125 34.457031 21.453125 58.207031 10.410157 10.65625 22.910157 19.039062 36.71875 24.625.992188.386719 2.042969.585937 3.105469.582031 4.101562-.007812 7.613281-2.929688 8.371094-6.957031.757812-4.027344-1.457032-8.027344-5.273438-9.523438-11.589844-4.714843-22.082031-11.777343-30.8125-20.742187-14.191406-14.398438-20.054687-29.015625-16.957031-42.410156 1.878906-7.488282 5.835937-14.292969 11.417969-19.628907 7.179687-8.277343 17.789062-12.765625 28.734375-12.152343 12.480469 1.9375 23.859375 8.277343 32.066406 17.878906 18.753906 17.988281 29.410156 42.8125 29.542969 68.796875-.097656 3.398437-.429688 6.789062-1 10.144531-.027344.414062-.027344.824219 0 1.238281-.011719.386719.003906.773438.042968 1.160157.128907 1.011718.4375 1.992187.914063 2.894531-3.96875 12.335937-87.132813 34.320312-238.890625 34.320312zm0 0"/></svg>