<svg height="512pt" viewBox="-9 0 512 512.10922" width="512pt" xmlns="http://www.w3.org/2000/svg"><path d="m256.105469 426.777344h-17.066407c-4.714843 0-8.535156 3.820312-8.535156 8.53125 0 4.714844 3.820313 8.535156 8.535156 8.535156h17.066407c4.710937 0 8.53125-3.820312 8.53125-8.535156 0-4.710938-3.820313-8.53125-8.53125-8.53125zm0 0"/><path d="m239.039062 196.375c0-14.136719-11.460937-25.597656-25.601562-25.597656-14.136719 0-25.597656 11.460937-25.597656 25.597656 0 14.140625 11.460937 25.601562 25.597656 25.601562 14.140625 0 25.601562-11.460937 25.601562-25.601562zm-34.132812 0c0-4.710938 3.820312-8.53125 8.53125-8.53125 4.714844 0 8.535156 3.820312 8.535156 8.53125 0 4.714844-3.820312 8.535156-8.535156 8.535156-4.710938 0-8.53125-3.820312-8.53125-8.535156zm0 0"/><path d="m281.707031 170.777344c-14.140625 0-25.601562 11.460937-25.601562 25.597656 0 14.140625 11.460937 25.601562 25.601562 25.601562 14.136719 0 25.597657-11.460937 25.597657-25.601562 0-14.136719-11.460938-25.597656-25.597657-25.597656zm0 34.132812c-4.714843 0-8.535156-3.820312-8.535156-8.535156 0-4.710938 3.820313-8.53125 8.535156-8.53125 4.710938 0 8.53125 3.820312 8.53125 8.53125 0 4.714844-3.820312 8.535156-8.53125 8.535156zm0 0"/><path d="m379.71875 104.113281c11.28125-2.695312 22.890625-3.773437 34.476562-3.199219 19.472657-.042968 39.585938 0 57.941407-13.652343 13.328125-9.636719 21.710937-24.671875 22.902343-41.074219.816407-17.417969-8.542968-33.730469-23.996093-41.8125-10.777344-4.4101562-22.621094-5.515625-34.03125-3.183594-1.621094.179688-3.335938.472656-5.015625.769532-63.25 11.664062-109.980469 62.695312-139.265625 106.308593-13.386719-8.964843-29.050781-13.925781-45.160157-14.292969-16.105468.367188-31.769531 5.328126-45.15625 14.292969-29.285156-43.613281-76.015624-94.644531-139.289062-106.316406-1.578125-.289063-3.335938-.582031-4.625-.71875-11.539062-2.359375-23.519531-1.2460938-34.425781 3.210937-15.445313 8.09375-24.796875 24.410157-23.96875 41.828126 1.214843 16.359374 9.585937 31.347656 22.878906 40.960937 18.371094 13.703125 38.449219 13.652344 57.957031 13.652344 11.589844-.609375 23.207032.472656 34.484375 3.210937 20.667969 6.226563 38.210938 20.050782 49.101563 38.6875-32.597656 39.722656-53.488282 93.613282-53.488282 121.855469 0 23.894531 14.925782 45.152344 39.382813 60.496094-.171875.066406-.359375.058593-.53125.136719-24.46875 13.28125-45.851563 31.589843-62.746094 53.714843-6.445312 8.058594-8.503906 18.773438-5.503906 28.648438 5.410156 14.171875 16.601563 25.367187 30.773437 30.789062.726563 3.132813 1.75 6.1875 3.054688 9.128907-29.96875-4.933594-79.644531-6.964844-96.230469 28.867187-3.535156 7.671875-2.890625 16.621094 1.707031 23.707031 4.738282 7.472656 12.976563 11.992188 21.828126 11.980469h409.597656c8.851562.007813 17.09375-4.519531 21.828125-12 4.597656-7.085937 5.242187-16.03125 1.707031-23.703125-16.578125-35.839844-66.269531-33.785156-96.238281-28.859375 1.308593-2.945313 2.332031-6.003906 3.0625-9.140625 14.171875-5.417969 25.363281-16.613281 30.773437-30.789062 2.996094-9.867188.9375-20.578126-5.503906-28.628907-16.894531-22.140625-38.277344-40.464843-62.746094-53.757812-.171875-.078125-.359375-.070313-.53125-.136719 24.457032-15.300781 39.382813-36.558594 39.382813-60.453125 0-28.242187-20.890625-82.132813-53.503907-121.835937 10.902344-18.636719 28.449219-32.457032 49.117188-38.691407zm-259.414062-16.351562c-12.859376-3.238281-26.132813-4.558594-39.378907-3.914063-17.484375 0-33.902343 0-47.746093-10.292968-9.15625-6.597657-14.996094-16.84375-16.007813-28.082032-.523437-10.550781 4.996094-20.480468 14.234375-25.601562 7.921875-3.019532 16.5625-3.617188 24.824219-1.707032 1.277343.15625 2.636719.386719 3.855469.609376 57.695312 10.648437 101.128906 58.628906 128.519531 99.554687-4.25 3.535156-8.316407 7.28125-12.183594 11.230469-13.234375-20.074219-33.09375-34.867188-56.117187-41.796875zm-22.296876 314.984375c-1.410156-4.6875-.359374-9.769532 2.789063-13.515625 9.605469-12.601563 20.859375-23.851563 33.46875-33.445313-3.617187 10.578125-5.644531 21.632813-6.015625 32.804688-8.824219 7.84375-14.660156 18.5-16.519531 30.15625-6.273438-3.605469-11.117188-9.253906-13.722657-16zm362.410157 80.828125c1.097656 2.386719.867187 5.171875-.605469 7.347656-1.609375 2.558594-4.417969 4.113281-7.441406 4.121094h-147.414063c6.601563-5.15625 10.585938-12.964844 10.882813-21.332031 0-4.714844-3.820313-8.535157-8.535156-8.535157-4.710938 0-8.53125 3.820313-8.53125 8.535157 0 8.90625-19.484376 21.332031-51.203126 21.332031-31.714843 0-51.199218-12.425781-51.199218-21.332031 0-4.714844-3.820313-8.535157-8.53125-8.535157-4.714844 0-8.535156 3.820313-8.535156 8.535157.296874 8.367187 4.28125 16.175781 10.878906 21.332031h-147.410156c-3.023438-.007813-5.832032-1.5625-7.441407-4.121094-1.472656-2.175781-1.703125-4.960937-.605469-7.347656 14.417969-31.113281 74.734376-21.503907 98.292969-14.8125 8.5625 6 18.765625 9.21875 29.21875 9.214843 4.714844 0 8.535157-3.820312 8.535157-8.535156 0-4.710937-3.820313-8.53125-8.535157-8.53125-18.851562 0-34.132812-15.28125-34.132812-34.132812 0-18.851563 15.28125-34.136719 34.132812-34.136719 4.714844 0 8.535157-3.820313 8.535157-8.53125 0-4.714844-3.820313-8.535156-8.535157-8.535156-5.414062.003906-10.789062.867187-15.929687 2.5625 2.519531-16.378907 9.230468-31.824219 19.480468-44.84375 25.753907 11.347656 53.640626 17.039062 81.78125 16.683593 28.140626.355469 56.03125-5.328124 81.785157-16.675781 10.242187 13.019531 16.953125 28.464844 19.480469 44.835938-5.140626-1.695313-10.519532-2.558594-15.929688-2.5625-4.714844 0-8.535156 3.820312-8.535156 8.535156 0 4.710937 3.820312 8.53125 8.535156 8.53125 18.851562 0 34.132812 15.285156 34.132812 34.136719 0 18.851562-15.28125 34.132812-34.132812 34.132812-4.714844 0-8.535156 3.820313-8.535156 8.53125 0 4.714844 3.820312 8.535156 8.535156 8.535156 10.449219.003907 20.648438-3.210937 29.207031-9.207031 10.046875-2.664062 82.03125-20.328125 98.304688 14.804688zm-66.074219-94.34375c3.15625 3.738281 4.203125 8.816406 2.785156 13.5-2.609375 6.746093-7.453125 12.394531-13.722656 16-1.859375-11.660157-7.699219-22.316407-16.519531-30.160157-.359375-11.167968-2.371094-22.222656-5.976563-32.800781 12.59375 9.605469 23.839844 20.859375 33.433594 33.460938zm-146.773438-56.320313c-64.757812 0-119.464843-31.257812-119.464843-68.269531 0-23.378906 20.761719-76.996094 52.242187-114.257813.605469-.527343 1.136719-1.136718 1.570313-1.8125 6.621093-7.746093 14.039062-14.777343 22.132812-20.972656.214844-.066406.421875-.148437.625-.238281.386719-.3125.742188-.65625 1.066407-1.035156 11.96875-9.398438 26.617187-14.75 41.828124-15.28125 15.222657.527343 29.878907 5.878906 41.859376 15.28125.320312.378906.679687.722656 1.066406 1.035156.195312.125.425781.136719.621094.246094 8.011718 6.140625 15.363281 13.097656 21.929687 20.761719.484375.796874 1.097656 1.507812 1.820313 2.097656 31.445312 37.257812 52.171874 90.8125 52.171874 114.175781 0 37.011719-54.707031 68.269531-119.46875 68.269531zm71.160157-203.375c-3.867188-3.949218-7.933594-7.699218-12.183594-11.230468 27.390625-40.960938 70.824219-88.910157 128.460937-99.550782 1.277344-.230468 2.636719-.460937 4.265626-.65625 8.140624-1.878906 16.65625-1.269531 24.449218 1.75 9.261719 5.101563 14.800782 15.039063 14.273438 25.597656-.996094 11.269532-6.84375 21.546876-16.023438 28.160157-13.832031 10.316406-30.335937 10.242187-47.734375 10.285156-13.246093-.617187-26.507812.699219-39.375 3.90625-23.019531 6.914063-42.882812 21.683594-56.132812 41.738281zm0 0"/><path d="m290.238281 256.109375h-34.132812v-8.535156c4.710937 0 8.53125-3.820313 8.53125-8.53125 0-4.714844-3.820313-8.535157-8.53125-8.535157h-17.066407c-4.714843 0-8.535156 3.820313-8.535156 8.535157 0 4.710937 3.820313 8.53125 8.535156 8.53125v8.535156h-34.132812c-4.714844 0-8.535156 3.820313-8.535156 8.53125 0 28.277344 22.925781 51.203125 51.199218 51.203125 28.277344 0 51.203126-22.925781 51.203126-51.203125 0-4.710937-3.820313-8.53125-8.535157-8.53125zm-42.667969 42.667969c-15.558593-.023438-29.144531-10.542969-33.054687-25.601563h66.113281c-3.910156 15.058594-17.496094 25.578125-33.058594 25.601563zm0 0"/></svg>