<svg height="512pt" viewBox="-9 0 512 512.12168" width="512pt" xmlns="http://www.w3.org/2000/svg"><path d="m379.726562 104.113281c11.28125-2.695312 22.886719-3.773437 34.472657-3.199219 19.507812-.042968 39.585937 0 57.941406-13.652343 13.328125-9.636719 21.714844-24.671875 22.902344-41.074219.820312-17.417969-8.542969-33.730469-23.992188-41.8125-10.78125-4.4101562-22.625-5.515625-34.03125-3.183594-1.621093.179688-3.339843.472656-5.019531.769532-63.25 11.664062-109.976562 62.695312-139.261719 106.308593-13.386719-8.964843-29.054687-13.925781-45.160156-14.292969-16.105469.367188-31.773437 5.328126-45.160156 14.292969-29.285157-43.613281-76.011719-94.644531-139.289063-106.316406-1.578125-.289063-3.335937-.582031-4.625-.71875-11.539062-2.363281-23.519531-1.2460938-34.421875 3.210937-15.445312 8.09375-24.796875 24.410157-23.96875 41.828126 1.214844 16.359374 9.585938 31.347656 22.875 40.960937 18.375 13.703125 38.476563 13.652344 57.960938 13.652344 11.585937-.609375 23.203125.472656 34.480469 3.210937 20.667968 6.226563 38.210937 20.050782 49.101562 38.6875-32.597656 39.722656-53.488281 93.613282-53.488281 121.855469 0 24.246094 15.4375 45.800781 40.585937 61.195313-24.003906 13.265624-44.996094 31.363281-61.652344 53.152343-5.953124 7.488281-8.175781 17.277344-6.042968 26.597657 3.308594 11.617187 10.992187 21.5 21.4375 27.5625-.164063.964843-.488282 1.886718-.574219 2.878906-1.003906 11.296875 3.0625 22.460937 11.09375 30.472656l34.40625 34.371094c13.207031 13.234375 34.042969 14.992187 49.28125 4.15625 15.523437 4.894531 31.726563 7.285156 48 7.082031 16.285156.207031 32.5-2.183594 48.035156-7.082031 15.234375 10.835937 36.070313 9.078125 49.277344-4.15625l34.375-34.382813c8.03125-8.007812 12.097656-19.171875 11.09375-30.472656-.085937-.988281-.410156-1.910156-.574219-2.875 10.445313-6.066406 18.128906-15.945313 21.4375-27.5625 2.132813-9.320313-.089844-19.101563-6.035156-26.589844-16.65625-21.789062-37.652344-39.886719-61.660156-53.152343 25.148437-15.394532 40.585937-36.949219 40.585937-61.195313 0-28.242187-20.890625-82.132813-53.503906-121.835937 10.898437-18.636719 28.445313-32.457032 49.117187-38.691407zm-259.414062-16.351562c-12.863281-3.238281-26.132812-4.558594-39.382812-3.914063-17.414063 0-33.902344 0-47.742188-10.292968-9.15625-6.597657-14.996094-16.84375-16.007812-28.082032-.527344-10.550781 4.996093-20.480468 14.230468-25.601562 7.921875-3.019532 16.566406-3.617188 24.824219-1.707032 1.28125.15625 2.636719.386719 3.859375.609376 57.691406 10.648437 101.128906 58.628906 128.519531 99.554687-4.253906 3.535156-8.320312 7.28125-12.1875 11.230469-13.230469-20.074219-33.089843-34.867188-56.113281-41.796875zm-19.746094 314.027343c-1.007812-4.433593.125-9.082031 3.054688-12.558593 12.15625-15.828125 26.828125-29.550781 43.433594-40.621094-4.277344 15.074219-6.761719 30.601563-7.398438 46.261719l-18.644531 13.046875c-3.476563 2.519531-6.503907 5.609375-8.953125 9.136719-5.492188-3.609376-9.558594-9.023438-11.492188-15.308594zm61.765625 87.042969-34.375-34.40625c-4.445312-4.460937-6.695312-10.652343-6.144531-16.921875.546875-6.273437 3.835938-11.980468 8.988281-15.601562l21.246094-14.863282c5.699219-3.976562 12.976563-4.925781 19.503906-2.546874 6.53125 2.375 11.492188 7.785156 13.300781 14.492187l13.132813 49.246094c1.730469 6.394531.363281 13.226562-3.6875 18.464843-3.839844 4.710938-9.460937 7.617188-15.523437 8.015626-6.0625.398437-12.019532-1.738282-16.441407-5.90625zm49.3125 2.148438c4.261719-8.375 5.269531-18.027344 2.832031-27.101563l-13.132812-49.253906c-5.132812-19.402344-24.402344-31.527344-44.117188-27.757812 1.667969-17.738282 5.839844-35.148438 12.398438-51.714844 24.730469 10.109375 51.238281 15.152344 77.953125 14.824218 26.691406.300782 53.171875-4.75 77.875-14.855468.203125.527344.394531.980468.613281 1.558594 6.203125 16.105468 10.183594 32.976562 11.835938 50.152343-19.707032-3.75-38.957032 8.375-44.089844 27.765625l-13.132812 49.253906c-2.4375 9.074219-1.429688 18.730469 2.832031 27.101563-23.644531 5.453125-48.222657 5.453125-71.867188 0zm155.554688-36.554688-34.382813 34.378907c-4.417968 4.167968-10.371094 6.308593-16.433594 5.914062-6.0625-.398438-11.683593-3.296875-15.523437-8.003906-4.050781-5.238282-5.417969-12.074219-3.683594-18.46875l13.132813-49.242188c1.75-6.742187 6.726562-12.171875 13.285156-14.507812 2.355469-.875 4.847656-1.324219 7.363281-1.332032 4.355469.011719 8.601563 1.371094 12.152344 3.890626l21.238281 14.867187c5.152344 3.617187 8.445313 9.324219 8.992188 15.59375.550781 6.273437-1.695313 12.46875-6.140625 16.925781zm24.34375-65.195312c2.914062 3.464843 4.039062 8.089843 3.046875 12.507812-1.933594 6.285157-6 11.699219-11.492188 15.308594-2.453125-3.527344-5.480468-6.617187-8.960937-9.136719l-18.636719-13.050781c-.675781-15.683594-3.195312-31.238281-7.511719-46.335937 16.65625 11.085937 31.371094 24.839843 43.554688 40.707031zm-143.964844-56.320313c-64.757813 0-119.464844-31.257812-119.464844-68.269531 0-23.378906 20.761719-76.996094 52.238281-114.257813.609376-.527343 1.136719-1.136718 1.570313-1.8125 6.625-7.746093 14.042969-14.777343 22.136719-20.972656.210937-.066406.417968-.148437.621094-.238281.386718-.3125.746093-.65625 1.066406-1.035156 11.972656-9.398438 26.621094-14.75 41.832031-15.28125 15.21875.527343 29.878906 5.878906 41.855469 15.28125.324218.378906.679687.722656 1.066406 1.035156.195312.125.425781.136719.625.246094 8.011719 6.140625 15.359375 13.097656 21.929688 20.761719.484374.796874 1.097656 1.507812 1.816406 2.097656 31.445312 37.257812 52.171875 90.8125 52.171875 114.175781 0 37.011719-54.707031 68.269531-119.464844 68.269531zm71.160156-203.375c-3.867187-3.949218-7.933593-7.699218-12.1875-11.230468 27.394531-40.960938 70.828125-88.910157 128.460938-99.550782 1.28125-.230468 2.636719-.460937 4.269531-.65625 8.140625-1.878906 16.65625-1.269531 24.445312 1.75 9.261719 5.101563 14.804688 15.039063 14.277344 25.597656-.996094 11.269532-6.847656 21.546876-16.027344 28.160157-13.832031 10.316406-30.359374 10.242187-47.734374 10.285156-13.242188-.617187-26.507813.699219-39.371094 3.90625-23.019532 6.914063-42.882813 21.683594-56.132813 41.738281zm0 0"/><path d="m151.238281 437.785156c-2.457031-2.421875-6.125-3.128906-9.304687-1.792968-2.140625.777343-3.832032 2.464843-4.605469 4.609374-.4375 1.023438-.667969 2.125-.683594 3.242188-.027343 1.117188.203125 2.230469.683594 3.242188.433594 1.03125 1.039063 1.984374 1.792969 2.816406.828125.75 1.78125 1.359375 2.8125 1.789062 2.066406.914063 4.421875.914063 6.488281 0 1.03125-.429687 1.984375-1.039062 2.816406-1.789062.75-.832032 1.355469-1.785156 1.789063-2.816406.914062-2.066407.914062-4.421876 0-6.484376-.429688-1.035156-1.039063-1.988281-1.789063-2.816406zm0 0"/><path d="m176.835938 432.835938c.753906-.832032 1.359374-1.785157 1.792968-2.816407.910156-2.066406.910156-4.421875 0-6.488281-.433594-1.03125-1.039062-1.984375-1.792968-2.8125-3.421876-3.160156-8.695313-3.160156-12.117188 0-.769531.8125-1.378906 1.769531-1.792969 2.8125-.90625 2.066406-.90625 4.421875 0 6.488281.4375 1.03125 1.042969 1.984375 1.792969 2.816407.832031.75 1.78125 1.359374 2.816406 1.789062 3.175782 1.363281 6.859375.652344 9.300782-1.789062zm0 0"/><path d="m185.371094 471.917969c-3.421875-3.160157-8.695313-3.160157-12.117188 0-.773437.816406-1.378906 1.769531-1.792968 2.816406-.910157 2.066406-.910157 4.417969 0 6.484375.433593 1.03125 1.039062 1.984375 1.792968 2.816406.828125.753906 1.78125 1.359375 2.816406 1.792969 3.171876 1.359375 6.855469.648437 9.300782-1.792969.75-.832031 1.355468-1.785156 1.792968-2.816406.910157-2.066406.910157-4.417969 0-6.484375-.433593-1.035156-1.039062-1.988281-1.792968-2.816406zm0 0"/><path d="m356.035156 437.785156c-.828125-.753906-1.78125-1.359375-2.8125-1.792968-3.179687-1.335938-6.847656-.628907-9.304687 1.792968-.75.828125-1.359375 1.78125-1.789063 2.816406-.910156 2.0625-.910156 4.417969 0 6.484376.433594 1.03125 1.039063 1.984374 1.789063 2.816406.832031.75 1.785156 1.359375 2.816406 1.789062 2.066406.914063 4.421875.914063 6.488281 0 1.03125-.429687 1.984375-1.039062 2.8125-1.789062.753906-.832032 1.359375-1.785156 1.792969-2.816406.480469-1.011719.710937-2.125.683594-3.242188-.015625-1.117188-.246094-2.21875-.683594-3.242188-.433594-1.035156-1.039063-1.988281-1.792969-2.816406zm0 0"/><path d="m330.4375 420.71875c-3.421875-3.160156-8.695312-3.160156-12.117188 0-.753906.828125-1.359374 1.78125-1.792968 2.8125-.910156 2.066406-.910156 4.421875 0 6.488281.433594 1.03125 1.039062 1.984375 1.792968 2.816407 2.441407 2.441406 6.125 3.152343 9.300782 1.789062 1.035156-.429688 1.984375-1.039062 2.816406-1.789062.75-.832032 1.355469-1.785157 1.792969-2.816407.910156-2.066406.910156-4.421875 0-6.488281-.414063-1.042969-1.023438-2-1.792969-2.8125zm0 0"/><path d="m321.902344 471.917969c-3.421875-3.160157-8.695313-3.160157-12.117188 0-.753906.828125-1.359375 1.78125-1.789062 2.816406-.910156 2.066406-.910156 4.417969 0 6.484375.433594 1.03125 1.039062 1.984375 1.789062 2.816406 2.445313 2.441406 6.128906 3.152344 9.300782 1.792969 1.035156-.433594 1.988281-1.039063 2.816406-1.792969.753906-.832031 1.359375-1.785156 1.792968-2.816406.910157-2.066406.910157-4.417969 0-6.484375-.414062-1.046875-1.019531-2-1.792968-2.816406zm0 0"/><path d="m227.652344 211.285156c3.519531-3.132812 3.835937-8.519531.707031-12.042968-17.636719-19.820313-43.132813-9.386719-54.167969-1.160157-2.4375 1.828125-3.714844 4.820313-3.351562 7.847657.363281 3.027343 2.316406 5.628906 5.121094 6.828124 2.800781 1.195313 6.03125.808594 8.46875-1.023437.785156-.597656 19.457031-14.34375 31.164062-1.160156 1.503906 1.695312 3.621094 2.722656 5.882812 2.855469 2.261719.132812 4.484376-.640626 6.175782-2.144532zm0 0"/><path d="m266.796875 199.242188c-3.132813 3.535156-2.800781 8.9375.730469 12.066406 3.535156 3.128906 8.9375 2.800781 12.066406-.734375 11.554688-13.019531 30.335938.546875 31.183594 1.179687 3.769531 2.828125 9.117187 2.0625 11.945312-1.707031s2.0625-9.121094-1.707031-11.949219c-11.085937-8.292968-36.597656-18.675781-54.21875 1.144532zm0 0"/><path d="m285.527344 408.855469c2.023437-1.011719 3.566406-2.785157 4.28125-4.933594.71875-2.148437.554687-4.492187-.460938-6.519531-8.753906-14.503906-24.863281-22.917969-41.769531-21.828125-16.898437-1.101563-33.003906 7.300781-41.769531 21.789062-2.070313 4.160157-.402344 9.210938 3.738281 11.320313 4.160156 2.128906 9.261719.535156 11.476563-3.582032 5.9375-8.660156 16.097656-13.425781 26.554687-12.460937 10.449219-.957031 20.597656 3.800781 26.546875 12.445313 2.136719 4.152343 7.21875 5.816406 11.402344 3.726562zm0 0"/><path d="m285.707031 282.886719c-4.109375-2.144531-9.175781-.6875-11.511719 3.3125-.972656 1.476562-2.492187 2.507812-4.226562 2.867187-4.894531.441406-9.792969-.828125-13.855469-3.59375v-13.148437c14.855469-2.785157 25.597657-12.605469 25.597657-24.75 0-14.359375-14.992188-25.597657-34.132813-25.597657s-34.132813 11.238282-34.132813 25.597657c0 12.128906 10.742188 21.949219 25.597657 24.75v13.164062c-4.058594 2.777344-8.960938 4.050781-13.855469 3.59375-1.71875-.359375-3.226562-1.375-4.207031-2.832031-2.160157-4.191406-7.308594-5.835938-11.5-3.675781-4.1875 2.160156-5.832031 7.308593-3.671875 11.5 3.140625 5.667969 8.472656 9.800781 14.746094 11.433593 2.226562.582032 4.523437.867188 6.824218.855469 7.152344-.308593 14.105469-2.445312 20.199219-6.203125 6.09375 3.761719 13.050781 5.898438 20.207031 6.210938 2.304688.011718 4.597656-.273438 6.828125-.855469 6.273438-1.628906 11.601563-5.761719 14.742188-11.433594 2.042969-4.101562.417969-9.085937-3.648438-11.195312zm-55.195312-35.3125c0-3.480469 6.648437-8.53125 17.066406-8.53125s17.066406 5.050781 17.066406 8.53125c0 3.484375-6.648437 8.535156-17.066406 8.535156s-17.066406-5.050781-17.066406-8.535156zm0 0"/><path d="m150.46875 248.257812c-1.035156.433594-1.984375 1.039063-2.816406 1.792969-1.574219 1.625-2.460938 3.796875-2.472656 6.058594 0 4.710937 3.820312 8.53125 8.53125 8.53125 4.714843 0 8.535156-3.820313 8.535156-8.53125-.03125-2.257813-.917969-4.421875-2.476563-6.058594-2.453125-2.421875-6.121093-3.128906-9.300781-1.792969zm0 0"/><path d="m187.84375 247.574219h-8.53125c-4.714844 0-8.535156 3.820312-8.535156 8.535156 0 4.710937 3.820312 8.53125 8.535156 8.53125h8.53125c4.714844 0 8.535156-3.820313 8.535156-8.53125 0-4.714844-3.820312-8.535156-8.535156-8.535156zm0 0"/><path d="m341.445312 264.640625c2.269532.023437 4.453126-.867187 6.058594-2.472656 1.605469-1.605469 2.496094-3.789063 2.472656-6.058594-.011718-2.261719-.898437-4.433594-2.472656-6.058594-.832031-.753906-1.78125-1.359375-2.816406-1.792969-3.179688-1.335937-6.847656-.628906-9.300781 1.792969-1.558594 1.636719-2.445313 3.800781-2.476563 6.058594-.023437 2.269531.871094 4.453125 2.476563 6.058594s3.789062 2.496093 6.058593 2.472656zm0 0"/><path d="m315.84375 247.574219h-8.53125c-4.714844 0-8.535156 3.820312-8.535156 8.535156 0 4.710937 3.820312 8.53125 8.535156 8.53125h8.53125c4.714844 0 8.535156-3.820313 8.535156-8.53125 0-4.714844-3.820312-8.535156-8.535156-8.535156zm0 0"/></svg>