<svg height="512pt" viewBox="0 0 512 512" width="512pt" xmlns="http://www.w3.org/2000/svg"><path d="m443.734375 423.53125v-53.136719c-.058594-53.992187-22.5-105.546875-61.980469-142.378906l14.191406-21.863281c6.65625 4.160156 14.339844 6.378906 22.1875 6.417968 23.554688-.027343 42.640626-19.113281 42.667969-42.667968v-128c-.035156-1.511719-.480469-2.988282-1.289062-4.265625-2.375-12.828125-10.085938-24.042969-21.210938-30.859375-11.121093-6.8125002-24.617187-8.585938-37.125-4.878906-14.96875 4.304687-27.5625 14.480468-34.917969 28.210937l-65.550781 120.746094-9.753906 4.847656c-2.773437-1.878906-6.039063-2.890625-9.386719-2.910156h-51.167968c-3.34375.023437-6.605469 1.03125-9.386719 2.894531l-9.699219-4.847656-65.582031-120.746094c-7.359375-13.710938-19.949219-23.867188-34.90625-28.160156-12.503907-3.707032-25.992188-1.93750025-37.117188 4.871094-11.121093 6.808593-18.835937 18.011718-21.226562 30.832031-.808594 1.277343-1.253907 2.753906-1.28125 4.265625v128c.027343 23.554687 19.113281 42.640625 42.667969 42.667968 7.847656-.039062 15.53125-2.257812 22.1875-6.417968l14.179687 21.949218c-2.378906 2.199219-4.8125 4.335938-7.089844 6.671876-35.394531 36.246093-55.109375 84.960937-54.878906 135.621093v53.136719c-60.859375 11.988281-68.265625 26.453125-68.265625 36.460938 0 50.621093 245.546875 51.203124 256 51.203124s256-.582031 256-51.203124c0-10-7.40625-24.472657-68.265625-36.460938zm-62.492187-385.253906c5.132812-9.664063 13.941406-16.847656 24.441406-19.925782 8.371094-2.554687 17.445312-1.222656 24.726562 3.628907 7.285156 4.851562 12.007813 12.714843 12.871094 21.425781.3125 1.800781.464844 3.628906.453125 5.460938v120.992187c0 14.140625-11.460937 25.601563-25.601563 25.601563-14.136718 0-25.597656-11.460938-25.597656-25.601563v-68.265625c0-4.710938-3.824218-8.53125-8.535156-8.53125s-8.535156 3.820312-8.535156 8.53125v68.265625c.011718 8.746094 2.726562 17.273437 7.777344 24.414063l-14.601563 22.640624c-8.578125-6.59375-17.714844-12.429687-27.308594-17.433593v-34.476563c.175781-10.359375-7.328125-19.261718-17.570312-20.84375zm-191.511719 123.09375c1.261719-.800782 2.851562-.863282 4.171875-.164063l6.878906 3.414063c.085938.050781.171875.078125.265625.128906l12.285156 6.144531v32.023438l-19.429687 9.71875c-1.316406.65625-2.875.589843-4.128906-.175781-1.253907-.765626-2.023438-2.125-2.039063-3.59375v-43.863282c-.03125-1.480468.730469-2.867187 1.996094-3.632812zm40.722656 42.621094v-34.132813l51.148437.292969v33.839844zm68.214844-33.054688 11.996093-5.976562c.324219-.164063.636719-.347657.9375-.542969l6.496094-3.210938c1.320313-.65625 2.882813-.585937 4.140625.1875 1.253907.769531 2.019531 2.136719 2.027344 3.609375v43.863282c.035156 1.480468-.726563 2.863281-1.996094 3.625-1.261719.792968-2.851562.859374-4.171875.171874l-19.429687-9.71875zm-169.910157 23.335938c5.050782-7.140626 7.765626-15.667969 7.777344-24.414063v-68.265625c0-4.710938-3.824218-8.53125-8.535156-8.53125s-8.535156 3.820312-8.535156 8.53125v68.265625c0 14.140625-11.460938 25.601563-25.597656 25.601563-14.140626 0-25.601563-11.460938-25.601563-25.601563v-120.992187c-.007813-1.933594.160156-3.867188.503906-5.769532.941407-8.644531 5.691407-16.417968 12.953125-21.207031 7.261719-4.785156 16.277344-6.082031 24.59375-3.539063 10.492188 3.074219 19.296875 10.25 24.421875 19.90625l57.53125 105.890626c-10.253906 1.574218-17.773437 10.480468-17.601562 20.855468v34.519532c-9.574219 5.003906-18.695313 10.835937-27.257813 17.425781zm127.242188 299.855468c-151.894531 0-235.066406-22.015625-238.933594-33.929687 0-.101563 4.328125-9.6875 51.199219-19.292969v10.554688c0 4.710937 3.820313 8.53125 8.535156 8.53125 4.710938 0 8.53125-3.820313 8.53125-8.53125v-81.066407c-.210937-46.21875 17.765625-90.664062 50.050781-123.734375 11.0625-11.300781 23.636719-21.015625 37.367188-28.867187 3.371094 7.578125 10.894531 12.453125 19.191406 12.433593 3.332032-.007812 6.613282-.789062 9.589844-2.289062l19.523438-9.761719c2.765624 1.859375 6.015624 2.863281 9.34375 2.886719h51.203124c3.34375-.019531 6.609376-1.023438 9.386719-2.886719l19.503907 9.753907c6.609374 3.347656 14.484374 3 20.773437-.914063 3.542969-2.230469 6.339844-5.46875 8.035156-9.300781 54.1875 31.75 87.449219 89.875 87.367188 152.679687v81.066407c0 4.710937 3.820312 8.53125 8.53125 8.53125 4.714843 0 8.535156-3.820313 8.535156-8.53125v-10.554688c46.199219 9.460938 51.054687 18.882812 51.199219 18.882812-3.882813 12.324219-87.039063 34.339844-238.933594 34.339844zm0 0"/><path d="m213.332031 358.046875c4.039063-.003906 7.519531-2.839844 8.34375-6.789063.824219-3.953124-1.230469-7.941406-4.929687-9.5625 5.804687-9.230468 6.761718-20.707031 2.5625-30.769531l7.679687-5.785156c3.769531-2.828125 4.53125-8.175781 1.703125-11.949219-2.824218-3.769531-8.175781-4.53125-11.945312-1.703125l-7.832032 5.867188c-3.71875-2.988281-8.03125-5.15625-12.648437-6.363281v-9.746094c0-4.710938-3.820313-8.53125-8.53125-8.53125-4.714844 0-8.535156 3.820312-8.535156 8.53125v9.746094c-4.617188 1.207031-8.925781 3.375-12.644531 6.363281l-7.835938-5.867188c-3.769531-2.828125-9.117188-2.066406-11.945312 1.703125-2.828126 3.773438-2.0625 9.121094 1.707031 11.949219l7.679687 5.785156c-4.09375 9.792969-3.28125 20.953125 2.183594 30.054688h-4.742188c-.734374.046875-1.457031.191406-2.152343.433593-4.355469-.8125-8.808594.824219-11.597657 4.265626-13.558593 17.546874-20.386718 31.140624-20.386718 40.398437-.472656 16.988281 12.882812 31.164063 29.867187 31.703125 16.988281-.539062 30.34375-14.714844 29.867188-31.703125-1.246094-10.210937-5.230469-19.898437-11.527344-28.03125zm-42.664062-34.132813c0-9.425781 7.640625-17.066406 17.066406-17.066406s17.066406 7.640625 17.066406 17.066406c0 9.425782-7.640625 17.066407-17.066406 17.066407s-17.066406-7.640625-17.066406-17.066407zm-21.335938 76.800782c-7.550781-.554688-13.257812-7.078125-12.796875-14.636719 2.34375-9.050781 6.71875-17.453125 12.796875-24.558594 6.078125 7.109375 10.457031 15.507813 12.800781 24.558594.460938 7.558594-5.246093 14.082031-12.800781 14.636719zm0 0"/><path d="m166.167969 139.738281-5.332031-8.535156c-1.617188-2.589844-4.492188-4.121094-7.546876-4.015625-3.054687.105469-5.816406 1.828125-7.253906 4.527344-1.433594 2.695312-1.324218 5.953125.292969 8.542968l5.335937 8.535157c2.5 4.003906 7.773438 5.226562 11.777344 2.726562 4.007813-2.5 5.226563-7.777343 2.726563-11.78125zm0 0"/><path d="m348.542969 151.539062c3.996093 2.5 9.257812 1.289063 11.761719-2.703124l5.332031-8.535157c2.5-4.003906 1.277343-9.28125-2.726563-11.78125-4.007812-2.5-9.28125-1.277343-11.78125 2.726563l-5.332031 8.535156c-1.195313 1.921875-1.578125 4.242188-1.0625 6.449219.511719 2.203125 1.886719 4.117187 3.808594 5.308593zm0 0"/><path d="m290.132812 400.714844h-17.066406c-4.710937 0-8.53125-3.824219-8.53125-8.535156v-25.601563c4.710938 0 8.53125-3.820313 8.53125-8.53125 0-4.714844-3.820312-8.535156-8.53125-8.535156h-17.070312c-4.710938 0-8.53125 3.820312-8.53125 8.535156 0 4.710937 3.820312 8.53125 8.53125 8.53125v25.601563c0 4.710937-3.820313 8.535156-8.53125 8.535156h-17.066406c-14.140626 0-25.601563 11.460937-25.601563 25.597656v8.535156c0 4.710938 3.820313 8.53125 8.535156 8.53125 4.710938 0 8.53125-3.820312 8.53125-8.53125v-8.535156c0-4.710938 3.820313-8.53125 8.535157-8.53125h17.066406c6.316406-.023438 12.402344-2.394531 17.066406-6.65625 4.664062 4.261719 10.75 6.632812 17.066406 6.65625h17.066406c4.714844 0 8.535157 3.820312 8.535157 8.53125v8.535156c0 4.710938 3.820312 8.53125 8.53125 8.53125 4.714843 0 8.535156-3.820312 8.535156-8.53125v-8.535156c0-14.136719-11.460937-25.597656-25.601563-25.597656zm0 0"/><path d="m360.558594 341.414062c-.695313-.238281-1.421875-.386718-2.160156-.433593h-4.742188c5.453125-9.105469 6.253906-20.265625 2.148438-30.054688l7.679687-5.785156c3.773437-2.828125 4.535156-8.175781 1.707031-11.949219-2.828125-3.769531-8.175781-4.53125-11.945312-1.703125l-7.832032 5.867188c-3.710937-2.984375-8.007812-5.152344-12.613281-6.363281v-9.746094c0-4.710938-3.820312-8.53125-8.535156-8.53125-4.710937 0-8.53125 3.820312-8.53125 8.53125v9.746094c-4.617187 1.207031-8.929687 3.375-12.648437 6.363281l-7.832032-5.867188c-3.769531-2.828125-9.121094-2.066406-11.945312 1.703125-2.828125 3.773438-2.066406 9.121094 1.703125 11.949219l7.679687 5.785156c-4.199218 10.0625-3.242187 21.539063 2.5625 30.769531-3.699218 1.621094-5.753906 5.609376-4.929687 9.5625.824219 3.949219 4.304687 6.785157 8.34375 6.789063h45.660156c-6.292969 8.136719-10.277344 17.820313-11.527344 28.03125-.648437 11.089844 4.894531 21.621094 14.40625 27.363281 9.507813 5.738282 21.414063 5.738282 30.921875 0 9.507813-5.742187 15.054688-16.273437 14.40625-27.363281 0-9.257813-6.828125-22.851563-20.398437-40.40625-2.785157-3.433594-7.230469-5.070313-11.578125-4.257813zm-53.359375-17.5c0-9.425781 7.640625-17.066406 17.066406-17.066406s17.066406 7.640625 17.066406 17.066406c0 9.425782-7.640625 17.066407-17.066406 17.066407s-17.066406-7.640625-17.066406-17.066407zm55.46875 76.800782c-7.554688-.554688-13.261719-7.078125-12.800781-14.636719 2.34375-9.050781 6.722656-17.453125 12.800781-24.558594 6.074219 7.109375 10.453125 15.507813 12.796875 24.558594.460937 7.558594-5.246094 14.082031-12.796875 14.636719zm0 0"/></svg>