<svg height="512pt" viewBox="-57 0 512 512.02178" width="512pt" xmlns="http://www.w3.org/2000/svg"><path d="m343.757812 325.78125c11.460938 0 48.847657-5.058594 48.847657-69.757812 0-75.683594-35.621094-141.65625-56.851563-174.21875-.136718-.203126-.355468-.316407-.503906-.511719-27.535156-50.894531-81.113281-82.226563-138.972656-81.2695315-57.941406-.9687495-111.589844 30.4492185-139.09375 81.4570315-.09375.121093-.238282.1875-.324219.324219-21.230469 32.5625-56.8476562 98.550781-56.8476562 174.21875 0 64.699218 37.3828122 69.75 48.8437502 69.757812 7.757812-.136719 15.410156-1.851562 22.484375-5.035156-7.066406 20.378906-10.976563 41.714844-11.59375 63.277344-.394532 18.835937 4.894531 37.351562 15.171875 53.144531-24.074219 4.949219-40.773438 19.164062-40.773438 36.453125 0 38.402344 31.734375 38.402344 59.734375 38.402344 28.730469 0 52.050782-12.425782 58.136719-29.542969 14.59375 2.714843 29.417969 4.035156 44.261719 3.941406 14.847656.09375 29.667968-1.226563 44.261718-3.941406 6.085938 17.117187 29.40625 29.542969 58.136719 29.542969 23.433594 0 49.417969-.09375 57.285157-22.605469 1.851562-.53125 3.671874-1.164063 5.453124-1.894531 13.910157-5.570313 25.03125-16.445313 30.917969-30.222657 5.886719-13.777343 6.050781-29.332031.460938-43.234375-.828125-2.03125-1.785157-4.011718-2.867188-5.921875 1.488281-10.027343 3.832031-19.914062 7.011719-29.542969.914062-2.609374.503906-5.5-1.097656-7.757812-1.601563-2.253906-4.199219-3.59375-6.964844-3.589844h-.109375c-14.78125-.132812-29.289063 3.964844-41.816406 11.808594-4.761719-.542969-9.578125-.480469-14.324219.1875-1.140625-19.949219-5.003906-39.648438-11.480469-58.554688 7.113281 3.21875 14.808594 4.949219 22.613281 5.085938zm0-17.066406c-23.226562 0-51.035156-24.941406-53.375-56.6875 3.609376-2.558594 7.066407-5.316406 10.394532-8.164063 2.558594 14.230469 7.875 28.160157 18.492187 34.550781 3.449219 2.105469 7.417969 3.21875 11.460938 3.207032 2.453125-.007813 4.890625-.390625 7.226562-1.132813 8.007813-2.75 14.476563-8.765625 17.792969-16.554687 3.800781-10.882813 4.683594-22.574219 2.558594-33.90625-2.667969-17.558594-7.492188-34.722656-14.363282-51.105469 3.597657-11.535156 5.546876-23.519531 5.796876-35.601563 16.308593 35.378907 25.101562 73.753907 25.820312 112.703126 0 33.476562-11.585938 52.675781-31.785156 52.691406zm-9.46875-106.402344c3.226563 9.78125 5.605469 19.824219 7.113282 30.011719 1.707031 8.246093 1.253906 16.789062-1.320313 24.808593-1.347656 3.261719-3.984375 5.828126-7.289062 7.082032-1.554688.578125-3.289063.429687-4.726563-.402344-6.109375-3.6875-10.617187-16.988281-12.066406-35.027344 7.085938-8.101562 13.226562-16.980468 18.304688-26.472656zm-283.429687 30.039062c1.523437-10.308593 3.9375-20.464843 7.222656-30.355468 5.042969 9.496094 11.152344 18.390625 18.207031 26.503906-1.433593 18.1875-5.972656 31.574219-12.117187 35.320312-1.425781.835938-3.15625.980469-4.699219.394532-3.296875-1.242188-5.929687-3.796875-7.273437-7.050782-2.578125-8.015624-3.03125-16.566406-1.320313-24.8125zm-2.011719 76.363282c-20.191406-.015625-31.769531-19.214844-31.769531-52.691406.707031-38.882813 9.464844-77.191407 25.710937-112.523438.261719 11.890625 2.175782 23.683594 5.683594 35.046875-6.949218 16.503906-11.820312 33.804687-14.507812 51.507813-2.117188 11.339843-1.222656 23.035156 2.601562 33.921874 3.316406 7.773438 9.777344 13.777344 17.777344 16.511719 2.339844.742188 4.777344 1.125 7.234375 1.132813 4.035156.007812 7.996094-1.09375 11.445313-3.191406 10.675781-6.425782 15.957031-20.480469 18.542968-34.765626 3.410156 2.945313 6.980469 5.761719 10.691406 8.414063-2.363281 31.738281-30.15625 56.636719-53.375 56.636719zm45.03125 186.242187c-32.242187 0-42.667968-1.65625-42.667968-21.335937 0-9.042969 15.019531-19.378906 36.882812-20.964844 13.515625 12.042969 29.628906 20.804688 47.085938 25.597656-4.480469 8.601563-20.609376 16.703125-41.300782 16.703125zm204.796875 0c-20.691406 0-36.820312-8.101562-41.300781-16.691406 17.457031-4.796875 33.574219-13.558594 47.089844-25.601563 21.859375 1.578126 36.878906 11.914063 36.878906 20.957032.023438 2.203125-.144531 4.402344-.511719 6.570312-.0625.210938-.117187.425782-.152343.640625-2.707032 12.859375-14.269532 14.125-42.003907 14.125zm73.917969-86.09375c0 .441407.039062.882813.109375 1.320313.003906.4375.039063.875.113281 1.308594.140625.671874.371094 1.328124.679688 1.945312.078125.273438.171875.539062.285156.800781 1.203125 1.976563 2.261719 4.039063 3.164062 6.167969 7.707032 18.917969-.480468 40.578125-18.773437 49.664062-2.117187-15.664062-18.117187-28.296874-40.515625-32.902343 8.023438-12.167969 12.980469-26.09375 14.445312-40.59375 1.347657-.296875 2.699219-.496094 4.046876-.65625 1.203124 2.582031 3.617187 4.394531 6.4375 4.828125 2.816406.433594 5.664062-.566406 7.589843-2.667969 1.195313-1.1875 2.5-2.261719 3.890625-3.210937 6.871094-4.835938 14.75-8.0625 23.042969-9.429688-2.039063 7.695312-3.546875 15.523438-4.515625 23.425781zm-56.847656-24.839843c.792968 19.847656-6.476563 39.171874-20.15625 53.570312-.121094.101562-.207032.230469-.316406.339844-27.09375 27.488281-74.300782 31.421875-98.996094 31.421875-24.695313 0-71.867188-3.925781-98.988282-31.386719-.125-.128906-.230468-.273438-.363281-.398438-13.664062-14.402343-20.917969-33.714843-20.113281-53.546874 1.25-27.738282 7.746094-54.984376 19.148438-80.300782 11.351562-11.445312 19.070312-25.992187 22.183593-41.8125 7.742188 4.246094 15.824219 7.835938 24.167969 10.726563 2.914062 1.125 6.210938.566406 8.589844-1.457031 2.382812-2.019532 3.46875-5.179688 2.835937-8.238282-.636719-3.058594-2.890625-5.527344-5.878906-6.433594-52.710937-18.082031-88.113281-64.597656-88.113281-115.6875 0-68.222656 61.25-123.730468 136.53125-123.730468s136.535156 55.507812 136.535156 123.730468c-.296875 29.410157-11.632812 57.632813-31.761719 79.070313l-.292969.300781c-15.382812 16.574219-34.644531 29.070313-56.054687 36.359375-2.988281.90625-5.242187 3.375-5.878906 6.433594-.632813 3.058594.453125 6.21875 2.835937 8.238281 2.382813 2.019532 5.675782 2.578125 8.589844 1.457032 8.367188-2.902344 16.472656-6.5 24.234375-10.761719 3.09375 15.753906 10.757813 30.246093 22.035156 41.667969 11.433594 25.355468 17.957031 52.648437 19.226563 80.4375zm0 0"/><path d="m144.105469 333.386719c-4.402344-1.6875-9.339844.511719-11.027344 4.914062-1.6875 4.402344.515625 9.335938 4.917969 11.023438 5.695312 2.28125 10.855468 5.71875 15.152344 10.097656 10.011718 10.007813 11.027343 19.148437 3.023437 27.160156-2.957031 3.28125-7.121094 5.21875-11.539063 5.367188-6.074218-.726563-11.652343-3.722657-15.613281-8.386719-4.386719-4.292969-7.828125-9.453125-10.105469-15.148438-1.683593-4.402343-6.617187-6.605468-11.019531-4.917968-4.402343 1.683594-6.605469 6.617187-4.921875 11.019531 3.128906 7.929687 7.878906 15.121094 13.945313 21.113281 6.988281 7.875 16.796875 12.683594 27.304687 13.378906h.597656c8.863282-.160156 17.28125-3.898437 23.339844-10.367187 11.664063-11.667969 17-31.277344-3.019531-51.304687-5.972656-6.054688-13.136719-10.804688-21.035156-13.949219zm0 0"/><path d="m284.65625 363.542969c-4.398438-1.683594-9.328125.515625-11.015625 4.914062-2.277344 5.695313-5.71875 10.855469-10.101563 15.148438-3.960937 4.664062-9.539062 7.660156-15.617187 8.386719-4.433594-.113282-8.617187-2.074219-11.539063-5.410157-8.003906-8.011719-6.988281-17.152343 3.015626-27.152343 4.296874-4.382813 9.460937-7.824219 15.160156-10.105469 4.402344-1.6875 6.605468-6.621094 4.917968-11.023438-1.6875-4.402343-6.625-6.601562-11.027343-4.914062-7.925781 3.132812-15.117188 7.878906-21.109375 13.941406-20.019532 20.019531-14.6875 39.628906-3.023438 51.292969 6.058594 6.46875 14.480469 10.210937 23.339844 10.371094h.597656c10.507813-.699219 20.320313-5.503907 27.308594-13.382813 6.078125-5.984375 10.839844-13.175781 13.976562-21.109375 1.648438-4.375-.53125-9.257812-4.882812-10.957031zm0 0"/><path d="m179.210938 128.023438c-.035157-4.085938-2.996094-7.554688-7.023438-8.226563l5.972656-5.914063c.15625-.15625.445313-.480468.675782-.761718 5.753906-5.828125 8.949218-13.710938 8.875-21.902344-.078126-8.191406-3.414063-16.011719-9.277344-21.734375-9.988282-9.378906-24.800782-11.445313-36.972656-5.164063-12.355469-7.132812-27.929688-5.300781-38.289063 4.503907-5.933594 5.742187-9.289063 13.636719-9.304687 21.890625-.015626 8.25 3.308593 16.160156 9.21875 21.921875l7.132812 6.988281c-4.628906.261719-8.1875 4.191406-7.988281 8.824219.199219 4.628906 4.082031 8.242187 8.714843 8.105469h59.730469c4.714844 0 8.535157-3.820313 8.535157-8.53125zm-64-47.113282c5.59375-5.226562 14.28125-5.226562 19.875 0 3.160156 3.15625 8.222656 3.34375 11.605468.425782 5.757813-4.894532 14.261719-4.734376 19.832032.375 2.640624 2.582031 4.128906 6.121093 4.128906 9.8125 0 3.695312-1.488282 7.234374-4.128906 9.816406-.136719.132812-.394532.425781-.625.699218l-17.742188 17.449219h-13.652344l-19.378906-19.003906c-2.664062-2.527344-4.175781-6.039063-4.179688-9.710937.011719-3.734376 1.554688-7.296876 4.265626-9.863282zm0 0"/><path d="m221.1875 119.625c-4.609375.273438-8.152344 4.191406-7.964844 8.804688.1875 4.613281 4.039063 8.226562 8.65625 8.125h59.730469c4.714844 0 8.535156-3.820313 8.535156-8.53125-.035156-4.085938-2.996093-7.554688-7.023437-8.226563l5.972656-5.914063c.15625-.15625.445312-.480468.675781-.761718 5.753907-5.828125 8.949219-13.710938 8.875-21.902344-.078125-8.191406-3.414062-16.011719-9.277343-21.734375-9.988282-9.378906-24.800782-11.445313-36.972657-5.164063-12.355469-7.132812-27.929687-5.300781-38.289062 4.503907-5.933594 5.742187-9.289063 13.636719-9.304688 21.890625-.015625 8.25 3.308594 16.160156 9.21875 21.921875zm4.957031-38.714844c5.59375-5.226562 14.28125-5.226562 19.875 0 3.160157 3.15625 8.21875 3.34375 11.605469.425782 5.757812-4.894532 14.261719-4.734376 19.832031.375 2.640625 2.582031 4.128907 6.121093 4.128907 9.8125 0 3.695312-1.488282 7.234374-4.128907 9.816406-.136719.132812-.394531.425781-.625.699218l-17.742187 17.449219h-13.652344l-19.378906-19.003906c-2.664063-2.527344-4.175782-6.039063-4.179688-9.710937.011719-3.734376 1.554688-7.296876 4.265625-9.863282zm0 0"/><path d="m217.609375 210.984375c16.496094 0 29.867187-13.375 29.867187-29.867187 0-4.714844-3.820312-8.535157-8.53125-8.535157-4.714843 0-8.535156 3.820313-8.535156 8.535157 0 7.066406-5.730468 12.800781-12.800781 12.800781-7.066406 0-12.796875-5.734375-12.796875-12.800781v-21.335938c4.710938 0 8.53125-3.820312 8.53125-8.53125 0-4.714844-3.820312-8.535156-8.53125-8.535156h-17.066406c-4.714844 0-8.535156 3.820312-8.535156 8.535156 0 4.710938 3.820312 8.53125 8.535156 8.53125v21.335938c0 7.066406-5.734375 12.800781-12.800782 12.800781-7.070312 0-12.800781-5.734375-12.800781-12.800781 0-4.714844-3.820312-8.535157-8.535156-8.535157-4.710937 0-8.53125 3.820313-8.53125 8.535157-.023437 12.144531 7.328125 23.09375 18.578125 27.667968 11.253906 4.578125 24.15625 1.875 32.621094-6.839844 5.597656 5.773438 13.292968 9.03125 21.332031 9.039063zm0 0"/></svg>