<svg height="512pt" viewBox="-57 0 512 512.00573" width="512pt" xmlns="http://www.w3.org/2000/svg"><path d="m144.097656 333.367188c-4.402344-1.683594-9.335937.519531-11.023437 4.921874-1.683594 4.402344.519531 9.335938 4.921875 11.019532 5.691406 2.28125 10.851562 5.71875 15.144531 10.09375 10.011719 10.019531 11.027344 19.152344 3.023437 27.164062-8.003906 8.011719-17.152343 7.003906-27.152343-3.019531-4.382813-4.292969-7.824219-9.453125-10.105469-15.148437-1.089844-2.847657-3.617188-4.898438-6.625-5.378907-3.011719-.476562-6.050781.683594-7.972656 3.050781-1.921875 2.371094-2.433594 5.582032-1.34375 8.429688 3.136718 7.925781 7.882812 15.117188 13.945312 21.109375 7.070313 8.058594 17.109375 12.898437 27.816406 13.417969 8.898438-.207032 17.34375-3.949219 23.476563-10.394532 11.664063-11.667968 17-31.265624-3.019531-51.304687-5.988282-6.058594-13.167969-10.8125-21.085938-13.960937zm0 0"/><path d="m224.308594 398.632812c6.132812 6.445313 14.582031 10.1875 23.476562 10.394532 10.714844-.519532 20.761719-5.359375 27.84375-13.417969 6.066406-5.992187 10.820313-13.183594 13.960938-21.109375 1.683594-4.402344-.515625-9.335938-4.917969-11.019531-4.402344-1.6875-9.335937.515625-11.023437 4.917969-2.277344 5.691406-5.714844 10.851562-10.09375 15.148437-10.027344 10.035156-19.148438 11.007813-27.160157 3.019531-8.015625-7.988281-6.988281-17.144531 3.019531-27.152344 4.292969-4.382812 9.453126-7.824218 15.148438-10.105468 4.398438-1.683594 6.601562-6.617188 4.917969-11.019532-1.683594-4.402343-6.621094-6.605468-11.019531-4.921874-7.933594 3.132812-15.128907 7.882812-21.128907 13.945312-20.019531 20.054688-14.6875 39.652344-3.023437 51.320312zm0 0"/><path d="m170.667969 145.074219c-.023438-2.105469-.3125-4.199219-.851563-6.230469l5.597656-3.746094c2.59375-1.671875 4.082032-4.609375 3.898438-7.6875-.1875-3.078125-2.019531-5.816406-4.792969-7.164062-2.777343-1.347656-6.0625-1.089844-8.59375.667968l-5.582031 3.738282c-2.050781-1.535156-4.324219-2.753906-6.742188-3.609375v-10.105469c0-4.710938-3.820312-8.53125-8.53125-8.53125-4.714843 0-8.535156 3.820312-8.535156 8.53125v10.105469c-2.414062.855469-4.6875 2.074219-6.742187 3.609375l-5.578125-3.738282c-3.914063-2.519531-9.125-1.441406-11.714844 2.429688-2.585938 3.867188-1.597656 9.097656 2.226562 11.753906l5.597657 3.746094c-2.554688 9.644531.730469 19.894531 8.414062 26.257812 7.683594 6.367188 18.367188 7.6875 27.367188 3.386719 9.003906-4.300781 14.6875-13.4375 14.5625-23.414062zm-34.132813 0c0-4.714844 3.820313-8.535157 8.535156-8.535157 4.710938 0 8.53125 3.820313 8.53125 8.535157 0 4.710937-3.820312 8.53125-8.53125 8.53125-4.714843 0-8.535156-3.820313-8.535156-8.53125zm0 0"/><path d="m238.9375 187.738281h-34.132812v-8.53125c4.710937 0 8.53125-3.820312 8.53125-8.535156 0-4.710937-3.820313-8.53125-8.53125-8.53125h-17.070313c-4.710937 0-8.53125 3.820313-8.53125 8.53125 0 4.714844 3.820313 8.535156 8.53125 8.535156v8.53125h-34.132813c-4.710937 0-8.53125 3.820313-8.53125 8.535157 0 28.277343 22.921876 51.199218 51.199219 51.199218 28.277344 0 51.199219-22.921875 51.199219-51.199218 0-4.714844-3.820312-8.535157-8.53125-8.535157zm-42.667969 42.667969c-15.558593-.015625-29.144531-10.539062-33.050781-25.601562h66.101562c-3.90625 15.0625-17.492187 25.585937-33.050781 25.601562zm0 0"/><path d="m268.324219 120.914062-5.578125 3.738282c-2.054688-1.535156-4.328125-2.753906-6.742188-3.609375v-10.105469c0-4.710938-3.820312-8.53125-8.535156-8.53125-4.710938 0-8.53125 3.820312-8.53125 8.53125v10.105469c-2.417969.855469-4.691406 2.074219-6.742188 3.609375l-5.582031-3.738282c-3.914062-2.519531-9.125-1.441406-11.710937 2.429688-2.589844 3.867188-1.601563 9.097656 2.222656 11.753906l5.597656 3.746094c-2.75 10.386719 1.277344 21.382812 10.082032 27.539062 8.808593 6.152344 20.519531 6.152344 29.328124 0 8.808594-6.15625 12.835938-17.152343 10.082032-27.539062l5.597656-3.746094c2.59375-1.671875 4.085938-4.609375 3.898438-7.6875s-2.019532-5.816406-4.792969-7.164062c-2.773438-1.347656-6.058594-1.089844-8.59375.667968zm-20.855469 32.691407c-4.710938 0-8.53125-3.820313-8.53125-8.53125 0-4.714844 3.820312-8.535157 8.53125-8.535157 4.714844 0 8.535156 3.820313 8.535156 8.535157 0 4.710937-3.820312 8.53125-8.535156 8.53125zm0 0"/><path d="m271.5 3.195312c-6.285156-3.910156-14.15625-4.253906-20.761719-.910156l-18.960937 9.480469c-2.878906-2.09375-6.347656-3.222656-9.90625-3.226563h-51.203125c-3.558594.003907-7.027344 1.132813-9.90625 3.226563l-18.960938-9.480469c-6.609375-3.300781-14.453125-2.949218-20.738281.933594-6.285156 3.878906-10.117188 10.734375-10.125 18.121094v35.164062c-23.144531 13.863282-41.902344 33.976563-54.121094 58.027344-21.238281 32.5625-56.81249975 98.476562-56.81249975 174.113281 0 64.699219 37.38281275 69.761719 48.84374975 69.761719 4.554688-.039062 9.082032-.667969 13.472656-1.871094-1.625 9.070313-2.488281 18.257813-2.585937 27.46875-.390625 18.839844 4.898437 37.355469 15.175781 53.148438-24.074218 4.949218-40.773437 19.164062-40.773437 36.453125 0 38.398437 31.734375 38.398437 59.734375 38.398437 28.722656 0 52.050781-12.421875 58.136718-29.539062 14.59375 2.714844 29.414063 4.035156 44.261719 3.941406 14.835938.078125 29.648438-1.273438 44.226563-4.027344 6.027344 17.160156 29.398437 29.625 58.171875 29.625 23.433593 0 49.417969-.09375 57.285156-22.601562 1.851563-.53125 3.671875-1.164063 5.453125-1.894532 13.910156-5.570312 25.03125-16.445312 30.917969-30.222656 5.886719-13.78125 6.050781-29.332031.460937-43.234375-.828125-2.035156-1.785156-4.011719-2.867187-5.921875 1.488281-10.03125 3.832031-19.914062 7.011719-29.542968.914062-2.609376.503906-5.503907-1.097657-7.757813-1.601562-2.253906-4.199219-3.59375-6.964843-3.589844h-.109376c-14.78125-.132812-29.289062 3.964844-41.816406 11.808594-4.761718-.542969-9.578125-.480469-14.328125.1875-.304687-7.625-1.125-15.21875-2.457031-22.730469 4.429688 1.21875 9 1.859375 13.59375 1.902344 11.460938 0 48.847656-5.0625 48.847656-69.761719 0-75.679687-35.621094-141.652343-56.851562-174.214843-.050782-.078126-.136719-.113282-.1875-.1875-12.222656-23.917969-30.917969-43.925782-53.957032-57.738282v-35.164062c.03125-7.398438-3.796874-14.273438-10.101562-18.144532zm-13.132812 14.355469c1.316406-.65625 2.878906-.589843 4.136718.183594 1.253906.769531 2.023438 2.132813 2.03125 3.605469v43.859375c.039063 1.480469-.722656 2.867187-1.996094 3.628906-1.261718.792969-2.851562.859375-4.171874.167969l-19.429688-9.691406v-31.992188zm-87.699219 42.1875v-33.457031c.089843-.222656.164062-.445312.222656-.675781h50.757813c.046874.226562.105468.453125.179687.675781l.042969.050781v33.40625zm-42.664063-38.398437c.003906-1.476563.769532-2.84375 2.027344-3.621094 1.253906-.773438 2.820312-.84375 4.140625-.1875l19.429687 9.78125v31.992188l-19.429687 9.710937c-1.320313.6875-2.910156.625-4.171875-.171875-1.273438-.757812-2.035156-2.144531-1.996094-3.625zm-77.132812 243.632812c1.519531-10.300781 3.933594-20.453125 7.21875-30.335937 5.027344 9.503906 11.136718 18.390625 18.210937 26.488281-1.433593 18.160156-5.976562 31.574219-12.117187 35.285156-1.425782.835938-3.152344.980469-4.695313.394532-3.296875-1.238282-5.933593-3.792969-7.277343-7.050782-2.578126-8.003906-3.039063-16.542968-1.339844-24.78125zm-2.015625 76.367188c-20.207031 0-31.785157-19.21875-31.785157-52.695313.703126-38.871093 9.457032-77.179687 25.703126-112.503906.222656 11.941406 2.113281 23.789063 5.621093 35.203125-6.910156 16.453125-11.761719 33.699219-14.4375 51.34375-2.105469 11.335938-1.210937 23.027344 2.601563 33.910156 3.324218 7.773438 9.78125 13.773438 17.777344 16.511719 2.339843.746094 4.777343 1.128906 7.234374 1.136719 4.035157.007812 7.996094-1.097656 11.445313-3.191406 10.648437-6.410157 15.921875-20.378907 18.515625-34.628907 3.457031 2.9375 7.046875 5.640625 10.726562 8.199219-2.328124 31.769531-30.148437 56.714844-53.375 56.714844zm45.015625 153.597656c-32.242188 0-42.667969-1.652344-42.667969-21.332031 0-9.046875 15.019531-19.378907 36.878906-20.964844 13.519531 12.042969 29.632813 20.804687 47.089844 25.597656-4.480469 8.601563-20.617187 16.699219-41.300781 16.699219zm204.796875 0c-20.761719 0-36.9375-8.148438-41.359375-16.773438 17.351562-4.839843 33.363281-13.578124 46.824218-25.550781 22.03125 1.503907 37.203126 11.945313 37.203126 20.992188.023437 2.203125-.144532 4.398437-.511719 6.570312-.0625.207031-.113281.417969-.152344.632813-2.699219 12.867187-14.269531 14.128906-42.003906 14.128906zm73.917969-86.089844c0 .441406.039062.882813.109374 1.320313.003907.4375.039063.875.113282 1.304687.140625.675782.371094 1.332032.679687 1.949219.078125.269531.171875.539063.28125.800781 1.207031 1.976563 2.265625 4.039063 3.167969 6.167969 7.707031 18.917969-.480469 40.578125-18.773438 49.664063-2.125-15.707032-18.210937-28.363282-40.710937-32.9375 8.039063-12.140626 13.019531-26.046876 14.503906-40.535157 1.375-.296875 2.765625-.523437 4.164063-.679687 1.207031 2.582031 3.621094 4.394531 6.4375 4.828125 2.820312.433593 5.667968-.566407 7.59375-2.671875 1.195312-1.183594 2.496094-2.257813 3.890625-3.207032 6.871093-4.839843 14.746093-8.0625 23.039062-9.429687-2.03125 7.695313-3.535156 15.523437-4.496093 23.425781zm-28.816407-67.507812c-23.246093 0-51.082031-24.976563-53.378906-56.765625 3.570313-2.492188 7.066406-5.117188 10.421875-7.984375 2.558594 14.199218 7.875 28.082031 18.457031 34.457031 3.457031 2.101563 7.429688 3.207031 11.476563 3.199219 2.457031-.007813 4.898437-.390625 7.238281-1.144532 8.007813-2.738281 14.472656-8.753906 17.78125-16.546874 3.804687-10.882813 4.6875-22.570313 2.558594-33.902344-2.660157-17.5-7.460938-34.609375-14.292969-50.941406 3.574219-11.589844 5.503906-23.625 5.734375-35.746094 16.296875 35.371094 25.078125 73.742187 25.789063 112.679687 0 33.476563-11.589844 52.695313-31.785157 52.695313zm-9.480469-106.421875c3.230469 9.789062 5.617188 19.835937 7.125 30.03125 1.707032 8.242187 1.25 16.789062-1.324218 24.804687-1.347656 3.265625-3.984375 5.828125-7.285156 7.082032-1.558594.589843-3.296876.441406-4.730469-.398438-6.117188-3.6875-10.621094-17.023438-12.074219-35.089844 7.125-8.050781 13.261719-16.921875 18.289062-26.429687zm-13.390624-111.972657c13.253906 26.503907 15.542968 57.15625 6.367187 85.332032-.1875.460937-.335937.933594-.4375 1.417968-5.382813 15.851563-14.074219 30.375-25.496094 42.617188-.273437.265625-.527343.550781-.757812.851562-7.054688 7.683594-15.054688 14.441407-23.808594 20.113282-9.949219 6.679687-20.726563 12.027344-32.0625 15.90625-2.914063.964844-5.085937 3.417968-5.6875 6.429687-.597656 3.011719.464844 6.113281 2.785156 8.121094 2.320313 2.011719 5.539063 2.617187 8.433594 1.59375 8.371094-2.894531 16.480469-6.503906 24.234375-10.785156 4.410156 22.046875 17.613281 41.339843 36.566406 53.433593 2.882813 11.800782 4.460938 23.882813 4.699219 36.027344 0 1.921875-.082031 3.746094-.152344 5.582032-3.984375 71.988281-84.769531 79.753906-119.3125 79.753906-24.679687 0-71.84375-3.925782-98.945312-31.371094-.136719-.132812-.246094-.289062-.390625-.425781-13.664063-14.394531-20.925782-33.707031-20.128906-53.539063.238281-12.117187 1.789062-24.171875 4.625-35.957031 19.011718-12.089844 32.265624-31.417969 36.691406-53.511719 7.734375 4.269532 15.816406 7.871094 24.167968 10.757813 2.890626 1.027343 6.113282.417969 8.433594-1.59375 2.320313-2.007813 3.382813-5.109375 2.78125-8.121094-.601562-3.007813-2.773437-5.464844-5.6875-6.429687-11.382812-3.898438-22.203125-9.273438-32.1875-15.992188-8.878906-5.753906-16.996094-12.609375-24.15625-20.402344l-.164062-.160156c-11.585938-12.472656-20.378906-27.277344-25.785156-43.417969-3.867188-11.5-5.820313-23.554687-5.789063-35.6875-.03125-17.570312 4.058594-34.902343 11.949219-50.601562 9.609375-19.226563 24.011718-35.65625 41.8125-47.703125 3.65625 6.988281 10.886718 11.375 18.773437 11.382812 3.332031-.003906 6.617188-.785156 9.589844-2.285156l19.976563-10.035156c2.652343 1.652344 5.710937 2.539062 8.832031 2.558594h51.203125c3.121094-.019532 6.179687-.90625 8.832031-2.558594l20.035156 10.007812c10.34375 5.242188 22.980469 1.203125 28.363281-9.070312 17.808594 12.0625 32.203126 28.511718 41.796876 47.761718zm0 0"/></svg>