<svg height="512pt" viewBox="0 -1 512 512" width="512pt" xmlns="http://www.w3.org/2000/svg"><path d="m443.734375 423.089844v-53.121094c.234375-68.835938-36.238281-132.574219-95.703125-167.253906l33.65625-132.546875c3.910156-15.082031 1.320312-31.113281-7.132812-44.203125-12.859376-20.09375-36.984376-29.902344-60.214844-24.492188-23.234375 5.414063-40.539063 24.875-43.191406 48.582032l-14.242188 127.914062c-.308594 0-.609375 0-.90625 0s-.5625 0-.851562 0l-14.296876-127.921875c-2.65625-23.707031-19.960937-43.164063-43.195312-48.574219-23.230469-5.410156-47.351562 4.402344-60.210938 24.492188-8.453124 13.089844-11.042968 29.121094-7.132812 44.203125l33.722656 132.546875c-59.488281 34.660156-95.988281 98.40625-95.769531 167.253906v53.121094c-60.859375 12.007812-68.265625 26.488281-68.265625 36.480468 0 50.621094 245.546875 51.199219 256 51.199219s256-.578125 256-51.199219c0-9.992187-7.40625-24.472656-68.265625-36.480468zm-155.613281-371.148438c1.546875-14.644531 11.160156-27.1875 24.894531-32.492187 13.738281-5.304688 29.289063-2.472657 40.273437 7.332031 10.988282 9.800781 15.5625 24.929688 11.851563 39.179688l-32.683594 128.71875c-18.476562-8.484376-38.242187-13.824219-58.476562-15.804688zm-141.269532 14.011719c-3.691406-14.242187.894532-29.355469 11.878907-39.144531 10.980469-9.792969 26.519531-12.617188 40.246093-7.324219 13.726563 5.296875 23.339844 17.824219 24.902344 32.457031l14.199219 126.925782c-20.234375 1.976562-39.996094 7.3125-58.476563 15.785156zm109.148438 427.75c-151.894531 0-235.058594-22.015625-238.933594-33.9375 0-.09375 4.328125-9.675781 51.199219-19.292969v10.5625c0 4.714844 3.820313 8.535156 8.535156 8.535156 4.710938 0 8.53125-3.820312 8.53125-8.535156v-81.066406c-1.054687-95.386719 75.285157-173.636719 170.667969-174.933594 95.382812 1.296875 171.722656 79.546875 170.667969 174.933594v81.066406c0 4.714844 3.820312 8.535156 8.53125 8.535156 4.714843 0 8.535156-3.820312 8.535156-8.535156v-10.5625c46.199219 9.472656 51.054687 18.890625 51.199219 18.890625-3.890625 12.324219-87.039063 34.339844-238.933594 34.339844zm0 0"/><path d="m86.367188 236.976562c2.53125 0 4.929687-1.125 6.550781-3.070312 1.617187-1.945312 2.292969-4.507812 1.835937-6.996094-1.765625-9.667968-6.707031-32.992187-14.421875-40.695312-6.425781-6.65625-15.945312-9.324219-24.894531-6.984375-8.953125 2.34375-15.941406 9.335937-18.285156 18.285156-2.339844 8.949219.328125 18.46875 6.980468 24.894531 7.679688 7.679688 31.039063 12.65625 40.695313 14.421875.507813.097657 1.023437.148438 1.539063.144531zm-30.167969-26.640624c-3.324219-3.332032-3.324219-8.726563 0-12.058594 3.378906-3.214844 8.6875-3.214844 12.066406 0 3.292969 5.914062 5.628906 12.304687 6.921875 18.945312-6.65625-1.273437-13.0625-3.597656-18.988281-6.886718zm0 0"/><path d="m25.003906 247.941406c-12.636718 5.414063-18.742187 19.835938-13.835937 32.675782 4.910156 12.839843 19.082031 19.511718 32.105469 15.113281 10.1875-3.890625 24.214843-23.167969 29.78125-31.273438 1.578124-2.3125 1.921874-5.246093.925781-7.859375-.996094-2.613281-3.210938-4.570312-5.925781-5.242187-9.566407-2.335938-32.863282-7.328125-43.050782-3.414063zm26.246094 17.382813c-3.894531 5.546875-8.644531 10.445312-14.070312 14.507812-4.40625 1.683594-9.34375-.527343-11.023438-4.933593-1.683594-4.40625.523438-9.339844 4.929688-11.023438 1.1875-.304688 2.414062-.429688 3.636718-.375 5.546875.175781 11.074219.773438 16.527344 1.792969zm0 0"/><path d="m432.699219 186.203125c-7.679688 7.679687-12.65625 31.039063-14.421875 40.707031-.453125 2.488282.21875 5.050782 1.839844 6.996094 1.617187 1.945312 4.019531 3.070312 6.550781 3.070312.515625.003907 1.027343-.042968 1.535156-.144531 9.667969-1.765625 32.988281-6.707031 40.703125-14.421875 9.996094-9.996094 9.996094-26.199218 0-36.195312-10.132812-9.664063-26.066406-9.667969-36.207031-.011719zm24.132812 24.140625c-5.917969 3.300781-12.324219 5.632812-18.976562 6.914062 1.277343-6.652343 3.613281-13.058593 6.910156-18.980468 1.601563-1.597656 3.769531-2.496094 6.035156-2.5 3.449219.003906 6.558594 2.082031 7.878907 5.269531 1.320312 3.1875.59375 6.859375-1.847657 9.296875zm0 0"/><path d="m439.046875 256.597656c-1 2.617188-.652344 5.5625.933594 7.875 5.5625 8.105469 19.582031 27.382813 29.78125 31.28125 13.210937 5.042969 28.007812-1.578125 33.050781-14.789062 5.042969-13.214844-1.578125-28.011719-14.792969-33.054688-10.179687-3.875-33.492187 1.109375-43.039062 3.414063-2.726563.675781-4.941407 2.644531-5.933594 5.273437zm42.898437 7.25c2.851563 1.089844 4.90625 3.613282 5.394532 6.628906.484375 3.011719-.675782 6.054688-3.042969 7.980469-2.367187 1.929688-5.582031 2.445313-8.433594 1.359375-5.433593-4.058594-10.183593-8.957031-14.074219-14.507812 6.601563-1.535156 13.402344-2.027344 20.15625-1.460938zm0 0"/><path d="m179.199219 271.835938c-.035157 12.507812 8.996093 23.203124 21.335937 25.257812 12.335938 2.058594 24.347656-5.128906 28.371094-16.972656.488281.125.988281.210937 1.492188.25 3.628906.003906 6.863281-2.285156 8.066406-5.703125 1.199218-3.421875.109375-7.230469-2.722656-9.496094l-42.667969-34.132813c-3.679688-2.945312-9.050781-2.351562-11.996094 1.332032-2.945313 3.679687-2.351563 9.050781 1.332031 11.996094l7.953125 6.367187c-6.976562 4.761719-11.152343 12.65625-11.164062 21.101563zm33.382812-3.320313c.488281 1.039063.746094 2.171875.75 3.320313 0 4.714843-3.820312 8.535156-8.53125 8.535156-4.714843 0-8.535156-3.820313-8.535156-8.535156 0-4.710938 3.820313-8.53125 8.535156-8.53125.550781.039062 1.097657.136718 1.628907.289062zm0 0"/><path d="m281.601562 280.371094c.5-.042969.996094-.125 1.484376-.25 3.605468 10.503906 13.585937 17.472656 24.6875 17.242187 11.101562-.230469 20.785156-7.609375 23.949218-18.253906 3.164063-10.644531-.910156-22.117187-10.085937-28.375l7.953125-6.367187c2.382812-1.90625 3.566406-4.9375 3.105468-7.949219-.457031-3.015625-2.492187-5.554688-5.332031-6.664063-2.839843-1.109375-6.058593-.621094-8.4375 1.285156l-42.667969 34.132813c-2.832031 2.265625-3.921874 6.074219-2.722656 9.496094 1.203125 3.417969 4.4375 5.707031 8.066406 5.703125zm34.132813-8.535156c0 4.714843-3.820313 8.535156-8.535156 8.535156-4.710938 0-8.53125-3.820313-8.53125-8.535156.003906-1.148438.261719-2.28125.75-3.320313l6.203125-4.964844c2.492187-.554687 5.097656.066407 7.070312 1.683594s3.09375 4.050781 3.042969 6.601563zm0 0"/><path d="m247.464844 305.96875c0 4.714844 3.824218 8.535156 8.535156 8.535156s8.535156-3.820312 8.535156-8.535156c4.710938 0 8.53125-3.820312 8.53125-8.53125 0-4.714844-3.820312-8.535156-8.53125-8.535156h-17.070312c-4.710938 0-8.53125 3.820312-8.53125 8.535156 0 4.710938 3.820312 8.53125 8.53125 8.53125zm0 0"/><path d="m298.929688 320.476562-2.480469 1.1875c-12.6875 4.609376-26.164063 6.664063-39.648438 6.046876h-1.585937c-13.34375.636718-26.683594-1.359376-39.253906-5.878907l-3.105469-1.414062c-5.773438-2.859375-12.132813-4.335938-18.578125-4.320313-13.34375.089844-26.007813 5.894532-34.78125 15.949219-10.859375 12.398437-15.976563 28.808594-14.089844 45.183594 1.765625 23.113281 18.367188 42.382812 40.960938 47.550781 13.542968 2.40625 27.449218-1.488281 37.769531-10.582031 7.082031-6.683594 16.195312-10.808594 25.890625-11.71875 1.757812-.074219 3.523437-.160157 5.214844-.160157h1.585937c1.527344 0 3.191406.078126 5.625.1875 9.535156.964844 18.484375 5.050782 25.460937 11.621094 8.222657 7.222656 18.777344 11.238282 29.722657 11.308594 2.648437 0 5.292969-.238281 7.902343-.710938 22.644532-5.121093 39.304688-24.40625 41.078126-47.554687 1.839843-16.40625-3.328126-32.828125-14.226563-45.226563-13.230469-15.382812-35.082031-20.070312-53.460937-11.46875zm50.707031 55.023438c-1.082031 15.515625-11.972657 28.597656-27.035157 32.476562-8.507812 1.460938-17.214843-1.054687-23.636718-6.824218-9.816406-9.03125-22.351563-14.550782-35.644532-15.6875h-.851562c-2.003906-.082032-3.910156-.167969-5.675781-.167969h-1.585938c-1.9375 0-3.96875.09375-6.519531.195313-13.304688 1.140624-25.851562 6.664062-35.667969 15.710937-6.476562 5.761719-15.226562 8.253906-23.765625 6.765625-15.089844-3.796875-25.972656-16.945312-26.882812-32.476562-1.398438-11.574219 2.15625-23.199219 9.789062-32.011719 8.109375-9.742188 21.722656-12.882813 33.28125-7.679688l3.410156 1.570313c14.808594 5.570312 30.585938 8.097656 46.390626 7.433594h1.585937c15.925781.589843 31.808594-1.992188 46.726563-7.59375l1.382812-.65625c.742188-.34375 1.402344-.648438 1.707031-.855469 11.515625-5.085938 25.003907-1.957031 33.101563 7.679687 7.660156 8.828125 11.25 20.472656 9.890625 32.078125zm0 0"/><path d="m264.535156 425.4375h-17.070312c-4.710938 0-8.53125 3.820312-8.53125 8.53125 0 4.714844 3.820312 8.535156 8.53125 8.535156h17.070312c4.710938 0 8.53125-3.820312 8.53125-8.535156 0-4.710938-3.820312-8.53125-8.53125-8.53125zm0 0"/></svg>