<svg height="512pt" viewBox="-43 0 512 512.05903" width="512pt" xmlns="http://www.w3.org/2000/svg"><path d="m39.28125 443.59375c-12.496094 4.992188-21.089844 16.628906-22.183594 30.039062 0 38.398438 31.734375 38.398438 59.730469 38.398438 15.359375.398438 30.496094-3.734375 43.519531-11.886719 43.5625 15.851563 91.316406 15.851563 134.878906 0 13.011719 8.140625 28.128907 12.277344 43.46875 11.886719 21.453126 0 45.039063-.066406 54.929688-17.328125 1.613281.144531 3.21875.261719 4.804688.261719 28.265624-.027344 51.171874-22.933594 51.199218-51.199219-.070312-1.800781-.238281-3.597656-.496094-5.382813 4.519532-7.707031 9.6875-15.011718 15.445313-21.839843 1.839844-2.09375 2.535156-4.957031 1.871094-7.664063-.667969-2.703125-2.613281-4.914062-5.214844-5.917968-12.226563-5.046876-25.632813-6.527344-38.664063-4.269532-5.378906-2.925781-11.246093-4.855468-17.3125-5.699218 19.660157-53.207032 10.636719-112.78125-23.894531-157.78125 0-.171876 0-.339844 0-.511719-.890625-49.890625-28.53125-95.449219-72.371093-119.277344l29.574218-41.585937c10.425782-14.601563 11.5625-33.886719 2.925782-49.613282-8.636719-15.726562-25.519532-25.117187-43.4375-24.1562498-17.917969.9609378-33.699219 12.1015628-40.605469 28.6640628l-27.398438 65.269531c-.769531 0-1.511719-.101562-2.289062-.101562-.777344 0-1.519531.09375-2.285157.101562l-27.402343-65.285156c-6.925781-16.527344-22.703125-27.632813-40.597657-28.578125-17.894531-.945313-34.753906 8.433593-43.386718 24.136719-8.628906 15.703124-7.511719 34.964843 2.875 49.5625l29.570312 41.585937c-43.839844 23.828125-71.484375 69.386719-72.371094 119.277344v.511719c-22.109374 29.015624-34.0976558 64.472656-34.132812 100.949218.164062 39.292969 14.046875 77.292969 39.25 107.433594zm327.953125-32.808594c.253906 2.734375 1.855469 5.164063 4.269531 6.472656 2.417969 1.308594 5.324219 1.324219 7.753906.046876 1.328126-.550782 2.703126-.976563 4.105469-1.28125 6.652344-1.578126 13.566407-1.71875 20.277344-.410157-3.921875 5.34375-7.496094 10.933594-10.695313 16.734375-.136718.347656-.242187.703125-.324218 1.066406-.230469.527344-.402344 1.082032-.511719 1.648438-.058594.59375-.058594 1.195312 0 1.792969-.023437.351562-.023437.703125 0 1.058593.320313 1.933594.472656 3.890626.453125 5.851563 0 18.851563-15.28125 34.132813-34.132812 34.132813h-.230469c.09375-1.390626.230469-2.738282.230469-4.265626-1.097657-13.410156-9.691407-25.046874-22.1875-30.039062 8.628906-10.421875 16.011718-21.820312 21.992187-33.960938 3.03125-.074218 6.054687.3125 8.96875 1.152344zm-134.023437-375.46875c4.644531-11.035156 15.453124-18.214844 27.425781-18.21875 4.996093-.003906 9.910156 1.269532 14.277343 3.695313 7.371094 4.121093 12.640626 11.179687 14.507813 19.414062 1.902344 8.234375.164063 16.890625-4.78125 23.75l-31.085937 43.714844c-14.496094-6.328125-29.839844-10.507813-45.542969-12.398437zm-142.335938 28.640625c-4.949219-6.855469-6.695312-15.511719-4.785156-23.75 1.863281-8.226562 7.136718-15.273437 14.503906-19.386719 4.371094-2.441406 9.289062-3.71875 14.292969-3.722656 11.992187-.007812 22.816406 7.183594 27.460937 18.238282l25.15625 59.9375c-15.707031 1.890624-31.050781 6.070312-45.550781 12.398437zm-50.074219 211.832031c.960938 2.894532 3.394531 5.058594 6.382813 5.675782 2.988281.617187 6.078125-.410156 8.105468-2.6875 2.027344-2.28125 2.6875-5.46875 1.726563-8.367188-3.832031-11.515625-5.785156-23.574218-5.785156-35.710937 0-68.265625 61.25-123.734375 136.53125-123.734375s136.535156 55.46875 136.535156 123.734375c0 12.136719-1.949219 24.195312-5.777344 35.710937-1.484375 4.472656.9375 9.300782 5.410157 10.789063.867187.285156 1.773437.429687 2.6875.433593 3.679687.003907 6.949218-2.351562 8.105468-5.84375 1.496094-4.617187 2.734375-9.3125 3.714844-14.066406 13.085938 22.628906 19.980469 48.300782 19.992188 74.4375-.203126 37.472656-14.230469 73.554688-39.390626 101.324219-6.675781-1.503906-13.5-2.257813-20.34375-2.25-4.710937 0-8.53125 3.820313-8.53125 8.53125 0 4.714844 3.820313 8.535156 8.53125 8.535156 25.140626 0 42.667969 11.238281 42.667969 21.332031 0 19.679688-10.429687 21.332032-42.667969 21.332032-12.628906.515625-25.09375-2.992188-35.601562-10.015625-.265625-.265625-.550781-.507813-.851562-.726563-3.511719-2.457031-5.78125-6.324218-6.210938-10.589844 0-4.710937-3.820312-8.535156-8.535156-8.535156-4.710938 0-8.535156 3.824219-8.535156 8.535156.050781 4.5 1.226562 8.914063 3.414062 12.84375-35.542969 11.023438-73.59375 11.023438-109.140625 0 2.160156-3.9375 3.304687-8.351562 3.328125-12.84375 0-4.710937-3.820312-8.535156-8.53125-8.535156-4.714844 0-8.535156 3.824219-8.535156 8.535156-.4375 4.265626-2.71875 8.125-6.238282 10.574219-.300781.226563-.585937.476563-.851562.742188-10.5 7.019531-22.957031 10.527343-35.578125 10.015625-32.238281 0-42.664063-1.652344-42.664063-21.332032 0-10.09375 17.527344-21.332031 42.664063-21.332031 4.714844 0 8.535156-3.820312 8.535156-8.535156 0-4.710937-3.820312-8.53125-8.535156-8.53125-6.84375-.007813-13.664063.746094-20.34375 2.25-25.160156-27.769531-39.183594-63.851563-39.386719-101.324219.011719-26.136718 6.90625-51.808594 19.992188-74.4375.976562 4.753906 2.21875 9.449219 3.710937 14.066406zm0 0"/><path d="m128.03125 418.167969c16.5 0 34.132812-10.097657 34.132812-38.402344.058594-8.53125-1.660156-16.980469-5.054687-24.804687-1.183594-2.871094-3.832031-4.871094-6.917969-5.222657-3.085937-.355469-6.121094 1-7.921875 3.527344-1.800781 2.53125-2.082031 5.839844-.742187 8.640625 2.414062 5.640625 3.628906 11.722656 3.570312 17.859375 0 14.15625-5.746094 21.332031-17.066406 21.332031-11.324219 0-17.070312-7.175781-17.070312-21.332031-.058594-6.136719 1.15625-12.21875 3.570312-17.859375 1.761719-4.269531-.195312-9.167969-4.414062-11.050781-4.21875-1.878907-9.171876-.0625-11.167969 4.105469-3.394531 7.824218-5.113281 16.273437-5.054688 24.804687 0 28.304687 17.632813 38.402344 34.136719 38.402344zm0 0"/><path d="m260.996094 361.90625c2.414062 5.640625 3.628906 11.722656 3.566406 17.859375 0 14.15625-5.742188 21.332031-17.066406 21.332031-11.324219 0-17.066406-7.175781-17.066406-21.332031-.0625-6.136719 1.152343-12.21875 3.566406-17.859375 1.761718-4.269531-.195313-9.167969-4.414063-11.050781-4.21875-1.878907-9.167969-.0625-11.167969 4.105469-3.390624 7.824218-5.113281 16.273437-5.050781 24.804687 0 28.304687 17.628907 38.402344 34.132813 38.402344s34.132812-10.097657 34.132812-38.402344c.0625-8.53125-1.660156-16.980469-5.050781-24.804687-2-4.167969-6.949219-5.984376-11.167969-4.105469-4.21875 1.882812-6.175781 6.78125-4.414062 11.050781zm0 0"/><path d="m136.5625 196.300781c14.140625 0 25.601562-11.460937 25.601562-25.601562 0-14.136719-11.460937-25.601563-25.601562-25.601563-14.136719 0-25.601562 11.464844-25.601562 25.601563 0 14.140625 11.464843 25.601562 25.601562 25.601562zm0-34.132812c4.714844 0 8.535156 3.820312 8.535156 8.53125 0 4.714843-3.820312 8.535156-8.535156 8.535156-4.710938 0-8.53125-3.820313-8.53125-8.535156 0-4.710938 3.820312-8.53125 8.53125-8.53125zm0 0"/><path d="m238.960938 196.300781c14.140624 0 25.601562-11.460937 25.601562-25.601562 0-14.136719-11.460938-25.601563-25.601562-25.601563-14.136719 0-25.597657 11.464844-25.597657 25.601563 0 14.140625 11.460938 25.601562 25.597657 25.601562zm0-34.132812c4.714843 0 8.535156 3.820312 8.535156 8.53125 0 4.714843-3.820313 8.535156-8.535156 8.535156-4.710938 0-8.53125-3.820313-8.53125-8.535156 0-4.710938 3.820312-8.53125 8.53125-8.53125zm0 0"/><path d="m179.230469 204.832031v8.535157h-34.132813c-4.714844 0-8.535156 3.820312-8.535156 8.53125 0 28.277343 22.921875 51.199218 51.199219 51.199218 28.277343 0 51.199219-22.921875 51.199219-51.199218 0-4.710938-3.820313-8.53125-8.53125-8.53125h-34.132813v-8.535157c4.710937 0 8.53125-3.820312 8.53125-8.53125 0-4.714843-3.820313-8.535156-8.53125-8.535156h-17.066406c-4.714844 0-8.535157 3.820313-8.535157 8.535156 0 4.710938 3.820313 8.53125 8.535157 8.53125zm8.53125 51.199219c-15.558594-.011719-29.144531-10.535156-33.046875-25.597656h66.097656c-3.90625 15.0625-17.488281 25.585937-33.050781 25.597656zm0 0"/></svg>