<svg height="512pt" viewBox="-21 0 512 512.05903" width="512pt" xmlns="http://www.w3.org/2000/svg"><path d="m463.898438 402.960938c-12.226563-5.046876-25.632813-6.527344-38.664063-4.269532-5.378906-2.925781-11.246094-4.855468-17.3125-5.699218 6.710937-18.199219 10.175781-37.433594 10.238281-56.832032-.003906-11.125-1.148437-22.21875-3.414062-33.109375 2.8125-2.167969 5.503906-4.488281 8.066406-6.945312 11.992188-10.125 19.515625-24.5625 20.949219-40.191407-.464844-27.257812-21.882813-49.539062-49.101563-51.082031-4.667968.03125-9.304687.773438-13.746094 2.203125-8.957031-39.015625-34.089843-72.378906-69.121093-91.75l29.472656-41.449218c10.425781-14.601563 11.5625-33.886719 2.925781-49.613282-8.636718-15.726562-25.519531-25.117187-43.4375-24.1562498-17.917968.9609378-33.699218 12.1015628-40.605468 28.6640628l-27.390626 65.261719c-.777343 0-1.519531-.09375-2.296874-.09375-.777344 0-1.519532.085937-2.292969.09375l-27.394531-65.277344c-6.925782-16.527344-22.703126-27.632813-40.597657-28.578125-17.894531-.945313-34.753906 8.433593-43.386719 24.136719-8.632812 15.703124-7.515624 34.964843 2.875 49.5625l29.464844 41.449218c-35.03125 19.371094-60.164062 52.734375-69.117187 91.75-4.460938-1.433594-9.109375-2.175781-13.792969-2.203125-13.25.261719-25.792969 6.027344-34.617188 15.914063-9.507812 9.203125-14.761718 21.941406-14.507812 35.167968 1.414062 15.640626 8.933594 30.09375 20.933594 40.226563 2.566406 2.453125 5.261718 4.773437 8.070312 6.945313-2.257812 10.878906-3.398437 21.960937-3.402344 33.074218.164063 39.292969 14.050782 77.292969 39.253907 107.433594-12.496094 4.992188-21.089844 16.628906-22.1875 30.039062 0 38.398438 31.734375 38.398438 59.734375 38.398438 15.355468.398438 30.492187-3.734375 43.519531-11.886719 43.5625 15.851563 91.3125 15.851563 134.875 0 13.011719 8.140625 28.128906 12.277344 43.46875 11.886719 21.453125 0 45.039063-.066406 54.929687-17.328125 1.613282.144531 3.21875.261719 4.804688.261719 28.265625-.027344 51.171875-22.933594 51.199219-51.199219-.070313-1.800781-.234375-3.597656-.492188-5.382813 4.515625-7.707031 9.683594-15.011718 15.445313-21.839843 1.835937-2.09375 2.53125-4.957031 1.867187-7.664063-.667969-2.703125-2.613281-4.914062-5.214843-5.917968zm-188.054688-367.609376c4.636719-11.0625 15.460938-18.257812 27.457031-18.253906 4.996094-.003906 9.910157 1.269532 14.277344 3.695313 7.371094 4.121093 12.644531 11.179687 14.507813 19.414062 1.90625 8.234375.164062 16.890625-4.78125 23.75l-30.992188 43.597657c-14.53125-6.289063-29.898438-10.429688-45.617188-12.296876zm-142.304688 28.605469c-4.949218-6.855469-6.691406-15.511719-4.785156-23.75 1.867188-8.226562 7.140625-15.273437 14.503906-19.386719 4.371094-2.441406 9.292969-3.71875 14.296876-3.722656 11.988281-.007812 22.8125 7.183594 27.457031 18.238282l25.148437 59.929687c-15.71875 1.863281-31.085937 6.003906-45.617187 12.289063zm207.820313 431.007813c-12.625.515625-25.089844-2.992188-35.589844-10.015625-.269531-.261719-.554687-.503907-.855469-.726563-3.515624-2.457031-5.785156-6.324218-6.21875-10.589844 0-4.710937-3.820312-8.535156-8.535156-8.535156-4.710937 0-8.53125 3.824219-8.53125 8.535156.046875 4.5 1.222656 8.914063 3.410156 12.84375-35.542968 11.023438-73.59375 11.023438-109.140624 0 2.160156-3.9375 3.304687-8.351562 3.328124-12.84375 0-4.710937-3.820312-8.535156-8.53125-8.535156-4.714843 0-8.535156 3.824219-8.535156 8.535156-.4375 4.265626-2.714844 8.125-6.238281 10.574219-.300781.226563-.585937.476563-.851563.742188-10.5 7.019531-22.957031 10.527343-35.574218 10.015625-32.242188 0-42.667969-1.652344-42.667969-21.332032 0-10.09375 17.527344-21.332031 42.667969-21.332031 4.710937 0 8.53125-3.820312 8.53125-8.535156 0-4.710937-3.820313-8.53125-8.53125-8.53125-6.84375-.007813-13.667969.746094-20.34375 2.25-25.160156-27.769531-39.1875-63.851563-39.390625-101.324219.007812-7.792968.632812-15.574218 1.867187-23.269531 2.960938 1.5 6.007813 2.820313 9.121094 3.960937 4.4375 1.597657 9.332031-.707031 10.929688-5.144531 1.597656-4.4375-.707032-9.328125-5.140626-10.925781-9.984374-3.742188-19.070312-9.527344-26.683593-16.988281-8.730469-7.128907-14.359375-17.363281-15.695313-28.554688.046875-8.570312 3.578125-16.753906 9.78125-22.671875 5.664063-6.429687 13.699219-10.28125 22.261719-10.667968 11.226563.890624 21.671875 6.089843 29.148437 14.507812 7.761719 7.300781 13.910157 16.148438 18.050782 25.96875 1.769531 4.367188 6.75 6.472656 11.117187 4.699219 4.371094-1.769531 6.476563-6.75 4.703125-11.117188-5.046875-12.039062-12.558594-22.890625-22.050781-31.855469-3.503906-3.382812-7.289063-6.464843-11.304687-9.214843 10.484374-59.546875 67.230468-103.921875 134.558593-103.921875s124.078125 44.375 134.546875 103.929687c-4.019531 2.746094-7.800781 5.828125-11.308594 9.207031-9.488281 8.96875-16.996093 19.820313-22.046874 31.863282-1.773438 4.367187.332031 9.347656 4.699218 11.117187 4.371094 1.773438 9.347656-.332031 11.121094-4.699219 4.140625-9.820312 10.289062-18.667968 18.046875-25.976562 7.480469-8.417969 17.925781-13.617188 29.148437-14.507812 17.523438 1.53125 31.21875 15.773437 32.0625 33.339843-1.332031 11.191407-6.957031 21.433594-15.683593 28.5625-7.613281 7.457031-16.699219 13.238281-26.675781 16.980469-4.4375 1.597656-6.738282 6.488281-5.140626 10.925781 1.597657 4.4375 6.488282 6.742188 10.925782 5.144531 3.117187-1.140624 6.160156-2.460937 9.121094-3.960937 1.226562 7.695313 1.847656 15.476563 1.851562 23.269531-.203125 37.472656-14.230469 73.554688-39.390625 101.324219-6.675781-1.503906-13.5-2.257813-20.34375-2.25-4.710937 0-8.53125 3.820313-8.53125 8.53125 0 4.714844 3.820313 8.535156 8.53125 8.535156 25.140625 0 42.667969 11.238281 42.667969 21.332031 0 19.679688-10.425782 21.332032-42.667969 21.332032zm59.734375-17.066406h-.230469c.09375-1.390626.230469-2.738282.230469-4.265626-1.097656-13.410156-9.691406-25.046874-22.1875-30.039062 8.628906-10.421875 16.011719-21.820312 21.992188-33.960938 3.03125-.070312 6.054687.324219 8.96875 1.167969.253906 2.734375 1.855468 5.164063 4.269531 6.472657 2.414062 1.308593 5.324219 1.328124 7.753906.046874 1.324219-.546874 2.699219-.976562 4.105469-1.277343 6.648437-1.582031 13.5625-1.722657 20.273437-.410157-3.921875 5.339844-7.492187 10.929688-10.691406 16.734376-.136719.34375-.246094.703124-.324219 1.066406-.234375.527344-.40625 1.078125-.511718 1.644531-.0625.597656-.0625 1.195313 0 1.792969-.027344.351562-.027344.707031 0 1.058594.332031 1.925781.492187 3.878906.484374 5.835937 0 18.851563-15.28125 34.132813-34.132812 34.132813zm0 0"/><path d="m202.328125 167.285156c3.332031-3.332031 3.332031-8.734375 0-12.066406-6-6.359375-14.359375-9.960938-23.101563-9.960938-8.742187 0-17.097656 3.601563-23.097656 9.960938-2.933594 3.378906-2.765625 8.445312.390625 11.617188 3.15625 3.171874 8.222657 3.367187 11.613281.449218 2.789063-3.191406 6.8125-5.023437 11.050782-5.035156 4.234375-.007812 8.269531 1.808594 11.070312 4.984375 3.332032 3.332031 8.734375 3.332031 12.066406 0zm0 0"/><path d="m292.660156 167.285156c3.347656 3.234375 8.671875 3.1875 11.964844-.101562 3.289062-3.292969 3.335938-8.617188.101562-11.964844-6-6.359375-14.355468-9.960938-23.097656-9.960938-8.746094 0-17.101562 3.601563-23.101562 9.960938-2.933594 3.378906-2.761719 8.445312.394531 11.617188 3.152344 3.171874 8.222656 3.367187 11.613281.449218 2.792969-3.1875 6.824219-5.015625 11.0625-5.015625 4.238282 0 8.269532 1.828125 11.0625 5.015625zm0 0"/><path d="m256.027344 230.433594c-4.707032.183594-9.265625-1.65625-12.527344-5.054688-3.261719-3.394531-4.914062-8.027344-4.539062-12.722656v-1.507812c9.570312-2.0625 16.566406-10.289063 17.066406-20.0625-.546875-6.230469-3.558594-11.988282-8.363282-15.992188-4.804687-4.003906-11.007812-5.925781-17.238281-5.339844-6.226562-.585937-12.429687 1.335938-17.234375 5.339844-4.804687 4.003906-7.816406 9.761719-8.363281 15.992188.5 9.773437 7.496094 18 17.066406 20.0625v1.507812c.285157 4.671875-1.398437 9.25-4.640625 12.628906-3.242187 3.375-7.746094 5.242188-12.425781 5.148438-4.714844 0-8.535156 3.820312-8.535156 8.53125v25.601562c0 18.851563 15.285156 34.132813 34.132812 34.132813 18.851563 0 34.136719-15.28125 34.136719-34.132813v-25.601562c0-4.710938-3.820312-8.53125-8.535156-8.53125zm-25.601563-43.613282c5.292969 0 8.535157 2.753907 8.535157 4.265626 0 1.511718-3.242188 4.265624-8.535157 4.265624-5.289062 0-8.53125-2.765624-8.53125-4.265624 0-1.503907 3.242188-4.265626 8.53125-4.265626zm0 94.8125c-9.425781 0-17.066406-7.640624-17.066406-17.066406v-17.972656c6.675781-1.40625 12.683594-5.011719 17.066406-10.238281 4.386719 5.226562 10.394531 8.832031 17.070313 10.238281v17.972656c0 9.425782-7.644532 17.066406-17.070313 17.066406zm0 0"/><path d="m179.226562 204.832031h-25.597656c-4.714844 0-8.535156 3.820313-8.535156 8.535157 0 4.710937 3.820312 8.53125 8.535156 8.53125h25.597656c4.714844 0 8.535157-3.820313 8.535157-8.53125 0-4.714844-3.820313-8.535157-8.535157-8.535157zm0 0"/><path d="m307.226562 204.832031h-25.597656c-4.714844 0-8.535156 3.820313-8.535156 8.535157 0 4.710937 3.820312 8.53125 8.535156 8.53125h25.597656c4.714844 0 8.535157-3.820313 8.535157-8.53125 0-4.714844-3.820313-8.535157-8.535157-8.535157zm0 0"/><path d="m73.824219 134.960938c2.757812.507812 5.589843-.375 7.574219-2.359376 1.980468-1.980468 2.863281-4.8125 2.359374-7.574218-1.777343-9.65625-6.71875-32.980469-14.429687-40.695313-10.046875-9.699219-26.011719-9.5625-35.886719.3125s-10.015625 25.84375-.3125 35.886719c7.714844 7.714844 31.035156 12.621094 40.695313 14.429688zm-28.628907-38.5625c3.378907-3.207032 8.679688-3.207032 12.058594 0 3.300782 5.925781 5.640625 12.335937 6.925782 18.996093-6.65625-1.289062-13.0625-3.628906-18.984376-6.929687-3.328124-3.332032-3.328124-8.726563 0-12.054688zm0 0"/><path d="m34.773438 193.875c10.191406-3.890625 24.21875-23.160156 29.785156-31.265625 1.582031-2.3125 1.933594-5.253906.933594-7.871094-1-2.617187-3.222657-4.578125-5.945313-5.242187-9.554687-2.339844-32.84375-7.316406-43.042969-3.414063-13.207031 5.042969-19.828125 19.84375-14.78125 33.050781 5.042969 13.210938 19.84375 19.832032 33.050782 14.785157zm-17.117188-20.863281c-.808594-2.117188-.742188-4.46875.179688-6.535157.925781-2.066406 2.636718-3.683593 4.753906-4.488281 1.1875-.304687 2.410156-.433593 3.636718-.375 5.542969.179688 11.066407.78125 16.519532 1.796875-3.894532 5.554688-8.644532 10.453125-14.082032 14.507813-4.394531 1.679687-9.316406-.515625-11.007812-4.90625zm0 0"/><path d="m391.527344 84.332031c-7.679688 7.679688-12.652344 31.039063-14.429688 40.695313-.503906 2.761718.375 5.59375 2.359375 7.574218 1.984375 1.984376 4.816407 2.867188 7.574219 2.359376 9.660156-1.773438 32.980469-6.714844 40.695312-14.429688 9.703126-10.042969 9.5625-26.011719-.3125-35.886719s-25.839843-10.011719-35.886718-.3125zm24.132812 24.125c-5.921875 3.300781-12.328125 5.640625-18.984375 6.929688 1.285157-6.65625 3.621094-13.0625 6.917969-18.988281 2.128906-2.269532 5.328125-3.199219 8.34375-2.429688 3.015625.773438 5.371094 3.128906 6.144531 6.144531.777344 3.015625-.152343 6.210938-2.421875 8.34375zm0 0"/><path d="m435.226562 195.558594c12.332032-.015625 22.902344-8.816406 25.148438-20.941406 2.242188-12.125-4.472656-24.125-15.984375-28.554688-10.171875-3.890625-33.492187 1.101562-43.050781 3.414062-2.71875.667969-4.941406 2.625-5.941406 5.246094-1 2.617188-.652344 5.558594.933593 7.871094 5.5625 8.105469 19.628907 27.375 29.78125 31.265625 2.910157 1.117187 6 1.691406 9.113281 1.699219zm-17.066406-32.148438c6.601563-1.542968 13.40625-2.023437 20.15625-1.421875 4.40625 1.675781 6.613282 6.605469 4.9375 11.011719-1.679687 4.402344-6.609375 6.613281-11.011718 4.9375-5.457032-4.058594-10.226563-8.960938-14.132813-14.527344zm0 0"/></svg>