<svg height="512pt" viewBox="0 0 512 512.10435" width="512pt" xmlns="http://www.w3.org/2000/svg"><path d="m196.371094 230.503906c14.136718 0 25.597656-11.460937 25.597656-25.597656 0-14.140625-11.460938-25.601562-25.597656-25.601562-14.140625 0-25.601563 11.460937-25.601563 25.601562 0 14.136719 11.460938 25.597656 25.601563 25.597656zm0-34.132812c4.710937 0 8.53125 3.820312 8.53125 8.535156 0 4.710938-3.820313 8.53125-8.53125 8.53125-4.714844 0-8.535156-3.820312-8.535156-8.53125 0-4.714844 3.820312-8.535156 8.535156-8.535156zm0 0"/><path d="m315.835938 230.503906c14.140624 0 25.601562-11.460937 25.601562-25.597656 0-14.140625-11.460938-25.601562-25.601562-25.601562-14.136719 0-25.601563 11.460937-25.601563 25.601562 0 14.136719 11.464844 25.597656 25.601563 25.597656zm0-34.132812c4.714843 0 8.535156 3.820312 8.535156 8.535156 0 4.710938-3.820313 8.53125-8.535156 8.53125-4.710938 0-8.53125-3.820312-8.53125-8.53125 0-4.714844 3.820312-8.535156 8.53125-8.535156zm0 0"/><path d="m150.9375 372.933594c12.1875 15.050781 28.152344 26.59375 46.257812 33.453125 18.695313 7.433593 38.574219 11.449219 58.6875 11.851562h.441407c20.105469-.40625 39.972656-4.417969 58.660156-11.84375 18.109375-6.859375 34.070313-18.402343 46.257813-33.453125 19.21875-25.09375 19.039062-57.847656-.195313-90.589844 1.160156-1.074218 2.3125-1.988281 3.464844-3.140624 3.234375-3.347657 3.1875-8.667969-.105469-11.960938s-8.613281-3.335938-11.960938-.105469c-15.957031 17.515625-38.128906 28.101563-61.78125 29.492188-.15625 0-.273437-.085938-.429687-.085938-.152344 0-.398437.113281-.613281.128907-8.476563.214843-16.925782-1.027344-24.984375-3.667969v-21.625c3.945312-1.546875 7.441406-4.054688 10.171875-7.296875l11.332031-13.539063c4.453125-5.445312 5.371094-12.96875 2.355469-19.320312-2.433594-5.550781-7.882813-9.171875-13.945313-9.257813h-36.898437c-6.070313.074219-11.539063 3.695313-13.976563 9.257813-3.015625 6.351562-2.097656 13.875 2.355469 19.320312l11.332031 13.539063c2.742188 3.246094 6.25 5.753906 10.207031 7.296875v21.625c-8.078124 2.632812-16.542968 3.871093-25.039062 3.652343-.195312 0-.355469-.113281-.554688-.113281-.195312 0-.246093.078125-.382812.078125-23.675781-1.371094-45.878906-11.957031-61.847656-29.492187-3.351563-3.234375-8.671875-3.1875-11.964844.105469-3.289062 3.292968-3.335938 8.613281-.101562 11.960937 1.152343 1.152344 2.300781 2.066406 3.464843 3.140625-19.246093 32.742188-19.421875 65.492188-.207031 90.589844zm105.164062 28.238281c-14.257812-.453125-28.394531-2.816406-42.027343-7.023437 10.777343-11.820313 26.03125-18.558594 42.027343-18.558594 15.996094 0 31.253907 6.738281 42.027344 18.558594-13.632812 4.207031-27.765625 6.570312-42.027344 7.023437zm-8.53125-76.800781h-17.066406v-11.09375c5.757813-.378906 11.46875-1.273438 17.066406-2.679688zm17.066407-13.796875c5.597656 1.402343 11.308593 2.300781 17.066406 2.679687v11.117188h-17.066406zm-25.601563-71.535157h34.132813c.027343.191407-.015625.386719-.117188.554688l-11.324219 13.539062c-1.335937 1.785157-3.398437 2.875-5.625 2.972657-2.222656-.101563-4.28125-1.191407-5.613281-2.972657l-11.324219-13.539062c-.105468-.167969-.148437-.363281-.128906-.554688zm-25.597656 73.804688v11.527344c0 9.425781 7.640625 17.066406 17.066406 17.066406h17.066406c3.003907-.015625 5.949219-.835938 8.53125-2.371094 2.582032 1.535156 5.53125 2.355469 8.535157 2.371094h17.066406c9.425781 0 17.066406-7.640625 17.066406-17.066406v-11.527344c17.722657-2.125 34.589844-8.828125 48.9375-19.449219 8.746094 16.027344 18.945313 44.433594 0 69.171875-8.796875 10.914063-20.089843 19.554688-32.929687 25.191406-13.542969-18.824218-35.492188-29.765624-58.675782-29.253906-23.183593-.515625-45.136718 10.429688-58.683593 29.253906-12.835938-5.632812-24.128907-14.269531-32.929688-25.183593-18.933593-24.746094-8.738281-53.152344 0-69.1875 14.347657 10.628906 31.21875 17.335937 48.949219 19.457031zm0 0"/><path d="m437.453125 354.578125c4.207031-11.984375 6.363281-24.589844 6.382813-37.289063-.449219-30.851562-12.660157-60.363281-34.132813-82.519531-.449219-41.292969-19.683594-80.132812-52.25-105.523437 10.550781-11.832032 24.160156-20.53125 39.332031-25.136719 11.269532-2.75 22.886719-3.828125 34.472656-3.199219 19.492188 0 39.578126 0 57.941407-13.65625 13.328125-9.632812 21.714843-24.667968 22.902343-41.070312.820313-17.417969-8.542968-33.730469-23.996093-41.8125-10.777344-4.402344-22.621094-5.511719-34.03125-3.183594-1.621094.179688-3.335938.46875-5.015625.769531-49.492188 9.148438-96.488282 44.433594-136.292969 102.058594-36.566406-13.390625-76.691406-13.390625-113.253906 0-39.835938-57.625-86.84375-92.910156-136.390625-102.066406-1.578125-.292969-3.335938-.582031-4.625-.71875-11.539063-2.367188-23.519532-1.2500002-34.421875 3.207031-15.449219 8.09375-24.796875 24.414062-23.972657 41.832031 1.214844 16.359375 9.589844 31.347657 22.878907 40.960938 18.382812 13.703125 38.46875 13.710937 57.957031 13.652343 11.585938-.621093 23.195312.457032 34.46875 3.199219 15.175781 4.605469 28.785156 13.300781 39.335938 25.140625-32.570313 25.398438-51.796876 64.246094-52.238282 105.546875-21.476562 22.15625-33.683594 51.667969-34.132812 82.519531.015625 12.699219 2.175781 25.304688 6.382812 37.289063-19.996094 11.800781-74.652344 52.796875-74.652344 148.992187 0 4.714844 3.820313 8.535157 8.535157 8.535157h162.132812c.078125 0 .144531-.042969.222657-.042969 2.984374-.019531 5.945312-.5625 8.746093-1.605469.367188-.136719.722657-.304687 1.066407-.496093l40.710937-22.046876c4.710937 4.53125 10.984375 7.082032 17.519531 7.125h34.132813c6.53125-.046874 12.796875-2.597656 17.503906-7.125l40.703125 22.058594c.347656.183594.707031.347656 1.074219.492188 2.828125 1.066406 5.820312 1.621094 8.84375 1.640625h.144531 162.132812c4.710938 0 8.53125-3.820313 8.53125-8.535157 0-96.195312-54.613281-137.191406-74.648437-148.992187zm14.617187-335.828125c1.28125-.230469 2.636719-.460938 4.265626-.65625 8.140624-1.878906 16.660156-1.269531 24.449218 1.75 9.261719 5.101562 14.804688 15.039062 14.277344 25.597656-1 11.269532-6.847656 21.546875-16.027344 28.160156-13.867187 10.265626-30.273437 10.128907-47.75 10.242188-13.253906-.628906-26.523437.691406-39.390625 3.914062-18.769531 5.675782-35.535156 16.566407-48.34375 31.414063-4.773437-3.066406-9.710937-5.867187-14.785156-8.398437 26.878906-38.136719 68.691406-81.929688 123.304687-92.023438zm-331.765624 69.007812c-12.867188-3.230468-26.132813-4.546874-39.382813-3.914062-17.449219 0-33.902344 0-47.785156-10.292969-9.140625-6.605469-14.964844-16.851562-15.96875-28.082031-.523438-10.550781 4.996093-20.480469 14.234375-25.601562 7.921875-3.027344 16.5625-3.621094 24.824218-1.707032 1.28125.15625 2.636719.382813 3.855469.605469 54.65625 10.078125 96.480469 53.871094 123.359375 92.007813-5.078125 2.53125-10.011718 5.332031-14.789062 8.398437-12.808594-14.847656-29.578125-25.738281-48.347656-31.414063zm-15.464844 171.152344c1.042968 5.738282 2.46875 11.402344 4.269531 16.949219.957031 2.894531 3.390625 5.058594 6.378906 5.675781 2.988281.617188 6.078125-.40625 8.105469-2.6875 2.03125-2.28125 2.6875-5.46875 1.726562-8.363281-3.816406-11.519531-5.757812-23.578125-5.75-35.714844 0-68.265625 61.25-123.730469 136.53125-123.730469s136.535157 55.464844 136.535157 123.730469c.003906 12.136719-1.945313 24.195313-5.769531 35.714844-1.484376 4.46875.933593 9.296875 5.402343 10.785156.867188.285157 1.773438.429688 2.6875.433594 3.679688.003906 6.949219-2.351563 8.105469-5.84375 1.800781-5.546875 3.222656-11.210937 4.269531-16.949219 12.425781 16.949219 19.222657 37.363282 19.4375 58.378906 0 41.675782-27.484375 80.210938-73.683593 103.953126-7.304688-3.839844-16.019532-3.902344-23.375-.164063l-39.066407 21.335937c-4.679687-4.550781-10.949219-7.101562-17.476562-7.109374h-34.132813c-6.53125.007812-12.804687 2.558593-17.484375 7.117187l-39.371093-21.496094c-7.320313-3.671875-15.960938-3.585937-23.203126.238281-28.957031-13.671874-52.203124-37.054687-65.707031-66.089843-5.121093-11.941407-7.785156-24.792969-7.832031-37.785157.203125-21.011718 6.988281-41.425781 19.402344-58.378906zm-23.320313 111.472656c14.996094 27.355469 37.839844 49.59375 65.585938 63.847657-1.261719 3.046875-1.921875 6.308593-1.9375 9.605469v42.667968c.058593 2.917969.617187 5.804688 1.65625 8.535156h-129.492188c2.953125-78.6875 46.429688-113.621093 64.1875-124.65625zm91.808594 124.246094c-2.589844.8125-5.410156.347656-7.601563-1.257812-2.1875-1.601563-3.484374-4.152344-3.492187-6.867188v-42.667968c-.015625-2.480469 1.066406-4.839844 2.960937-6.441407 2.464844-2.261719 6.058594-2.796875 9.074219-1.347656l39.449219 21.539063c-.167969 1.097656-.261719 2.207031-.28125 3.320312v8.53125c.066406 1.085938.199219 2.164062.398438 3.234375zm108.375-25.191406c-.007813 1.398438-.351563 2.773438-1 4.011719-1.496094 2.769531-4.382813 4.503906-7.535156 4.523437h-34.132813c-3.125-.003906-5.996094-1.710937-7.492187-4.457031-.671875-1.253906-1.03125-2.652344-1.039063-4.078125v-8.53125c.015625-1.9375.691406-3.808594 1.910156-5.308594 1.582032-2.054687 4.03125-3.25 6.621094-3.226562h34.132813c4.6875.0625 8.46875 3.847656 8.535156 8.535156zm16.664063 3.234375c.203124-1.070313.335937-2.148437.402343-3.234375v-8.53125c-.019531-1.109375-.113281-2.214844-.28125-3.3125l39.132813-21.394531c2.648437-1.320313 5.789062-1.179688 8.304687.378906 2.515625 1.554687 4.046875 4.300781 4.042969 7.257813v42.667968c.003906 2.71875-1.289062 5.277344-3.480469 6.886719-2.191406 1.609375-5.019531 2.078125-7.613281 1.261719zm67.003906 22.367187c1.058594-2.726562 1.636718-5.613281 1.707031-8.535156v-42.667968c-.058594-3.285157-.753906-6.53125-2.046875-9.554688 27.800781-14.246094 50.691406-36.503906 65.707031-63.898438 17.78125 11.050782 61.234375 45.984376 64.1875 124.65625zm0 0"/></svg>