<svg height="512pt" viewBox="0 0 512 512.10642" width="512pt" xmlns="http://www.w3.org/2000/svg"><path d="m213.4375 312.84375v11.53125c0 9.421875 7.640625 17.066406 17.066406 17.066406h17.066406c3.003907-.019531 5.949219-.835937 8.535157-2.375 2.582031 1.539063 5.527343 2.355469 8.53125 2.375h17.066406c9.425781 0 17.066406-7.644531 17.066406-17.066406v-11.53125c25.175781-3.199219 48.441407-15.097656 65.765625-33.636719 3.234375-3.347656 3.1875-8.671875-.101562-11.964843-3.292969-3.289063-8.613282-3.335938-11.960938-.101563-15.964844 17.523437-38.144531 28.109375-61.808594 29.5-.152343 0-.273437-.085937-.425781-.085937-.15625 0-.402343.109374-.617187.128906-8.476563.210937-16.925782-1.03125-24.984375-3.671875v-21.621094c3.945312-1.546875 7.441406-4.054687 10.171875-7.296875l11.332031-13.542969c4.453125-5.441406 5.371094-12.964843 2.355469-19.320312-2.433594-5.550781-7.882813-9.167969-13.941406-9.257813h-36.898438c-6.074219.074219-11.539062 3.695313-13.980469 9.257813-3.011719 6.355469-2.097656 13.878906 2.355469 19.320312l11.332031 13.542969c2.742188 3.246094 6.25 5.753906 10.207031 7.296875v21.621094c-8.078124 2.636719-16.542968 3.871093-25.035156 3.652343-.199218 0-.359375-.109374-.554687-.109374-.199219 0-.25.078124-.386719.078124-23.675781-1.375-45.875-11.960937-61.847656-29.492187-3.347656-3.234375-8.671875-3.1875-11.960938.101563-3.292968 3.292968-3.339844 8.617187-.105468 11.964843 17.324218 18.539063 40.585937 30.4375 65.757812 33.636719zm17.066406 11.53125v-11.09375c5.757813-.378906 11.46875-1.277344 17.066406-2.679688v13.773438zm34.132813 0v-13.800781c5.597656 1.40625 11.308593 2.300781 17.066406 2.679687v11.121094zm-25.597657-85.335938h34.132813c.023437.195313-.019531.390626-.121094.554688l-11.324219 13.542969c-1.332031 1.785156-3.398437 2.875-5.621093 2.96875-2.222657-.097657-4.285157-1.1875-5.617188-2.96875l-11.324219-13.542969c-.105468-.164062-.148437-.359375-.125-.554688zm0 0"/><path d="m437.453125 354.582031c4.207031-11.984375 6.367187-24.589843 6.382813-37.292969-.449219-30.847656-12.65625-60.363281-34.132813-82.515624-.449219-41.292969-19.679687-80.132813-52.25-105.523438 10.550781-11.835938 24.160156-20.535156 39.332031-25.140625 11.273438-2.75 22.886719-3.828125 34.472656-3.199219 19.515626 0 39.585938 0 57.941407-13.652344 13.328125-9.632812 21.714843-24.667968 22.90625-41.070312.816406-17.421875-8.546875-33.730469-23.996094-41.8125-10.78125-4.40625-22.625-5.515625-34.03125-3.183594-1.621094.179688-3.335937.46875-5.019531.765625-49.492188 9.148438-96.484375 44.433594-136.292969 102.058594-36.566406-13.386719-76.691406-13.386719-113.253906 0-39.835938-57.625-86.84375-92.910156-136.390625-102.066406-1.578125-.289063-3.335938-.578125-4.625-.714844-11.539063-2.367187-23.519532-1.25-34.421875 3.207031-15.445313 8.09375-24.796875 24.410156-23.96875 41.832032 1.214843 16.355468 9.585937 31.34375 22.875 40.957031 18.375 13.707031 38.503906 13.714843 57.960937 13.65625 11.582032-.621094 23.195313.457031 34.464844 3.199219 15.175781 4.601562 28.785156 13.300781 39.339844 25.136718-32.574219 25.398438-51.800782 64.25-52.242188 105.550782-21.472656 22.152343-33.683594 51.667968-34.132812 82.515624.019531 12.703126 2.175781 25.308594 6.382812 37.292969-19.992187 11.800781-74.648437 52.792969-74.648437 148.992188 0 4.710937 3.820312 8.53125 8.53125 8.53125h162.132812c.078125 0 .144531-.042969.222657-.042969 2.988281-.019531 5.945312-.5625 8.746093-1.601562.367188-.140626.722657-.304688 1.066407-.496094l40.714843-22.050782c4.710938 4.53125 10.980469 7.082032 17.519531 7.125h34.132813c6.53125-.042968 12.796875-2.59375 17.5-7.125l40.703125 22.058594c.351562.1875.707031.351563 1.078125.496094 2.824219 1.0625 5.820313 1.617188 8.839844 1.636719h.144531 162.132812c4.714844 0 8.535157-3.820313 8.535157-8.53125 0-96.199219-54.613281-137.191407-74.652344-148.992188zm14.617187-335.832031c1.28125-.230469 2.636719-.460938 4.269532-.65625 8.140625-1.875 16.65625-1.265625 24.445312 1.75 9.261719 5.101562 14.804688 15.039062 14.277344 25.601562-.996094 11.269532-6.847656 21.546876-16.023438 28.160157-13.867187 10.265625-30.304687 10.128906-47.753906 10.238281-13.25-.628906-26.523437.691406-39.390625 3.917969-18.765625 5.671875-35.53125 16.566406-48.339843 31.410156-4.777344-3.0625-9.710938-5.867187-14.789063-8.398437 26.878906-38.132813 68.691406-81.925782 123.304687-92.023438zm-331.765624 69.011719c-12.863282-3.230469-26.132813-4.550781-39.382813-3.917969-17.484375 0-33.894531 0-47.785156-10.289062-9.140625-6.609376-14.964844-16.851563-15.964844-28.085938-.527344-10.546875 4.996094-20.476562 14.230469-25.597656 7.921875-3.027344 16.566406-3.625 24.824218-1.707032 1.28125.152344 2.636719.382813 3.859376.605469 54.65625 10.078125 96.476562 53.871094 123.355468 92.003907-5.074218 2.53125-10.011718 5.335937-14.789062 8.398437-12.808594-14.84375-29.578125-25.738281-48.347656-31.410156zm-15.460938 171.152343c1.042969 5.738282 2.46875 11.398438 4.265625 16.945313.960937 2.898437 3.390625 5.0625 6.378906 5.679687 2.988281.613282 6.082031-.410156 8.109375-2.6875 2.027344-2.28125 2.683594-5.46875 1.722656-8.367187-3.816406-11.519531-5.757812-23.574219-5.75-35.710937 0-68.265626 61.253907-123.734376 136.535157-123.734376s136.53125 55.46875 136.53125 123.734376c.003906 12.136718-1.945313 24.195312-5.769531 35.710937-1.484376 4.46875.933593 9.296875 5.402343 10.785156.867188.285157 1.777344.433594 2.6875.4375 3.679688.003907 6.949219-2.351562 8.109375-5.847656 1.796875-5.546875 3.222656-11.207031 4.265625-16.945313 12.425781 16.945313 19.222657 37.363282 19.4375 58.375 0 41.679688-27.484375 80.214844-73.683593 103.953126-7.304688-3.839844-16.015626-3.898438-23.375-.160157l-39.0625 21.332031c-4.683594-4.550781-10.949219-7.097656-17.476563-7.109374h-34.132813c-6.535156.007812-12.804687 2.5625-17.488281 7.117187l-39.371093-21.492187c-7.320313-3.675782-15.960938-3.585938-23.203126.238281-28.953124-13.671875-52.203124-37.058594-65.707031-66.09375-5.121093-11.941407-7.785156-24.789063-7.832031-37.785157.203125-21.007812 6.992188-41.425781 19.40625-58.375zm-23.324219 111.472657c14.996094 27.355469 37.839844 49.589843 65.589844 63.84375-1.265625 3.046875-1.921875 6.3125-1.9375 9.609375v42.667968c.054687 2.917969.613281 5.804688 1.652344 8.53125h-129.492188c2.953125-78.683593 46.429688-113.621093 64.1875-124.652343zm91.8125 124.242187c-2.589843.816406-5.414062.347656-7.601562-1.253906-2.191407-1.605469-3.488281-4.152344-3.492188-6.867188v-42.667968c-.019531-2.480469 1.066407-4.839844 2.960938-6.441406 2.460937-2.265626 6.054687-2.800782 9.070312-1.351563l39.449219 21.539063c-.167969 1.101562-.261719 2.210937-.28125 3.320312v8.535156c.066406 1.082032.199219 2.164063.402344 3.234375zm108.371094-25.1875c-.007813 1.394532-.347656 2.769532-.996094 4.007813-1.5 2.773437-4.386719 4.507812-7.535156 4.523437h-34.132813c-3.125 0-6-1.710937-7.492187-4.453125-.675781-1.253906-1.03125-2.65625-1.042969-4.078125v-8.535156c.015625-1.933594.691406-3.804688 1.910156-5.308594 1.582032-2.050781 4.03125-3.246094 6.625-3.222656h34.132813c4.683594.0625 8.46875 3.84375 8.53125 8.53125zm16.667969 3.234375c.199218-1.070312.332031-2.152343.398437-3.234375v-8.535156c-.019531-1.109375-.113281-2.214844-.28125-3.3125l39.132813-21.390625c2.648437-1.324219 5.789062-1.179687 8.304687.375s4.046875 4.304687 4.042969 7.261719v42.667968c.003906 2.71875-1.289062 5.273438-3.480469 6.886719-2.191406 1.609375-5.015625 2.078125-7.609375 1.261719zm67.003906 22.363281c1.058594-2.722656 1.636719-5.609374 1.703125-8.53125v-42.667968c-.058594-3.289063-.753906-6.535156-2.046875-9.558594 27.804688-14.242188 50.691406-36.5 65.707031-63.894531 17.785157 11.046875 61.234375 45.984375 64.1875 124.652343zm0 0"/><path d="m170.769531 230.507812h42.667969c3.460938-.003906 6.578125-2.101562 7.890625-5.308593 1.308594-3.203125.550781-6.882813-1.917969-9.308594 5.097656-10.46875 2.492188-23.054687-6.339844-30.636719-8.835937-7.582031-21.671874-8.25-31.242187-1.625-9.574219 6.625-13.472656 18.871094-9.488281 29.8125h-1.570313c-4.710937 0-8.53125 3.820313-8.53125 8.53125 0 4.714844 3.820313 8.535156 8.53125 8.535156zm17.066407-25.601562c0-4.710938 3.820312-8.53125 8.535156-8.53125 4.710937 0 8.53125 3.820312 8.53125 8.53125 0 4.714844-3.820313 8.535156-8.53125 8.535156-4.714844 0-8.535156-3.820312-8.535156-8.535156zm0 0"/><path d="m290.238281 221.972656c0 4.714844 3.820313 8.535156 8.53125 8.535156h42.667969c4.710938 0 8.53125-3.820312 8.53125-8.535156 0-4.710937-3.820312-8.53125-8.53125-8.53125h-1.570312c1.011718-2.734375 1.542968-5.621094 1.570312-8.535156 0-14.136719-11.460938-25.601562-25.601562-25.601562-14.136719 0-25.597657 11.464843-25.597657 25.601562.015625 3.808594.890625 7.5625 2.558594 10.984375-1.640625 1.597656-2.566406 3.792969-2.558594 6.082031zm25.597657-25.597656c4.714843 0 8.535156 3.820312 8.535156 8.53125 0 4.714844-3.820313 8.535156-8.535156 8.535156-4.710938 0-8.53125-3.820312-8.53125-8.535156 0-4.710938 3.820312-8.53125 8.53125-8.53125zm0 0"/></svg>