<svg height="512pt" viewBox="0 0 512 512.10642" width="512pt" xmlns="http://www.w3.org/2000/svg"><path d="m437.421875 354.554688c2.359375-6.792969 4.074219-13.796876 5.117187-20.914063 5.855469-3.082031 11.210938-7.03125 15.890626-11.707031 26.527343-27.378906 25.878906-71.070313-1.449219-97.648438-10.308594-10.300781-30.355469-17.550781-51.679688-22.621094-7.808593-28.636718-24.585937-54.019531-47.871093-72.421874 10.546874-11.835938 24.152343-20.53125 39.320312-25.132813 11.273438-2.746094 22.890625-3.824219 34.476562-3.199219 19.488282 0 39.574219 0 57.941407-13.652344 13.339843-9.625 21.738281-24.664062 22.9375-41.070312.816406-17.421875-8.546875-33.730469-23.996094-41.8125-10.78125-4.40625-22.625-5.515625-34.03125-3.183594-1.621094.179688-3.335937.46875-5.019531.765625-49.492188 9.148438-96.511719 44.453125-136.320313 102.09375-36.535156-13.4375-76.664062-13.4375-113.203125 0-39.859375-57.640625-86.859375-92.945312-136.414062-102.101562-1.578125-.289063-3.335938-.578125-4.625-.714844-11.539063-2.367187-23.519532-1.25-34.421875 3.207031-15.445313 8.09375-24.796875 24.410156-23.96875 41.832032 1.214843 16.355468 9.585937 31.34375 22.875 40.957031 18.382812 13.707031 38.46875 13.714843 57.960937 13.65625 11.582032-.625 23.195313.453125 34.464844 3.199219 15.171875 4.597656 28.78125 13.296874 39.332031 25.128906-23.289062 18.40625-40.066406 43.785156-47.875 72.421875-21.332031 5.070312-41.367187 12.324219-51.675781 22.625-27.332031 26.578125-27.980469 70.265625-1.453125 97.644531 4.679687 4.679688 10.035156 8.625 15.890625 11.707031 1.042969 7.117188 2.757812 14.121094 5.121094 20.917969-19.925782 11.800781-74.640625 52.785156-74.640625 149.042969 0 4.710937 3.820312 8.53125 8.53125 8.53125h162.132812c.078125 0 .144531-.042969.222657-.042969 2.988281-.019531 5.945312-.5625 8.746093-1.601562.367188-.140626.722657-.304688 1.066407-.496094l40.714843-22.050782c4.710938 4.53125 10.980469 7.082032 17.519531 7.125h34.132813c6.53125-.042968 12.796875-2.59375 17.5-7.125l40.703125 22.058594c.351562.1875.707031.351563 1.078125.496094 2.824219 1.0625 5.820313 1.617188 8.839844 1.636719h.144531 162.132812c4.714844 0 8.535157-3.820313 8.535157-8.53125 0-96.257813-54.726563-137.242188-74.683594-149.019531zm8.976563-44.6875c-20.710938 19.863281-53.589844 19.21875-73.507813-1.441407-11.648437-11.648437-21.707031-48.148437-26.90625-97.621093-.066406-.378907.046875-.761719.308594-1.042969.226562-.222657.535156-.339844.851562-.324219h.199219c49.492188 5.195312 85.953125 15.25 97.609375 26.914062 20.667969 19.917969 21.3125 52.804688 1.445313 73.515626zm-96.855469 69.527343c-4.230469-26.417969-43.722657-46.488281-93.4375-46.488281-49.71875 0-89.03125 19.976562-93.425781 46.292969-1.628907-1.476563-3.335938-2.839844-4.835938-4.460938-11.449219-12.144531-17.902344-28.15625-18.074219-44.84375 4.183594-2.71875 8.078125-5.863281 11.613281-9.386719 9.523438-9.53125 16.433594-27.402343 21.4375-46.933593 12.050782-8.226563 26.0625-13.128907 40.617188-14.207031v22.339843c-.046875 10.117188 5.898438 19.300781 15.144531 23.410157 9.246094 4.105468 20.046875 2.351562 27.523438-4.464844 7.472656 6.816406 18.273437 8.570312 27.519531 4.464844 9.246094-4.109376 15.191406-13.292969 15.144531-23.410157v-22.410156c14.5625 1.109375 28.574219 6.042969 40.621094 14.292969 5 19.5 11.945313 37.367187 21.433594 46.933594 3.527343 3.519531 7.40625 6.667968 11.582031 9.386718-.242188 18.996094-8.554688 36.988282-22.863281 49.484375zm-91.246094 17.511719c-1.425781-.386719-2.933594-.386719-4.359375 0-23.808594 6.941406-49.304688 5.226562-71.972656-4.839844-1.605469-2.355468-2.527344-5.109375-2.660156-7.960937 0-16.144531 31.574218-34.132813 76.800781-34.132813 45.226562 0 76.796875 17.988282 76.796875 34.132813-.128906 2.96875-1.105469 5.832031-2.816406 8.261719-22.636719 9.96875-48.078126 11.578124-71.789063 4.539062zm6.339844-134.828125c5.605469-1.378906 11.3125-2.308594 17.066406-2.773437v22.402343c0 4.710938-3.820313 8.53125-8.53125 8.53125-4.714844 0-8.535156-3.820312-8.535156-8.53125zm-2.054688-50.96875c-1.808593 1.535156-4.109375 2.363281-6.476562 2.332031-2.367188.027344-4.664063-.800781-6.46875-2.332031l-6.914063-6.203125h26.761719zm-15.011719 70.597656c0 4.710938-3.820312 8.53125-8.53125 8.53125-4.714843 0-8.535156-3.820312-8.535156-8.53125v-22.339843c5.753906.460937 11.460938 1.378906 17.066406 2.746093zm204.5-262.957031c1.28125-.230469 2.636719-.460938 4.269532-.65625 8.140625-1.875 16.65625-1.265625 24.445312 1.75 9.261719 5.101562 14.804688 15.039062 14.277344 25.601562-.996094 11.269532-6.847656 21.546876-16.023438 28.160157-13.867187 10.265625-30.269531 10.128906-47.753906 10.238281-13.25-.628906-26.523437.691406-39.390625 3.917969-18.757812 5.671875-35.519531 16.5625-48.332031 31.394531-4.808594-3.023438-9.773438-5.785156-14.875-8.277344 26.882812-38.121094 68.71875-82.023437 123.382812-92.128906zm-331.765624 69.011719c-12.863282-3.230469-26.132813-4.550781-39.382813-3.917969-17.449219 0-33.894531 0-47.785156-10.289062-9.140625-6.609376-14.964844-16.851563-15.964844-28.085938-.527344-10.546875 4.996094-20.476562 14.230469-25.597656 7.921875-3.03125 16.566406-3.625 24.824218-1.707032 1.28125.152344 2.636719.382813 3.859376.605469 54.714843 10.109375 96.5625 54.015625 123.441406 92.160157-5.101563 2.492187-10.066406 5.253906-14.875 8.277343-12.804688-14.855469-29.574219-25.761719-48.347656-31.445312zm135.800781 23.277343c59.996093 0 112.570312 35.765626 130.257812 86.683594-13.652343-2.457031-26.777343-4.140625-37.246093-5.242187-5.5-.617188-10.980469 1.300781-14.894532 5.214843-3.914062 3.910157-5.835937 9.390626-5.21875 14.890626 1.144532 10.8125 2.902344 24.457031 5.496094 38.546874-21.992188-9.574218-46.46875-11.882812-69.863281-6.589843v-15.460938c3.445312-1.09375 6.625-2.886719 9.335937-5.273437l11.324219-10.164063c4.542969-3.972656 6.132813-10.351562 3.984375-15.992187-2.378906-6.023438-8.25-9.9375-14.726562-9.8125h-36.898438c-6.476562-.125-12.351562 3.789062-14.730469 9.8125-2.148437 5.640625-.558593 12.019531 3.984375 15.992187l11.324219 10.164063c2.714844 2.386718 5.890625 4.179687 9.335937 5.273437v15.480469c-23.386718-5.308594-47.859374-3.011719-69.855468 6.550781 2.5625-14.078125 4.34375-27.722656 5.488281-38.527343.617187-5.5-1.304687-10.980469-5.21875-14.890626-3.914063-3.914062-9.394531-5.832031-14.894531-5.214843-10.46875 1.101562-23.621094 2.785156-37.246094 5.242187 17.6875-50.917968 70.261719-86.683594 130.261719-86.683594zm-188.84375 125.320313c7.261719-7.269531 24.183593-13.917969 47.871093-19.148437l.453126-.09375c16.277343-3.460938 32.730468-6.023438 49.289062-7.679688.375-.042969.753906.070312 1.039062.316406.261719.28125.375.664063.308594 1.039063-5.195312 49.496093-15.257812 85.976562-26.90625 97.621093-19.914062 20.664063-52.792968 21.3125-73.507812 1.453126-19.859375-20.714844-19.210938-53.59375 1.453125-73.507813zm33.980469 105.082031c7.429687-.027344 14.808593-1.230468 21.859374-3.570312 1.945313 18.144531 9.734376 35.164062 22.1875 48.496094 20.15625 21.035156 48.242188 32.605468 77.363282 31.871093 11.28125-.058593 22.515625-1.492187 33.453125-4.265625 27.855469 7.703125 57.558593 5.070313 83.625-7.414062.152343-.070313.28125-.15625.425781-.230469 6.433594-3.226563 12.492188-7.15625 18.058594-11.71875 17.332031-14.144531 28.4375-34.519531 30.921875-56.753906 7.042969 2.335937 14.410156 3.546875 21.832031 3.585937 4.347656 0 8.6875-.410156 12.960938-1.230468-1.273438 5.121093-2.949219 10.136718-5.019532 14.992187-13.597656 29.015625-36.898437 52.375-65.875 66.050781-7.296875-3.816406-15.984375-3.867187-23.324218-.136718l-39.0625 21.332031c-4.675782-4.5625-10.945313-7.125-17.476563-7.144531h-34.132813c-6.535156.007812-12.804687 2.5625-17.488281 7.117187l-39.371093-21.492187c-7.300782-3.664063-15.917969-3.585938-23.152344.210937-28.902344-13.6875-52.136719-37.019531-65.707032-65.980469-2.058593-4.855468-3.734374-9.863281-5.007812-14.984375 4.261719.828125 8.589844 1.253907 12.929688 1.265625zm-19.542969 28.867188c14.972656 27.324218 37.757812 49.5625 65.441406 63.863281-1.28125 3.0625-1.953125 6.347656-1.96875 9.667969v42.667968c.054687 2.917969.613281 5.804688 1.652344 8.53125h-129.492188c2.960938-78.964843 46.773438-113.859374 64.367188-124.765624zm91.632812 124.320312c-2.589843.816406-5.414062.347656-7.601562-1.253906-2.191407-1.605469-3.488281-4.152344-3.492188-6.867188v-42.667968c-.019531-2.480469 1.066407-4.839844 2.960938-6.441406 2.460937-2.265626 6.054687-2.800782 9.070312-1.351563l39.449219 21.539063c-.167969 1.101562-.261719 2.210937-.28125 3.320312v8.535156c.066406 1.082032.199219 2.164063.402344 3.234375zm108.371094-25.1875c-.007813 1.394532-.347656 2.769532-.996094 4.007813-1.5 2.773437-4.386719 4.507812-7.535156 4.523437h-34.132813c-3.125 0-6-1.710937-7.492187-4.453125-.675781-1.253906-1.03125-2.65625-1.042969-4.078125v-8.535156c.015625-1.933594.691406-3.804688 1.910156-5.308594 1.582032-2.050781 4.03125-3.246094 6.625-3.222656h34.132813c4.683594.0625 8.46875 3.84375 8.53125 8.53125zm16.667969 3.234375c.199218-1.070312.332031-2.152343.398437-3.234375v-8.535156c-.019531-1.109375-.113281-2.214844-.28125-3.3125l39.132813-21.390625c2.648437-1.324219 5.789062-1.179687 8.304687.375s4.046875 4.304687 4.042969 7.261719v42.667968c.003906 2.71875-1.289062 5.273438-3.480469 6.886719-2.191406 1.609375-5.015625 2.078125-7.609375 1.261719zm67.003906 22.363281c1.058594-2.722656 1.636719-5.609374 1.703125-8.53125v-42.667968c-.054687-3.320313-.761719-6.59375-2.082031-9.644532 27.734375-14.296874 50.5625-36.558593 65.554687-63.921874 17.664063 10.921874 61.441407 45.816406 64.367188 124.765624zm0 0"/><path d="m185.6875 176.4375c2.96875-3.183594 6.984375-5.191406 11.316406-5.664062 4.015625.335937 7.683594 2.402343 10.050782 5.664062 2.023437 2.289062 5.113281 3.320312 8.105468 2.710938 2.992188-.609376 5.433594-2.769532 6.402344-5.664063.964844-2.898437.316406-6.089844-1.707031-8.378906-5.554688-6.992188-13.925781-11.167969-22.851563-11.398438-9.21875.46875-17.878906 4.566407-24.082031 11.398438-3.128906 3.535156-2.800781 8.9375.734375 12.066406 3.53125 3.128906 8.933594 2.800781 12.066406-.734375zm0 0"/><path d="m305.152344 176.4375c2.355468-3.234375 5.992187-5.300781 9.976562-5.664062h.078125c4.351563.460937 8.386719 2.492187 11.355469 5.707031 3.144531 3.5 8.527344 3.792969 12.035156.65625 3.507813-3.132813 3.816406-8.515625.6875-12.03125-6.203125-6.832031-14.863281-10.929688-24.078125-11.398438-8.917969.238281-17.273437 4.414063-22.820312 11.398438-2.023438 2.289062-2.675781 5.480469-1.707031 8.378906.96875 2.894531 3.410156 5.054687 6.402343 5.664063 2.992188.609374 6.082031-.421876 8.105469-2.710938zm0 0"/></svg>