<svg height="512pt" viewBox="0 0 512 512.20252" width="512pt" xmlns="http://www.w3.org/2000/svg"><path d="m437.46875 354.671875c4.21875-11.980469 6.390625-24.585937 6.417969-37.289063-.4375-30.851562-12.648438-60.371093-34.132813-82.515624-.449218-41.292969-19.683594-80.132813-52.25-105.523438 10.546875-11.84375 24.15625-20.542969 39.332032-25.140625 11.269531-2.738281 22.882812-3.816406 34.464843-3.199219 19.539063 0 39.59375 0 57.949219-13.652344 13.328125-9.636718 21.714844-24.671874 22.902344-41.074218.824218-17.417969-8.539063-33.734375-23.996094-41.8125-10.769531-4.5390628-22.679688-5.652344-34.105469-3.183594-1.628906.179688-3.292969.472656-5.042969.761719-49.496093 9.148437-96.425781 44.433593-136.261718 102.058593-36.566406-13.382812-76.6875-13.382812-113.253906 0-39.765626-57.625-86.808594-92.910156-136.398438-102.078124-1.601562-.269532-3.308594-.5625-4.570312-.699219-11.550782-2.496094-23.585938-1.3750002-34.476563 3.210937-15.414063 8.109375-24.734375 24.421875-23.894531 41.820313 1.210937 16.359375 9.578125 31.347656 22.871094 40.960937 18.378906 13.703125 38.535156 13.566406 57.964843 13.652344 11.578125-.597656 23.183594.480469 34.449219 3.199219 15.183594 4.59375 28.800781 13.292969 39.347656 25.140625-32.5625 25.40625-51.785156 64.257812-52.230468 105.558594-21.480469 22.148437-33.691407 51.664062-34.132813 82.515624.019531 12.699219 2.179687 25.304688 6.382813 37.289063-20.039063 11.792969-74.652344 52.796875-74.652344 148.992187 0 4.714844 3.820312 8.535157 8.535156 8.535157h162.132812c.078126 0 .144532-.042969.222657-.042969 2.984375-.019531 5.941406-.5625 8.738281-1.605469.367188-.136719.726562-.304687 1.074219-.492187l40.722656-22.050782c4.707031 4.53125 10.972656 7.082032 17.507813 7.125h34.132812c6.535156-.042968 12.800781-2.59375 17.503906-7.125l40.703125 22.050782c.347657.183594.703125.347656 1.066407.492187 2.816406 1.058594 5.796874 1.617188 8.808593 1.648438.0625.003906.125.003906.1875 0h162.132813c4.710937 0 8.53125-3.820313 8.53125-8.535157 0-96.195312-54.6875-137.199218-74.683594-148.992187zm14.574219-335.828125c1.289062-.230469 2.671875-.460938 4.269531-.65625 8.136719-1.871094 16.648438-1.261719 24.4375 1.75 9.28125 5.078125 14.847656 15.007812 14.335938 25.574219-.992188 11.273437-6.847657 21.550781-16.03125 28.160156-13.824219 10.316406-30.390626 10.324219-47.738282 10.28125-13.246094-.664063-26.519531.652344-39.378906 3.910156-18.769531 5.675781-35.535156 16.574219-48.34375 31.417969-4.769531-3.0625-9.703125-5.867188-14.777344-8.394531 26.84375-38.15625 68.648438-81.949219 123.226563-92.042969zm-331.722657 69c-12.859374-3.234375-26.128906-4.550781-39.375-3.90625-17.535156-.070312-33.902343 0-47.785156-10.292969-9.132812-6.613281-14.945312-16.859375-15.941406-28.089843-.523438-10.550782 4.996094-20.480469 14.234375-25.601563 7.917969-3.039063 16.566406-3.632813 24.824219-1.707031 1.296875.15625 2.664062.386718 3.855468.597656 54.632813 10.09375 96.445313 53.886719 123.324219 92.023438-5.074219 2.53125-10.007812 5.332031-14.777343 8.398437-12.816407-14.847656-29.589844-25.742187-48.359376-31.421875zm-15.453124 171.152344c1.039062 5.742187 2.464843 11.40625 4.265624 16.957031.960938 2.898437 3.394532 5.0625 6.382813 5.675781 2.988281.617188 6.078125-.40625 8.105469-2.6875 2.027344-2.277344 2.683594-5.46875 1.726562-8.363281-3.8125-11.519531-5.746094-23.578125-5.726562-35.710937 0-68.269532 61.25-123.734376 136.53125-123.734376s136.535156 55.464844 136.535156 123.734376c.007812 12.136718-1.945312 24.195312-5.777344 35.710937-.710937 2.148437-.542968 4.492187.472656 6.515625 1.019532 2.023438 2.796876 3.558594 4.945313 4.269531.867187.285157 1.773437.433594 2.6875.4375 3.679687-.003906 6.941406-2.359375 8.097656-5.847656 1.800781-5.550781 3.222657-11.214844 4.269531-16.957031 12.425782 16.949218 19.226563 37.371094 19.4375 58.386718 0 41.660157-27.484374 80.214844-73.675781 103.945313-7.308593-3.835937-16.023437-3.890625-23.382812-.152344l-39.066407 21.332031c-4.679687-4.550781-10.949218-7.101562-17.476562-7.109374h-34.132812c-6.53125.007812-12.804688 2.5625-17.484376 7.117187l-39.363281-21.496094c-7.320312-3.6875-15.972656-3.601562-23.21875.230469-28.957031-13.671875-52.207031-37.0625-65.707031-66.097656-5.117188-11.9375-7.777344-24.78125-7.824219-37.769532.1875-21.011718 6.964844-41.429687 19.378907-58.386718zm-23.332032 111.472656c14.992188 27.359375 37.839844 49.597656 65.589844 63.855469-1.253906 3.046875-1.898438 6.3125-1.90625 9.609375v42.664062c.058594 2.921875.617188 5.808594 1.65625 8.535156h-129.527344c2.953125-78.6875 46.429688-113.621093 64.1875-124.664062zm91.777344 124.253906c-2.582031.789063-5.382812.308594-7.554688-1.292968-2.171874-1.597657-3.457031-4.132813-3.472656-6.832032v-42.664062c-.015625-2.484375 1.070313-4.84375 2.972656-6.445313 2.453126-2.269531 6.050782-2.804687 9.0625-1.347656l39.449219 21.539063c-.167969 1.097656-.261719 2.207031-.28125 3.320312v8.53125c.0625 1.085938.199219 2.167969.410157 3.234375zm108.441406-25.191406c-.007812 1.394531-.351562 2.769531-1 4.003906-1.496094 2.773438-4.382812 4.507813-7.535156 4.53125h-34.132812c-3.125-.015625-5.996094-1.726562-7.5-4.464844-.667969-1.253906-1.023438-2.648437-1.03125-4.070312v-8.53125c.011718-1.9375.6875-3.808594 1.910156-5.308594 1.582031-2.054687 4.03125-3.246094 6.621094-3.226562h34.132812c4.6875.066406 8.46875 3.847656 8.535156 8.535156zm16.664063 3.234375c.203125-1.066406.335937-2.148437.402343-3.234375v-8.53125c-.019531-1.109375-.113281-2.214844-.28125-3.3125l39.132813-21.390625c2.648437-1.324219 5.789063-1.183594 8.304687.375 2.515626 1.554687 4.046876 4.300781 4.042969 7.261719v42.664062c.003907 2.71875-1.289062 5.277344-3.480469 6.886719-2.191406 1.609375-5.019531 2.078125-7.613281 1.265625zm66.960937 22.367187c1.054688-2.726562 1.632813-5.613281 1.707032-8.535156v-42.664062c-.058594-3.289063-.753907-6.535156-2.046876-9.558594 27.800782-14.25 50.691407-36.511719 65.707032-63.90625 17.773437 11.09375 61.234375 45.996094 64.195312 124.664062zm0 0"/><path d="m237.441406 349.519531c2.730469 3.246094 6.230469 5.757813 10.179688 7.304688v35.90625h-25.601563c-4.710937 0-8.53125 3.824219-8.53125 8.535156 0 4.714844 3.820313 8.535156 8.53125 8.535156h68.265625c4.714844 0 8.535156-3.820312 8.535156-8.535156 0-4.710937-3.820312-8.535156-8.535156-8.535156h-25.597656v-35.914063c3.945312-1.546875 7.441406-4.054687 10.171875-7.296875l11.332031-13.542969c4.453125-5.441406 5.371094-12.964843 2.355469-19.320312-2.433594-5.550781-7.882813-9.167969-13.945313-9.257812h-36.898437c-6.070313.074218-11.539063 3.695312-13.976563 9.257812-3.015624 6.355469-2.097656 13.878906 2.355469 19.320312zm35.777344-25.054687c.027344.195312-.015625.390625-.117188.554687l-11.324218 13.542969c-1.335938 1.785156-3.398438 2.875-5.625 2.96875-2.21875-.097656-4.28125-1.1875-5.613282-2.96875l-11.324218-13.542969c-.105469-.164062-.148438-.359375-.128906-.554687zm0 0"/><path d="m170.820312 290.332031c0 14.140625 11.460938 25.601563 25.601563 25.601563 14.136719 0 25.597656-11.460938 25.597656-25.601563 0-14.136719-11.460937-25.601562-25.597656-25.601562-14.140625 0-25.601563 11.464843-25.601563 25.601562zm34.132813 0c0 4.714844-3.820313 8.535157-8.53125 8.535157-4.714844 0-8.535156-3.820313-8.535156-8.535157 0-4.710937 3.820312-8.53125 8.535156-8.53125 4.710937 0 8.53125 3.820313 8.53125 8.53125zm0 0"/><path d="m315.886719 315.933594c14.140625 0 25.601562-11.460938 25.601562-25.601563 0-14.136719-11.460937-25.601562-25.601562-25.601562-14.136719 0-25.601563 11.464843-25.601563 25.601562 0 14.140625 11.464844 25.601563 25.601563 25.601563zm0-34.132813c4.714843 0 8.535156 3.820313 8.535156 8.53125 0 4.714844-3.820313 8.535157-8.535156 8.535157-4.710938 0-8.53125-3.820313-8.53125-8.535157 0-4.710937 3.820312-8.53125 8.53125-8.53125zm0 0"/><path d="m162.285156 273.265625c4.714844 0 8.535156-3.820313 8.535156-8.535156-.292968-4.617188 1.417969-9.136719 4.695313-12.40625 3.277344-3.265625 7.804687-4.964844 12.421875-4.660157 4.714844-.011718 8.523438-3.84375 8.507812-8.558593-.011718-4.710938-3.84375-8.519531-8.558593-8.507813-9.132813-.269531-17.972657 3.242188-24.433594 9.703125-6.460937 6.460938-9.96875 15.300781-9.699219 24.429688 0 4.714843 3.820313 8.535156 8.53125 8.535156zm0 0"/><path d="m324.421875 247.664062c4.609375-.296874 9.125 1.40625 12.390625 4.675782 3.269531 3.265625 4.972656 7.78125 4.675781 12.390625 0 4.714843 3.820313 8.535156 8.53125 8.535156 4.714844 0 8.535157-3.820313 8.535157-8.535156.269531-9.128907-3.242188-17.96875-9.703126-24.429688-6.460937-6.460937-15.296874-9.972656-24.429687-9.703125-4.714844 0-8.535156 3.820313-8.535156 8.535156 0 4.710938 3.820312 8.53125 8.535156 8.53125zm0 0"/></svg>