<svg height="512pt" viewBox="0 0 512 512.11482" width="512pt" xmlns="http://www.w3.org/2000/svg"><path d="m437.425781 354.589844c4.21875-11.980469 6.386719-24.589844 6.417969-37.292969-.453125-30.847656-12.660156-60.363281-34.136719-82.515625-.449219-41.292969-19.679687-80.132812-52.246093-105.523438 10.546874-11.835937 24.15625-20.535156 39.328124-25.140624 11.277344-2.714844 22.890626-3.792969 34.476563-3.199219 19.308594.050781 39.574219 0 57.941406-13.652344 13.328125-9.632813 21.710938-24.667969 22.902344-41.070313.824219-17.421874-8.539063-33.734374-23.996094-41.8125-10.800781-4.4179682-22.675781-5.527343-34.109375-3.183593-1.628906.179687-3.335937.46875-5.042968.765625-49.492188 9.148437-96.484376 44.433594-136.292969 102.058594-36.566407-13.386719-76.691407-13.386719-113.253907 0-39.730468-57.625-86.777343-92.910157-136.3125-102.066407-1.628906-.289062-3.34375-.578125-4.625-.714843-11.542968-2.367188-23.527343-1.2539068-34.433593 3.207031-15.429688 8.105469-24.765625 24.417969-23.933594 41.832031 1.214844 16.359375 9.589844 31.347656 22.886719 40.957031 18.371094 13.707031 38.605468 13.699219 57.949218 13.65625 11.582032-.609375 23.191407.46875 34.464844 3.199219 15.175782 4.601562 28.789063 13.300781 39.339844 25.140625-32.5625 25.402344-51.792969 64.25-52.242188 105.546875-21.472656 22.152344-33.683593 51.667969-34.132812 82.515625.023438 12.703125 2.179688 25.308594 6.382812 37.292969-20.035156 11.800781-74.648437 52.796875-74.648437 148.992187 0 4.710938 3.820313 8.53125 8.53125 8.53125h162.136719c.082031 0 .144531-.042969.230468-.042969 2.980469-.023437 5.9375-.566406 8.734376-1.601562.371093-.140625.730468-.308594 1.078124-.496094l40.710938-22.050781c4.707031 4.535156 10.976562 7.085937 17.511719 7.125h34.132812c6.53125-.039063 12.796875-2.589844 17.5-7.125l40.707031 22.058594c.347657.1875.707032.355469 1.074219.496093 2.820313 1.058594 5.800781 1.613282 8.816407 1.636719h.132812 162.167969c4.714843 0 8.535156-3.820312 8.535156-8.53125 0-96.195312-54.691406-137.191406-74.683594-148.992187zm14.625-335.828125c1.273438-.230469 2.628907-.460938 4.265625-.660157 8.144532-1.871093 16.65625-1.261718 24.449219 1.75 9.261719 5.101563 14.804687 15.039063 14.277344 25.601563-.996094 11.273437-6.847657 21.550781-16.035157 28.160156-13.824218 10.316407-30.15625 10.238281-47.734374 10.28125-13.25-.636719-26.519532.683594-39.382813 3.917969-18.765625 5.675781-35.53125 16.570312-48.339844 31.410156-4.773437-3.066406-9.710937-5.867187-14.789062-8.394531 26.855469-38.179687 68.675781-81.972656 123.289062-92.066406zm-331.777343 69.007812c-12.855469-3.242187-26.125-4.5625-39.371094-3.917969-17.535156 0-33.917969 0-47.785156-10.289062-9.128907-6.613281-14.945313-16.855469-15.941407-28.085938-.519531-10.546874 5-20.472656 14.234375-25.597656 7.917969-3.039062 16.5625-3.632812 24.824219-1.707031 1.285156.152344 2.636719.382813 3.855469.605469 54.628906 10.085937 96.445312 53.871094 123.316406 92.007812-5.074219 2.53125-10.003906 5.332032-14.773438 8.394532-12.8125-14.84375-29.585937-25.738282-48.359374-31.410157zm-15.460938 171.152344c1.042969 5.738281 2.46875 11.398437 4.265625 16.949219 1.160156 3.492187 4.429687 5.847656 8.109375 5.84375.910156-.003906 1.820312-.148438 2.6875-.433594 4.472656-1.488281 6.894531-6.316406 5.410156-10.789062-3.808594-11.519532-5.738281-23.578126-5.710937-35.710938 0-68.265625 61.253906-123.734375 136.535156-123.734375s136.53125 55.46875 136.53125 123.734375c.007813 12.136719-1.941406 24.195312-5.777344 35.710938-1.484375 4.476562.945313 9.3125 5.421875 10.796874 4.476563 1.484376 9.308594-.941406 10.792969-5.417968 1.800781-5.546875 3.226563-11.210938 4.265625-16.949219 12.425781 16.945313 19.222656 37.363281 19.433594 58.375 0 41.671875-27.488282 80.214844-73.679688 103.953125-7.308594-3.835938-16.019531-3.894531-23.378906-.160156l-39.066406 21.332031c-4.679688-4.546875-10.949219-7.097656-17.476563-7.105469h-34.132812c-6.53125.007813-12.804688 2.558594-17.484375 7.113282l-39.375-21.492188c-7.320313-3.675781-15.964844-3.585938-23.210938.238281-28.949218-13.675781-52.195312-37.054687-65.707031-66.082031-5.121094-11.945312-7.78125-24.800781-7.824219-37.796875.195313-21.003906 6.96875-41.417969 19.371094-58.375zm-23.320312 111.472656c14.992187 27.355469 37.835937 49.589844 65.585937 63.84375-1.25 3.050781-1.894531 6.3125-1.902344 9.609375v42.667969c.054688 2.917969.617188 5.804687 1.65625 8.53125h-129.527343c2.953124-78.683594 46.429687-113.621094 64.1875-124.652344zm91.765624 124.242188c-2.578124.785156-5.375.304687-7.546874-1.292969-2.167969-1.601562-3.457032-4.132812-3.46875-6.828125v-42.667969c-.003907-2.894531 1.464843-5.597656 3.894531-7.171875 2.433593-1.574219 5.496093-1.804687 8.136719-.617187l39.449218 21.535156c-.164062 1.101562-.257812 2.210938-.28125 3.320312v8.535157c.066406 1.085937.203125 2.164062.410156 3.234375zm108.449219-25.1875c-.003906 1.394531-.347656 2.773437-.996093 4.007812-1.5 2.769531-4.386719 4.503907-7.535157 4.523438h-34.132812c-3.125-.011719-5.996094-1.71875-7.5-4.453125-.667969-1.257813-1.023438-2.65625-1.035157-4.078125v-8.535157c.015626-1.933593.6875-3.804687 1.902344-5.308593 1.585938-2.050781 4.039063-3.246094 6.632813-3.222657h34.132812c2.636719-.015624 5.125 1.21875 6.707031 3.328126 1.175782 1.480468 1.820313 3.3125 1.824219 5.203124zm16.667969 3.234375c.199219-1.070313.335938-2.148438.402344-3.234375v-8.535157c-.023438-1.109374-.117188-2.214843-.285156-3.308593l39.136718-21.394531c2.644532-1.320313 5.785156-1.179688 8.300782.375 2.515624 1.558593 4.046874 4.304687 4.046874 7.261718v42.667969c0 2.71875-1.292968 5.277344-3.480468 6.886719-2.191406 1.609375-5.019532 2.078125-7.613282 1.261718zm66.960938 22.363281c1.054687-2.722656 1.632812-5.609375 1.707031-8.53125v-42.667969c-.058594-3.285156-.753907-6.527344-2.046875-9.546875 27.800781-14.25 50.6875-36.511719 65.703125-63.90625 17.785156 11.09375 61.238281 45.984375 64.199219 124.652344zm0 0"/><path d="m145.175781 290.25c.0625 51.8125 42.050781 93.804688 93.867188 93.863281h34.132812c51.816407-.058593 93.804688-42.050781 93.867188-93.863281 0-14.140625-11.460938-25.601562-25.601563-25.601562h-76.800781v-10.324219c3.941406-1.546875 7.429687-4.050781 10.15625-7.289063l11.316406-13.542968c4.453125-5.4375 5.375-12.957032 2.363281-19.308594-2.429687-5.558594-7.886718-9.183594-13.953124-9.269532h-36.898438c-6.058594.089844-11.507812 3.710938-13.941406 9.257813-3.011719 6.355469-2.09375 13.875 2.355468 19.320313l11.296876 13.542968c2.746093 3.257813 6.265624 5.773438 10.238281 7.3125v10.300782h-76.796875c-14.140625 0-25.601563 11.460937-25.601563 25.601562zm93.867188-68.269531h34.132812c.023438.195312-.023437.390625-.128906.554687l-11.316406 13.542969c-1.332031 1.785156-3.394531 2.875-5.621094 2.96875-2.21875-.097656-4.277344-1.1875-5.605469-2.96875l-11.375-13.542969c-.089844-.167968-.121094-.363281-.085937-.554687zm-68.265625 59.734375h170.664062c4.714844 0 8.535156 3.820312 8.535156 8.535156-.046874 42.394531-34.40625 76.75-76.800781 76.796875h-34.132812c-42.398438-.046875-76.753907-34.402344-76.800781-76.796875 0-4.714844 3.820312-8.535156 8.535156-8.535156zm0 0"/><path d="m213.441406 324.382812v8.53125c0 4.714844 3.820313 8.535157 8.535156 8.535157 4.710938 0 8.53125-3.820313 8.53125-8.535157v-8.53125h8.535157c0 4.710938 3.820312 8.53125 8.53125 8.53125 4.714843 0 8.535156-3.820312 8.535156-8.53125h42.667969c4.710937 0 8.53125-3.820312 8.53125-8.535156 0-4.710937-3.820313-8.53125-8.53125-8.53125h-42.667969c0-4.714844-3.820313-8.535156-8.535156-8.535156-4.710938 0-8.53125 3.820312-8.53125 8.535156h-8.535157v-8.535156c0-4.710938-3.820312-8.53125-8.53125-8.53125-4.714843 0-8.535156 3.820312-8.535156 8.53125v8.535156c-4.710937 0-8.53125 3.820313-8.53125 8.53125 0 4.714844 3.820313 8.535156 8.53125 8.535156zm0 0"/><path d="m187.84375 196.382812h51.199219c3.460937-.003906 6.578125-2.101562 7.886719-5.308593 1.3125-3.203125.554687-6.882813-1.914063-9.308594 5.097656-10.46875 2.492187-23.054687-6.339844-30.636719-8.835937-7.582031-21.671875-8.25-31.242187-1.625-9.574219 6.625-13.472656 18.871094-9.488282 29.8125h-10.101562c-4.714844 0-8.535156 3.820313-8.535156 8.53125 0 4.714844 3.820312 8.535156 8.535156 8.535156zm25.597656-25.601562c0-4.710938 3.820313-8.53125 8.535156-8.53125 4.710938 0 8.53125 3.820312 8.53125 8.53125 0 4.714844-3.820312 8.535156-8.53125 8.535156-4.714843 0-8.535156-3.820312-8.535156-8.535156zm0 0"/><path d="m264.640625 187.847656c0 4.714844 3.820313 8.535156 8.535156 8.535156h51.199219c4.714844 0 8.535156-3.820312 8.535156-8.535156 0-4.710937-3.820312-8.53125-8.535156-8.53125h-10.101562c1.007812-2.734375 1.539062-5.621094 1.570312-8.535156.070312-10.554688-6.34375-20.074219-16.15625-23.96875s-21.007812-1.367188-28.195312 6.367188c-7.1875 7.730468-8.890626 19.082031-4.289063 28.585937-1.640625 1.597656-2.5625 3.792969-2.5625 6.082031zm25.601563-25.597656c4.710937 0 8.535156 3.820312 8.535156 8.53125 0 4.714844-3.824219 8.535156-8.535156 8.535156-4.710938 0-8.535157-3.820312-8.535157-8.535156 0-4.710938 3.824219-8.53125 8.535157-8.53125zm0 0"/><path d="m139.117188 245.105469c1.605468 1.605469 3.789062 2.496093 6.058593 2.476562 2.246094.035157 4.410157-.859375 5.972657-2.476562.804687-.804688 1.441406-1.761719 1.878906-2.816407.910156-2.0625.910156-4.417968 0-6.484374-.414063-1.0625-1.054688-2.027344-1.878906-2.816407-.394532-.378906-.820313-.722656-1.28125-1.023437-.433594-.335938-.925782-.59375-1.449219-.765625-.511719-.261719-1.0625-.433594-1.628907-.515625-2.785156-.554688-5.664062.308594-7.679687 2.304687-.753906.832031-1.359375 1.785157-1.792969 2.816407-.910156 2.066406-.910156 4.421874 0 6.484374.4375 1.035157 1.046875 1.988282 1.800782 2.816407zm0 0"/><path d="m179.308594 247.582031h8.535156c4.710938 0 8.53125-3.820312 8.53125-8.535156 0-4.710937-3.820312-8.53125-8.53125-8.53125h-8.535156c-4.710938 0-8.53125 3.820313-8.53125 8.53125 0 4.714844 3.820312 8.535156 8.53125 8.535156zm0 0"/><path d="m361.070312 245.105469c1.5625 1.617187 3.722657 2.511719 5.972657 2.476562 2.269531.019531 4.453125-.871093 6.058593-2.476562.75-.828125 1.355469-1.78125 1.792969-2.816407.90625-2.0625.90625-4.417968 0-6.484374-.433593-1.03125-1.039062-1.984376-1.792969-2.816407-2.019531-1.996093-4.898437-2.859375-7.679687-2.304687-.570313.082031-1.121094.253906-1.628906.515625-.527344.171875-1.015625.429687-1.453125.765625-.457032.300781-.886719.644531-1.28125 1.023437-.824219.789063-1.464844 1.753907-1.875 2.816407-.910156 2.066406-.910156 4.421874 0 6.484374.4375 1.054688 1.078125 2.011719 1.886718 2.816407zm0 0"/><path d="m324.375 230.515625c-4.710938 0-8.53125 3.820313-8.53125 8.53125 0 4.714844 3.820312 8.535156 8.53125 8.535156h8.535156c4.710938 0 8.53125-3.820312 8.53125-8.535156 0-4.710937-3.820312-8.53125-8.53125-8.53125zm0 0"/></svg>