<svg height="512pt" viewBox="0 0 512 512.18773" width="512pt" xmlns="http://www.w3.org/2000/svg"><path d="m437.496094 354.664062c4.203125-11.984374 6.359375-24.59375 6.382812-37.292968-.445312-30.851563-12.65625-60.367188-34.132812-82.515625-.460938-41.292969-19.691406-80.128907-52.25-105.523438 10.542968-11.84375 24.152344-20.542969 39.328125-25.140625 11.273437-2.738281 22.882812-3.816406 34.46875-3.199218 19.503906 0 39.59375 0 57.941406-13.652344 13.332031-9.632813 21.71875-24.667969 22.910156-41.070313.824219-17.421875-8.539062-33.738281-23.996093-41.816406-10.75-4.5234375-22.628907-5.632813-34.03125-3.183594-1.613282.179688-3.328126.472657-5.007813.769531-49.492187 9.148438-96.488281 44.433594-136.292969 102.058594-36.566406-13.386718-76.691406-13.386718-113.257812 0-39.839844-57.625-86.851563-92.910156-136.386719-102.066406-1.585937-.289062-3.34375-.582031-4.617187-.71875-11.535157-2.496094-23.5625-1.375-34.441407 3.210938-15.445312 8.085937-24.796875 24.402343-23.96875 41.820312 1.214844 16.359375 9.589844 31.351562 22.886719 40.960938 18.363281 13.695312 38.398438 13.652343 57.957031 13.652343 11.582031-.617187 23.191407.460938 34.460938 3.199219 15.175781 4.597656 28.789062 13.296875 39.335937 25.140625-32.566406 25.40625-51.792968 64.257813-52.242187 105.558594-21.476563 22.148437-33.6875 51.664062-34.132813 82.515625.023438 12.699218 2.179688 25.308594 6.382813 37.292968-19.992188 11.792969-74.648438 52.792969-74.648438 148.992188 0 4.710938 3.820313 8.53125 8.535157 8.53125h162.132812c.074219 0 .144531-.042969.222656-.042969 2.980469-.019531 5.9375-.5625 8.738282-1.605469.371093-.136718.734374-.300781 1.082031-.492187l40.710937-22.050781c4.707032 4.53125 10.976563 7.082031 17.511719 7.125h34.132813c6.53125-.042969 12.796874-2.59375 17.503906-7.125l40.703125 22.058594c.347656.1875.707031.351562 1.074219.496093 2.828124 1.0625 5.820312 1.617188 8.839843 1.636719h.144531 162.136719c4.710938 0 8.53125-3.820312 8.53125-8.53125 0-96.199219-54.613281-137.199219-74.648437-148.992188zm14.625-335.832031c1.273437-.230469 2.621094-.460937 4.265625-.65625 8.140625-1.871093 16.652343-1.261719 24.441406 1.75 9.246094 5.101563 14.777344 15.027344 14.25 25.574219-.996094 11.269531-6.851563 21.550781-16.035156 28.160156-13.832031 10.316406-30.386719 10.324219-47.734375 10.28125-13.25-.664062-26.523438.652344-39.382813 3.910156-18.765625 5.683594-35.53125 16.578126-48.347656 31.417969-4.773437-3.0625-9.707031-5.863281-14.78125-8.394531 26.890625-38.152344 68.710937-81.945312 123.324219-92.042969zm-331.777344 69c-12.859375-3.230469-26.125-4.546875-39.371094-3.90625-17.367187 0-33.910156 0-47.785156-10.292969-9.144531-6.605468-14.972656-16.855468-15.976562-28.089843-.527344-10.550781 4.992187-20.480469 14.234374-25.601563 7.921876-3.027344 16.5625-3.621094 24.824219-1.707031 1.289063.15625 2.636719.386719 3.855469.605469 54.65625 10.089844 96.480469 53.882812 123.359375 92.015625-5.074219 2.53125-10.007813 5.335937-14.78125 8.398437-12.816406-14.84375-29.585937-25.738281-48.359375-31.421875zm-15.453125 171.15625c1.042969 5.738281 2.46875 11.398438 4.269531 16.945313 1.476563 4.476562 6.308594 6.90625 10.785156 5.425781 4.476563-1.476563 6.90625-6.308594 5.425782-10.785156-3.820313-11.519531-5.765625-23.582031-5.757813-35.71875 0-68.269531 61.25-123.734375 136.53125-123.734375s136.535157 55.464844 136.535157 123.734375c0 12.136719-1.953126 24.199219-5.777344 35.71875-1.480469 4.472656.945312 9.296875 5.417968 10.777343.863282.285157 1.769532.433594 2.679688.4375 3.679688 0 6.949219-2.359374 8.105469-5.855468 1.800781-5.546875 3.226562-11.207032 4.265625-16.945313 12.433594 16.945313 19.230468 37.367188 19.441406 58.382813 0 41.660156-27.488281 80.214844-73.679688 103.945312-7.304687-3.839844-16.019531-3.894531-23.378906-.152344l-39.074218 21.332032c-4.675782-4.550782-10.941407-7.101563-17.46875-7.109375h-34.132813c-6.53125.007812-12.804687 2.5625-17.484375 7.117187l-39.375-21.496094c-7.320312-3.671874-15.964844-3.582031-23.207031.238282-28.953125-13.675782-52.199219-37.058594-65.707031-66.089844v-.050781c-5.113282-11.925781-7.773438-24.757813-7.828126-37.734375.203126-21.011719 6.992188-41.433594 19.414063-58.382813zm-23.328125 111.476563c14.992188 27.355468 37.835938 49.59375 65.585938 63.847656-1.265626 3.046875-1.921876 6.308594-1.9375 9.609375v42.664063c.054687 2.921874.617187 5.808593 1.65625 8.535156h-129.492188c2.953125-78.6875 46.429688-113.621094 64.1875-124.65625zm91.808594 124.246094c-2.589844.816406-5.410156.347656-7.601563-1.253907-2.191406-1.605469-3.484375-4.15625-3.492187-6.871093v-42.664063c0-2.898437 1.464844-5.597656 3.894531-7.171875 2.433594-1.574219 5.496094-1.808594 8.136719-.621094l39.453125 21.539063c-.167969 1.097656-.261719 2.207031-.285157 3.320312v8.53125c.066407 1.085938.203126 2.167969.402344 3.234375zm108.375-25.191407c-.007813 1.398438-.351563 2.773438-1 4.011719-1.5 2.769531-4.386719 4.5-7.535156 4.523438h-34.132813c-3.121094-.015626-5.992187-1.71875-7.5-4.453126-.667969-1.257812-1.023437-2.65625-1.035156-4.082031v-8.53125c.015625-1.933593.6875-3.804687 1.90625-5.308593 1.582031-2.054688 4.035156-3.25 6.628906-3.226563h34.132813c4.691406.054687 8.480468 3.84375 8.535156 8.535156zm16.664062 3.234375c.203125-1.066406.335938-2.148437.402344-3.234375v-8.53125c-.023438-1.109375-.117188-2.214843-.28125-3.3125l39.132812-21.390625c2.644532-1.324218 5.789063-1.179687 8.304688.375 2.515625 1.554688 4.042969 4.304688 4.042969 7.261719v42.664063c.003906 2.722656-1.289063 5.277343-3.480469 6.886718s-5.019531 2.082032-7.613281 1.265625zm67.003906 22.367188c1.058594-2.722656 1.636719-5.613282 1.707032-8.535156v-42.664063c-.058594-3.289063-.753906-6.535156-2.046875-9.558594 27.800781-14.25 50.6875-36.511719 65.707031-63.90625 17.773438 11.09375 61.234375 45.996094 64.1875 124.664063zm0 0"/><path d="m209.648438 250.503906c2.054687.003906 4.105468-.167968 6.132812-.511718 9.027344-1.601563 16.960938-6.925782 21.863281-14.667969 1.691407-2.535157 1.902344-5.785157.550781-8.515625-1.351562-2.734375-4.054687-4.539063-7.097656-4.738282-3.042968-.195312-5.960937 1.246094-7.652344 3.78125-2.273437 3.851563-6.109374 6.523438-10.511718 7.3125-10.285156.203126-20.328125-3.113281-28.46875-9.402343-3.769532-2.828125-9.117188-2.0625-11.945313 1.707031s-2.066406 9.117188 1.707031 11.945312c10.292969 7.691407 22.597657 12.238282 35.421876 13.089844zm0 0"/><path d="m296.507812 249.992188c2.027344.34375 4.078126.515624 6.136719.511718 12.820313-.851562 25.125-5.398437 35.421875-13.089844 3.769532-2.828124 4.53125-8.175781 1.707032-11.945312-2.828126-3.769531-8.179688-4.535156-11.949219-1.707031-8.140625 6.292969-18.1875 9.605469-28.476563 9.386719-4.402344-.792969-8.238281-3.460938-10.511718-7.3125-2.617188-3.921876-7.914063-4.980469-11.835938-2.363282-3.921875 2.613282-4.980469 7.914063-2.363281 11.835938 4.902343 7.75 12.839843 13.082031 21.871093 14.683594zm0 0"/><path d="m223.71875 299.589844c-3.007812 6.351562-2.089844 13.867187 2.355469 19.308594l11.324219 13.542968c2.746093 3.253906 6.265624 5.765625 10.238281 7.296875v35.917969h-25.625c-4.714844 0-8.535157 3.820312-8.535157 8.53125 0 4.714844 3.820313 8.535156 8.535157 8.535156h68.265625c4.714844 0 8.535156-3.820312 8.535156-8.535156 0-4.710938-3.820312-8.53125-8.535156-8.53125h-25.597656v-35.917969c3.949218-1.542969 7.449218-4.050781 10.179687-7.296875l11.3125-13.542968c4.453125-5.441407 5.371094-12.957032 2.367187-19.308594-2.433593-5.554688-7.882812-9.179688-13.945312-9.269532h-36.898438c-6.074218.078126-11.542968 3.703126-13.976562 9.269532zm49.492188 7.796875c.023437.195312-.023438.390625-.128907.554687l-11.3125 13.542969c-1.332031 1.785156-3.398437 2.875-5.625 2.96875-2.222656-.09375-4.285156-1.183594-5.613281-2.96875l-11.324219-13.542969c-.105469-.164062-.152343-.359375-.128906-.554687zm0 0"/></svg>