<svg height="504pt" viewBox="0 0 504.48931 504" width="504pt" xmlns="http://www.w3.org/2000/svg"><path d="m222.550781 346.078125c-2.246093-.085937-4.425781.757813-6.027343 2.328125-1.605469 1.570312-2.492188 3.734375-2.449219 5.980469-.152344 6.035156-1.558594 11.972656-4.132813 17.433593-5.804687 12.640626-13.847656 16.71875-24.003906 12.070313-4.0625-1.5625-7.285156-4.75-8.886719-8.796875-1.417969-5.847656-.566406-12.019531 2.382813-17.265625 2.457031-5.515625 6.039062-10.460937 10.515625-14.511719 2.335937-1.960937 3.421875-5.027344 2.84375-8.019531-.574219-2.992187-2.730469-5.4375-5.625-6.386719-2.894531-.949218-6.078125-.253906-8.3125 1.816406-6.242188 5.621094-11.242188 12.480469-14.679688 20.144532-4.882812 9.152344-5.953125 19.859375-2.980469 29.796875 3.085938 8.367187 9.515626 15.078125 17.742188 18.523437 4.652344 2.164063 9.714844 3.3125 14.847656 3.355469 11.472656 0 23.417969-6.269531 31.417969-23.710937 3.554687-7.605469 5.480469-15.871094 5.65625-24.265626.027344-2.226562-.832031-4.375-2.390625-5.96875-1.5625-1.59375-3.691406-2.5-5.917969-2.523437zm0 0"/><path d="m324.75 330.691406c-2.238281-2.066406-5.421875-2.761718-8.316406-1.8125-2.894532.949219-5.046875 3.390625-5.625 6.382813-.578125 2.992187.511718 6.0625 2.84375 8.019531 4.484375 4.0625 8.066406 9.019531 10.515625 14.546875 2.949219 5.246094 3.800781 11.417969 2.386719 17.265625-1.613282 4.03125-4.835938 7.203125-8.890626 8.753906-10.148437 4.632813-18.203124.570313-24.003906-12.070312-2.574218-5.460938-3.980468-11.398438-4.128906-17.433594-.046875-4.601562-3.792969-8.308594-8.394531-8.308594h-.085938c-2.222656.023438-4.351562.929688-5.910156 2.519532-1.558594 1.589843-2.421875 3.730468-2.398437 5.957031.175781 8.394531 2.105468 16.660156 5.65625 24.265625 8 17.441406 19.945312 23.710937 31.417968 23.710937 5.132813-.042969 10.195313-1.191406 14.847656-3.355469 8.246094-3.4375 14.6875-10.148437 17.785157-18.523437 2.972656-9.9375 1.902343-20.644531-2.976563-29.796875-3.457031-7.65625-8.472656-14.507812-14.722656-20.121094zm0 0"/><path d="m233.386719 125.632812c4.445312 5.640626 11.234375 8.929688 18.414062 8.929688 7.183594 0 13.96875-3.289062 18.414063-8.929688l11.132812-13.320312c4.375-5.351562 5.28125-12.746094 2.324219-18.996094-2.390625-5.464844-7.757813-9.027344-13.722656-9.113281h-36.292969c-5.976562.074219-11.355469 3.640625-13.75 9.113281-2.957031 6.25-2.054688 13.640625 2.316406 18.996094zm35.203125-24.644531c.019531.191407-.023438.382813-.128906.546875l-11.128907 13.320313c-1.308593 1.753906-3.339843 2.828125-5.53125 2.921875-2.1875-.097656-4.214843-1.167969-5.523437-2.921875l-11.136719-13.320313c-.101563-.164062-.148437-.355468-.125-.546875zm0 0"/><path d="m207.710938 81.382812c2.894531-3.480468 2.503906-8.632812-.878907-11.640624-3.382812-3.007813-8.542969-2.789063-11.660156.492187-2.320313 3.183594-5.898437 5.214844-9.820313 5.574219h-.078124c-4.28125-.453125-8.25-2.449219-11.171876-5.613282-3.121093-3.304687-8.304687-3.523437-11.695312-.492187-3.386719 3.03125-3.746094 8.210937-.808594 11.679687 6.097656 6.722657 14.613282 10.753907 23.675782 11.214844 8.769531-.234375 16.988281-4.339844 22.4375-11.214844zm0 0"/><path d="m318.328125 92.597656c9.066406-.460937 17.578125-4.492187 23.675781-11.214844 2.894532-3.480468 2.507813-8.632812-.875-11.640624-3.386718-3.007813-8.542968-2.789063-11.664062.492187-2.925782 3.132813-6.878906 5.109375-11.136719 5.574219-3.953125-.332032-7.5625-2.367188-9.894531-5.574219-1.960938-2.355469-5.050782-3.457031-8.058594-2.871094-3.007812.582031-5.457031 2.761719-6.390625 5.679688-.933594 2.921875-.203125 6.117187 1.90625 8.339843 5.453125 6.875 13.667969 10.980469 22.4375 11.214844zm0 0"/><path d="m335.625 189.429688c.757812-16.660157-7.601562-32.414063-21.820312-41.125-13.671876-7.957032-30.007813-9.949219-45.191407-5.515626-10.765625 2.761719-22.054687 2.761719-32.816406 0-15.203125-4.441406-31.558594-2.441406-45.242187 5.53125-14.171876 8.71875-22.507813 24.4375-21.773438 41.058594 2 28.867188 33.019531 45.90625 61.640625 45.90625.925781 0 1.855469 0 2.769531-.058594 3.222656-.097656 6.429688-.476562 9.585938-1.132812 6.234375-1.292969 12.667968-1.292969 18.902344 0 3.136718.652344 6.324218 1.03125 9.527343 1.132812 29.511719 1.308594 62.378907-16.03125 64.417969-45.796874zm-150.074219-1.148438c-.34375-10.460938 5-20.289062 13.96875-25.683594 5.777344-3.507812 12.429688-5.300781 19.1875-5.179687 4.378907.027343 8.738281.59375 12.984375 1.679687 13.472656 3.472656 27.605469 3.472656 41.078125 0 10.734375-3.261718 22.332031-2.011718 32.128907 3.457032 8.992187 5.394531 14.351562 15.246093 13.992187 25.726562-1.527344 10.867188-8.742187 20.089844-18.917969 24.191406-6.328125-21.246094-25.828125-35.832031-47.992187-35.90625-22.164063-.078125-41.761719 14.378906-48.230469 35.578125-9.851562-4.1875-16.765625-13.257812-18.199219-23.863281zm86.261719 30.214844c-2.257812-.070313-4.503906-.335938-6.714844-.789063-8.5-1.769531-17.277344-1.769531-25.777344 0-2.210937.453125-4.457031.714844-6.714843.789063-4.335938.148437-8.675781-.175782-12.941407-.964844 4.148438-14.335938 17.292969-24.195312 32.222657-24.164062 14.925781.03125 28.027343 9.941406 32.121093 24.300781-4.027343.699219-8.113281.976562-12.195312.828125zm0 0"/><path d="m403.671875 105.34375c-4.523437-8.292969-9.398437-16.566406-14.65625-24.632812-.066406-.09375-.167969-.132813-.226563-.226563-27.058593-50.261719-79.914062-81.210937-136.988281-80.214844-57.328125-.972656-110.375 30.238281-137.367187 80.828125-4.96875 7.652344-9.734375 15.804688-14.269532 24.199219-19.765624 4.371094-38.925781 10.910156-48.480468 20.417969-11.3125 11.191406-17.8125 26.359375-18.113282 42.269531-.535156 20.597656 10.046876 39.890625 27.699219 50.511719-1.601562 11.121094-2.445312 22.339844-2.515625 33.574218 0 63.640626 36.769532 68.609376 48.042969 68.617188 7.632813-.136719 15.15625-1.820312 22.117187-4.953125-6.953124 20.042969-10.800781 41.03125-11.40625 62.238281-.386718 18.527344 4.8125 36.742188 14.921876 52.273438-23.679688 4.871094-40.105469 18.851562-40.105469 35.859375 0 37.769531 31.21875 37.769531 58.753906 37.769531 28.253906 0 51.203125-12.222656 57.1875-29.058594 14.355469 2.671875 28.933594 3.96875 43.535156 3.878906 14.601563.089844 29.179688-1.207031 43.539063-3.878906 5.984375 16.835938 28.929687 29.058594 57.183594 29.058594 23.046874 0 48.605468-.085938 56.34375-22.234375 1.820312-.523437 3.613281-1.144531 5.363281-1.863281 13.679687-5.480469 24.621093-16.175782 30.410156-29.726563 5.789063-13.554687 5.953125-28.851562.453125-42.523437-.8125-2.003906-1.753906-3.949219-2.820312-5.828125 1.464843-9.863281 3.773437-19.585938 6.898437-29.054688.898437-2.570312.496094-5.414062-1.078125-7.632812-1.578125-2.21875-4.132812-3.535157-6.851562-3.53125h-.109376c-14.535156-.128907-28.808593 3.902343-41.128906 11.617187-4.6875-.539062-9.421875-.476562-14.09375.183594-1.121094-19.625-4.917968-39-11.289062-57.597656 6.992187 3.175781 14.558594 4.890625 22.234375 5.039062 11.273437 0 48.046875-4.980468 48.046875-68.617187-.101563-11.265625-.941406-22.511719-2.519532-33.667969 17.621094-10.617188 28.179688-29.882812 27.648438-50.453125-.289062-15.90625-6.773438-31.070313-18.070312-42.269531-9.535157-9.515625-28.597657-15.996094-48.289063-20.371094zm-353.3125 62.925781c.214844-11.554687 4.9375-22.566406 13.160156-30.683593 6.269531-6.261719 22.023438-12.121094 43.644531-16.664063.285157-.058594.5625-.089844.839844-.175781 1.78125-.367188 3.597656-.730469 5.457032-1.082032.183593 0 .359374-.058593.535156-.101562 9.5625-1.785156 20.054687-3.355469 31.300781-4.554688-4.304687 41.007813-12.910156 72.398438-22.4375 81.933594-6.050781 6.105469-13.742187 10.328125-22.140625 12.164063l-.394531.058593c-2.679688.566407-5.410157.878907-8.148438.929688h-.6875c-11.058593.097656-21.683593-4.300781-29.4375-12.1875-7.753906-7.886719-11.972656-18.582031-11.691406-29.636719zm58.402344 60.601563c.234375-1.585938.542969-3.171875.839843-4.757813 5.988282-1.894531 11.648438-4.695312 16.785157-8.308593 2.316406 3.164062 4.792969 6.242187 7.429687 9.230468-1.402344 17.863282-5.878906 31.054688-11.910156 34.699219-1.402344.816406-3.101562.960937-4.617188.386719-3.246093-1.21875-5.839843-3.730469-7.160156-6.933594-2.539062-7.851562-3.007812-16.230469-1.359375-24.316406zm-1.964844 75.03125c-19.867187-.019532-31.257813-18.902344-31.257813-51.832032.066407-9.007812.660157-18.003906 1.78125-26.941406 4.632813 1.160156 9.390626 1.75 14.167969 1.761719h.660157c-2.019532 11.042969-1.125 22.421875 2.601562 33.011719 3.269531 7.644531 9.621094 13.542968 17.484375 16.242187 2.300781.730469 4.703125 1.109375 7.117187 1.117188 3.96875.007812 7.863282-1.078125 11.257813-3.140625 10.464844-6.304688 15.652344-20.019532 18.203125-34.035156 3.359375 2.886718 6.933594 5.554687 10.558594 8.082031-2.316406 31.222656-29.660156 55.742187-52.5 55.742187zm44.28125 183.183594c-31.707031 0-41.964844-1.625-41.964844-20.980469 0-8.898438 14.773438-19.0625 36.277344-20.625 13.292969 11.847656 29.144531 20.464843 46.3125 25.179687-4.414063 8.460938-20.277344 16.425782-40.625 16.425782zm201.445313 0c-20.347657 0-36.210938-7.964844-40.625-16.414063 17.171874-4.71875 33.019531-13.335937 46.316406-25.183594 21.503906 1.554688 36.273437 11.71875 36.273437 20.617188.027344 2.164062-.144531 4.328125-.503906 6.460937-.058594.203125-.109375.410156-.148437.621094-2.660157 12.65625-14.035157 13.898438-41.3125 13.898438zm72.703124-84.679688c.003907.4375.039063.871094.109376 1.300781.003906.429688.039062.859375.109374 1.285157.140626.664062.367188 1.304687.671876 1.914062.074218.265625.167968.53125.277343.789062 1.183594 1.941407 2.226563 3.96875 3.113281 6.066407 7.582032 18.605469-.472656 39.914062-18.464843 48.851562-2.082031-15.402343-17.820313-27.832031-39.851563-32.367187 7.890625-11.96875 12.765625-25.671875 14.207032-39.933594 1.316406-.285156 2.644531-.496094 3.980468-.640625 1.183594 2.542969 3.558594 4.324219 6.332032 4.753906 2.769531.425781 5.574218-.5625 7.464843-2.628906 1.179688-1.167969 2.457031-2.222656 3.828125-3.15625 6.761719-4.757813 14.507813-7.929687 22.664063-9.273437-2.003907 7.570312-3.488281 15.265624-4.441407 23.039062zm-55.917968-24.433594c.789062 19.570313-6.398438 38.621094-19.917969 52.792969-.089844.085937-.15625.179687-.242187.269531-26.65625 27.011719-73.066407 30.871094-97.347657 30.871094-35.328125 0-117.507812-8.183594-117.507812-83.933594 1.226562-27.273437 7.613281-54.070312 18.828125-78.964844 11.171875-11.253906 18.765625-25.566406 21.820312-41.128906 7.609375 4.195313 15.5625 7.734375 23.769532 10.578125.878906.308594 1.800781.472657 2.730468.484375 4.113282.011719 7.628906-2.957031 8.300782-7.015625.675781-4.054687-1.6875-8.003906-5.582032-9.324219-11.191406-3.839843-21.832031-9.125-31.652344-15.722656-8.816406-5.707031-16.855468-12.53125-23.921874-20.304687-3.59375-3.933594-6.917969-8.109375-9.945313-12.496094 14.328125-19.96875 20.757813-62.449219 23.367187-87.292969.5625-5.007812-1.183593-9.996094-4.746093-13.5625-3.5625-3.5625-8.550781-5.3125-13.558594-4.75-5.734375.601563-12.441406 1.425782-19.566406 2.472656 1.476562-4.0625 3.175781-8.039062 5.085937-11.917968 24.042969-45.160156 71.425782-72.980469 122.578125-71.972656 51.179688-1.039063 98.582031 26.839843 122.542969 72.074218 1.910156 3.832032 3.589844 7.773438 5.039062 11.800782-7.117187-1.058594-13.816406-1.871094-19.550781-2.476563-4.992187-.53125-9.953125 1.230469-13.496093 4.789063-3.542969 3.558593-5.28125 8.527343-4.726563 13.519531 2.613281 24.859375 9.03125 67.324219 23.351563 87.289062-3.125 4.496094-6.566407 8.761719-10.296876 12.769531-6.96875 7.703126-14.90625 14.476563-23.613281 20.144532-9.828125 6.554687-20.464843 11.816406-31.640625 15.652344-2.886718.941406-5.039062 3.371093-5.628906 6.347656-.585938 2.976562.476562 6.042968 2.785156 8.011718 2.308594 1.972657 5.5 2.542969 8.347656 1.496094 8.21875-2.863281 16.1875-6.402344 23.820313-10.578125 3.039063 15.488281 10.574219 29.738281 21.671875 40.960938 11.242188 24.941406 17.65625 51.789062 18.902344 79.117187zm24.417968-153.945312c.277344 1.578125.613282 3.148437.839844 4.734375 1.679688 8.109375 1.230469 16.515625-1.300781 24.402343-1.328125 3.210938-3.921875 5.730469-7.167969 6.964844-1.53125.578125-3.242187.433594-4.652344-.394531-6.074218-3.660156-10.539062-16.9375-11.902343-34.488281 2.714843-3.042969 5.273437-6.199219 7.671875-9.460938 5.054687 3.570313 10.621094 6.347656 16.511718 8.242188zm34.421876 28.042968c0 32.929688-11.398438 51.8125-31.265626 51.832032-22.832031 0-50.167968-24.511719-52.5-55.777344 3.558594-2.515625 7.015626-5.109375 10.238282-7.855469 2.519531 13.933594 7.746094 27.546875 18.164062 33.835938 3.394532 2.0625 7.289063 3.148437 11.261719 3.144531 2.417969-.003906 4.820313-.382812 7.121094-1.125 7.871093-2.699219 14.226562-8.613281 17.488281-16.273438 3.730469-10.570312 4.636719-21.933593 2.621094-32.960937h.914062c4.785156-.015625 9.546875-.613281 14.183594-1.777344 1.105469 8.945313 1.699219 17.945313 1.773438 26.957031zm13.152343-53.910156c-3.542969 3.519532-7.695312 6.363282-12.253906 8.394532-5.527344 2.511718-11.558594 3.714843-17.628906 3.515624-2.867188-.042968-5.726563-.363281-8.535157-.964843-.125 0-.242187-.09375-.367187-.117188-8.257813-1.867187-15.8125-6.042969-21.78125-12.046875-9.527344-9.535156-18.132813-40.925781-22.578125-81.792968 41.007812 4.304687 72.398438 12.910156 81.933594 22.4375 8.222656 8.121093 12.941406 19.132812 13.152344 30.683593.28125 11.179688-4.035157 21.984375-11.941407 29.890625zm0 0"/><path d="m32.554688 7.644531c-9.828126 9.835938-9.828126 25.773438 0 35.605469 7.554687 7.554688 30.527343 12.449219 40.03125 14.195312 2.710937.496094 5.496093-.371093 7.449218-2.320312 1.949219-1.953125 2.816406-4.738281 2.320313-7.449219-1.78125-9.503906-6.605469-32.441406-14.195313-40.03125-9.832031-9.828125-25.769531-9.828125-35.605468 0zm23.730468 11.859375c3.25 5.828125 5.550782 12.136719 6.816406 18.6875-6.546874-1.269531-12.851562-3.570312-18.675781-6.816406-3.273437-3.277344-3.273437-8.585938 0-11.859375 3.320313-3.160156 8.53125-3.164063 11.859375-.011719zm0 0"/><path d="m34.175781 115.382812c10.023438-3.828124 23.820313-22.785156 29.292969-30.753906 1.558594-2.273437 1.902344-5.164062.921875-7.742187-.984375-2.574219-3.171875-4.503907-5.847656-5.15625-9.394531-2.292969-32.308594-7.203125-42.335938-3.359375-12.996093 4.964844-19.503906 19.519531-14.542969 32.511718 4.960938 12.996094 19.519532 19.503907 32.511719 14.542969zm-6.007812-15.667968c-4.332031 1.648437-9.183594-.523438-10.832031-4.855469-1.652344-4.332031.523437-9.183594 4.855468-10.832031 1.164063-.300782 2.371094-.425782 3.574219-.371094 5.453125.179688 10.886719.773438 16.25 1.773438-3.828125 5.464843-8.503906 10.289062-13.847656 14.285156zm0 0"/><path d="m435.441406 7.644531c-7.554687 7.554688-12.449218 30.527344-14.191406 40.03125-.5 2.710938.367188 5.496094 2.320312 7.449219 1.949219 1.949219 4.734376 2.816406 7.449219 2.320312 9.5-1.746093 32.4375-6.605468 40.027344-14.195312 9.542969-9.878906 9.40625-25.585938-.308594-35.296875-9.710937-9.714844-25.417969-9.851563-35.296875-.308594zm26.195313 17.804688c.007812 2.222656-.878907 4.359375-2.457031 5.925781-5.824219 3.246094-12.128907 5.546875-18.675782 6.816406 1.265625-6.546875 3.5625-12.851562 6.804688-18.675781 2.402344-2.402344 6.011718-3.117187 9.148437-1.820313 3.132813 1.300782 5.179688 4.359376 5.179688 7.753907zm0 0"/><path d="m487.40625 68.347656c-9.996094-3.84375-32.945312 1.082032-42.347656 3.355469-2.675782.65625-4.859375 2.585937-5.84375 5.160156s-.640625 5.46875.917968 7.742188c5.472657 7.972656 19.304688 26.925781 29.292969 30.753906 8.484375 3.621094 18.269531 2.3125 25.503907-3.410156 7.234374-5.722657 10.761718-14.945313 9.191406-24.035157-1.566406-9.089843-7.980469-16.59375-16.714844-19.558593zm-1.132812 26.515625c-1.675782 4.3125-6.507813 6.472657-10.835938 4.851563-5.347656-3.992188-10.023438-8.808594-13.851562-14.269532 6.496093-1.511718 13.183593-1.984374 19.828124-1.402343 4.324219 1.648437 6.5 6.488281 4.859376 10.820312zm0 0"/></svg>