<svg height="511pt" viewBox="-57 0 511 511.96944" width="511pt" xmlns="http://www.w3.org/2000/svg"><path d="m389.238281 367.203125c-14.78125-.132813-29.289062 3.964844-41.8125 11.808594-4.765625-.546875-9.582031-.484375-14.328125.1875-.304687-7.625-1.128906-15.21875-2.457031-22.734375 4.429687 1.222656 8.996094 1.863281 13.59375 1.90625 11.457031 0 48.84375-5.0625 48.84375-69.761719 0-75.683594-35.617187-141.652344-56.847656-174.214844-.054688-.078125-.136719-.113281-.191407-.1875-12.222656-23.921875-30.917968-43.925781-53.953124-57.738281v-35.164062c-.011719-7.386719-3.84375-14.242188-10.128907-18.125-6.285156-3.878907-14.128906-4.230469-20.738281-.933594l-18.960938 9.480468c-2.878906-2.089843-6.347656-3.21875-9.90625-3.222656h-51.199218c-3.5625.003906-7.027344 1.132813-9.90625 3.222656l-18.964844-9.480468c-6.605469-3.296875-14.453125-2.945313-20.738281.933594-6.285157 3.882812-10.113281 10.738281-10.125 18.125v35.164062c-23.140625 13.863281-41.902344 33.976562-54.117188 58.027344-21.242187 32.5625-56.816406 98.472656-56.816406 174.113281 0 64.699219 37.386719 69.761719 48.84375 69.761719 4.554687-.042969 9.082031-.667969 13.476563-1.871094-1.628907 9.070312-2.492188 18.257812-2.585938 27.46875-.390625 18.835938 4.894531 37.355469 15.171875 53.144531-24.074219 4.949219-40.773437 19.167969-40.773437 36.457031 0 38.398438 31.738281 38.398438 59.734374 38.398438 28.722657 0 52.054688-12.425781 58.136719-29.542969 14.597657 2.71875 29.417969 4.039063 44.261719 3.945313 14.839844.074218 29.648438-1.273438 44.230469-4.03125 6.023437 17.164062 29.398437 29.628906 58.171875 29.628906 23.429687 0 49.414062-.085938 57.285156-22.605469 1.847656-.53125 3.667969-1.160156 5.449219-1.894531 13.910156-5.570312 25.035156-16.441406 30.917969-30.222656 5.886718-13.777344 6.050781-29.332032.460937-43.230469-.824219-2.035156-1.785156-4.011719-2.867187-5.921875 1.488281-10.03125 3.835937-19.914062 7.015624-29.542969.914063-2.628906.492188-5.539062-1.136718-7.800781-1.699219-2.171875-4.28125-3.476562-7.039063-3.546875zm-44.988281-25.898437c-23.246094 0-51.082031-24.980469-53.375-56.765626 3.566406-2.492187 7.066406-5.121093 10.417969-7.988281 2.558593 14.199219 7.875 28.085938 18.457031 34.457031 3.460938 2.101563 7.429688 3.210938 11.476562 3.203126 2.457032-.007813 4.898438-.394532 7.238282-1.144532 8.007812-2.738281 14.472656-8.753906 17.78125-16.546875 3.804687-10.882812 4.6875-22.570312 2.5625-33.902343-2.660156-17.503907-7.460938-34.613282-14.292969-50.945313 3.570313-11.589844 5.5-23.621094 5.734375-35.746094 16.292969 35.375 25.074219 73.742188 25.785156 112.683594 0 33.476563-11.585937 52.695313-31.785156 52.695313zm-9.480469-106.421876c3.234375 9.785157 5.617188 19.832032 7.125 30.03125 1.707031 8.242188 1.253907 16.789063-1.324219 24.804688-1.347656 3.265625-3.984374 5.828125-7.285156 7.082031-1.554687.582031-3.292968.4375-4.726562-.402343-6.121094-3.683594-10.625-17.023438-12.074219-35.085938 7.121094-8.050781 13.261719-16.925781 18.285156-26.429688zm-75.945312-217.367187c1.320312-.671875 2.890625-.609375 4.152343.164063 1.261719.773437 2.035157 2.144531 2.042969 3.625v43.859374c.039063 1.480469-.726562 2.867188-2 3.625-1.261719.796876-2.847656.859376-4.171875.171876l-19.429687-9.695313v-31.988281zm-87.671875 42.1875v-33.460937c.085937-.21875.160156-.445313.222656-.671876h50.753906c.046875.226563.105469.453126.179688.671876l.042968.050781v33.410156zm-42.667969-38.398437c.003906-1.476563.769531-2.84375 2.027344-3.621094 1.253906-.773438 2.820312-.84375 4.144531-.1875l19.429688 9.78125v31.988281l-19.429688 9.710937c-1.324219.691407-2.914062.625-4.175781-.167968-1.269531-.757813-2.035157-2.144532-1.996094-3.628906zm-77.132813 243.632812c1.519532-10.300781 3.933594-20.453125 7.21875-30.335938 5.027344 9.503907 11.140626 18.390626 18.210938 26.488282-1.433594 18.160156-5.972656 31.574218-12.117188 35.285156-1.425781.835938-3.148437.980469-4.695312.390625-3.296875-1.238281-5.933594-3.789063-7.277344-7.046875-2.574218-8.007812-3.035156-16.542969-1.339844-24.78125zm-2.011718 76.367188c-20.207032 0-31.789063-19.21875-31.789063-52.695313.707031-38.875 9.457031-77.179687 25.703125-112.503906.222656 11.9375 2.117188 23.785156 5.625 35.199219-6.914062 16.457031-11.765625 33.703124-14.441406 51.347656-2.105469 11.335937-1.207031 23.027344 2.605469 33.910156 3.320312 7.769531 9.777343 13.769531 17.773437 16.511719 2.339844.746093 4.78125 1.128906 7.234375 1.136719 4.039063.007812 7.996094-1.097657 11.445313-3.191407 10.648437-6.410156 15.921875-20.378906 18.515625-34.628906 3.457031 2.933594 7.050781 5.640625 10.726562 8.199219-2.328125 31.769531-30.148437 56.714844-53.375 56.714844zm45.011718 153.597656c-32.238281 0-42.667968-1.65625-42.667968-21.332032 0-9.046874 15.019531-19.378906 36.882812-20.96875 13.515625 12.046876 29.628906 20.804688 47.085938 25.601563-4.488282 8.601563-20.617188 16.699219-41.300782 16.699219zm-17.066406-110.933594c.242188-12.117188 1.792969-24.171875 4.625-35.957031 19.011719-12.09375 32.265625-31.421875 36.691406-53.515625 7.734376 4.273437 15.820313 7.875 24.167969 10.761718 2.894531 1.023438 6.113281.417969 8.433594-1.59375 2.320313-2.007812 3.382813-5.109374 2.785156-8.121093-.601562-3.011719-2.773437-5.464844-5.6875-6.429688-11.382812-3.898437-22.207031-9.277343-32.1875-15.992187-8.882812-5.753906-17-12.609375-24.160156-20.402344l-.160156-.164062c-11.589844-12.46875-20.382813-27.273438-25.789063-43.417969-3.867187-11.496094-5.820312-23.554688-5.785156-35.683594-.035156-17.570313 4.058594-34.902344 11.945312-50.605469 9.613282-19.222656 24.011719-35.652344 41.8125-47.699218 3.65625 6.988281 10.886719 11.375 18.773438 11.382812 3.332031-.003906 6.617188-.789062 9.59375-2.285156l19.976562-10.035156c2.648438 1.652343 5.707032 2.539062 8.832032 2.558593h51.199218c3.125-.019531 6.179688-.90625 8.832032-2.558593l20.035156 10.007812c10.34375 5.242188 22.980469 1.199219 28.367188-9.070312 17.8125 12.066406 32.214843 28.527343 41.8125 47.785156 13.253906 26.503906 15.542968 57.160156 6.363281 85.335937-.1875.457031-.332031.929688-.433594 1.414063-5.382813 15.851562-14.074219 30.378906-25.496094 42.617187-.273437.265625-.527343.550781-.761719.851563-7.050781 7.683594-15.050781 14.445312-23.808593 20.113281-9.945313 6.679687-20.722657 12.027344-32.058594 15.90625-2.914063.964844-5.085937 3.421875-5.6875 6.429687-.601563 3.011719.460937 6.113282 2.78125 8.121094 2.320313 2.011719 5.542969 2.621094 8.4375 1.59375 8.371094-2.894531 16.476563-6.503906 24.234375-10.785156 4.40625 22.046875 17.613281 41.34375 36.566406 53.4375 2.875 11.792969 4.445313 23.863281 4.683594 36 0 1.921875-.085938 3.746094-.15625 5.582031-3.984375 71.988281-84.769531 79.753907-119.3125 79.753907-35.914062 0-119.464844-8.320313-119.464844-85.335938zm221.867188 110.933594c-20.761719 0-36.941406-8.148438-41.363282-16.777344 17.351563-4.835938 33.367188-13.574219 46.824219-25.546875 22.03125 1.5 37.203125 11.945313 37.203125 20.992187.027344 2.199219-.144531 4.398438-.511718 6.570313-.0625.207031-.113282.417969-.152344.632813-2.703125 12.867187-14.269532 14.128906-42 14.128906zm77.941406-44.371094c-3.648438 8.46875-10.195312 15.367188-18.464844 19.453125-2.125-15.707031-18.210937-28.363281-40.710937-32.9375 8.039062-12.140625 13.019531-26.046875 14.503906-40.535156 1.375-.296875 2.765625-.523438 4.164063-.679688 1.207031 2.582031 3.621093 4.394531 6.4375 4.828125 2.820312.433594 5.667968-.566406 7.59375-2.671875 1.195312-1.183593 2.496093-2.257812 3.890624-3.207031 6.871094-4.839844 14.746094-8.0625 23.039063-9.429688-2.035156 7.695313-3.546875 15.523438-4.515625 23.425782.003906.441406.042969.882812.113281 1.320312.003907.4375.039063.875.109375 1.304688.144532.675781.371094 1.332031.683594 1.949218.078125.269532.171875.539063.28125.800782 1.207031 1.976562 2.265625 4.039062 3.167969 6.167968 3.949219 9.703126 3.847656 20.585938-.292969 30.210938zm0 0"/><path d="m144.578125 333.332031c-4.402344-1.683593-9.335937.519531-11.019531 4.921875-1.6875 4.398438.515625 9.335938 4.917968 11.019532 5.695313 2.28125 10.851563 5.71875 15.148438 10.09375 10.007812 10.019531 11.023438 19.148437 3.019531 27.164062-8.003906 8.011719-17.152343 6.996094-27.152343-3.023438-4.382813-4.292968-7.824219-9.449218-10.105469-15.144531-1.089844-2.847656-3.613281-4.898437-6.625-5.378906s-6.050781.683594-7.96875 3.050781c-1.921875 2.367188-2.433594 5.582032-1.34375 8.429688 3.132812 7.925781 7.882812 15.113281 13.941406 21.109375 7.074219 8.054687 17.113281 12.898437 27.820313 13.414062 8.894531-.203125 17.34375-3.945312 23.472656-10.394531 11.667968-11.664062 17-31.265625-3.019532-51.300781-5.988281-6.0625-13.167968-10.816407-21.085937-13.960938zm0 0"/><path d="m285.132812 363.488281c-4.402343-1.683593-9.332031.519531-11.019531 4.917969-2.277343 5.691406-5.714843 10.847656-10.09375 15.144531-10.027343 10.027344-19.148437 11-27.160156 3.019531-8.015625-7.976562-6.988281-17.140624 3.019531-27.152343 4.292969-4.382813 9.453125-7.824219 15.148438-10.101563 4.398437-1.6875 6.601562-6.621094 4.917968-11.023437-1.683593-4.398438-6.621093-6.601563-11.019531-4.917969-7.925781 3.121094-15.113281 7.855469-21.113281 13.902344-20.019531 20.027344-14.6875 39.628906-3.019531 51.292968 6.128906 6.449219 14.578125 10.1875 23.472656 10.394532 10.710937-.511719 20.757813-5.34375 27.847656-13.390625 6.0625-5.996094 10.816407-13.183594 13.957031-21.109375 1.652344-4.394532-.554687-9.300782-4.9375-10.976563zm0 0"/><path d="m120.804688 121.738281c-2.75 10.386719 1.277343 21.386719 10.082031 27.539063 8.808593 6.15625 20.519531 6.15625 29.328125 0 8.808594-6.152344 12.835937-17.152344 10.082031-27.539063l5.597656-3.746093c2.59375-1.667969 4.082031-4.609376 3.898438-7.6875-.1875-3.078126-2.019531-5.816407-4.792969-7.160157-2.773438-1.347656-6.058594-1.09375-8.59375.667969l-5.582031 3.738281c-2.050781-1.535156-4.324219-2.753906-6.738281-3.609375v-1.570312c0-4.714844-3.820313-8.535156-8.535157-8.535156-4.710937 0-8.53125 3.820312-8.53125 8.535156v1.570312c-2.417969.855469-4.691406 2.074219-6.742187 3.609375l-5.582032-3.738281c-3.914062-2.523438-9.125-1.441406-11.710937 2.425781-2.589844 3.871094-1.601563 9.101563 2.222656 11.753907zm24.746093 14.765625c-4.710937 0-8.53125-3.820312-8.53125-8.535156 0-4.710938 3.820313-8.53125 8.53125-8.53125 4.714844 0 8.535157 3.820312 8.535157 8.53125 0 4.714844-3.820313 8.535156-8.535157 8.535156zm0 0"/><path d="m223.203125 121.738281c-2.75 10.386719 1.277344 21.386719 10.085937 27.539063 8.804688 6.15625 20.519532 6.15625 29.324219 0 8.808594-6.152344 12.835938-17.152344 10.085938-27.539063l5.597656-3.746093c2.589844-1.667969 4.082031-4.609376 3.894531-7.6875-.183594-3.078126-2.015625-5.816407-4.792968-7.160157-2.773438-1.347656-6.058594-1.09375-8.589844.667969l-5.582032 3.738281c-2.054687-1.535156-4.324218-2.753906-6.742187-3.609375v-1.570312c0-4.714844-3.820313-8.535156-8.53125-8.535156-4.714844 0-8.535156 3.820312-8.535156 8.535156v1.570312c-2.414063.855469-4.6875 2.074219-6.742188 3.609375l-5.578125-3.738281c-3.914062-2.523438-9.125-1.441406-11.714844 2.425781-2.589843 3.871094-1.597656 9.101563 2.222657 11.753907zm24.75 14.765625c-4.714844 0-8.535156-3.820312-8.535156-8.535156 0-4.710938 3.820312-8.53125 8.535156-8.53125 4.710937 0 8.53125 3.820312 8.53125 8.53125 0 4.714844-3.820313 8.535156-8.53125 8.535156zm0 0"/><path d="m230.882812 238.902344v-25.597656c0-4.714844-3.820312-8.535157-8.53125-8.535157-4.707031.183594-9.265624-1.65625-12.527343-5.054687-3.261719-3.394532-4.914063-8.027344-4.539063-12.71875v-1.511719c9.570313-2.0625 16.566406-10.285156 17.066406-20.0625-.546874-6.230469-3.558593-11.988281-8.363281-15.992187-4.804687-4.003907-11.007812-5.925782-17.238281-5.339844-6.226562-.585938-12.429688 1.335937-17.234375 5.339844-4.808594 4.003906-7.816406 9.761718-8.363281 15.992187.5 9.777344 7.496094 18 17.066406 20.0625v1.511719c.285156 4.671875-1.398438 9.25-4.640625 12.625s-7.746094 5.242187-12.425781 5.148437c-4.714844 0-8.535156 3.820313-8.535156 8.535157v25.597656c0 18.851562 15.28125 34.132812 34.132812 34.132812s34.132812-15.28125 34.132812-34.132812zm-34.132812-77.746094c5.292969 0 8.535156 2.753906 8.535156 4.265625s-3.242187 4.265625-8.535156 4.265625c-5.289062 0-8.53125-2.761719-8.53125-4.265625 0-1.5 3.242188-4.265625 8.53125-4.265625zm0 94.8125c-9.425781 0-17.066406-7.640625-17.066406-17.066406v-17.972656c6.675781-1.40625 12.683594-5.011719 17.066406-10.238282 4.386719 5.226563 10.394531 8.832032 17.066406 10.238282v17.972656c0 9.425781-7.640625 17.066406-17.066406 17.066406zm0 0"/><path d="m92.644531 179.339844c-.535156.09375-1.050781.265625-1.535156.511718-.546875.1875-1.066406.445313-1.546875.769532-.441406.316406-.867188.65625-1.269531 1.023437-.773438.816407-1.378907 1.769531-1.792969 2.816407-1.125 2.625-.847656 5.636718.734375 8.015624 1.585937 2.375 4.261719 3.789063 7.117187 3.757813 4.699219-.03125 8.5-3.832031 8.53125-8.53125-.023437-2.277344-.941406-4.453125-2.558593-6.058594-2.003907-2.019531-4.894531-2.890625-7.679688-2.304687zm0 0"/><path d="m145.550781 179.167969h-25.597656c-4.714844 0-8.535156 3.820312-8.535156 8.535156 0 4.710937 3.820312 8.53125 8.535156 8.53125h25.597656c4.714844 0 8.535157-3.820313 8.535157-8.53125 0-4.714844-3.820313-8.535156-8.535157-8.535156zm0 0"/><path d="m293.09375 193.761719c3.363281 3.300781 8.75 3.300781 12.117188 0 .75-.832031 1.355468-1.785157 1.792968-2.816407.910156-2.066406.910156-4.417968 0-6.484374-.433594-1.035157-1.039062-1.988282-1.792968-2.816407-3.421876-3.15625-8.695313-3.15625-12.117188 0-.753906.828125-1.359375 1.78125-1.792969 2.816407-.910156 2.066406-.910156 4.417968 0 6.484374.433594 1.03125 1.039063 1.984376 1.792969 2.816407zm0 0"/><path d="m273.550781 179.167969h-25.597656c-4.714844 0-8.535156 3.820312-8.535156 8.535156 0 4.710937 3.820312 8.53125 8.535156 8.53125h25.597656c4.714844 0 8.535157-3.820313 8.535157-8.53125 0-4.714844-3.820313-8.535156-8.535157-8.535156zm0 0"/></svg>